<svg xmlns="http://www.w3.org/2000/svg" xmlns:xlink="http://www.w3.org/1999/xlink" width="300" zoomAndPan="magnify" viewBox="0 0 224.87999 225" height="300" preserveAspectRatio="xMidYMid meet" version="1.0"><defs><clipPath id="423b34613f"><path d="M 0 0.0585938 L 224.761719 0.0585938 L 224.761719 224.9375 L 0 224.9375 Z M 0 0.0585938 " clip-rule="nonzero"/></clipPath><clipPath id="ff3731fa99"><path d="M 35.386719 159.292969 L 189.738281 159.292969 L 189.738281 224.9375 L 35.386719 224.9375 Z M 35.386719 159.292969 " clip-rule="nonzero"/></clipPath></defs><g clip-path="url(#423b34613f)"><path fill="#e1efff" d="M 224.90625 112.511719 C 224.90625 50.574219 174.386719 0.0585938 112.453125 0.0585938 C 50.515625 0.0585938 0 50.574219 0 112.511719 C 0 174.449219 50.515625 224.964844 112.453125 224.964844 C 174.386719 224.964844 224.90625 174.449219 224.90625 112.511719 " fill-opacity="1" fill-rule="evenodd"/></g><path fill="#784132" d="M 125.429688 150.957031 C 127.703125 150.957031 129.96875 150.613281 132.132812 149.902344 C 132.148438 149.898438 132.160156 149.894531 132.175781 149.886719 C 135.34375 148.847656 138.46875 147.472656 141.796875 147.289062 C 144.664062 147.132812 147.507812 147.875 150.378906 147.976562 C 153.347656 148.082031 155.507812 147.871094 158.210938 146.640625 L 158.210938 80.679688 C 158.210938 55.410156 137.722656 34.921875 112.449219 34.921875 C 87.179688 34.921875 66.691406 55.410156 66.691406 80.679688 L 66.691406 146.640625 C 69.394531 147.875 71.550781 148.082031 74.523438 147.976562 C 77.394531 147.875 80.234375 147.132812 83.105469 147.289062 C 86.433594 147.472656 89.558594 148.847656 92.722656 149.886719 C 92.738281 149.890625 92.753906 149.898438 92.765625 149.902344 C 94.929688 150.613281 97.195312 150.957031 99.472656 150.957031 L 125.429688 150.957031 " fill-opacity="1" fill-rule="evenodd"/><g clip-path="url(#ff3731fa99)"><path fill="#bfe69f" d="M 189.351562 194.558594 L 189.351562 183.035156 C 189.351562 170.238281 178.980469 159.859375 166.179688 159.859375 L 58.722656 159.859375 C 45.925781 159.859375 35.550781 170.234375 35.550781 183.035156 L 35.550781 194.558594 C 55.660156 213.417969 82.707031 224.964844 112.453125 224.964844 C 142.195312 224.964844 169.242188 213.417969 189.351562 194.558594 " fill-opacity="1" fill-rule="evenodd"/></g><path fill="#f2b9a3" d="M 134.46875 97.027344 L 147.414062 97.027344 C 148.796875 96.492188 150.324219 96.238281 151.914062 96.332031 C 157.371094 96.644531 161.75 101.097656 161.984375 106.558594 C 162.25 112.6875 157.355469 117.75 151.277344 117.75 C 149.648438 117.75 148.105469 117.382812 146.722656 116.734375 L 134.464844 116.734375 L 134.464844 97.027344 L 134.46875 97.027344 " fill-opacity="1" fill-rule="evenodd"/><path fill="#f2b9a3" d="M 97.378906 97.027344 L 78.183594 97.027344 C 76.984375 96.566406 75.679688 96.3125 74.316406 96.3125 C 68.320312 96.3125 63.472656 101.238281 63.605469 107.265625 C 63.726562 112.90625 68.277344 117.53125 73.910156 117.738281 C 75.691406 117.804688 77.375 117.4375 78.875 116.730469 L 97.375 116.730469 L 97.375 97.027344 L 97.378906 97.027344 " fill-opacity="1" fill-rule="evenodd"/><path fill="#aacc8b" d="M 122.890625 190.8125 L 112.449219 180.570312 L 127.152344 159.863281 L 144.082031 159.863281 L 122.890625 190.8125 " fill-opacity="1" fill-rule="evenodd"/><path fill="#aacc8b" d="M 80.8125 159.863281 L 97.742188 159.863281 L 112.449219 180.570312 L 102.003906 190.8125 L 80.8125 159.863281 " fill-opacity="1" fill-rule="evenodd"/><path fill="#f2b9a3" d="M 112.449219 180.570312 L 97.742188 159.863281 L 99.785156 133.078125 L 125.109375 133.078125 L 127.152344 159.863281 L 112.449219 180.570312 " fill-opacity="1" fill-rule="evenodd"/><path fill="#f4baa6" d="M 78.179688 89.832031 L 78.179688 109.800781 C 78.179688 128.921875 93.679688 144.421875 112.796875 144.421875 C 131.917969 144.421875 147.417969 128.921875 147.417969 109.800781 L 147.417969 89.832031 C 147.417969 89.832031 98.058594 94.132812 98.058594 56.191406 C 98.058594 56.191406 99.613281 78.363281 78.179688 89.832031 " fill-opacity="1" fill-rule="evenodd"/></svg>