<svg xmlns="http://www.w3.org/2000/svg" xmlns:xlink="http://www.w3.org/1999/xlink" width="300" zoomAndPan="magnify" viewBox="0 0 224.87999 225" height="300" preserveAspectRatio="xMidYMid meet" version="1.0"><defs><clipPath id="f1ecdb004f"><path d="M 0 0.0585938 L 198 0.0585938 L 198 211 L 0 211 Z M 0 0.0585938 " clip-rule="nonzero"/></clipPath><clipPath id="d788c5ce08"><path d="M 97 0.0585938 L 223.378906 0.0585938 L 223.378906 202 L 97 202 Z M 97 0.0585938 " clip-rule="nonzero"/></clipPath><clipPath id="1d09bc3c38"><path d="M 30 145 L 186 145 L 186 223.441406 L 30 223.441406 Z M 30 145 " clip-rule="nonzero"/></clipPath><clipPath id="968b8d29b5"><path d="M 97 160 L 193 160 L 193 223.441406 L 97 223.441406 Z M 97 160 " clip-rule="nonzero"/></clipPath><clipPath id="e5b8cac43c"><path d="M 97 176 L 126 176 L 126 223.441406 L 97 223.441406 Z M 97 176 " clip-rule="nonzero"/></clipPath><clipPath id="cc677c8304"><path d="M 106 217 L 121 217 L 121 223.441406 L 106 223.441406 Z M 106 217 " clip-rule="nonzero"/></clipPath><clipPath id="4b57f835ed"><path d="M 69 137 L 110 137 L 110 223.441406 L 69 223.441406 Z M 69 137 " clip-rule="nonzero"/></clipPath><clipPath id="5c9031e6f7"><path d="M 113 137 L 155 137 L 155 223.441406 L 113 223.441406 Z M 113 137 " clip-rule="nonzero"/></clipPath></defs><g clip-path="url(#f1ecdb004f)"><path fill="#cbe2ff" d="M 111.691406 210.917969 L 155.929688 199.75 C 181.191406 178.765625 197.289062 147.132812 197.289062 111.75 C 197.289062 57.171875 159.027344 11.492188 107.851562 0.105469 C 47.949219 2.152344 0 51.367188 0 111.75 C 0 142.769531 12.652344 170.824219 33.070312 191.066406 Z M 111.691406 210.917969 " fill-opacity="1" fill-rule="nonzero"/></g><g clip-path="url(#d788c5ce08)"><path fill="#bed8fb" d="M 194.976562 111.75 C 194.976562 148.355469 177.351562 180.859375 150.128906 201.234375 L 190.265625 191.113281 C 210.726562 170.824219 223.378906 142.769531 223.378906 111.75 C 223.378906 50.058594 173.382812 0.0585938 111.691406 0.0585938 C 106.890625 0.0585938 102.136719 0.367188 97.511719 0.933594 C 152.484375 7.914062 194.976562 54.859375 194.976562 111.75 Z M 194.976562 111.75 " fill-opacity="1" fill-rule="nonzero"/></g><path fill="#365e7d" d="M 139.4375 42.378906 C 139.4375 36.664062 134.8125 32.039062 129.097656 32.039062 L 93.496094 32.039062 C 80.363281 32.039062 69.71875 42.6875 69.71875 55.816406 L 69.71875 82.214844 L 153.574219 82.214844 L 153.574219 56.210938 C 153.574219 50.496094 148.949219 45.871094 143.234375 45.871094 L 142.886719 45.871094 C 141.007812 45.828125 139.4375 44.300781 139.4375 42.378906 Z M 139.4375 42.378906 " fill-opacity="1" fill-rule="nonzero"/><path fill="#2b4d66" d="M 143.277344 45.828125 L 142.929688 45.828125 C 141.007812 45.828125 139.4375 44.257812 139.4375 42.335938 C 139.4375 36.621094 134.8125 31.996094 129.097656 31.996094 L 125.214844 31.996094 L 125.214844 82.167969 L 153.617188 82.167969 L 153.617188 56.167969 C 153.617188 50.453125 148.992188 45.828125 143.277344 45.828125 Z M 143.277344 45.828125 " fill-opacity="1" fill-rule="nonzero"/><g clip-path="url(#1d09bc3c38)"><path fill="#4a80aa" d="M 185.421875 162.535156 C 182.675781 159.828125 179.316406 157.734375 175.476562 156.558594 L 144.980469 146.914062 L 111.691406 145.738281 L 78.359375 146.914062 L 47.859375 156.558594 C 37.566406 159.785156 30.539062 169.339844 30.539062 180.160156 L 30.539062 188.492188 C 50.085938 209.128906 77.441406 222.351562 107.851562 223.355469 C 141.925781 215.804688 170.285156 193.03125 185.421875 162.535156 Z M 185.421875 162.535156 " fill-opacity="1" fill-rule="nonzero"/></g><g clip-path="url(#968b8d29b5)"><path fill="#407093" d="M 192.839844 188.492188 L 192.839844 180.160156 C 192.839844 172.527344 189.351562 165.5 183.632812 160.875 C 167.449219 193.859375 135.46875 217.726562 97.554688 222.523438 C 102.136719 223.089844 106.804688 223.398438 111.515625 223.441406 C 116.054688 223.441406 120.546875 223.179688 124.953125 222.65625 C 151.566406 219.515625 175.34375 206.992188 192.839844 188.492188 Z M 192.839844 188.492188 " fill-opacity="1" fill-rule="nonzero"/></g><path fill="#e4f6ff" d="M 114.222656 221.78125 C 120.984375 208.34375 138.566406 170.257812 133.546875 146.480469 L 111.691406 137.972656 L 89.832031 146.480469 C 84.640625 171 103.53125 210.746094 109.769531 222.960938 C 111.253906 222.566406 112.738281 222.175781 114.222656 221.78125 Z M 114.222656 221.78125 " fill-opacity="1" fill-rule="nonzero"/><g clip-path="url(#e5b8cac43c)"><path fill="#e28086" d="M 125.738281 211.136719 L 116.882812 176.277344 L 106.5 176.277344 L 97.640625 211.050781 L 108.59375 223.222656 C 111.386719 222.566406 114.089844 221.871094 116.796875 220.996094 Z M 125.738281 211.136719 " fill-opacity="1" fill-rule="nonzero"/></g><g clip-path="url(#cc677c8304)"><path fill="#dd636e" d="M 108.765625 223.398438 C 109.683594 223.441406 110.601562 223.441406 111.472656 223.441406 C 112.519531 223.441406 113.566406 223.441406 114.613281 223.398438 L 120.242188 217.160156 C 115.792969 218.730469 111.253906 219.992188 106.585938 220.996094 Z M 108.765625 223.398438 " fill-opacity="1" fill-rule="nonzero"/></g><path fill="#ffddce" d="M 130.363281 143.25 L 130.363281 123.574219 L 93.015625 123.574219 L 93.015625 143.25 C 93.015625 153.546875 111.691406 164.804688 111.691406 164.804688 C 111.691406 164.804688 130.363281 153.546875 130.363281 143.25 Z M 130.363281 143.25 " fill-opacity="1" fill-rule="nonzero"/><path fill="#ffddce" d="M 153.617188 78.722656 L 146.460938 78.722656 C 142.492188 78.722656 139.265625 75.496094 139.265625 71.523438 L 139.265625 67.597656 C 139.265625 62.40625 134.203125 58.785156 129.316406 60.398438 C 117.886719 64.195312 105.496094 64.195312 94.0625 60.398438 C 89.132812 58.785156 84.117188 62.449219 84.117188 67.597656 L 84.117188 71.523438 C 84.117188 75.496094 80.886719 78.722656 76.917969 78.722656 L 69.761719 78.722656 L 69.761719 90.460938 C 69.761719 93.46875 72.207031 95.914062 75.214844 95.914062 C 76.175781 95.914062 76.917969 96.65625 77.003906 97.613281 C 78.140625 115.808594 93.234375 130.207031 111.734375 130.207031 C 130.234375 130.207031 145.285156 115.808594 146.460938 97.613281 C 146.507812 96.65625 147.292969 95.914062 148.25 95.914062 C 151.261719 95.914062 153.707031 93.46875 153.707031 90.460938 Z M 153.617188 78.722656 " fill-opacity="1" fill-rule="nonzero"/><path fill="#ffcbbe" d="M 146.460938 78.722656 C 142.492188 78.722656 139.265625 75.496094 139.265625 71.523438 L 139.265625 67.597656 C 139.265625 62.40625 134.203125 58.785156 129.316406 60.398438 C 127.964844 60.835938 126.613281 61.226562 125.214844 61.578125 L 125.214844 100.40625 C 125.039062 113.015625 118.105469 124.011719 107.894531 129.988281 C 109.160156 130.117188 110.425781 130.207031 111.691406 130.207031 C 130.144531 130.207031 145.242188 115.808594 146.417969 97.613281 C 146.460938 96.65625 147.25 95.914062 148.207031 95.914062 C 151.21875 95.914062 153.660156 93.46875 153.660156 90.460938 L 153.660156 78.722656 Z M 146.460938 78.722656 " fill-opacity="1" fill-rule="nonzero"/><path fill="#f4fbff" d="M 93.015625 137.972656 L 78.359375 149.882812 L 93.714844 168.859375 C 95.589844 170.691406 98.515625 170.78125 100.519531 169.121094 L 112.082031 159.480469 Z M 93.015625 137.972656 " fill-opacity="1" fill-rule="nonzero"/><path fill="#f4fbff" d="M 130.363281 137.972656 L 112.082031 159.480469 L 122.945312 168.773438 C 124.953125 170.476562 127.875 170.386719 129.796875 168.554688 L 145.023438 149.882812 Z M 130.363281 137.972656 " fill-opacity="1" fill-rule="nonzero"/><g clip-path="url(#4b57f835ed)"><path fill="#365e7d" d="M 93.015625 137.972656 L 71.507812 148.53125 C 69.851562 149.316406 69.195312 151.320312 70.066406 152.9375 L 74.257812 161.09375 C 75.347656 163.1875 74.953125 165.808594 73.253906 167.464844 C 72.378906 168.335938 71.464844 169.253906 70.636719 170.082031 C 69.195312 171.523438 68.671875 173.703125 69.28125 175.625 C 74.386719 191.113281 98.820312 214.800781 108.070312 223.398438 C 108.679688 223.398438 109.335938 223.441406 109.945312 223.441406 C 103.269531 210.394531 79.492188 160.746094 93.015625 137.972656 Z M 93.015625 137.972656 " fill-opacity="1" fill-rule="nonzero"/></g><g clip-path="url(#5c9031e6f7)"><path fill="#365e7d" d="M 150.082031 167.464844 C 148.382812 165.761719 147.988281 163.1875 149.082031 161.09375 L 153.269531 152.9375 C 154.097656 151.320312 153.445312 149.316406 151.828125 148.53125 L 130.320312 137.972656 C 143.84375 160.789062 120.066406 210.351562 113.347656 223.441406 C 113.960938 223.441406 114.613281 223.398438 115.222656 223.398438 C 124.515625 214.800781 148.90625 191.15625 154.011719 175.667969 C 154.664062 173.703125 154.140625 171.566406 152.65625 170.125 C 151.917969 169.253906 150.957031 168.335938 150.082031 167.464844 Z M 150.082031 167.464844 " fill-opacity="1" fill-rule="nonzero"/></g><path fill="#dd636e" d="M 112.082031 159.4375 L 100.695312 168.949219 L 106.5 176.277344 L 116.882812 176.277344 L 122.683594 168.511719 Z M 112.082031 159.4375 " fill-opacity="1" fill-rule="nonzero"/></svg>