<svg xmlns="http://www.w3.org/2000/svg" xmlns:xlink="http://www.w3.org/1999/xlink" width="1920" zoomAndPan="magnify" viewBox="0 0 1440 374.999991" height="500" preserveAspectRatio="xMidYMid meet" version="1.0"><defs><filter x="0%" y="0%" width="100%" height="100%" id="52b5d4baeb"><feColorMatrix values="0 0 0 0 1 0 0 0 0 1 0 0 0 0 1 0 0 0 1 0" color-interpolation-filters="sRGB"/></filter><g/><mask id="ce58010820"><g filter="url(#52b5d4baeb)"><rect x="-144" width="1728" fill="#000000" y="-37.499999" height="449.999989" fill-opacity="0.6"/></g></mask><clipPath id="1bd4fe8e4b"><path d="M 106 13 L 214 13 L 214 79.441406 L 106 79.441406 Z M 106 13 " clip-rule="nonzero"/></clipPath><clipPath id="b508a9f617"><path d="M 0.480469 5 L 178 5 L 178 75 L 0.480469 75 Z M 0.480469 5 " clip-rule="nonzero"/></clipPath><clipPath id="ea16acf343"><path d="M 51 13 L 233.519531 13 L 233.519531 65 L 51 65 Z M 51 13 " clip-rule="nonzero"/></clipPath><clipPath id="1194256661"><path d="M 30 0.0585938 L 180 0.0585938 L 180 56 L 30 56 Z M 30 0.0585938 " clip-rule="nonzero"/></clipPath><clipPath id="deef7bdbf8"><rect x="0" width="234" y="0" height="80"/></clipPath><mask id="2322bdbf02"><g filter="url(#52b5d4baeb)"><rect x="-144" width="1728" fill="#000000" y="-37.499999" height="449.999989" fill-opacity="0.49"/></g></mask><clipPath id="5fb5059d1a"><path d="M 106 13 L 214 13 L 214 79.441406 L 106 79.441406 Z M 106 13 " clip-rule="nonzero"/></clipPath><clipPath id="049da372bc"><path d="M 0.640625 5 L 178 5 L 178 75 L 0.640625 75 Z M 0.640625 5 " clip-rule="nonzero"/></clipPath><clipPath id="62836eb84f"><path d="M 51 13 L 233.441406 13 L 233.441406 65 L 51 65 Z M 51 13 " clip-rule="nonzero"/></clipPath><clipPath id="675f5cab81"><path d="M 30 0.0585938 L 180 0.0585938 L 180 56 L 30 56 Z M 30 0.0585938 " clip-rule="nonzero"/></clipPath><clipPath id="635e74145f"><rect x="0" width="234" y="0" height="80"/></clipPath><mask id="62b28be3b3"><g filter="url(#52b5d4baeb)"><rect x="-144" width="1728" fill="#000000" y="-37.499999" height="449.999989" fill-opacity="0.58"/></g></mask><clipPath id="6c2336c59c"><path d="M 106 13 L 214 13 L 214 79.441406 L 106 79.441406 Z M 106 13 " clip-rule="nonzero"/></clipPath><clipPath id="bc17092212"><path d="M 0.121094 5 L 177 5 L 177 75 L 0.121094 75 Z M 0.121094 5 " clip-rule="nonzero"/></clipPath><clipPath id="c935cd0770"><path d="M 30 0.0585938 L 180 0.0585938 L 180 56 L 30 56 Z M 30 0.0585938 " clip-rule="nonzero"/></clipPath><clipPath id="0d03ca16d0"><rect x="0" width="234" y="0" height="80"/></clipPath><mask id="bcb3fc13a1"><g filter="url(#52b5d4baeb)"><rect x="-144" width="1728" fill="#000000" y="-37.499999" height="449.999989" fill-opacity="0.96"/></g></mask><clipPath id="c02f804b5c"><path d="M 0.398438 144 L 1 144 L 1 145 L 0.398438 145 Z M 0.398438 144 " clip-rule="nonzero"/></clipPath><clipPath id="435d749a5f"><rect x="0" width="772" y="0" height="180"/></clipPath><mask id="dcc4ea71e1"><g filter="url(#52b5d4baeb)"><rect x="-144" width="1728" fill="#000000" y="-37.499999" height="449.999989" fill-opacity="0.58"/></g></mask><clipPath id="e4b6bdb0c0"><path d="M 107 13 L 214 13 L 214 79.441406 L 107 79.441406 Z M 107 13 " clip-rule="nonzero"/></clipPath><clipPath id="a4afc6a9f5"><path d="M 51 13 L 233.640625 13 L 233.640625 65 L 51 65 Z M 51 13 " clip-rule="nonzero"/></clipPath><clipPath id="258e3aa105"><path d="M 30 0.0585938 L 180 0.0585938 L 180 56 L 30 56 Z M 30 0.0585938 " clip-rule="nonzero"/></clipPath><clipPath id="07283c777e"><rect x="0" width="234" y="0" height="80"/></clipPath><mask id="a670cecccb"><g filter="url(#52b5d4baeb)"><rect x="-144" width="1728" fill="#000000" y="-37.499999" height="449.999989" fill-opacity="0.96"/></g></mask><clipPath id="0db02ef1cc"><rect x="0" width="489" y="0" height="180"/></clipPath><mask id="0d0581a3fd"><g filter="url(#52b5d4baeb)"><rect x="-144" width="1728" fill="#000000" y="-37.499999" height="449.999989" fill-opacity="0.58"/></g></mask><clipPath id="f427efe924"><path d="M 107 13 L 214 13 L 214 79.441406 L 107 79.441406 Z M 107 13 " clip-rule="nonzero"/></clipPath><clipPath id="68e45bc575"><path d="M 51 13 L 233.921875 13 L 233.921875 65 L 51 65 Z M 51 13 " clip-rule="nonzero"/></clipPath><clipPath id="ba0d128dd1"><path d="M 30 0.0585938 L 180 0.0585938 L 180 56 L 30 56 Z M 30 0.0585938 " clip-rule="nonzero"/></clipPath><clipPath id="7ef2a5851d"><rect x="0" width="234" y="0" height="80"/></clipPath><mask id="5054c851de"><g filter="url(#52b5d4baeb)"><rect x="-144" width="1728" fill="#000000" y="-37.499999" height="449.999989" fill-opacity="0.58"/></g></mask><clipPath id="52445ae13c"><path d="M 106 13 L 214 13 L 214 79.441406 L 106 79.441406 Z M 106 13 " clip-rule="nonzero"/></clipPath><clipPath id="16001acaee"><path d="M 51 13 L 233.601562 13 L 233.601562 65 L 51 65 Z M 51 13 " clip-rule="nonzero"/></clipPath><clipPath id="1e7f5d4f38"><path d="M 30 0.0585938 L 180 0.0585938 L 180 56 L 30 56 Z M 30 0.0585938 " clip-rule="nonzero"/></clipPath><clipPath id="a99ad03ba1"><rect x="0" width="234" y="0" height="80"/></clipPath><mask id="564359d7d9"><g filter="url(#52b5d4baeb)"><rect x="-144" width="1728" fill="#000000" y="-37.499999" height="449.999989" fill-opacity="0.58"/></g></mask><clipPath id="f635a564d3"><path d="M 106 13 L 214 13 L 214 79.441406 L 106 79.441406 Z M 106 13 " clip-rule="nonzero"/></clipPath><clipPath id="90880cd551"><path d="M 51 13 L 233.679688 13 L 233.679688 65 L 51 65 Z M 51 13 " clip-rule="nonzero"/></clipPath><clipPath id="7f95597c60"><path d="M 30 0.0585938 L 180 0.0585938 L 180 56 L 30 56 Z M 30 0.0585938 " clip-rule="nonzero"/></clipPath><clipPath id="45c0d82719"><rect x="0" width="234" y="0" height="80"/></clipPath></defs><g mask="url(#ce58010820)"><g transform="matrix(1, 0, 0, 1, 366, 198)"><g clip-path="url(#deef7bdbf8)"><g clip-path="url(#1bd4fe8e4b)"><path fill="#fd6868" d="M 213.097656 77.035156 C 212.035156 79.238281 208.335938 79.652344 206.261719 79.105469 C 199.839844 77.425781 193.574219 75.273438 187.515625 72.53125 C 185.703125 71.703125 183.8125 69.8125 185.703125 67.949219 C 187.492188 66.1875 191.089844 66.058594 193.265625 67.042969 C 198.496094 69.398438 203.957031 71.417969 209.421875 72.867188 C 211.128906 73.332031 214.238281 74.679688 213.097656 77.035156 Z M 133.089844 14.789062 C 130.96875 13.390625 127.601562 13.3125 125.347656 14.53125 C 120.246094 17.300781 114.992188 19.632812 109.527344 21.523438 C 107.636719 22.167969 105.695312 24.007812 107.40625 25.949219 C 109.0625 27.839844 112.636719 28.175781 114.863281 27.398438 C 121.101562 25.25 127.136719 22.609375 132.933594 19.449219 C 135.007812 18.335938 135.007812 16.085938 133.089844 14.789062 Z M 133.089844 14.789062 " fill-opacity="1" fill-rule="nonzero"/></g><g clip-path="url(#b508a9f617)"><path fill="#f2c70f" d="M 116.699219 60.128906 C 112.53125 64.683594 107.976562 68.878906 103.105469 72.6875 C 101.007812 74.316406 98.007812 74.574219 95.546875 73.59375 C 93.890625 72.917969 91.664062 70.613281 93.734375 69.007812 C 98.601562 65.203125 103.132812 61.007812 107.328125 56.453125 C 109.035156 54.5625 112.765625 54.691406 114.886719 55.546875 C 116.855469 56.320312 118.410156 58.261719 116.699219 60.128906 Z M 173.378906 5.441406 C 171.515625 5.105469 167.398438 5.15625 166.542969 7.515625 C 164.445312 13.339844 161.910156 18.984375 158.90625 24.394531 C 156.601562 28.566406 167.347656 30.273438 169.417969 26.519531 C 172.421875 21.109375 174.984375 15.488281 177.054688 9.636719 C 177.882812 7.308594 175.375 5.804688 173.378906 5.441406 Z M 15.617188 48.113281 C 13.75 47.804688 9.636719 47.828125 8.78125 50.183594 C 6.707031 56.011719 4.144531 61.65625 1.140625 67.066406 C -1.164062 71.234375 9.582031 72.945312 11.65625 69.191406 C 14.65625 63.777344 17.222656 58.160156 19.292969 52.308594 C 20.121094 49.976562 17.609375 48.476562 15.617188 48.113281 Z M 15.617188 48.113281 " fill-opacity="1" fill-rule="nonzero"/></g><g clip-path="url(#ea16acf343)"><path fill="#f19d42" d="M 71.128906 59.609375 C 74.445312 64.246094 63.929688 65.953125 61.496094 62.613281 C 57.71875 57.304688 54.378906 51.738281 51.503906 45.886719 C 50.363281 43.558594 53.859375 42.183594 55.492188 41.976562 C 57.796875 41.667969 61.058594 42.210938 62.171875 44.515625 C 64.761719 49.769531 67.710938 54.820312 71.128906 59.609375 Z M 232.078125 26.054688 C 227.390625 22.53125 223.015625 18.621094 218.976562 14.375 C 217.214844 12.539062 213.953125 13.003906 211.855469 13.960938 C 210.355469 14.660156 207.453125 17.015625 209.242188 18.90625 C 213.746094 23.621094 218.640625 27.917969 223.84375 31.800781 C 227.132812 34.289062 236.636719 29.496094 232.078125 26.054688 Z M 232.078125 26.054688 " fill-opacity="1" fill-rule="nonzero"/></g><g clip-path="url(#1194256661)"><path fill="#5cb7ec" d="M 56.421875 14.996094 C 54.660156 16.730469 51.011719 16.9375 48.863281 15.902344 C 42.90625 13.03125 37.183594 9.765625 31.800781 5.960938 C 29.855469 4.589844 29.855469 2.492188 31.953125 1.300781 C 34.15625 0.0585938 37.652344 0.109375 39.722656 1.585938 C 44.433594 4.898438 49.378906 7.902344 54.585938 10.414062 C 56.371094 11.269531 58.3125 13.105469 56.421875 14.996094 Z M 175.449219 46.636719 C 169.753906 47.542969 163.953125 47.878906 158.179688 47.828125 C 155.644531 47.804688 152.742188 49.746094 151.628906 52.023438 C 150.566406 54.199219 151.785156 55.933594 154.140625 55.960938 C 160.742188 56.011719 167.292969 55.46875 173.820312 54.429688 C 176.175781 54.070312 179.050781 51.789062 179.515625 49.382812 C 180.035156 46.714844 177.417969 46.328125 175.449219 46.636719 Z M 175.449219 46.636719 " fill-opacity="1" fill-rule="nonzero"/></g></g></g></g><g mask="url(#2322bdbf02)"><g transform="matrix(1, 0, 0, 1, 566, 198)"><g clip-path="url(#635e74145f)"><g clip-path="url(#5fb5059d1a)"><path fill="#f67e7e" d="M 213.167969 77.035156 C 212.109375 79.238281 208.40625 79.652344 206.332031 79.105469 C 199.914062 77.425781 193.644531 75.273438 187.585938 72.53125 C 185.773438 71.703125 183.886719 69.8125 185.773438 67.949219 C 187.5625 66.1875 191.160156 66.058594 193.335938 67.042969 C 198.566406 69.398438 204.027344 71.417969 209.492188 72.867188 C 211.203125 73.332031 214.308594 74.679688 213.167969 77.035156 Z M 133.160156 14.789062 C 131.039062 13.390625 127.671875 13.3125 125.417969 14.53125 C 120.320312 17.300781 115.0625 19.632812 109.597656 21.523438 C 107.707031 22.167969 105.765625 24.007812 107.476562 25.949219 C 109.132812 27.839844 112.707031 28.175781 114.933594 27.398438 C 121.171875 25.25 127.207031 22.609375 133.007812 19.449219 C 135.078125 18.335938 135.078125 16.085938 133.160156 14.789062 Z M 133.160156 14.789062 " fill-opacity="1" fill-rule="nonzero"/></g><g clip-path="url(#049da372bc)"><path fill="#f2c70f" d="M 116.769531 60.128906 C 112.601562 64.683594 108.046875 68.878906 103.179688 72.6875 C 101.082031 74.316406 98.078125 74.574219 95.617188 73.59375 C 93.960938 72.917969 91.734375 70.613281 93.804688 69.007812 C 98.671875 65.203125 103.203125 61.007812 107.398438 56.453125 C 109.105469 54.5625 112.835938 54.691406 114.957031 55.546875 C 116.925781 56.320312 118.480469 58.261719 116.769531 60.128906 Z M 173.449219 5.441406 C 171.585938 5.105469 167.46875 5.15625 166.613281 7.515625 C 164.515625 13.339844 161.980469 18.984375 158.976562 24.394531 C 156.671875 28.566406 167.417969 30.273438 169.488281 26.519531 C 172.492188 21.109375 175.054688 15.488281 177.125 9.636719 C 177.957031 7.308594 175.445312 5.804688 173.449219 5.441406 Z M 15.6875 48.113281 C 13.824219 47.804688 9.707031 47.828125 8.851562 50.183594 C 6.78125 56.011719 4.214844 61.65625 1.210938 67.066406 C -1.089844 71.234375 9.652344 72.945312 11.726562 69.191406 C 14.730469 63.777344 17.292969 58.160156 19.363281 52.308594 C 20.191406 49.976562 17.679688 48.476562 15.6875 48.113281 Z M 15.6875 48.113281 " fill-opacity="1" fill-rule="nonzero"/></g><g clip-path="url(#62836eb84f)"><path fill="#f19d42" d="M 71.199219 59.609375 C 74.515625 64.246094 64.003906 65.953125 61.570312 62.613281 C 57.789062 57.304688 54.449219 51.738281 51.574219 45.886719 C 50.433594 43.558594 53.929688 42.183594 55.5625 41.976562 C 57.867188 41.667969 61.128906 42.210938 62.242188 44.515625 C 64.832031 49.769531 67.78125 54.820312 71.199219 59.609375 Z M 232.148438 26.054688 C 227.460938 22.53125 223.085938 18.621094 219.046875 14.375 C 217.285156 12.539062 214.023438 13.003906 211.925781 13.960938 C 210.425781 14.660156 207.523438 17.015625 209.3125 18.90625 C 213.816406 23.621094 218.710938 27.917969 223.914062 31.800781 C 227.203125 34.289062 236.707031 29.496094 232.148438 26.054688 Z M 232.148438 26.054688 " fill-opacity="1" fill-rule="nonzero"/></g><g clip-path="url(#675f5cab81)"><path fill="#4aa6b8" d="M 56.492188 14.996094 C 54.734375 16.730469 51.082031 16.9375 48.933594 15.902344 C 42.976562 13.03125 37.253906 9.765625 31.871094 5.960938 C 29.925781 4.589844 29.925781 2.492188 32.023438 1.300781 C 34.226562 0.0585938 37.722656 0.109375 39.792969 1.585938 C 44.503906 4.898438 49.449219 7.902344 54.65625 10.414062 C 56.441406 11.269531 58.382812 13.105469 56.492188 14.996094 Z M 175.523438 46.636719 C 169.824219 47.542969 164.023438 47.878906 158.25 47.828125 C 155.714844 47.804688 152.8125 49.746094 151.699219 52.023438 C 150.640625 54.199219 151.855469 55.933594 154.210938 55.960938 C 160.816406 56.011719 167.367188 55.46875 173.890625 54.429688 C 176.246094 54.070312 179.121094 51.789062 179.585938 49.382812 C 180.105469 46.714844 177.488281 46.328125 175.523438 46.636719 Z M 175.523438 46.636719 " fill-opacity="1" fill-rule="nonzero"/></g></g></g></g><g mask="url(#62b28be3b3)"><g transform="matrix(1, 0, 0, 1, 795, 198)"><g clip-path="url(#0d03ca16d0)"><g clip-path="url(#6c2336c59c)"><path fill="#f67e7e" d="M 212.765625 77.035156 C 211.707031 79.238281 208.003906 79.652344 205.933594 79.105469 C 199.511719 77.425781 193.246094 75.273438 187.183594 72.53125 C 185.371094 71.703125 183.484375 69.8125 185.371094 67.949219 C 187.160156 66.1875 190.757812 66.058594 192.933594 67.042969 C 198.164062 69.398438 203.628906 71.417969 209.089844 72.867188 C 210.800781 73.332031 213.90625 74.679688 212.765625 77.035156 Z M 132.757812 14.789062 C 130.636719 13.390625 127.269531 13.3125 125.015625 14.53125 C 119.917969 17.300781 114.660156 19.632812 109.195312 21.523438 C 107.308594 22.167969 105.363281 24.007812 107.074219 25.949219 C 108.730469 27.839844 112.304688 28.175781 114.53125 27.398438 C 120.769531 25.25 126.804688 22.609375 132.605469 19.449219 C 134.675781 18.335938 134.675781 16.085938 132.757812 14.789062 Z M 132.757812 14.789062 " fill-opacity="1" fill-rule="nonzero"/></g><g clip-path="url(#bc17092212)"><path fill="#f2c70f" d="M 116.371094 60.128906 C 112.199219 64.683594 107.644531 68.878906 102.777344 72.6875 C 100.679688 74.316406 97.675781 74.574219 95.214844 73.59375 C 93.558594 72.917969 91.332031 70.613281 93.402344 69.007812 C 98.269531 65.203125 102.800781 61.007812 106.996094 56.453125 C 108.707031 54.5625 112.433594 54.691406 114.558594 55.546875 C 116.523438 56.320312 118.078125 58.261719 116.371094 60.128906 Z M 173.046875 5.441406 C 171.183594 5.105469 167.066406 5.15625 166.210938 7.515625 C 164.117188 13.339844 161.578125 18.984375 158.574219 24.394531 C 156.269531 28.566406 167.015625 30.273438 169.085938 26.519531 C 172.089844 21.109375 174.652344 15.488281 176.726562 9.636719 C 177.554688 7.308594 175.042969 5.804688 173.046875 5.441406 Z M 15.285156 48.113281 C 13.421875 47.804688 9.304688 47.828125 8.449219 50.183594 C 6.378906 56.011719 3.8125 61.65625 0.8125 67.066406 C -1.492188 71.234375 9.25 72.945312 11.324219 69.191406 C 14.328125 63.777344 16.890625 58.160156 18.960938 52.308594 C 19.789062 49.976562 17.277344 48.476562 15.285156 48.113281 Z M 15.285156 48.113281 " fill-opacity="1" fill-rule="nonzero"/></g><path fill="#f19d42" d="M 70.796875 59.609375 C 74.113281 64.246094 63.601562 65.953125 61.167969 62.613281 C 57.386719 57.304688 54.046875 51.738281 51.171875 45.886719 C 50.03125 43.558594 53.527344 42.183594 55.160156 41.976562 C 57.464844 41.667969 60.726562 42.210938 61.839844 44.515625 C 64.429688 49.769531 67.378906 54.820312 70.796875 59.609375 Z M 231.746094 26.054688 C 227.058594 22.53125 222.683594 18.621094 218.644531 14.375 C 216.882812 12.539062 213.621094 13.003906 211.523438 13.960938 C 210.023438 14.660156 207.121094 17.015625 208.910156 18.90625 C 213.414062 23.621094 218.308594 27.917969 223.511719 31.800781 C 226.800781 34.289062 236.304688 29.496094 231.746094 26.054688 Z M 231.746094 26.054688 " fill-opacity="1" fill-rule="nonzero"/><g clip-path="url(#c935cd0770)"><path fill="#4aa6b8" d="M 56.089844 14.996094 C 54.332031 16.730469 50.679688 16.9375 48.53125 15.902344 C 42.574219 13.03125 36.851562 9.765625 31.46875 5.960938 C 29.527344 4.589844 29.527344 2.492188 31.621094 1.300781 C 33.824219 0.0585938 37.320312 0.109375 39.390625 1.585938 C 44.101562 4.898438 49.046875 7.902344 54.253906 10.414062 C 56.039062 11.269531 57.980469 13.105469 56.089844 14.996094 Z M 175.121094 46.636719 C 169.421875 47.542969 163.625 47.878906 157.847656 47.828125 C 155.3125 47.804688 152.410156 49.746094 151.296875 52.023438 C 150.238281 54.199219 151.453125 55.933594 153.808594 55.960938 C 160.414062 56.011719 166.964844 55.46875 173.488281 54.429688 C 175.84375 54.070312 178.71875 51.789062 179.183594 49.382812 C 179.703125 46.714844 177.085938 46.328125 175.121094 46.636719 Z M 175.121094 46.636719 " fill-opacity="1" fill-rule="nonzero"/></g></g></g></g><g mask="url(#bcb3fc13a1)"><g transform="matrix(1, 0, 0, 1, 548, 96)"><g clip-path="url(#435d749a5f)"><g clip-path="url(#c02f804b5c)"><g fill="#fd6868" fill-opacity="1"><g transform="translate(0.596153, 144.307985)"><g/></g></g></g><g fill="#f2c70f" fill-opacity="1"><g transform="translate(30.110092, 144.307985)"><g><path d="M 38.058594 1.769531 C 42.484375 1.769531 46.761719 1.328125 50.894531 -0.738281 C 51.777344 -1.328125 52.664062 -1.769531 53.546875 -2.210938 C 56.5 -4.277344 59.597656 -6.195312 61.808594 -9.144531 C 63.875 -11.949219 65.941406 -14.605469 67.269531 -17.847656 C 70.070312 -24.191406 70.808594 -30.980469 69.480469 -37.910156 C 69.183594 -39.683594 68.449219 -41.601562 67.859375 -43.371094 C 67.414062 -44.402344 66.824219 -45.289062 66.382812 -46.320312 C 65.351562 -48.386719 63.726562 -50.007812 61.957031 -51.335938 C 61.21875 -51.777344 60.777344 -52.515625 60.039062 -53.105469 C 59.15625 -53.84375 58.121094 -54.582031 57.238281 -55.464844 C 55.464844 -56.941406 53.546875 -57.828125 51.484375 -58.859375 C 49.417969 -60.039062 47.207031 -60.925781 45.140625 -61.957031 C 44.550781 -62.253906 43.8125 -62.398438 43.222656 -62.84375 C 41.007812 -64.167969 38.5 -65.496094 36.289062 -66.972656 C 34.8125 -67.859375 33.488281 -68.890625 32.453125 -70.21875 C 31.421875 -71.398438 30.832031 -72.726562 30.683594 -74.199219 C 30.535156 -75.382812 30.683594 -76.707031 30.980469 -77.890625 C 31.421875 -79.214844 32.453125 -80.398438 33.632812 -81.28125 C 34.8125 -82.316406 36.140625 -83.050781 37.617188 -83.050781 C 40.714844 -83.347656 43.960938 -83.347656 47.058594 -82.460938 C 48.828125 -82.019531 50.304688 -81.28125 51.484375 -79.953125 C 52.367188 -79.070312 53.546875 -78.332031 54.582031 -77.445312 C 54.875 -77.300781 55.171875 -77.003906 55.464844 -77.003906 C 56.941406 -77.003906 58.269531 -77.152344 59.300781 -78.183594 C 60.335938 -79.214844 61.367188 -80.25 62.253906 -81.28125 C 63.726562 -83.199219 65.203125 -84.96875 66.675781 -86.886719 C 67.710938 -88.214844 67.859375 -89.542969 67.121094 -91.019531 C 66.234375 -92.492188 65.054688 -93.820312 63.875 -95.148438 C 62.253906 -97.359375 60.1875 -98.835938 57.972656 -100.3125 C 55.320312 -102.375 52.367188 -103.558594 49.269531 -104.441406 C 46.761719 -105.179688 44.253906 -105.476562 41.746094 -105.476562 C 37.320312 -105.328125 33.042969 -104.882812 29.0625 -102.820312 C 28.175781 -102.375 27.289062 -101.933594 26.40625 -101.34375 C 23.308594 -99.425781 20.355469 -97.359375 17.996094 -94.410156 C 15.933594 -91.609375 13.867188 -88.953125 12.539062 -85.707031 C 9.734375 -79.363281 9 -72.578125 10.328125 -65.792969 C 10.769531 -63.433594 11.652344 -60.925781 12.6875 -58.710938 C 13.570312 -56.792969 14.605469 -55.023438 16.226562 -53.546875 C 17.703125 -52.367188 19.03125 -51.039062 20.503906 -49.859375 C 22.273438 -48.53125 24.046875 -47.351562 25.816406 -46.023438 C 26.699219 -45.433594 27.585938 -44.992188 28.617188 -44.550781 C 30.09375 -43.8125 31.714844 -42.78125 33.339844 -42.191406 C 35.996094 -41.304688 38.207031 -39.828125 40.566406 -38.5 C 42.191406 -37.617188 43.664062 -36.585938 45.140625 -35.550781 C 46.910156 -34.371094 48.089844 -32.894531 48.828125 -30.980469 C 49.859375 -27.878906 49.125 -25.078125 46.910156 -23.011719 C 45.289062 -21.390625 43.222656 -20.652344 41.007812 -19.914062 C 39.238281 -19.472656 37.617188 -19.472656 35.847656 -20.0625 C 33.929688 -20.652344 32.160156 -21.390625 30.242188 -22.128906 C 29.503906 -22.421875 28.914062 -22.863281 28.175781 -23.308594 C 25.964844 -24.488281 24.488281 -26.554688 22.71875 -28.324219 C 22.128906 -29.207031 21.539062 -30.09375 20.800781 -30.980469 C 20.355469 -31.421875 19.914062 -32.160156 19.03125 -31.863281 C 18.144531 -31.714844 17.40625 -31.421875 16.667969 -30.683594 C 15.636719 -29.652344 14.605469 -28.617188 13.425781 -27.734375 C 11.0625 -26.109375 9 -23.898438 6.785156 -22.128906 C 6.046875 -21.539062 5.753906 -20.652344 6.046875 -19.765625 C 6.492188 -18.734375 6.785156 -17.554688 7.375 -16.667969 C 9.292969 -13.425781 11.359375 -10.328125 14.160156 -7.820312 C 15.046875 -6.933594 15.933594 -6.195312 16.964844 -5.457031 C 17.703125 -4.867188 18.734375 -4.277344 19.621094 -3.6875 C 22.273438 -1.769531 25.226562 -0.441406 28.472656 0.441406 C 31.570312 1.179688 34.667969 1.917969 38.058594 1.769531 Z M 38.058594 1.769531 "/></g></g></g><g fill="#fd6868" fill-opacity="1"><g transform="translate(106.230264, 144.307985)"><g><path d="M 6.195312 -69.332031 C 6.195312 -62.988281 6.046875 -56.792969 6.046875 -50.449219 C 5.902344 -47.058594 6.046875 -43.515625 6.195312 -40.125 C 6.34375 -37.617188 6.636719 -35.109375 6.785156 -32.453125 C 7.523438 -24.488281 10.03125 -16.964844 14.308594 -10.179688 C 15.339844 -8.554688 16.523438 -6.933594 17.996094 -5.457031 C 21.09375 -2.210938 24.929688 0.148438 29.503906 1.328125 C 30.683594 1.621094 32.011719 1.769531 33.339844 1.917969 C 36.140625 2.210938 38.945312 2.507812 41.746094 2.066406 C 45.878906 1.621094 49.859375 0 53.402344 -2.066406 C 55.761719 -3.539062 57.972656 -5.164062 59.597656 -7.523438 C 61.660156 -10.472656 63.285156 -13.570312 64.316406 -16.964844 C 65.644531 -21.242188 66.675781 -25.667969 67.414062 -30.09375 C 68.59375 -37.46875 69.183594 -44.84375 69.332031 -52.222656 C 69.480469 -57.679688 69.480469 -62.988281 69.628906 -68.449219 C 69.628906 -79.070312 69.777344 -89.542969 69.921875 -100.164062 C 69.921875 -100.902344 69.921875 -101.640625 69.921875 -102.375 C 69.921875 -103.851562 69.183594 -104.441406 67.710938 -104.441406 C 67.269531 -104.441406 66.972656 -104.441406 66.675781 -104.441406 C 62.84375 -104.148438 59.007812 -104 55.171875 -103.851562 C 53.402344 -103.703125 52.664062 -102.820312 52.515625 -100.902344 C 52.367188 -97.804688 52.222656 -94.558594 52.222656 -91.3125 C 52.222656 -81.578125 52.222656 -71.839844 52.074219 -62.105469 C 52.074219 -59.746094 52.074219 -57.238281 51.925781 -54.875 C 51.777344 -52.664062 51.335938 -50.449219 51.335938 -48.238281 C 51.335938 -43.222656 50.597656 -38.355469 49.859375 -33.339844 C 49.417969 -30.09375 48.679688 -26.847656 47.648438 -23.75 C 46.761719 -21.390625 45.433594 -19.175781 43.074219 -17.996094 C 42.335938 -17.554688 41.453125 -17.40625 40.714844 -17.257812 C 38.648438 -16.667969 36.730469 -16.375 34.667969 -17.257812 C 34.078125 -17.554688 33.339844 -17.703125 32.75 -17.847656 C 30.683594 -18.441406 28.914062 -19.765625 27.734375 -21.390625 C 26.699219 -22.863281 25.964844 -24.339844 25.519531 -25.964844 C 24.339844 -30.386719 23.601562 -35.109375 23.457031 -39.683594 C 23.457031 -42.925781 23.308594 -46.320312 23.308594 -49.566406 C 23.308594 -53.992188 23.457031 -58.269531 23.601562 -62.546875 C 23.75 -65.941406 24.046875 -69.332031 24.191406 -72.726562 C 24.488281 -76.707031 24.636719 -80.691406 24.636719 -84.675781 C 24.78125 -89.835938 24.78125 -95 24.78125 -100.164062 C 24.78125 -101.050781 24.636719 -102.082031 24.488281 -102.96875 C 24.191406 -103.703125 23.75 -104.148438 23.160156 -104.148438 C 21.390625 -104.148438 19.765625 -104.148438 17.996094 -104.148438 C 16.667969 -104.148438 15.339844 -104.148438 14.015625 -104.148438 C 12.539062 -104 11.0625 -104 9.734375 -104 C 8.113281 -104.148438 7.226562 -103.558594 7.082031 -101.933594 C 7.082031 -100.015625 6.785156 -98.097656 6.785156 -96.328125 C 6.636719 -87.328125 6.492188 -78.332031 6.195312 -69.332031 Z M 6.195312 -69.332031 "/></g></g></g><g fill="#ef811b" fill-opacity="1"><g transform="translate(182.063893, 144.307985)"><g><path d="M 40.273438 1.621094 C 41.746094 1.621094 44.109375 1.476562 46.320312 1.328125 C 48.089844 1.179688 49.859375 0.886719 51.484375 0.738281 C 54.730469 0.441406 57.382812 -0.738281 59.597656 -3.097656 C 64.316406 -7.964844 66.824219 -13.867188 67.414062 -20.503906 C 67.710938 -22.71875 68.003906 -24.929688 68.152344 -27.144531 C 68.449219 -32.601562 68.300781 -38.058594 66.53125 -43.371094 C 65.351562 -46.910156 63.433594 -50.007812 60.925781 -52.664062 C 60.480469 -53.253906 60.039062 -53.546875 59.449219 -53.992188 C 58.5625 -54.730469 58.417969 -54.730469 59.300781 -55.464844 C 59.449219 -55.613281 59.746094 -55.910156 60.039062 -56.054688 C 62.398438 -57.238281 63.875 -59.300781 65.054688 -61.660156 C 66.234375 -64.613281 67.121094 -67.710938 67.269531 -70.957031 C 67.414062 -72.726562 67.414062 -74.496094 67.5625 -76.414062 C 67.710938 -80.691406 66.824219 -84.96875 65.496094 -89.101562 C 64.316406 -92.050781 62.988281 -95 60.925781 -97.65625 C 59.597656 -99.574219 58.269531 -101.492188 56.054688 -102.820312 C 54.285156 -104 52.222656 -104.738281 50.007812 -105.179688 C 48.976562 -105.328125 47.941406 -105.476562 47.058594 -105.621094 C 44.109375 -106.359375 41.007812 -106.210938 38.058594 -106.210938 C 34.960938 -106.210938 32.011719 -106.066406 28.914062 -105.917969 C 28.027344 -105.769531 27.289062 -105.621094 26.554688 -105.621094 C 25.667969 -105.476562 24.929688 -105.328125 24.191406 -105.328125 C 21.980469 -105.476562 19.621094 -105.476562 17.40625 -105.621094 C 16.523438 -105.621094 15.636719 -105.769531 14.75 -105.769531 C 12.242188 -105.621094 9.882812 -105.328125 7.671875 -103.851562 C 6.636719 -103.261719 6.195312 -102.375 6.195312 -101.195312 C 6.34375 -100.605469 6.34375 -100.164062 6.195312 -99.574219 C 5.902344 -95.589844 6.046875 -91.609375 6.34375 -87.773438 C 6.636719 -86.003906 6.636719 -84.378906 6.492188 -82.609375 C 6.34375 -80.101562 6.195312 -77.445312 6.34375 -74.792969 C 6.492188 -68.300781 6.785156 -61.660156 6.933594 -55.171875 C 7.082031 -45.582031 7.226562 -35.996094 7.226562 -26.40625 C 7.226562 -20.949219 7.082031 -15.488281 6.785156 -9.882812 C 6.636719 -7.226562 7.082031 -4.425781 7.226562 -1.769531 C 7.375 -0.148438 8.410156 0.886719 10.179688 0.886719 C 12.242188 0.886719 14.308594 1.03125 16.375 0.738281 C 19.175781 0.441406 21.980469 0.738281 24.78125 1.03125 C 29.652344 1.476562 34.519531 1.476562 40.273438 1.621094 Z M 29.945312 -34.960938 C 29.796875 -37.46875 29.796875 -40.125 29.652344 -42.632812 C 29.652344 -43.8125 29.652344 -43.8125 30.832031 -43.960938 C 33.339844 -43.960938 35.996094 -44.109375 38.648438 -44.109375 C 40.273438 -44.109375 41.894531 -43.8125 43.515625 -43.371094 C 45.140625 -42.78125 46.171875 -41.601562 46.910156 -40.273438 C 49.269531 -36.289062 50.007812 -32.011719 49.566406 -27.585938 C 49.417969 -25.078125 47.941406 -23.011719 45.582031 -21.539062 C 42.191406 -19.324219 38.5 -18.585938 34.667969 -18.441406 C 33.632812 -18.292969 32.601562 -18.292969 31.421875 -18.292969 C 30.683594 -18.441406 30.535156 -18.441406 30.535156 -19.324219 C 30.386719 -24.488281 30.09375 -29.652344 29.945312 -34.8125 C 29.945312 -34.8125 29.945312 -34.8125 29.945312 -34.960938 Z M 28.765625 -73.90625 C 28.617188 -76.707031 28.617188 -79.363281 28.617188 -82.167969 C 28.617188 -82.757812 28.617188 -83.050781 29.355469 -83.199219 C 31.421875 -83.347656 33.488281 -83.640625 35.699219 -83.789062 C 37.617188 -83.9375 39.535156 -83.789062 41.453125 -82.757812 C 42.632812 -82.167969 43.664062 -81.28125 44.253906 -80.101562 C 46.023438 -76.707031 46.910156 -73.167969 46.910156 -69.480469 C 46.910156 -68.742188 46.761719 -68.003906 46.320312 -67.5625 C 45.140625 -66.085938 43.664062 -64.90625 41.746094 -64.761719 C 39.535156 -64.613281 37.175781 -64.464844 34.960938 -64.316406 C 33.488281 -64.167969 32.011719 -64.023438 30.535156 -63.726562 C 29.0625 -63.578125 29.0625 -63.726562 28.914062 -65.203125 C 28.914062 -67.859375 28.914062 -70.660156 28.765625 -73.316406 C 28.765625 -73.464844 28.765625 -73.609375 28.765625 -73.90625 Z M 28.765625 -73.90625 "/></g></g></g><g fill="#e8b562" fill-opacity="1"><g transform="translate(256.264231, 144.307985)"><g><path d="M 24.191406 -47.941406 C 24.191406 -47.941406 24.191406 -47.796875 24.191406 -47.796875 C 27.878906 -47.648438 31.714844 -47.648438 35.402344 -47.5 C 38.648438 -47.207031 41.894531 -47.796875 44.992188 -48.238281 C 47.058594 -48.53125 49.125 -49.269531 51.1875 -49.566406 C 52.074219 -49.714844 52.515625 -50.15625 52.8125 -50.894531 C 52.957031 -51.484375 53.105469 -52.222656 52.957031 -52.8125 C 52.8125 -56.792969 52.664062 -60.925781 52.515625 -64.90625 C 52.367188 -66.675781 51.777344 -67.269531 50.007812 -67.414062 C 46.320312 -67.5625 42.632812 -67.5625 38.945312 -67.710938 C 35.402344 -67.710938 32.011719 -67.710938 28.472656 -67.710938 C 24.488281 -67.5625 20.503906 -67.269531 16.523438 -67.121094 C 13.867188 -66.972656 11.359375 -66.675781 8.703125 -66.382812 C 7.082031 -66.234375 5.902344 -64.90625 5.902344 -63.285156 C 5.902344 -61.367188 5.902344 -59.597656 5.902344 -57.679688 C 6.046875 -55.320312 6.195312 -52.8125 6.492188 -50.449219 C 6.785156 -48.828125 8.261719 -47.648438 10.03125 -47.648438 C 10.328125 -47.648438 10.621094 -47.648438 11.0625 -47.648438 C 15.488281 -47.796875 19.765625 -47.796875 24.191406 -47.941406 Z M 24.191406 -47.941406 "/></g></g></g><g fill="#38adf1" fill-opacity="1"><g transform="translate(315.277776, 144.307985)"><g><path d="M 41.746094 2.066406 C 45.730469 2.210938 49.566406 1.917969 53.402344 0.738281 C 55.320312 0.296875 57.382812 -0.441406 59.300781 -1.328125 C 61.957031 -2.507812 64.613281 -3.835938 66.824219 -5.902344 C 68.742188 -7.820312 70.660156 -9.882812 72.136719 -12.242188 C 73.167969 -13.867188 73.019531 -15.339844 71.546875 -16.667969 C 70.21875 -17.703125 68.890625 -18.734375 67.414062 -19.765625 C 65.941406 -20.949219 64.316406 -22.128906 62.695312 -23.160156 C 61.660156 -23.898438 60.628906 -23.898438 59.449219 -23.457031 C 57.53125 -22.71875 56.054688 -21.242188 54.433594 -20.210938 C 53.253906 -19.472656 52.222656 -18.734375 50.894531 -18.292969 C 50.007812 -17.996094 49.125 -17.554688 48.238281 -17.257812 C 47.5 -17.113281 46.910156 -17.113281 46.171875 -16.964844 C 44.402344 -16.816406 42.78125 -17.40625 41.007812 -17.847656 C 39.828125 -18.144531 38.648438 -18.585938 37.617188 -19.324219 C 36.289062 -20.355469 34.960938 -21.390625 33.632812 -22.273438 C 32.160156 -23.160156 30.832031 -24.488281 30.09375 -26.109375 C 29.503906 -27.289062 28.617188 -28.324219 28.027344 -29.503906 C 27.144531 -31.714844 26.257812 -33.929688 25.519531 -36.289062 C 24.929688 -37.617188 24.339844 -39.09375 24.191406 -40.566406 C 23.898438 -42.78125 23.75 -44.992188 23.75 -47.207031 C 23.75 -52.8125 23.75 -58.269531 24.929688 -63.726562 C 25.226562 -65.203125 25.519531 -66.824219 25.964844 -68.300781 C 26.554688 -70.070312 27.289062 -71.839844 28.027344 -73.609375 C 28.617188 -75.527344 29.503906 -77.300781 30.832031 -78.625 C 32.75 -80.988281 35.109375 -82.609375 38.058594 -83.640625 C 38.796875 -83.9375 39.535156 -84.230469 40.273438 -84.378906 C 43.074219 -85.117188 45.730469 -85.117188 48.386719 -83.789062 C 50.304688 -82.757812 51.632812 -80.988281 52.957031 -79.511719 C 53.546875 -78.773438 54.140625 -78.035156 54.730469 -77.445312 C 56.351562 -76.265625 56.941406 -76.265625 58.710938 -77.59375 C 59.15625 -77.890625 59.597656 -78.332031 60.039062 -78.625 C 61.515625 -79.660156 62.84375 -80.691406 64.316406 -81.578125 C 65.792969 -82.609375 66.972656 -83.9375 68.003906 -85.265625 C 68.890625 -86.445312 69.628906 -87.773438 69.332031 -89.101562 C 68.742188 -91.019531 67.710938 -92.789062 66.234375 -94.261719 C 65.203125 -95.296875 63.875 -96.179688 62.546875 -97.214844 C 60.777344 -98.835938 58.710938 -100.460938 56.5 -101.640625 C 52.8125 -103.703125 48.828125 -105.328125 44.402344 -105.328125 C 42.78125 -105.328125 41.304688 -105.328125 39.828125 -105.03125 C 38.5 -104.882812 37.320312 -104.441406 36.140625 -104 C 31.714844 -102.375 27.4375 -100.605469 23.75 -97.65625 C 20.355469 -94.851562 17.113281 -91.902344 14.605469 -88.363281 C 12.390625 -85.265625 10.917969 -81.871094 9.589844 -78.480469 C 8.554688 -75.972656 7.820312 -73.464844 7.082031 -71.101562 C 6.195312 -68.300781 5.457031 -65.496094 5.3125 -62.695312 C 5.164062 -61.515625 4.867188 -60.480469 4.71875 -59.300781 C 4.574219 -58.710938 4.277344 -58.121094 4.128906 -57.382812 C 3.835938 -55.023438 3.394531 -52.8125 3.246094 -50.449219 C 2.949219 -47.207031 3.097656 -44.109375 3.539062 -40.863281 C 3.835938 -38.648438 4.277344 -36.289062 4.71875 -34.078125 C 5.015625 -32.453125 5.457031 -30.683594 5.902344 -29.0625 C 6.195312 -27.878906 6.785156 -26.554688 7.082031 -25.371094 C 7.375 -23.75 8.113281 -22.128906 9 -20.652344 C 9.441406 -19.765625 10.03125 -19.03125 10.472656 -18.144531 C 12.097656 -15.195312 13.71875 -12.097656 15.785156 -9.441406 C 18.144531 -6.34375 21.09375 -3.835938 24.339844 -1.917969 C 25.226562 -1.476562 26.109375 -1.179688 26.847656 -0.738281 C 28.472656 -0.148438 30.09375 0.296875 31.863281 0.886719 C 34.519531 1.621094 37.320312 2.210938 40.273438 2.066406 C 40.714844 2.066406 41.304688 2.066406 41.746094 2.066406 Z M 41.746094 2.066406 "/></g></g></g><g fill="#7ed957" fill-opacity="1"><g transform="translate(394.062803, 144.307985)"><g><path d="M 6.195312 -69.332031 C 6.195312 -62.988281 6.046875 -56.792969 6.046875 -50.449219 C 5.902344 -47.058594 6.046875 -43.515625 6.195312 -40.125 C 6.34375 -37.617188 6.636719 -35.109375 6.785156 -32.453125 C 7.523438 -24.488281 10.03125 -16.964844 14.308594 -10.179688 C 15.339844 -8.554688 16.523438 -6.933594 17.996094 -5.457031 C 21.09375 -2.210938 24.929688 0.148438 29.503906 1.328125 C 30.683594 1.621094 32.011719 1.769531 33.339844 1.917969 C 36.140625 2.210938 38.945312 2.507812 41.746094 2.066406 C 45.878906 1.621094 49.859375 0 53.402344 -2.066406 C 55.761719 -3.539062 57.972656 -5.164062 59.597656 -7.523438 C 61.660156 -10.472656 63.285156 -13.570312 64.316406 -16.964844 C 65.644531 -21.242188 66.675781 -25.667969 67.414062 -30.09375 C 68.59375 -37.46875 69.183594 -44.84375 69.332031 -52.222656 C 69.480469 -57.679688 69.480469 -62.988281 69.628906 -68.449219 C 69.628906 -79.070312 69.777344 -89.542969 69.921875 -100.164062 C 69.921875 -100.902344 69.921875 -101.640625 69.921875 -102.375 C 69.921875 -103.851562 69.183594 -104.441406 67.710938 -104.441406 C 67.269531 -104.441406 66.972656 -104.441406 66.675781 -104.441406 C 62.84375 -104.148438 59.007812 -104 55.171875 -103.851562 C 53.402344 -103.703125 52.664062 -102.820312 52.515625 -100.902344 C 52.367188 -97.804688 52.222656 -94.558594 52.222656 -91.3125 C 52.222656 -81.578125 52.222656 -71.839844 52.074219 -62.105469 C 52.074219 -59.746094 52.074219 -57.238281 51.925781 -54.875 C 51.777344 -52.664062 51.335938 -50.449219 51.335938 -48.238281 C 51.335938 -43.222656 50.597656 -38.355469 49.859375 -33.339844 C 49.417969 -30.09375 48.679688 -26.847656 47.648438 -23.75 C 46.761719 -21.390625 45.433594 -19.175781 43.074219 -17.996094 C 42.335938 -17.554688 41.453125 -17.40625 40.714844 -17.257812 C 38.648438 -16.667969 36.730469 -16.375 34.667969 -17.257812 C 34.078125 -17.554688 33.339844 -17.703125 32.75 -17.847656 C 30.683594 -18.441406 28.914062 -19.765625 27.734375 -21.390625 C 26.699219 -22.863281 25.964844 -24.339844 25.519531 -25.964844 C 24.339844 -30.386719 23.601562 -35.109375 23.457031 -39.683594 C 23.457031 -42.925781 23.308594 -46.320312 23.308594 -49.566406 C 23.308594 -53.992188 23.457031 -58.269531 23.601562 -62.546875 C 23.75 -65.941406 24.046875 -69.332031 24.191406 -72.726562 C 24.488281 -76.707031 24.636719 -80.691406 24.636719 -84.675781 C 24.78125 -89.835938 24.78125 -95 24.78125 -100.164062 C 24.78125 -101.050781 24.636719 -102.082031 24.488281 -102.96875 C 24.191406 -103.703125 23.75 -104.148438 23.160156 -104.148438 C 21.390625 -104.148438 19.765625 -104.148438 17.996094 -104.148438 C 16.667969 -104.148438 15.339844 -104.148438 14.015625 -104.148438 C 12.539062 -104 11.0625 -104 9.734375 -104 C 8.113281 -104.148438 7.226562 -103.558594 7.082031 -101.933594 C 7.082031 -100.015625 6.785156 -98.097656 6.785156 -96.328125 C 6.636719 -87.328125 6.492188 -78.332031 6.195312 -69.332031 Z M 6.195312 -69.332031 "/></g></g></g><g fill="#f2c70f" fill-opacity="1"><g transform="translate(469.896428, 144.307985)"><g><path d="M 7.226562 -49.714844 C 7.082031 -46.320312 6.933594 -40.714844 6.785156 -35.109375 C 6.636719 -28.914062 6.492188 -22.863281 6.34375 -16.667969 C 6.195312 -12.390625 6.195312 -7.964844 6.046875 -3.539062 C 5.902344 -1.917969 6.785156 -0.738281 7.523438 0.441406 C 7.671875 0.738281 8.113281 1.03125 8.554688 1.179688 C 10.03125 1.476562 11.507812 2.066406 12.832031 2.066406 C 15.785156 2.210938 18.734375 2.210938 21.539062 2.066406 C 24.339844 1.917969 27.144531 1.621094 29.945312 1.476562 C 33.78125 1.476562 37.910156 1.476562 41.746094 1.328125 C 44.402344 1.179688 46.910156 0.886719 49.417969 0.886719 C 54.433594 0.738281 59.300781 0.738281 64.316406 0.589844 C 65.054688 0.589844 65.792969 0.589844 66.234375 0 C 67.269531 -1.179688 68.003906 -2.359375 68.003906 -3.984375 C 68.152344 -7.375 67.5625 -10.769531 67.414062 -14.160156 C 67.414062 -15.339844 67.414062 -16.816406 66.085938 -17.703125 C 66.085938 -17.703125 66.085938 -17.847656 65.941406 -17.996094 C 65.203125 -19.324219 63.726562 -20.0625 62.253906 -19.765625 C 61.660156 -19.765625 61.070312 -19.621094 60.480469 -19.765625 C 58.710938 -19.765625 56.792969 -19.914062 55.023438 -19.914062 C 52.222656 -19.765625 49.417969 -19.472656 46.617188 -19.472656 C 41.601562 -19.324219 36.585938 -19.324219 31.714844 -19.324219 C 30.386719 -19.175781 30.386719 -19.324219 30.386719 -20.503906 C 30.386719 -23.601562 30.386719 -26.699219 30.386719 -29.652344 C 30.242188 -35.109375 30.242188 -40.417969 30.242188 -45.730469 C 30.242188 -47.648438 30.386719 -47.648438 32.304688 -47.648438 C 35.699219 -47.941406 39.09375 -48.089844 42.484375 -48.386719 C 45.582031 -48.53125 48.53125 -48.976562 51.632812 -49.269531 C 52.957031 -49.269531 54.433594 -49.269531 55.910156 -49.269531 C 57.089844 -49.417969 57.828125 -50.007812 57.828125 -51.335938 C 57.828125 -54.730469 57.828125 -57.972656 57.679688 -61.21875 C 57.679688 -62.695312 57.53125 -64.167969 57.382812 -65.644531 C 57.238281 -66.675781 57.238281 -66.675781 56.203125 -66.675781 C 55.171875 -66.675781 54.285156 -66.675781 53.253906 -66.675781 C 49.269531 -66.675781 45.140625 -66.824219 41.007812 -66.675781 C 37.765625 -66.675781 34.519531 -66.53125 31.125 -66.53125 C 30.09375 -66.53125 29.945312 -66.53125 29.945312 -67.710938 C 30.09375 -71.839844 30.242188 -75.972656 30.242188 -80.25 C 30.386719 -81.132812 30.386719 -81.132812 31.273438 -81.28125 C 34.667969 -81.722656 38.207031 -81.871094 41.601562 -82.019531 C 45.730469 -82.019531 49.714844 -82.019531 53.84375 -82.167969 C 56.792969 -82.316406 59.890625 -82.460938 62.84375 -82.609375 C 64.023438 -82.757812 65.203125 -82.90625 65.941406 -83.9375 C 66.53125 -84.820312 66.972656 -85.855469 66.824219 -86.886719 C 66.675781 -91.460938 66.53125 -96.035156 66.382812 -100.605469 C 66.234375 -103.113281 64.90625 -104.882812 62.253906 -105.03125 C 61.808594 -105.03125 61.21875 -105.03125 60.925781 -104.882812 C 59.449219 -104.589844 58.121094 -104.738281 56.792969 -104.738281 C 53.992188 -104.738281 51.1875 -104.882812 48.53125 -104.882812 C 46.761719 -104.882812 45.140625 -105.03125 43.515625 -105.03125 C 37.320312 -105.03125 30.980469 -104.882812 24.78125 -104.882812 C 24.339844 -104.882812 23.898438 -104.738281 23.308594 -104.738281 C 20.652344 -104.738281 17.847656 -104.738281 15.046875 -104.738281 C 13.71875 -104.738281 12.242188 -104.738281 10.917969 -104.738281 C 8.851562 -104.441406 7.820312 -103.410156 7.820312 -101.34375 C 7.671875 -100.753906 7.820312 -100.3125 7.820312 -99.867188 C 7.820312 -97.804688 7.964844 -95.738281 7.964844 -93.671875 C 7.671875 -79.808594 7.523438 -65.941406 7.226562 -49.714844 Z M 7.226562 -49.714844 "/></g></g></g><g fill="#fd6868" fill-opacity="1"><g transform="translate(543.953494, 144.307985)"><g><path d="M 55.613281 -46.46875 C 55.613281 -46.46875 55.464844 -46.320312 55.464844 -46.320312 C 55.320312 -46.46875 55.171875 -46.46875 55.171875 -46.617188 C 53.402344 -49.417969 51.632812 -52.074219 50.007812 -54.875 C 46.910156 -60.480469 43.664062 -66.085938 41.15625 -71.988281 C 41.007812 -72.429688 40.714844 -72.726562 40.566406 -73.167969 C 39.238281 -75.675781 38.058594 -78.332031 36.730469 -80.839844 C 35.109375 -84.230469 33.488281 -87.476562 31.714844 -90.722656 C 30.683594 -92.9375 29.355469 -95 28.472656 -97.214844 C 27.144531 -99.867188 25.371094 -102.375 24.488281 -105.328125 C 24.191406 -106.359375 23.308594 -106.65625 22.421875 -106.507812 C 20.210938 -106.066406 17.996094 -106.359375 15.785156 -106.359375 C 13.71875 -106.210938 11.800781 -106.210938 9.882812 -106.066406 C 9.144531 -106.066406 8.410156 -106.066406 7.671875 -106.066406 C 6.933594 -106.066406 6.492188 -105.769531 6.34375 -105.179688 C 6.195312 -104.148438 5.902344 -103.261719 5.902344 -102.375 C 5.902344 -100.3125 6.046875 -98.097656 6.195312 -96.035156 C 6.195312 -85.707031 6.195312 -75.234375 6.34375 -64.90625 C 6.34375 -58.710938 6.492188 -52.515625 6.492188 -46.320312 C 6.492188 -40.863281 6.492188 -35.257812 6.636719 -29.652344 C 6.785156 -23.457031 7.082031 -17.113281 7.375 -10.917969 C 7.375 -7.964844 7.523438 -4.867188 7.523438 -1.917969 C 7.671875 -0.148438 8.410156 0.738281 10.179688 0.738281 C 12.980469 0.886719 15.636719 0.886719 18.441406 0.738281 C 20.210938 0.589844 21.980469 0.296875 23.75 0.148438 C 24.929688 0 25.816406 -0.441406 26.40625 -1.476562 C 26.847656 -2.359375 27.144531 -3.246094 27.144531 -4.277344 C 26.996094 -8.410156 26.996094 -12.539062 26.847656 -16.816406 C 26.699219 -21.390625 26.699219 -25.964844 26.554688 -30.386719 C 26.554688 -37.027344 26.554688 -43.515625 26.554688 -50.007812 C 26.554688 -50.304688 26.554688 -50.597656 26.554688 -51.1875 C 26.996094 -50.597656 27.144531 -50.304688 27.4375 -50.007812 C 31.714844 -43.664062 35.996094 -37.175781 40.125 -30.683594 C 41.894531 -27.734375 43.8125 -25.078125 45.582031 -22.273438 C 47.351562 -19.324219 48.976562 -16.226562 50.894531 -13.425781 C 53.253906 -10.03125 55.320312 -6.34375 57.679688 -2.804688 C 58.269531 -1.769531 59.007812 -0.738281 59.597656 0.296875 C 60.1875 1.328125 61.070312 1.769531 62.253906 1.621094 C 63.136719 1.621094 64.167969 1.621094 65.203125 1.621094 C 66.972656 1.476562 68.890625 1.476562 70.808594 1.328125 C 71.988281 1.179688 73.316406 0.886719 74.496094 0.589844 C 75.824219 0.296875 76.5625 -0.589844 76.5625 -1.621094 C 76.5625 -3.984375 76.5625 -6.34375 76.5625 -8.703125 C 76.414062 -11.507812 76.265625 -14.457031 76.117188 -17.257812 C 75.824219 -25.226562 75.972656 -33.339844 75.382812 -41.304688 C 75.085938 -44.992188 74.9375 -48.679688 74.9375 -52.222656 C 74.792969 -58.5625 74.644531 -64.90625 74.199219 -71.25 C 73.90625 -74.9375 74.054688 -78.625 73.90625 -82.460938 C 73.90625 -85.855469 73.90625 -89.246094 73.90625 -92.640625 C 73.757812 -96.917969 73.757812 -101.195312 73.609375 -105.476562 C 73.609375 -106.210938 73.167969 -106.65625 72.429688 -106.65625 C 72.136719 -106.65625 71.839844 -106.65625 71.546875 -106.65625 C 69.628906 -106.359375 67.859375 -106.210938 65.941406 -106.066406 C 63.726562 -105.917969 61.515625 -105.769531 59.300781 -105.769531 C 57.972656 -105.769531 56.648438 -105.769531 55.320312 -105.476562 C 53.84375 -105.179688 53.402344 -104.738281 53.546875 -103.113281 C 53.546875 -101.933594 53.695312 -100.753906 53.695312 -99.574219 C 53.695312 -93.671875 53.695312 -87.773438 54.140625 -81.722656 C 54.433594 -76.855469 54.433594 -71.988281 54.730469 -66.972656 C 54.875 -62.253906 55.171875 -57.382812 55.320312 -52.515625 C 55.464844 -50.597656 55.464844 -48.53125 55.613281 -46.46875 Z M 55.613281 -46.46875 "/></g></g></g><g fill="#5cb7ec" fill-opacity="1"><g transform="translate(626.420596, 144.307985)"><g><path d="M 39.683594 -47.351562 C 39.828125 -47.351562 39.828125 -47.351562 39.828125 -47.351562 C 39.828125 -47.796875 39.828125 -48.238281 39.976562 -48.679688 C 40.273438 -55.761719 40.566406 -62.84375 40.714844 -70.070312 C 40.863281 -74.347656 40.714844 -78.773438 40.714844 -83.199219 C 40.714844 -83.640625 40.714844 -84.085938 40.714844 -84.378906 C 40.714844 -84.96875 40.863281 -85.117188 41.453125 -85.117188 C 42.191406 -85.117188 43.074219 -85.117188 43.8125 -85.117188 C 47.796875 -85.265625 51.925781 -85.707031 56.054688 -85.265625 C 56.351562 -85.265625 56.648438 -85.265625 56.941406 -85.265625 C 58.121094 -85.414062 58.5625 -86.003906 58.710938 -87.183594 C 58.710938 -88.214844 58.710938 -89.246094 58.710938 -90.132812 C 58.859375 -94.261719 59.300781 -98.246094 59.15625 -102.230469 C 59.15625 -103.851562 58.710938 -104.148438 57.238281 -104.148438 C 54.582031 -104.148438 51.925781 -104 49.269531 -104 C 38.207031 -103.851562 27.289062 -103.851562 16.226562 -104.589844 C 12.6875 -104.738281 9 -104.589844 5.457031 -104.441406 C 4.277344 -104.292969 3.6875 -103.851562 3.539062 -102.523438 C 3.097656 -98.246094 2.949219 -93.96875 2.949219 -89.691406 C 2.949219 -88.363281 3.097656 -87.183594 3.246094 -86.003906 C 3.394531 -85.265625 3.835938 -84.820312 4.425781 -84.820312 C 4.867188 -84.820312 5.3125 -84.820312 5.753906 -84.820312 C 10.769531 -85.265625 15.785156 -85.117188 20.652344 -85.117188 C 21.539062 -85.117188 21.539062 -85.117188 21.539062 -84.230469 C 21.683594 -82.316406 21.683594 -80.398438 21.683594 -78.332031 C 21.683594 -73.316406 21.683594 -68.300781 21.390625 -63.136719 C 20.949219 -55.761719 20.652344 -48.386719 20.652344 -41.15625 C 20.503906 -33.042969 20.800781 -25.078125 20.800781 -17.113281 C 20.800781 -12.097656 20.800781 -7.082031 20.800781 -2.066406 C 20.800781 -0.296875 21.832031 0.738281 23.601562 1.03125 C 24.339844 1.179688 25.226562 1.179688 26.109375 1.328125 C 29.945312 1.917969 33.632812 1.621094 37.320312 0.886719 C 38.207031 0.589844 38.945312 0 38.945312 -1.03125 C 39.09375 -5.753906 39.386719 -10.472656 39.386719 -15.195312 C 39.535156 -25.964844 39.683594 -36.585938 39.683594 -47.351562 Z M 39.683594 -47.351562 "/></g></g></g><g fill="#ef811b" fill-opacity="1"><g transform="translate(688.672078, 144.307985)"><g><path d="M 72.726562 1.328125 C 73.757812 1.621094 74.792969 1.328125 75.824219 1.03125 C 77.152344 0.738281 78.332031 -0.886719 78.183594 -2.210938 C 77.890625 -3.246094 77.59375 -4.277344 77.300781 -5.3125 C 76.855469 -6.933594 76.414062 -8.410156 75.972656 -9.882812 C 75.527344 -11.800781 75.234375 -13.71875 74.792969 -15.488281 C 74.496094 -16.816406 74.199219 -17.996094 73.90625 -19.324219 C 73.609375 -21.539062 73.167969 -23.898438 72.726562 -26.109375 C 71.839844 -29.945312 70.808594 -33.929688 69.777344 -37.765625 C 67.859375 -44.84375 65.941406 -52.074219 64.167969 -59.15625 C 63.285156 -62.253906 62.398438 -65.496094 61.515625 -68.449219 C 60.480469 -72.285156 59.15625 -75.972656 57.972656 -79.660156 C 57.382812 -82.019531 56.648438 -84.230469 56.203125 -86.59375 C 55.613281 -89.246094 55.171875 -92.050781 54.140625 -94.558594 C 53.992188 -95 53.992188 -95.445312 53.84375 -95.886719 C 53.402344 -97.804688 52.957031 -99.722656 52.367188 -101.640625 C 51.925781 -103.261719 51.1875 -104 49.417969 -103.851562 C 48.53125 -103.703125 47.648438 -103.851562 46.761719 -104 C 45.730469 -104.148438 44.699219 -104 43.664062 -103.851562 C 41.304688 -103.558594 38.796875 -103.113281 36.289062 -102.820312 C 34.960938 -102.671875 33.632812 -102.523438 32.304688 -102.375 C 31.570312 -102.375 30.980469 -101.933594 30.683594 -101.195312 C 30.09375 -100.164062 29.503906 -99.132812 29.207031 -98.097656 C 28.175781 -94.558594 27.4375 -91.164062 26.554688 -87.625 C 26.257812 -86.445312 26.109375 -85.265625 25.667969 -84.230469 C 24.046875 -78.480469 22.421875 -72.726562 20.800781 -66.972656 C 19.472656 -62.546875 18.144531 -58.269531 16.816406 -53.84375 C 15.488281 -48.976562 14.015625 -44.253906 12.6875 -39.535156 C 11.800781 -36.140625 11.0625 -32.75 10.472656 -29.355469 C 9.882812 -26.109375 9.144531 -23.011719 8.261719 -19.914062 C 7.523438 -17.847656 6.785156 -15.636719 6.046875 -13.425781 C 5.164062 -10.03125 4.277344 -6.492188 3.246094 -3.097656 C 2.804688 -1.476562 3.097656 -0.296875 4.574219 0.589844 C 5.015625 0.886719 5.457031 1.179688 6.046875 1.179688 C 7.082031 1.328125 8.113281 1.476562 9.292969 1.476562 C 13.128906 1.328125 16.964844 1.03125 20.800781 0.886719 C 21.980469 0.886719 23.011719 0.738281 24.191406 0.589844 C 25.078125 0.589844 25.816406 0 26.109375 -0.886719 C 26.554688 -1.917969 26.996094 -2.949219 27.4375 -3.984375 C 28.324219 -5.753906 28.765625 -7.671875 29.0625 -9.589844 C 29.355469 -11.652344 29.355469 -11.210938 31.125 -11.210938 C 33.78125 -11.210938 36.4375 -11.210938 39.09375 -11.359375 C 41.15625 -11.507812 43.371094 -11.800781 45.582031 -11.949219 C 47.648438 -12.097656 49.714844 -12.097656 51.777344 -12.097656 C 52.367188 -12.242188 52.664062 -11.949219 52.8125 -11.359375 C 52.8125 -10.472656 53.105469 -9.589844 53.253906 -8.703125 C 53.84375 -5.605469 55.171875 -2.65625 56.5 0.296875 C 56.792969 0.738281 57.238281 1.179688 57.828125 1.476562 C 59.007812 2.359375 60.335938 2.359375 61.660156 2.210938 C 63.578125 2.066406 65.351562 1.917969 67.121094 1.769531 C 67.710938 1.769531 68.300781 1.621094 68.890625 1.621094 C 70.21875 1.476562 71.546875 1.476562 72.726562 1.328125 Z M 40.863281 -63.578125 C 41.304688 -62.546875 41.453125 -61.367188 41.894531 -60.335938 C 42.632812 -58.121094 43.371094 -56.054688 44.109375 -53.992188 C 45.433594 -50.15625 46.320312 -46.023438 47.207031 -42.042969 C 47.5 -40.714844 48.089844 -39.535156 48.386719 -38.207031 C 48.53125 -37.910156 48.53125 -37.765625 48.679688 -37.46875 C 49.125 -35.996094 49.125 -35.996094 47.5 -35.847656 C 44.699219 -35.402344 41.894531 -35.402344 39.09375 -35.109375 C 37.910156 -35.109375 36.878906 -35.109375 35.699219 -35.109375 C 34.960938 -35.109375 34.8125 -35.109375 34.960938 -35.996094 C 35.402344 -38.796875 35.847656 -41.601562 36.4375 -44.402344 C 37.46875 -49.859375 38.648438 -55.320312 39.828125 -60.628906 C 39.976562 -61.660156 40.273438 -62.695312 40.566406 -63.578125 C 40.714844 -63.578125 40.863281 -63.578125 40.863281 -63.578125 Z M 40.863281 -63.578125 "/></g></g></g></g></g></g><g mask="url(#dcc4ea71e1)"><g transform="matrix(1, 0, 0, 1, 951, 198)"><g clip-path="url(#07283c777e)"><g clip-path="url(#e4b6bdb0c0)"><path fill="#f67e7e" d="M 213.375 77.035156 C 212.3125 79.238281 208.609375 79.652344 206.539062 79.105469 C 200.117188 77.425781 193.851562 75.273438 187.792969 72.53125 C 185.980469 71.703125 184.089844 69.8125 185.980469 67.949219 C 187.765625 66.1875 191.367188 66.058594 193.542969 67.042969 C 198.773438 69.398438 204.234375 71.417969 209.699219 72.867188 C 211.40625 73.332031 214.515625 74.679688 213.375 77.035156 Z M 133.367188 14.789062 C 131.242188 13.390625 127.878906 13.3125 125.625 14.53125 C 120.523438 17.300781 115.269531 19.632812 109.804688 21.523438 C 107.914062 22.167969 105.972656 24.007812 107.679688 25.949219 C 109.339844 27.839844 112.910156 28.175781 115.140625 27.398438 C 121.378906 25.25 127.410156 22.609375 133.210938 19.449219 C 135.28125 18.335938 135.28125 16.085938 133.367188 14.789062 Z M 133.367188 14.789062 " fill-opacity="1" fill-rule="nonzero"/></g><path fill="#f2c70f" d="M 116.976562 60.128906 C 112.808594 64.683594 108.25 68.878906 103.382812 72.6875 C 101.285156 74.316406 98.28125 74.574219 95.824219 73.59375 C 94.164062 72.917969 91.9375 70.613281 94.011719 69.007812 C 98.878906 65.203125 103.410156 61.007812 107.605469 56.453125 C 109.3125 54.5625 113.042969 54.691406 115.164062 55.546875 C 117.132812 56.320312 118.6875 58.261719 116.976562 60.128906 Z M 173.65625 5.441406 C 171.792969 5.105469 167.675781 5.15625 166.820312 7.515625 C 164.722656 13.339844 162.183594 18.984375 159.183594 24.394531 C 156.878906 28.566406 167.621094 30.273438 169.695312 26.519531 C 172.699219 21.109375 175.261719 15.488281 177.332031 9.636719 C 178.160156 7.308594 175.648438 5.804688 173.65625 5.441406 Z M 15.890625 48.113281 C 14.027344 47.804688 9.910156 47.828125 9.058594 50.183594 C 6.984375 56.011719 4.421875 61.65625 1.417969 67.066406 C -0.886719 71.234375 9.859375 72.945312 11.929688 69.191406 C 14.933594 63.777344 17.496094 58.160156 19.570312 52.308594 C 20.398438 49.976562 17.886719 48.476562 15.890625 48.113281 Z M 15.890625 48.113281 " fill-opacity="1" fill-rule="nonzero"/><g clip-path="url(#a4afc6a9f5)"><path fill="#f19d42" d="M 71.40625 59.609375 C 74.71875 64.246094 64.207031 65.953125 61.773438 62.613281 C 57.992188 57.304688 54.652344 51.738281 51.78125 45.886719 C 50.640625 43.558594 54.136719 42.183594 55.765625 41.976562 C 58.070312 41.667969 61.332031 42.210938 62.449219 44.515625 C 65.035156 49.769531 67.988281 54.820312 71.40625 59.609375 Z M 232.355469 26.054688 C 227.667969 22.53125 223.292969 18.621094 219.253906 14.375 C 217.492188 12.539062 214.230469 13.003906 212.132812 13.960938 C 210.628906 14.660156 207.730469 17.015625 209.515625 18.90625 C 214.023438 23.621094 218.917969 27.917969 224.121094 31.800781 C 227.410156 34.289062 236.910156 29.496094 232.355469 26.054688 Z M 232.355469 26.054688 " fill-opacity="1" fill-rule="nonzero"/></g><g clip-path="url(#258e3aa105)"><path fill="#4aa6b8" d="M 56.699219 14.996094 C 54.9375 16.730469 51.289062 16.9375 49.136719 15.902344 C 43.183594 13.03125 37.460938 9.765625 32.074219 5.960938 C 30.132812 4.589844 30.132812 2.492188 32.230469 1.300781 C 34.429688 0.0585938 37.925781 0.109375 40 1.585938 C 44.710938 4.898438 49.65625 7.902344 54.859375 10.414062 C 56.648438 11.269531 58.589844 13.105469 56.699219 14.996094 Z M 175.726562 46.636719 C 170.03125 47.542969 164.230469 47.878906 158.457031 47.828125 C 155.917969 47.804688 153.019531 49.746094 151.90625 52.023438 C 150.84375 54.199219 152.0625 55.933594 154.417969 55.960938 C 161.019531 56.011719 167.570312 55.46875 174.097656 54.429688 C 176.453125 54.070312 179.328125 51.789062 179.792969 49.382812 C 180.308594 46.714844 177.695312 46.328125 175.726562 46.636719 Z M 175.726562 46.636719 " fill-opacity="1" fill-rule="nonzero"/></g></g></g></g><g mask="url(#a670cecccb)"><g transform="matrix(1, 0, 0, 1, 60, 96)"><g clip-path="url(#0db02ef1cc)"><g fill="#38adf1" fill-opacity="1"><g transform="translate(1.031377, 144.307985)"><g><path d="M 74.199219 -25.964844 C 74.054688 -25.964844 74.054688 -25.964844 74.054688 -25.964844 C 74.054688 -29.652344 74.054688 -33.488281 74.054688 -37.320312 C 73.90625 -41.894531 74.347656 -46.46875 73.609375 -51.039062 C 73.316406 -52.957031 73.316406 -53.253906 71.398438 -53.253906 C 68.300781 -53.105469 65.203125 -52.957031 62.105469 -52.957031 C 55.761719 -53.105469 49.417969 -52.515625 43.074219 -52.515625 C 41.894531 -52.515625 41.304688 -52.222656 41.007812 -50.894531 C 40.714844 -50.007812 40.566406 -48.976562 40.566406 -47.941406 C 40.566406 -46.910156 40.714844 -45.878906 40.714844 -44.699219 C 40.714844 -42.042969 40.863281 -39.386719 40.863281 -36.585938 C 40.863281 -35.402344 41.304688 -34.960938 42.484375 -34.519531 C 42.925781 -34.371094 43.515625 -34.371094 44.109375 -34.222656 C 47.351562 -34.078125 50.597656 -33.929688 53.84375 -33.78125 C 54.582031 -33.632812 54.730469 -33.632812 54.730469 -32.894531 C 54.875 -29.945312 54.875 -27.144531 54.875 -24.191406 C 54.875 -23.308594 54.875 -22.273438 53.992188 -21.683594 C 51.925781 -20.652344 50.007812 -19.324219 47.941406 -18.441406 C 43.515625 -16.667969 38.945312 -16.523438 34.519531 -18.292969 C 33.339844 -18.734375 32.304688 -19.324219 31.421875 -20.0625 C 29.652344 -21.539062 28.324219 -23.601562 27.289062 -25.667969 C 26.554688 -27.289062 25.816406 -29.0625 25.519531 -30.980469 C 24.929688 -33.929688 24.191406 -36.878906 24.339844 -39.976562 C 24.339844 -42.632812 24.046875 -45.289062 24.339844 -47.941406 C 24.78125 -51.484375 25.371094 -55.171875 25.371094 -58.710938 C 25.226562 -60.777344 25.519531 -62.988281 25.964844 -64.90625 C 26.257812 -66.234375 26.699219 -67.5625 26.996094 -68.742188 C 27.734375 -71.988281 28.472656 -75.234375 30.386719 -78.035156 C 32.160156 -80.691406 34.222656 -83.199219 37.320312 -84.527344 C 40.125 -85.855469 42.925781 -87.035156 46.171875 -86.886719 C 48.386719 -86.738281 50.449219 -86.148438 52.515625 -85.265625 C 53.402344 -84.820312 54.140625 -83.9375 54.433594 -82.90625 C 54.730469 -81.429688 54.730469 -79.808594 54.875 -78.332031 C 55.171875 -76.265625 55.320312 -74.199219 55.613281 -72.136719 C 55.613281 -71.691406 55.910156 -71.101562 56.351562 -70.957031 C 57.828125 -70.21875 59.300781 -69.777344 61.070312 -70.070312 C 61.808594 -70.070312 62.398438 -70.21875 63.136719 -70.21875 C 65.941406 -70.511719 68.59375 -70.660156 71.25 -70.808594 C 72.429688 -70.957031 73.019531 -71.546875 73.167969 -72.726562 C 73.316406 -74.496094 73.464844 -76.414062 73.019531 -78.332031 C 73.019531 -78.480469 73.019531 -78.773438 73.019531 -79.070312 C 72.726562 -82.316406 72.429688 -85.414062 72.136719 -88.65625 C 71.691406 -91.753906 70.808594 -94.707031 68.890625 -97.214844 C 67.710938 -98.835938 66.085938 -99.867188 64.464844 -100.605469 C 62.398438 -101.640625 60.628906 -102.820312 58.5625 -103.558594 C 57.828125 -103.851562 57.089844 -104.441406 56.351562 -104.589844 C 55.023438 -105.03125 53.546875 -105.328125 52.074219 -105.621094 C 50.894531 -105.769531 49.714844 -105.769531 48.53125 -105.769531 C 47.351562 -105.917969 46.171875 -105.769531 44.992188 -105.769531 C 44.109375 -105.769531 43.074219 -105.917969 42.042969 -105.769531 C 38.058594 -105.476562 34.222656 -104.441406 30.535156 -102.671875 C 28.175781 -101.492188 25.667969 -100.015625 23.308594 -98.6875 C 23.011719 -98.542969 22.863281 -98.246094 22.570312 -97.953125 C 20.0625 -95.886719 17.847656 -93.527344 15.785156 -91.164062 C 15.488281 -90.722656 15.195312 -90.28125 14.898438 -89.835938 C 14.457031 -88.65625 14.015625 -87.625 13.277344 -86.738281 C 12.242188 -85.265625 11.507812 -83.789062 11.0625 -82.167969 C 10.621094 -80.691406 10.179688 -79.070312 9.734375 -77.59375 C 8.113281 -71.691406 6.933594 -65.792969 6.492188 -59.746094 C 6.195312 -53.253906 6.046875 -46.761719 5.902344 -40.273438 C 5.902344 -37.617188 6.046875 -35.109375 6.34375 -32.601562 C 6.636719 -29.652344 7.082031 -26.699219 7.523438 -23.601562 C 7.671875 -22.863281 7.964844 -22.128906 8.261719 -21.390625 C 8.410156 -20.503906 8.851562 -19.621094 9 -18.882812 C 9.734375 -16.226562 10.917969 -13.867188 12.6875 -11.652344 C 13.277344 -10.917969 14.015625 -10.179688 14.457031 -9.441406 C 16.816406 -6.195312 19.324219 -2.949219 23.011719 -1.179688 C 24.636719 -0.441406 25.964844 0.589844 27.585938 0.886719 C 30.386719 1.621094 33.191406 2.210938 36.140625 2.210938 C 36.585938 2.359375 37.027344 2.359375 37.617188 2.507812 C 39.09375 2.507812 40.417969 2.65625 41.894531 2.507812 C 45.878906 1.917969 49.859375 0.589844 53.695312 -0.886719 C 54.582031 -1.328125 54.875 -1.179688 54.875 0 C 54.875 1.328125 54.875 1.328125 56.351562 1.328125 C 59.597656 1.179688 62.988281 1.179688 66.382812 1.03125 C 68.300781 0.886719 70.070312 0.886719 71.839844 0.886719 C 72.875 0.738281 73.609375 0.148438 73.609375 -0.886719 C 73.757812 -2.066406 73.90625 -3.394531 73.90625 -4.574219 C 74.054688 -11.652344 74.054688 -18.734375 74.199219 -25.964844 Z M 74.199219 -25.964844 "/></g></g></g><g fill="#7ed957" fill-opacity="1"><g transform="translate(81.134498, 144.307985)"><g><path d="M 7.226562 -49.714844 C 7.082031 -46.320312 6.933594 -40.714844 6.785156 -35.109375 C 6.636719 -28.914062 6.492188 -22.863281 6.34375 -16.667969 C 6.195312 -12.390625 6.195312 -7.964844 6.046875 -3.539062 C 5.902344 -1.917969 6.785156 -0.738281 7.523438 0.441406 C 7.671875 0.738281 8.113281 1.03125 8.554688 1.179688 C 10.03125 1.476562 11.507812 2.066406 12.832031 2.066406 C 15.785156 2.210938 18.734375 2.210938 21.539062 2.066406 C 24.339844 1.917969 27.144531 1.621094 29.945312 1.476562 C 33.78125 1.476562 37.910156 1.476562 41.746094 1.328125 C 44.402344 1.179688 46.910156 0.886719 49.417969 0.886719 C 54.433594 0.738281 59.300781 0.738281 64.316406 0.589844 C 65.054688 0.589844 65.792969 0.589844 66.234375 0 C 67.269531 -1.179688 68.003906 -2.359375 68.003906 -3.984375 C 68.152344 -7.375 67.5625 -10.769531 67.414062 -14.160156 C 67.414062 -15.339844 67.414062 -16.816406 66.085938 -17.703125 C 66.085938 -17.703125 66.085938 -17.847656 65.941406 -17.996094 C 65.203125 -19.324219 63.726562 -20.0625 62.253906 -19.765625 C 61.660156 -19.765625 61.070312 -19.621094 60.480469 -19.765625 C 58.710938 -19.765625 56.792969 -19.914062 55.023438 -19.914062 C 52.222656 -19.765625 49.417969 -19.472656 46.617188 -19.472656 C 41.601562 -19.324219 36.585938 -19.324219 31.714844 -19.324219 C 30.386719 -19.175781 30.386719 -19.324219 30.386719 -20.503906 C 30.386719 -23.601562 30.386719 -26.699219 30.386719 -29.652344 C 30.242188 -35.109375 30.242188 -40.417969 30.242188 -45.730469 C 30.242188 -47.648438 30.386719 -47.648438 32.304688 -47.648438 C 35.699219 -47.941406 39.09375 -48.089844 42.484375 -48.386719 C 45.582031 -48.53125 48.53125 -48.976562 51.632812 -49.269531 C 52.957031 -49.269531 54.433594 -49.269531 55.910156 -49.269531 C 57.089844 -49.417969 57.828125 -50.007812 57.828125 -51.335938 C 57.828125 -54.730469 57.828125 -57.972656 57.679688 -61.21875 C 57.679688 -62.695312 57.53125 -64.167969 57.382812 -65.644531 C 57.238281 -66.675781 57.238281 -66.675781 56.203125 -66.675781 C 55.171875 -66.675781 54.285156 -66.675781 53.253906 -66.675781 C 49.269531 -66.675781 45.140625 -66.824219 41.007812 -66.675781 C 37.765625 -66.675781 34.519531 -66.53125 31.125 -66.53125 C 30.09375 -66.53125 29.945312 -66.53125 29.945312 -67.710938 C 30.09375 -71.839844 30.242188 -75.972656 30.242188 -80.25 C 30.386719 -81.132812 30.386719 -81.132812 31.273438 -81.28125 C 34.667969 -81.722656 38.207031 -81.871094 41.601562 -82.019531 C 45.730469 -82.019531 49.714844 -82.019531 53.84375 -82.167969 C 56.792969 -82.316406 59.890625 -82.460938 62.84375 -82.609375 C 64.023438 -82.757812 65.203125 -82.90625 65.941406 -83.9375 C 66.53125 -84.820312 66.972656 -85.855469 66.824219 -86.886719 C 66.675781 -91.460938 66.53125 -96.035156 66.382812 -100.605469 C 66.234375 -103.113281 64.90625 -104.882812 62.253906 -105.03125 C 61.808594 -105.03125 61.21875 -105.03125 60.925781 -104.882812 C 59.449219 -104.589844 58.121094 -104.738281 56.792969 -104.738281 C 53.992188 -104.738281 51.1875 -104.882812 48.53125 -104.882812 C 46.761719 -104.882812 45.140625 -105.03125 43.515625 -105.03125 C 37.320312 -105.03125 30.980469 -104.882812 24.78125 -104.882812 C 24.339844 -104.882812 23.898438 -104.738281 23.308594 -104.738281 C 20.652344 -104.738281 17.847656 -104.738281 15.046875 -104.738281 C 13.71875 -104.738281 12.242188 -104.738281 10.917969 -104.738281 C 8.851562 -104.441406 7.820312 -103.410156 7.820312 -101.34375 C 7.671875 -100.753906 7.820312 -100.3125 7.820312 -99.867188 C 7.820312 -97.804688 7.964844 -95.738281 7.964844 -93.671875 C 7.671875 -79.808594 7.523438 -65.941406 7.226562 -49.714844 Z M 7.226562 -49.714844 "/></g></g></g><g fill="#f2c70f" fill-opacity="1"><g transform="translate(155.19156, 144.307985)"><g><path d="M 38.058594 1.769531 C 42.484375 1.769531 46.761719 1.328125 50.894531 -0.738281 C 51.777344 -1.328125 52.664062 -1.769531 53.546875 -2.210938 C 56.5 -4.277344 59.597656 -6.195312 61.808594 -9.144531 C 63.875 -11.949219 65.941406 -14.605469 67.269531 -17.847656 C 70.070312 -24.191406 70.808594 -30.980469 69.480469 -37.910156 C 69.183594 -39.683594 68.449219 -41.601562 67.859375 -43.371094 C 67.414062 -44.402344 66.824219 -45.289062 66.382812 -46.320312 C 65.351562 -48.386719 63.726562 -50.007812 61.957031 -51.335938 C 61.21875 -51.777344 60.777344 -52.515625 60.039062 -53.105469 C 59.15625 -53.84375 58.121094 -54.582031 57.238281 -55.464844 C 55.464844 -56.941406 53.546875 -57.828125 51.484375 -58.859375 C 49.417969 -60.039062 47.207031 -60.925781 45.140625 -61.957031 C 44.550781 -62.253906 43.8125 -62.398438 43.222656 -62.84375 C 41.007812 -64.167969 38.5 -65.496094 36.289062 -66.972656 C 34.8125 -67.859375 33.488281 -68.890625 32.453125 -70.21875 C 31.421875 -71.398438 30.832031 -72.726562 30.683594 -74.199219 C 30.535156 -75.382812 30.683594 -76.707031 30.980469 -77.890625 C 31.421875 -79.214844 32.453125 -80.398438 33.632812 -81.28125 C 34.8125 -82.316406 36.140625 -83.050781 37.617188 -83.050781 C 40.714844 -83.347656 43.960938 -83.347656 47.058594 -82.460938 C 48.828125 -82.019531 50.304688 -81.28125 51.484375 -79.953125 C 52.367188 -79.070312 53.546875 -78.332031 54.582031 -77.445312 C 54.875 -77.300781 55.171875 -77.003906 55.464844 -77.003906 C 56.941406 -77.003906 58.269531 -77.152344 59.300781 -78.183594 C 60.335938 -79.214844 61.367188 -80.25 62.253906 -81.28125 C 63.726562 -83.199219 65.203125 -84.96875 66.675781 -86.886719 C 67.710938 -88.214844 67.859375 -89.542969 67.121094 -91.019531 C 66.234375 -92.492188 65.054688 -93.820312 63.875 -95.148438 C 62.253906 -97.359375 60.1875 -98.835938 57.972656 -100.3125 C 55.320312 -102.375 52.367188 -103.558594 49.269531 -104.441406 C 46.761719 -105.179688 44.253906 -105.476562 41.746094 -105.476562 C 37.320312 -105.328125 33.042969 -104.882812 29.0625 -102.820312 C 28.175781 -102.375 27.289062 -101.933594 26.40625 -101.34375 C 23.308594 -99.425781 20.355469 -97.359375 17.996094 -94.410156 C 15.933594 -91.609375 13.867188 -88.953125 12.539062 -85.707031 C 9.734375 -79.363281 9 -72.578125 10.328125 -65.792969 C 10.769531 -63.433594 11.652344 -60.925781 12.6875 -58.710938 C 13.570312 -56.792969 14.605469 -55.023438 16.226562 -53.546875 C 17.703125 -52.367188 19.03125 -51.039062 20.503906 -49.859375 C 22.273438 -48.53125 24.046875 -47.351562 25.816406 -46.023438 C 26.699219 -45.433594 27.585938 -44.992188 28.617188 -44.550781 C 30.09375 -43.8125 31.714844 -42.78125 33.339844 -42.191406 C 35.996094 -41.304688 38.207031 -39.828125 40.566406 -38.5 C 42.191406 -37.617188 43.664062 -36.585938 45.140625 -35.550781 C 46.910156 -34.371094 48.089844 -32.894531 48.828125 -30.980469 C 49.859375 -27.878906 49.125 -25.078125 46.910156 -23.011719 C 45.289062 -21.390625 43.222656 -20.652344 41.007812 -19.914062 C 39.238281 -19.472656 37.617188 -19.472656 35.847656 -20.0625 C 33.929688 -20.652344 32.160156 -21.390625 30.242188 -22.128906 C 29.503906 -22.421875 28.914062 -22.863281 28.175781 -23.308594 C 25.964844 -24.488281 24.488281 -26.554688 22.71875 -28.324219 C 22.128906 -29.207031 21.539062 -30.09375 20.800781 -30.980469 C 20.355469 -31.421875 19.914062 -32.160156 19.03125 -31.863281 C 18.144531 -31.714844 17.40625 -31.421875 16.667969 -30.683594 C 15.636719 -29.652344 14.605469 -28.617188 13.425781 -27.734375 C 11.0625 -26.109375 9 -23.898438 6.785156 -22.128906 C 6.046875 -21.539062 5.753906 -20.652344 6.046875 -19.765625 C 6.492188 -18.734375 6.785156 -17.554688 7.375 -16.667969 C 9.292969 -13.425781 11.359375 -10.328125 14.160156 -7.820312 C 15.046875 -6.933594 15.933594 -6.195312 16.964844 -5.457031 C 17.703125 -4.867188 18.734375 -4.277344 19.621094 -3.6875 C 22.273438 -1.769531 25.226562 -0.441406 28.472656 0.441406 C 31.570312 1.179688 34.667969 1.917969 38.058594 1.769531 Z M 38.058594 1.769531 "/></g></g></g><g fill="#fd6868" fill-opacity="1"><g transform="translate(231.311737, 144.307985)"><g><path d="M 39.683594 -47.351562 C 39.828125 -47.351562 39.828125 -47.351562 39.828125 -47.351562 C 39.828125 -47.796875 39.828125 -48.238281 39.976562 -48.679688 C 40.273438 -55.761719 40.566406 -62.84375 40.714844 -70.070312 C 40.863281 -74.347656 40.714844 -78.773438 40.714844 -83.199219 C 40.714844 -83.640625 40.714844 -84.085938 40.714844 -84.378906 C 40.714844 -84.96875 40.863281 -85.117188 41.453125 -85.117188 C 42.191406 -85.117188 43.074219 -85.117188 43.8125 -85.117188 C 47.796875 -85.265625 51.925781 -85.707031 56.054688 -85.265625 C 56.351562 -85.265625 56.648438 -85.265625 56.941406 -85.265625 C 58.121094 -85.414062 58.5625 -86.003906 58.710938 -87.183594 C 58.710938 -88.214844 58.710938 -89.246094 58.710938 -90.132812 C 58.859375 -94.261719 59.300781 -98.246094 59.15625 -102.230469 C 59.15625 -103.851562 58.710938 -104.148438 57.238281 -104.148438 C 54.582031 -104.148438 51.925781 -104 49.269531 -104 C 38.207031 -103.851562 27.289062 -103.851562 16.226562 -104.589844 C 12.6875 -104.738281 9 -104.589844 5.457031 -104.441406 C 4.277344 -104.292969 3.6875 -103.851562 3.539062 -102.523438 C 3.097656 -98.246094 2.949219 -93.96875 2.949219 -89.691406 C 2.949219 -88.363281 3.097656 -87.183594 3.246094 -86.003906 C 3.394531 -85.265625 3.835938 -84.820312 4.425781 -84.820312 C 4.867188 -84.820312 5.3125 -84.820312 5.753906 -84.820312 C 10.769531 -85.265625 15.785156 -85.117188 20.652344 -85.117188 C 21.539062 -85.117188 21.539062 -85.117188 21.539062 -84.230469 C 21.683594 -82.316406 21.683594 -80.398438 21.683594 -78.332031 C 21.683594 -73.316406 21.683594 -68.300781 21.390625 -63.136719 C 20.949219 -55.761719 20.652344 -48.386719 20.652344 -41.15625 C 20.503906 -33.042969 20.800781 -25.078125 20.800781 -17.113281 C 20.800781 -12.097656 20.800781 -7.082031 20.800781 -2.066406 C 20.800781 -0.296875 21.832031 0.738281 23.601562 1.03125 C 24.339844 1.179688 25.226562 1.179688 26.109375 1.328125 C 29.945312 1.917969 33.632812 1.621094 37.320312 0.886719 C 38.207031 0.589844 38.945312 0 38.945312 -1.03125 C 39.09375 -5.753906 39.386719 -10.472656 39.386719 -15.195312 C 39.535156 -25.964844 39.683594 -36.585938 39.683594 -47.351562 Z M 39.683594 -47.351562 "/></g></g></g><g fill="#5cb7ec" fill-opacity="1"><g transform="translate(293.563219, 144.307985)"><g><path d="M 24.488281 -92.050781 C 24.339844 -92.050781 24.339844 -92.050781 24.339844 -92.050781 C 24.339844 -95.589844 24.339844 -99.277344 24.339844 -102.820312 C 24.339844 -104.589844 23.601562 -105.179688 21.832031 -105.03125 C 20.652344 -104.882812 19.472656 -104.882812 18.441406 -104.882812 C 16.375 -104.882812 14.160156 -104.882812 12.097656 -104.882812 C 10.769531 -104.882812 9.589844 -104.738281 8.261719 -104.589844 C 7.082031 -104.441406 6.492188 -103.851562 6.34375 -102.671875 C 6.195312 -100.902344 6.046875 -99.132812 6.046875 -97.359375 C 6.046875 -94.558594 6.195312 -91.753906 6.195312 -88.953125 C 6.195312 -85.117188 6.195312 -81.132812 6.195312 -77.152344 C 6.195312 -75.527344 6.34375 -73.90625 6.34375 -72.285156 C 6.34375 -64.167969 6.492188 -56.054688 6.34375 -47.941406 C 6.34375 -42.042969 6.34375 -35.996094 6.046875 -29.945312 C 5.902344 -23.898438 5.902344 -17.703125 6.046875 -11.507812 C 6.195312 -8.554688 6.046875 -5.457031 6.046875 -2.507812 C 6.046875 -1.621094 5.902344 -0.886719 5.902344 0 C 5.902344 1.179688 6.34375 1.476562 7.523438 1.621094 C 7.820312 1.621094 8.113281 1.621094 8.410156 1.621094 C 12.832031 1.621094 17.257812 1.621094 21.683594 1.476562 C 22.421875 1.476562 23.308594 1.03125 23.601562 0 C 23.601562 -0.296875 23.75 -0.738281 23.75 -1.179688 C 23.898438 -6.046875 24.046875 -11.0625 24.191406 -16.078125 C 24.191406 -17.257812 24.339844 -18.585938 24.339844 -19.765625 C 24.488281 -21.980469 24.636719 -24.191406 24.636719 -26.40625 C 24.78125 -31.863281 24.78125 -37.320312 24.78125 -42.632812 C 24.78125 -44.550781 24.636719 -46.46875 24.636719 -48.386719 C 24.488281 -51.039062 24.339844 -53.84375 24.339844 -56.5 C 24.339844 -59.15625 24.488281 -61.808594 24.488281 -64.316406 C 24.488281 -69.039062 24.339844 -73.609375 24.339844 -78.183594 C 24.339844 -79.214844 24.488281 -80.25 24.488281 -81.429688 C 24.488281 -84.96875 24.488281 -88.511719 24.488281 -92.050781 Z M 24.488281 -92.050781 "/></g></g></g><g fill="#ef811b" fill-opacity="1"><g transform="translate(324.251984, 144.307985)"><g><path d="M 77.742188 -54.875 C 77.890625 -60.335938 77.152344 -65.644531 76.117188 -70.957031 C 75.527344 -74.199219 74.792969 -77.445312 74.054688 -80.691406 C 73.019531 -86.003906 70.511719 -90.574219 67.269531 -94.851562 C 65.792969 -96.769531 64.167969 -98.6875 61.957031 -100.164062 C 59.597656 -101.640625 56.941406 -102.820312 54.285156 -104.148438 C 54.285156 -104.148438 54.140625 -104.148438 54.140625 -104.292969 C 52.222656 -104.738281 50.449219 -105.179688 48.53125 -105.476562 C 45.582031 -105.769531 42.632812 -105.621094 39.683594 -105.621094 C 37.617188 -105.476562 35.402344 -105.328125 33.339844 -104.589844 C 30.242188 -103.558594 27.144531 -102.375 24.488281 -100.3125 C 22.421875 -98.6875 20.0625 -97.214844 18.292969 -95.148438 C 16.226562 -92.640625 14.605469 -89.984375 12.980469 -87.183594 C 11.949219 -85.117188 11.359375 -82.90625 10.621094 -80.839844 C 8.851562 -75.527344 7.820312 -70.21875 7.226562 -64.761719 C 6.933594 -62.398438 6.785156 -60.039062 6.636719 -57.828125 C 6.492188 -54.730469 6.195312 -51.632812 6.046875 -48.53125 C 5.902344 -45.140625 6.046875 -41.746094 6.785156 -38.355469 C 6.785156 -37.765625 6.933594 -37.175781 6.933594 -36.585938 C 7.226562 -34.371094 7.375 -32.304688 7.523438 -30.09375 C 7.964844 -26.996094 8.851562 -24.191406 9.882812 -21.390625 C 11.800781 -15.933594 14.75 -10.917969 18.585938 -6.636719 C 19.175781 -6.046875 19.914062 -5.457031 20.503906 -4.867188 C 21.242188 -4.425781 21.832031 -3.835938 22.421875 -3.394531 C 24.488281 -1.769531 26.699219 -0.589844 29.0625 0 C 32.894531 1.179688 36.878906 1.621094 40.863281 1.769531 C 44.253906 1.769531 47.648438 1.769531 50.746094 0.148438 C 51.925781 -0.296875 52.957031 -0.738281 54.140625 -1.179688 C 54.730469 -1.476562 55.320312 -1.917969 55.910156 -2.359375 C 56.648438 -2.949219 57.382812 -3.539062 58.121094 -3.984375 C 60.628906 -5.753906 62.988281 -7.523438 64.613281 -10.179688 C 65.941406 -12.242188 67.414062 -14.308594 68.449219 -16.523438 C 70.367188 -20.210938 71.988281 -23.898438 73.167969 -27.878906 C 74.792969 -32.894531 76.265625 -37.910156 76.855469 -43.222656 C 77.003906 -44.550781 76.855469 -45.878906 77.300781 -47.207031 C 77.742188 -48.679688 77.59375 -50.304688 77.742188 -51.777344 C 77.742188 -52.8125 77.742188 -53.84375 77.742188 -54.875 Z M 25.371094 -50.449219 C 25.078125 -55.171875 25.371094 -59.746094 26.40625 -64.316406 C 27.734375 -69.921875 29.945312 -75.234375 33.632812 -79.808594 C 35.699219 -82.167969 38.5 -83.640625 41.601562 -83.640625 C 44.699219 -83.789062 47.5 -82.757812 49.859375 -80.988281 C 50.15625 -80.691406 50.449219 -80.542969 50.597656 -80.101562 C 52.222656 -77.742188 53.546875 -75.085938 54.433594 -72.285156 C 55.613281 -68.003906 56.5 -63.578125 56.941406 -59.300781 C 57.089844 -55.464844 56.941406 -51.777344 56.792969 -48.089844 C 56.792969 -45.730469 56.648438 -43.371094 56.203125 -41.15625 C 55.464844 -36.140625 54.433594 -31.125 52.664062 -26.257812 C 51.925781 -24.191406 50.746094 -22.421875 48.828125 -21.539062 C 46.46875 -20.210938 43.8125 -19.324219 41.007812 -19.914062 C 39.386719 -20.210938 37.765625 -20.503906 36.140625 -20.949219 C 32.894531 -21.832031 30.832031 -23.898438 29.207031 -26.699219 C 27.585938 -30.09375 26.847656 -33.488281 26.257812 -37.027344 C 25.519531 -41.601562 25.078125 -46.023438 25.371094 -50.449219 Z M 39.828125 -110.488281 C 41.601562 -110.34375 42.335938 -110.933594 43.074219 -111.964844 C 44.992188 -114.914062 46.910156 -117.867188 48.828125 -120.816406 C 51.039062 -124.355469 52.664062 -128.339844 55.171875 -131.585938 C 55.320312 -131.734375 55.320312 -131.878906 55.320312 -132.027344 C 56.054688 -133.207031 56.054688 -134.386719 55.320312 -135.421875 C 55.023438 -136.011719 54.433594 -136.601562 53.992188 -137.042969 C 52.515625 -138.371094 50.894531 -139.402344 49.125 -140.289062 C 47.351562 -141.027344 45.730469 -141.46875 43.8125 -141.765625 C 42.191406 -141.910156 41.007812 -141.171875 40.125 -139.992188 C 39.828125 -139.699219 39.683594 -139.402344 39.535156 -139.109375 C 38.207031 -136.894531 37.027344 -134.683594 35.699219 -132.617188 C 33.78125 -129.371094 31.714844 -126.273438 29.796875 -123.027344 C 29.207031 -122.144531 28.617188 -120.964844 28.324219 -119.929688 C 27.734375 -118.308594 28.175781 -116.980469 29.503906 -116.097656 C 32.453125 -113.882812 35.550781 -112.113281 38.945312 -110.636719 C 39.238281 -110.488281 39.828125 -110.488281 39.828125 -110.488281 Z M 39.828125 -110.488281 "/></g></g></g><g fill="#fd6868" fill-opacity="1"><g transform="translate(408.051515, 144.307985)"><g><path d="M 25.371094 -53.253906 C 25.519531 -53.253906 25.519531 -53.402344 25.667969 -53.402344 C 25.667969 -53.253906 25.816406 -53.253906 25.816406 -53.105469 C 26.996094 -50.007812 29.0625 -47.351562 30.683594 -44.550781 C 32.894531 -40.566406 35.257812 -36.730469 37.617188 -32.75 C 39.386719 -29.945312 41.007812 -27.289062 42.78125 -24.636719 C 44.699219 -21.683594 46.761719 -19.03125 48.238281 -16.078125 C 49.125 -14.160156 50.007812 -12.390625 50.894531 -10.621094 C 52.8125 -7.523438 54.875 -4.425781 56.792969 -1.179688 C 57.238281 -0.589844 57.828125 0 58.269531 0.589844 C 58.710938 0.886719 59.300781 1.03125 59.597656 1.03125 C 61.515625 1.03125 63.433594 0.886719 65.351562 0.886719 C 66.824219 0.738281 68.449219 0.441406 70.070312 0.589844 C 71.691406 0.589844 72.875 0 74.054688 -1.328125 C 74.496094 -1.917969 74.792969 -2.359375 74.792969 -3.246094 C 74.644531 -6.046875 74.644531 -9 74.644531 -11.800781 C 74.347656 -17.847656 74.054688 -23.75 74.054688 -29.796875 C 73.90625 -39.386719 74.054688 -49.125 73.90625 -58.710938 C 73.90625 -67.121094 73.757812 -75.527344 73.464844 -83.789062 C 73.316406 -89.984375 72.578125 -96.179688 72.726562 -102.375 C 72.726562 -103.113281 72.285156 -103.703125 71.691406 -104 C 71.398438 -104.148438 71.101562 -104.292969 70.660156 -104.292969 C 69.628906 -104.738281 68.300781 -104.589844 67.121094 -104.589844 C 64.613281 -104.738281 61.957031 -104.882812 59.449219 -105.03125 C 58.121094 -105.03125 56.941406 -104.882812 55.761719 -104.441406 C 54.730469 -104 54.140625 -103.558594 54.140625 -102.375 C 54.140625 -98.097656 54.140625 -93.820312 54.285156 -89.691406 C 54.433594 -84.820312 55.023438 -79.953125 55.023438 -75.085938 C 55.171875 -64.90625 55.171875 -54.730469 55.171875 -44.699219 C 55.171875 -44.402344 55.023438 -44.109375 55.023438 -43.8125 C 54.730469 -43.960938 54.582031 -44.109375 54.582031 -44.253906 C 52.515625 -47.941406 50.304688 -51.632812 48.386719 -55.320312 C 47.058594 -57.53125 46.023438 -59.746094 44.84375 -61.957031 C 41.15625 -68.742188 37.46875 -75.527344 34.222656 -82.460938 C 32.160156 -86.738281 29.796875 -91.019531 28.027344 -95.589844 C 27.144531 -97.953125 25.816406 -100.164062 24.78125 -102.523438 C 24.339844 -103.703125 23.457031 -104.441406 22.273438 -104.589844 C 20.503906 -104.738281 18.734375 -104.882812 16.964844 -105.03125 C 15.933594 -105.03125 14.898438 -105.03125 14.015625 -105.03125 C 12.539062 -105.03125 11.0625 -105.03125 9.441406 -105.03125 C 9.144531 -105.03125 8.703125 -105.03125 8.410156 -104.882812 C 6.933594 -104 5.902344 -102.820312 5.902344 -100.902344 C 5.902344 -100.015625 5.902344 -99.277344 6.046875 -98.542969 C 6.046875 -97.65625 6.195312 -96.769531 6.34375 -95.738281 C 6.34375 -92.050781 6.492188 -88.214844 6.492188 -84.378906 C 6.492188 -73.464844 6.492188 -62.695312 6.492188 -51.925781 C 6.636719 -46.320312 6.785156 -40.714844 6.933594 -35.257812 C 6.933594 -24.636719 6.785156 -13.867188 6.785156 -3.394531 C 6.785156 -2.65625 6.785156 -2.066406 6.933594 -1.328125 C 7.082031 -0.148438 7.964844 0.738281 9.144531 0.738281 C 12.6875 0.886719 16.226562 1.328125 19.765625 1.03125 C 21.09375 0.886719 22.273438 0.589844 23.457031 0 C 24.636719 -0.589844 25.226562 -1.917969 25.226562 -3.246094 C 25.078125 -6.933594 24.929688 -10.621094 24.929688 -14.308594 C 24.929688 -19.175781 25.226562 -24.191406 25.226562 -29.0625 C 25.371094 -36.730469 25.371094 -44.550781 25.371094 -52.222656 C 25.371094 -52.515625 25.371094 -52.8125 25.371094 -53.253906 Z M 25.371094 -53.253906 "/></g></g></g></g></g></g><g mask="url(#0d0581a3fd)"><g transform="matrix(1, 0, 0, 1, 20, 198)"><g clip-path="url(#7ef2a5851d)"><g clip-path="url(#f427efe924)"><path fill="#f67e7e" d="M 213.453125 77.035156 C 212.394531 79.238281 208.691406 79.652344 206.617188 79.105469 C 200.199219 77.425781 193.933594 75.273438 187.871094 72.53125 C 186.058594 71.703125 184.171875 69.8125 186.058594 67.949219 C 187.847656 66.1875 191.445312 66.058594 193.621094 67.042969 C 198.851562 69.398438 204.316406 71.417969 209.777344 72.867188 C 211.488281 73.332031 214.59375 74.679688 213.453125 77.035156 Z M 133.445312 14.789062 C 131.324219 13.390625 127.957031 13.3125 125.703125 14.53125 C 120.605469 17.300781 115.347656 19.632812 109.882812 21.523438 C 107.996094 22.167969 106.050781 24.007812 107.761719 25.949219 C 109.417969 27.839844 112.992188 28.175781 115.21875 27.398438 C 121.457031 25.25 127.492188 22.609375 133.292969 19.449219 C 135.363281 18.335938 135.363281 16.085938 133.445312 14.789062 Z M 133.445312 14.789062 " fill-opacity="1" fill-rule="nonzero"/></g><path fill="#f2c70f" d="M 117.058594 60.128906 C 112.886719 64.683594 108.332031 68.878906 103.464844 72.6875 C 101.367188 74.316406 98.363281 74.574219 95.902344 73.59375 C 94.246094 72.917969 92.019531 70.613281 94.089844 69.007812 C 98.957031 65.203125 103.488281 61.007812 107.683594 56.453125 C 109.390625 54.5625 113.121094 54.691406 115.246094 55.546875 C 117.210938 56.320312 118.765625 58.261719 117.058594 60.128906 Z M 173.734375 5.441406 C 171.871094 5.105469 167.753906 5.15625 166.898438 7.515625 C 164.800781 13.339844 162.265625 18.984375 159.261719 24.394531 C 156.957031 28.566406 167.703125 30.273438 169.773438 26.519531 C 172.777344 21.109375 175.339844 15.488281 177.414062 9.636719 C 178.242188 7.308594 175.730469 5.804688 173.734375 5.441406 Z M 15.972656 48.113281 C 14.109375 47.804688 9.992188 47.828125 9.136719 50.183594 C 7.066406 56.011719 4.5 61.65625 1.5 67.066406 C -0.804688 71.234375 9.9375 72.945312 12.011719 69.191406 C 15.015625 63.777344 17.578125 58.160156 19.648438 52.308594 C 20.476562 49.976562 17.964844 48.476562 15.972656 48.113281 Z M 15.972656 48.113281 " fill-opacity="1" fill-rule="nonzero"/><g clip-path="url(#68e45bc575)"><path fill="#f19d42" d="M 71.484375 59.609375 C 74.800781 64.246094 64.289062 65.953125 61.855469 62.613281 C 58.074219 57.304688 54.734375 51.738281 51.859375 45.886719 C 50.71875 43.558594 54.214844 42.183594 55.847656 41.976562 C 58.152344 41.667969 61.414062 42.210938 62.527344 44.515625 C 65.117188 49.769531 68.066406 54.820312 71.484375 59.609375 Z M 232.433594 26.054688 C 227.746094 22.53125 223.371094 18.621094 219.332031 14.375 C 217.570312 12.539062 214.308594 13.003906 212.210938 13.960938 C 210.710938 14.660156 207.808594 17.015625 209.597656 18.90625 C 214.101562 23.621094 218.996094 27.917969 224.199219 31.800781 C 227.488281 34.289062 236.992188 29.496094 232.433594 26.054688 Z M 232.433594 26.054688 " fill-opacity="1" fill-rule="nonzero"/></g><g clip-path="url(#ba0d128dd1)"><path fill="#4aa6b8" d="M 56.777344 14.996094 C 55.019531 16.730469 51.367188 16.9375 49.21875 15.902344 C 43.261719 13.03125 37.539062 9.765625 32.15625 5.960938 C 30.214844 4.589844 30.214844 2.492188 32.308594 1.300781 C 34.511719 0.0585938 38.007812 0.109375 40.078125 1.585938 C 44.789062 4.898438 49.734375 7.902344 54.941406 10.414062 C 56.726562 11.269531 58.667969 13.105469 56.777344 14.996094 Z M 175.808594 46.636719 C 170.109375 47.542969 164.3125 47.878906 158.535156 47.828125 C 156 47.804688 153.097656 49.746094 151.984375 52.023438 C 150.925781 54.199219 152.140625 55.933594 154.496094 55.960938 C 161.101562 56.011719 167.652344 55.46875 174.175781 54.429688 C 176.53125 54.070312 179.40625 51.789062 179.871094 49.382812 C 180.390625 46.714844 177.773438 46.328125 175.808594 46.636719 Z M 175.808594 46.636719 " fill-opacity="1" fill-rule="nonzero"/></g></g></g></g><g mask="url(#5054c851de)"><g transform="matrix(1, 0, 0, 1, 220, 198)"><g clip-path="url(#a99ad03ba1)"><g clip-path="url(#52445ae13c)"><path fill="#f67e7e" d="M 213.308594 77.035156 C 212.246094 79.238281 208.546875 79.652344 206.472656 79.105469 C 200.050781 77.425781 193.785156 75.273438 187.726562 72.53125 C 185.914062 71.703125 184.023438 69.8125 185.914062 67.949219 C 187.703125 66.1875 191.300781 66.058594 193.476562 67.042969 C 198.707031 69.398438 204.167969 71.417969 209.632812 72.867188 C 211.339844 73.332031 214.449219 74.679688 213.308594 77.035156 Z M 133.300781 14.789062 C 131.179688 13.390625 127.8125 13.3125 125.558594 14.53125 C 120.457031 17.300781 115.203125 19.632812 109.738281 21.523438 C 107.847656 22.167969 105.90625 24.007812 107.617188 25.949219 C 109.273438 27.839844 112.847656 28.175781 115.074219 27.398438 C 121.3125 25.25 127.347656 22.609375 133.144531 19.449219 C 135.21875 18.335938 135.21875 16.085938 133.300781 14.789062 Z M 133.300781 14.789062 " fill-opacity="1" fill-rule="nonzero"/></g><path fill="#f2c70f" d="M 116.910156 60.128906 C 112.742188 64.683594 108.1875 68.878906 103.316406 72.6875 C 101.21875 74.316406 98.21875 74.574219 95.757812 73.59375 C 94.101562 72.917969 91.875 70.613281 93.945312 69.007812 C 98.8125 65.203125 103.34375 61.007812 107.539062 56.453125 C 109.246094 54.5625 112.976562 54.691406 115.097656 55.546875 C 117.066406 56.320312 118.621094 58.261719 116.910156 60.128906 Z M 173.589844 5.441406 C 171.726562 5.105469 167.609375 5.15625 166.753906 7.515625 C 164.65625 13.339844 162.121094 18.984375 159.117188 24.394531 C 156.8125 28.566406 167.558594 30.273438 169.628906 26.519531 C 172.632812 21.109375 175.195312 15.488281 177.265625 9.636719 C 178.097656 7.308594 175.585938 5.804688 173.589844 5.441406 Z M 15.828125 48.113281 C 13.960938 47.804688 9.847656 47.828125 8.992188 50.183594 C 6.921875 56.011719 4.355469 61.65625 1.351562 67.066406 C -0.953125 71.234375 9.792969 72.945312 11.867188 69.191406 C 14.867188 63.777344 17.433594 58.160156 19.503906 52.308594 C 20.332031 49.976562 17.820312 48.476562 15.828125 48.113281 Z M 15.828125 48.113281 " fill-opacity="1" fill-rule="nonzero"/><g clip-path="url(#16001acaee)"><path fill="#f19d42" d="M 71.339844 59.609375 C 74.65625 64.246094 64.140625 65.953125 61.707031 62.613281 C 57.929688 57.304688 54.589844 51.738281 51.714844 45.886719 C 50.574219 43.558594 54.070312 42.183594 55.703125 41.976562 C 58.007812 41.667969 61.269531 42.210938 62.382812 44.515625 C 64.972656 49.769531 67.921875 54.820312 71.339844 59.609375 Z M 232.289062 26.054688 C 227.601562 22.53125 223.226562 18.621094 219.1875 14.375 C 217.425781 12.539062 214.164062 13.003906 212.066406 13.960938 C 210.566406 14.660156 207.664062 17.015625 209.453125 18.90625 C 213.957031 23.621094 218.851562 27.917969 224.054688 31.800781 C 227.34375 34.289062 236.847656 29.496094 232.289062 26.054688 Z M 232.289062 26.054688 " fill-opacity="1" fill-rule="nonzero"/></g><g clip-path="url(#1e7f5d4f38)"><path fill="#4aa6b8" d="M 56.632812 14.996094 C 54.871094 16.730469 51.222656 16.9375 49.074219 15.902344 C 43.117188 13.03125 37.394531 9.765625 32.011719 5.960938 C 30.066406 4.589844 30.066406 2.492188 32.164062 1.300781 C 34.367188 0.0585938 37.863281 0.109375 39.933594 1.585938 C 44.644531 4.898438 49.589844 7.902344 54.796875 10.414062 C 56.582031 11.269531 58.523438 13.105469 56.632812 14.996094 Z M 175.660156 46.636719 C 169.964844 47.542969 164.164062 47.878906 158.390625 47.828125 C 155.855469 47.804688 152.953125 49.746094 151.839844 52.023438 C 150.777344 54.199219 151.996094 55.933594 154.351562 55.960938 C 160.953125 56.011719 167.503906 55.46875 174.03125 54.429688 C 176.386719 54.070312 179.261719 51.789062 179.726562 49.382812 C 180.246094 46.714844 177.628906 46.328125 175.660156 46.636719 Z M 175.660156 46.636719 " fill-opacity="1" fill-rule="nonzero"/></g></g></g></g><g mask="url(#564359d7d9)"><g transform="matrix(1, 0, 0, 1, 1166, 198)"><g clip-path="url(#45c0d82719)"><g clip-path="url(#f635a564d3)"><path fill="#f67e7e" d="M 213.285156 77.035156 C 212.222656 79.238281 208.523438 79.652344 206.449219 79.105469 C 200.027344 77.425781 193.761719 75.273438 187.703125 72.53125 C 185.890625 71.703125 184 69.8125 185.890625 67.949219 C 187.679688 66.1875 191.277344 66.058594 193.453125 67.042969 C 198.683594 69.398438 204.144531 71.417969 209.609375 72.867188 C 211.316406 73.332031 214.425781 74.679688 213.285156 77.035156 Z M 133.277344 14.789062 C 131.15625 13.390625 127.789062 13.3125 125.535156 14.53125 C 120.433594 17.300781 115.179688 19.632812 109.714844 21.523438 C 107.824219 22.167969 105.882812 24.007812 107.59375 25.949219 C 109.25 27.839844 112.824219 28.175781 115.050781 27.398438 C 121.289062 25.25 127.324219 22.609375 133.121094 19.449219 C 135.195312 18.335938 135.195312 16.085938 133.277344 14.789062 Z M 133.277344 14.789062 " fill-opacity="1" fill-rule="nonzero"/></g><path fill="#f2c70f" d="M 116.886719 60.128906 C 112.71875 64.683594 108.164062 68.878906 103.292969 72.6875 C 101.195312 74.316406 98.195312 74.574219 95.734375 73.59375 C 94.078125 72.917969 91.851562 70.613281 93.921875 69.007812 C 98.789062 65.203125 103.320312 61.007812 107.515625 56.453125 C 109.222656 54.5625 112.953125 54.691406 115.074219 55.546875 C 117.042969 56.320312 118.597656 58.261719 116.886719 60.128906 Z M 173.566406 5.441406 C 171.703125 5.105469 167.585938 5.15625 166.730469 7.515625 C 164.632812 13.339844 162.097656 18.984375 159.09375 24.394531 C 156.789062 28.566406 167.535156 30.273438 169.605469 26.519531 C 172.609375 21.109375 175.171875 15.488281 177.242188 9.636719 C 178.070312 7.308594 175.5625 5.804688 173.566406 5.441406 Z M 15.804688 48.113281 C 13.9375 47.804688 9.824219 47.828125 8.96875 50.183594 C 6.894531 56.011719 4.332031 61.65625 1.328125 67.066406 C -0.976562 71.234375 9.769531 72.945312 11.84375 69.191406 C 14.84375 63.777344 17.410156 58.160156 19.480469 52.308594 C 20.308594 49.976562 17.796875 48.476562 15.804688 48.113281 Z M 15.804688 48.113281 " fill-opacity="1" fill-rule="nonzero"/><g clip-path="url(#90880cd551)"><path fill="#f19d42" d="M 71.316406 59.609375 C 74.632812 64.246094 64.117188 65.953125 61.683594 62.613281 C 57.90625 57.304688 54.566406 51.738281 51.691406 45.886719 C 50.550781 43.558594 54.046875 42.183594 55.679688 41.976562 C 57.984375 41.667969 61.246094 42.210938 62.359375 44.515625 C 64.949219 49.769531 67.898438 54.820312 71.316406 59.609375 Z M 232.265625 26.054688 C 227.578125 22.53125 223.203125 18.621094 219.164062 14.375 C 217.402344 12.539062 214.140625 13.003906 212.042969 13.960938 C 210.542969 14.660156 207.640625 17.015625 209.429688 18.90625 C 213.933594 23.621094 218.828125 27.917969 224.03125 31.800781 C 227.320312 34.289062 236.824219 29.496094 232.265625 26.054688 Z M 232.265625 26.054688 " fill-opacity="1" fill-rule="nonzero"/></g><g clip-path="url(#7f95597c60)"><path fill="#4aa6b8" d="M 56.609375 14.996094 C 54.847656 16.730469 51.199219 16.9375 49.050781 15.902344 C 43.09375 13.03125 37.371094 9.765625 31.984375 5.960938 C 30.042969 4.589844 30.042969 2.492188 32.140625 1.300781 C 34.34375 0.0585938 37.839844 0.109375 39.910156 1.585938 C 44.621094 4.898438 49.566406 7.902344 54.773438 10.414062 C 56.558594 11.269531 58.5 13.105469 56.609375 14.996094 Z M 175.636719 46.636719 C 169.941406 47.542969 164.140625 47.878906 158.367188 47.828125 C 155.832031 47.804688 152.929688 49.746094 151.816406 52.023438 C 150.753906 54.199219 151.972656 55.933594 154.328125 55.960938 C 160.929688 56.011719 167.480469 55.46875 174.007812 54.429688 C 176.363281 54.070312 179.238281 51.789062 179.703125 49.382812 C 180.222656 46.714844 177.605469 46.328125 175.636719 46.636719 Z M 175.636719 46.636719 " fill-opacity="1" fill-rule="nonzero"/></g></g></g></g></svg>