<svg xmlns="http://www.w3.org/2000/svg" xmlns:xlink="http://www.w3.org/1999/xlink" width="1920" zoomAndPan="magnify" viewBox="0 0 1440 374.999991" height="500" preserveAspectRatio="xMidYMid meet" version="1.0"><defs><filter x="0%" y="0%" width="100%" height="100%" id="e783d84b61"><feColorMatrix values="0 0 0 0 1 0 0 0 0 1 0 0 0 0 1 0 0 0 1 0" color-interpolation-filters="sRGB"/></filter><g/><mask id="507d036e63"><g filter="url(#e783d84b61)"><rect x="-144" width="1728" fill="#000000" y="-37.499999" height="449.999989" fill-opacity="0.6"/></g></mask><clipPath id="643144f772"><rect x="0" width="464" y="0" height="157"/></clipPath><mask id="f6bd34ee2b"><g filter="url(#e783d84b61)"><rect x="-144" width="1728" fill="#000000" y="-37.499999" height="449.999989" fill-opacity="0.49"/></g></mask><clipPath id="a7e610f250"><path d="M 62 1.054688 L 353 1.054688 L 353 111 L 62 111 Z M 62 1.054688 " clip-rule="nonzero"/></clipPath><clipPath id="25bb54124f"><rect x="0" width="465" y="0" height="156"/></clipPath><mask id="27d6601313"><g filter="url(#e783d84b61)"><rect x="-144" width="1728" fill="#000000" y="-37.499999" height="449.999989" fill-opacity="0.58"/></g></mask><clipPath id="ec09879565"><path d="M 61 1.054688 L 353 1.054688 L 353 111 L 61 111 Z M 61 1.054688 " clip-rule="nonzero"/></clipPath><clipPath id="507264fac9"><rect x="0" width="464" y="0" height="156"/></clipPath><mask id="262bb25635"><g filter="url(#e783d84b61)"><rect x="-144" width="1728" fill="#000000" y="-37.499999" height="449.999989" fill-opacity="0.96"/></g></mask><clipPath id="3655691f82"><rect x="0" width="1042" y="0" height="345"/></clipPath></defs><g mask="url(#507d036e63)"><g transform="matrix(1, 0, 0, 1, 100, 211)"><g clip-path="url(#643144f772)"><path fill="#1a4b93" d="M 417.605469 151.046875 C 415.539062 155.339844 408.328125 156.148438 404.292969 155.085938 C 391.789062 151.804688 379.585938 147.613281 367.785156 142.257812 C 364.257812 140.644531 360.574219 136.957031 364.257812 133.320312 C 367.734375 129.886719 374.746094 129.632812 378.980469 131.550781 C 389.167969 136.148438 399.804688 140.085938 410.445312 142.917969 C 413.773438 143.824219 419.824219 146.453125 417.605469 151.046875 Z M 261.792969 29.636719 C 257.65625 26.90625 251.101562 26.757812 246.714844 29.128906 C 236.78125 34.535156 226.542969 39.078125 215.902344 42.765625 C 212.222656 44.027344 208.441406 47.613281 211.769531 51.402344 C 214.996094 55.089844 221.957031 55.746094 226.292969 54.230469 C 238.445312 50.039062 250.195312 44.886719 261.488281 38.726562 C 265.523438 36.554688 265.523438 32.160156 261.792969 29.636719 Z M 261.792969 29.636719 " fill-opacity="1" fill-rule="nonzero"/><path fill="#ffbfb6" d="M 229.871094 118.066406 C 221.753906 126.957031 212.878906 135.136719 203.398438 142.5625 C 199.3125 145.746094 193.464844 146.25 188.675781 144.332031 C 185.445312 143.015625 181.109375 138.523438 185.144531 135.390625 C 194.625 127.96875 203.449219 119.785156 211.617188 110.894531 C 214.945312 107.210938 222.207031 107.460938 226.34375 109.128906 C 230.175781 110.644531 233.199219 114.433594 229.871094 118.066406 Z M 340.253906 11.402344 C 336.621094 10.746094 328.605469 10.847656 326.941406 15.445312 C 322.855469 26.808594 317.914062 37.816406 312.066406 48.371094 C 307.578125 56.503906 328.503906 59.835938 332.539062 52.511719 C 338.386719 41.957031 343.378906 31 347.414062 19.585938 C 349.027344 15.039062 344.136719 12.109375 340.253906 11.402344 Z M 33.011719 94.632812 C 29.378906 94.027344 21.363281 94.078125 19.699219 98.675781 C 15.664062 110.039062 10.671875 121.046875 4.824219 131.601562 C 0.335938 139.734375 21.261719 143.066406 25.296875 135.746094 C 31.144531 125.1875 36.136719 114.230469 40.171875 102.816406 C 41.785156 98.269531 36.894531 95.339844 33.011719 94.632812 Z M 33.011719 94.632812 " fill-opacity="1" fill-rule="nonzero"/><path fill="#f19d42" d="M 141.125 117.058594 C 147.578125 126.097656 127.105469 129.429688 122.363281 122.917969 C 115.003906 112.5625 108.496094 101.703125 102.902344 90.289062 C 100.683594 85.746094 107.488281 83.070312 110.667969 82.664062 C 115.152344 82.058594 121.507812 83.117188 123.675781 87.613281 C 128.71875 97.867188 134.46875 107.714844 141.125 117.058594 Z M 454.566406 51.605469 C 445.441406 44.734375 436.917969 37.109375 429.054688 28.828125 C 425.625 25.242188 419.269531 26.148438 415.1875 28.019531 C 412.261719 29.382812 406.613281 33.976562 410.09375 37.664062 C 418.867188 46.855469 428.398438 55.242188 438.53125 62.816406 C 444.9375 67.664062 463.441406 58.320312 454.566406 51.605469 Z M 454.566406 51.605469 " fill-opacity="1" fill-rule="nonzero"/><path fill="#4aa6b8" d="M 112.480469 30.039062 C 109.050781 33.421875 101.941406 33.828125 97.757812 31.808594 C 86.160156 26.199219 75.015625 19.835938 64.527344 12.414062 C 60.746094 9.738281 60.746094 5.644531 64.828125 3.324219 C 69.117188 0.898438 75.921875 1 79.957031 3.878906 C 89.132812 10.34375 98.765625 16.199219 108.902344 21.101562 C 112.378906 22.765625 116.164062 26.351562 112.480469 30.039062 Z M 344.289062 91.753906 C 333.195312 93.523438 321.898438 94.179688 310.652344 94.078125 C 305.710938 94.027344 300.0625 97.816406 297.894531 102.261719 C 295.828125 106.503906 298.199219 109.886719 302.789062 109.9375 C 315.644531 110.039062 328.402344 108.976562 341.109375 106.957031 C 345.699219 106.25 351.296875 101.804688 352.203125 97.109375 C 353.210938 91.90625 348.121094 91.148438 344.289062 91.753906 Z M 344.289062 91.753906 " fill-opacity="1" fill-rule="nonzero"/></g></g></g><g mask="url(#f6bd34ee2b)"><g transform="matrix(1, 0, 0, 1, 481, 219)"><g clip-path="url(#25bb54124f)"><path fill="#1a4b93" d="M 418.199219 151.203125 C 416.128906 155.496094 408.917969 156.304688 404.886719 155.242188 C 392.378906 151.960938 380.175781 147.769531 368.378906 142.414062 C 364.847656 140.800781 361.167969 137.113281 364.847656 133.476562 C 368.328125 130.042969 375.335938 129.789062 379.570312 131.707031 C 389.757812 136.304688 400.398438 140.246094 411.039062 143.074219 C 414.367188 143.980469 420.417969 146.609375 418.199219 151.203125 Z M 262.382812 29.792969 C 258.246094 27.0625 251.691406 26.914062 247.304688 29.285156 C 237.371094 34.691406 227.136719 39.234375 216.496094 42.921875 C 212.816406 44.183594 209.03125 47.769531 212.359375 51.558594 C 215.589844 55.246094 222.546875 55.902344 226.882812 54.386719 C 239.035156 50.195312 250.785156 45.042969 262.082031 38.882812 C 266.113281 36.710938 266.113281 32.316406 262.382812 29.792969 Z M 262.382812 29.792969 " fill-opacity="1" fill-rule="nonzero"/><path fill="#ffbfb6" d="M 230.464844 118.222656 C 222.34375 127.113281 213.46875 135.292969 203.988281 142.71875 C 199.90625 145.902344 194.054688 146.40625 189.265625 144.488281 C 186.039062 143.171875 181.703125 138.679688 185.734375 135.546875 C 195.214844 128.125 204.039062 119.941406 212.210938 111.050781 C 215.539062 107.367188 222.800781 107.617188 226.933594 109.285156 C 230.765625 110.800781 233.792969 114.589844 230.464844 118.222656 Z M 340.84375 11.558594 C 337.214844 10.902344 329.195312 11.003906 327.53125 15.601562 C 323.449219 26.964844 318.507812 37.972656 312.65625 48.527344 C 308.167969 56.660156 329.097656 59.992188 333.128906 52.667969 C 338.980469 42.113281 343.972656 31.15625 348.003906 19.742188 C 349.617188 15.195312 344.726562 12.265625 340.84375 11.558594 Z M 33.601562 94.789062 C 29.972656 94.183594 21.953125 94.234375 20.289062 98.832031 C 16.257812 110.195312 11.265625 121.203125 5.414062 131.757812 C 0.925781 139.890625 21.851562 143.222656 25.886719 135.902344 C 31.738281 125.34375 36.730469 114.386719 40.761719 102.972656 C 42.375 98.425781 37.484375 95.496094 33.601562 94.789062 Z M 33.601562 94.789062 " fill-opacity="1" fill-rule="nonzero"/><path fill="#f19d42" d="M 141.714844 117.214844 C 148.167969 126.253906 127.695312 129.585938 122.957031 123.074219 C 115.59375 112.71875 109.089844 101.859375 103.492188 90.445312 C 101.273438 85.902344 108.082031 83.226562 111.257812 82.820312 C 115.746094 82.214844 122.097656 83.277344 124.265625 87.769531 C 129.308594 98.023438 135.058594 107.871094 141.714844 117.214844 Z M 455.160156 51.761719 C 446.03125 44.890625 437.511719 37.265625 429.644531 28.984375 C 426.214844 25.398438 419.863281 26.308594 415.777344 28.175781 C 412.851562 29.539062 407.203125 34.136719 410.683594 37.820312 C 419.457031 47.011719 428.988281 55.398438 439.125 62.972656 C 445.527344 67.820312 464.035156 58.476562 455.160156 51.761719 Z M 455.160156 51.761719 " fill-opacity="1" fill-rule="nonzero"/><g clip-path="url(#a7e610f250)"><path fill="#4aa6b8" d="M 113.074219 30.195312 C 109.644531 33.578125 102.535156 33.984375 98.347656 31.964844 C 86.75 26.355469 75.605469 19.992188 65.117188 12.570312 C 61.335938 9.894531 61.335938 5.800781 65.421875 3.480469 C 69.707031 1.054688 76.515625 1.15625 80.546875 4.035156 C 89.726562 10.5 99.355469 16.355469 109.492188 21.257812 C 112.972656 22.921875 116.753906 26.507812 113.074219 30.195312 Z M 344.878906 91.910156 C 333.785156 93.679688 322.488281 94.335938 311.246094 94.234375 C 306.304688 94.183594 300.65625 97.972656 298.488281 102.417969 C 296.421875 106.660156 298.789062 110.042969 303.378906 110.09375 C 316.238281 110.195312 328.996094 109.132812 341.703125 107.113281 C 346.289062 106.40625 351.886719 101.960938 352.796875 97.265625 C 353.804688 92.0625 348.710938 91.304688 344.878906 91.910156 Z M 344.878906 91.910156 " fill-opacity="1" fill-rule="nonzero"/></g></g></g></g><g mask="url(#27d6601313)"><g transform="matrix(1, 0, 0, 1, 916, 219)"><g clip-path="url(#507264fac9)"><path fill="#1a4b93" d="M 417.582031 151.203125 C 415.515625 155.496094 408.304688 156.304688 404.269531 155.242188 C 391.765625 151.960938 379.5625 147.769531 367.761719 142.414062 C 364.234375 140.800781 360.550781 137.113281 364.234375 133.476562 C 367.710938 130.042969 374.722656 129.789062 378.957031 131.707031 C 389.144531 136.304688 399.78125 140.246094 410.421875 143.074219 C 413.75 143.980469 419.800781 146.609375 417.582031 151.203125 Z M 261.769531 29.792969 C 257.632812 27.0625 251.078125 26.914062 246.691406 29.285156 C 236.757812 34.691406 226.519531 39.234375 215.882812 42.921875 C 212.199219 44.183594 208.417969 47.769531 211.746094 51.558594 C 214.972656 55.246094 221.933594 55.902344 226.269531 54.386719 C 238.421875 50.195312 250.171875 45.042969 261.464844 38.882812 C 265.5 36.710938 265.5 32.316406 261.769531 29.792969 Z M 261.769531 29.792969 " fill-opacity="1" fill-rule="nonzero"/><path fill="#ffbfb6" d="M 229.847656 118.222656 C 221.730469 127.113281 212.855469 135.292969 203.375 142.71875 C 199.292969 145.902344 193.441406 146.40625 188.652344 144.488281 C 185.425781 143.171875 181.085938 138.679688 185.121094 135.546875 C 194.601562 128.125 203.425781 119.941406 211.59375 111.050781 C 214.921875 107.367188 222.183594 107.617188 226.320312 109.285156 C 230.152344 110.800781 233.175781 114.589844 229.847656 118.222656 Z M 340.230469 11.558594 C 336.601562 10.902344 328.582031 11.003906 326.917969 15.601562 C 322.832031 26.964844 317.890625 37.972656 312.042969 48.527344 C 307.554688 56.660156 328.480469 59.992188 332.515625 52.667969 C 338.363281 42.113281 343.355469 31.15625 347.390625 19.742188 C 349.003906 15.195312 344.113281 12.265625 340.230469 11.558594 Z M 32.988281 94.789062 C 29.355469 94.183594 21.339844 94.234375 19.675781 98.832031 C 15.640625 110.195312 10.648438 121.203125 4.800781 131.757812 C 0.3125 139.890625 21.238281 143.222656 25.273438 135.902344 C 31.121094 125.34375 36.113281 114.386719 40.148438 102.972656 C 41.761719 98.425781 36.871094 95.496094 32.988281 94.789062 Z M 32.988281 94.789062 " fill-opacity="1" fill-rule="nonzero"/><path fill="#f19d42" d="M 141.101562 117.214844 C 147.554688 126.253906 127.082031 129.585938 122.34375 123.074219 C 114.980469 112.71875 108.476562 101.859375 102.878906 90.445312 C 100.660156 85.902344 107.464844 83.226562 110.644531 82.820312 C 115.132812 82.214844 121.484375 83.277344 123.652344 87.769531 C 128.695312 98.023438 134.445312 107.871094 141.101562 117.214844 Z M 454.546875 51.761719 C 445.417969 44.890625 436.894531 37.265625 429.03125 28.984375 C 425.601562 25.398438 419.246094 26.308594 415.164062 28.175781 C 412.238281 29.539062 406.589844 34.136719 410.070312 37.820312 C 418.84375 47.011719 428.375 55.398438 438.511719 62.972656 C 444.914062 67.820312 463.421875 58.476562 454.546875 51.761719 Z M 454.546875 51.761719 " fill-opacity="1" fill-rule="nonzero"/><g clip-path="url(#ec09879565)"><path fill="#4aa6b8" d="M 112.457031 30.195312 C 109.03125 33.578125 101.917969 33.984375 97.734375 31.964844 C 86.136719 26.355469 74.992188 19.992188 64.503906 12.570312 C 60.722656 9.894531 60.722656 5.800781 64.804688 3.480469 C 69.09375 1.054688 75.898438 1.15625 79.933594 4.035156 C 89.113281 10.5 98.742188 16.355469 108.878906 21.257812 C 112.359375 22.921875 116.140625 26.507812 112.457031 30.195312 Z M 344.265625 91.910156 C 333.171875 93.679688 321.875 94.335938 310.628906 94.234375 C 305.6875 94.183594 300.042969 97.972656 297.875 102.417969 C 295.804688 106.660156 298.175781 110.042969 302.765625 110.09375 C 315.621094 110.195312 328.378906 109.132812 341.085938 107.113281 C 345.675781 106.40625 351.273438 101.960938 352.179688 97.265625 C 353.191406 92.0625 348.097656 91.304688 344.265625 91.910156 Z M 344.265625 91.910156 " fill-opacity="1" fill-rule="nonzero"/></g></g></g></g><g mask="url(#262bb25635)"><g transform="matrix(1, 0, 0, 1, 206, 0)"><g clip-path="url(#3655691f82)"><g fill="#e8b562" fill-opacity="1"><g transform="translate(1.028319, 275.822861)"><g><path d="M 13.210938 -74.664062 C 13.496094 -74.664062 13.496094 -74.664062 13.496094 -74.664062 C 13.496094 -67.195312 13.496094 -59.730469 13.496094 -52.550781 C 13.496094 -41.351562 13.210938 -30.152344 12.921875 -18.953125 C 12.921875 -13.496094 12.636719 -8.039062 12.347656 -2.585938 C 12.0625 2.011719 14.359375 2.871094 18.089844 2.871094 C 18.378906 2.871094 18.953125 2.585938 19.527344 2.585938 C 20.964844 2.585938 22.6875 2.296875 24.410156 2.296875 C 26.132812 2.296875 28.140625 2.871094 29.863281 3.160156 C 36.46875 3.160156 42.789062 3.445312 49.390625 3.445312 C 51.976562 3.445312 53.699219 1.722656 53.699219 -1.148438 C 54.273438 -11.773438 54.5625 -22.398438 54.847656 -33.3125 C 55.136719 -39.914062 54.847656 -46.808594 55.136719 -53.699219 C 55.136719 -55.710938 55.136719 -55.710938 57.144531 -55.710938 C 59.15625 -55.996094 61.167969 -55.996094 62.890625 -56.285156 C 65.761719 -56.570312 68.34375 -56.859375 71.21875 -57.144531 C 73.800781 -57.144531 76.386719 -57.433594 78.96875 -57.71875 C 81.269531 -58.007812 83.851562 -58.582031 86.148438 -59.15625 C 90.746094 -60.015625 95.050781 -61.167969 99.070312 -63.464844 C 102.230469 -65.472656 105.390625 -66.910156 108.835938 -68.34375 C 114.003906 -70.355469 118.3125 -73.515625 121.757812 -77.820312 C 125.203125 -82.417969 128.363281 -87.296875 130.660156 -92.46875 C 134.679688 -101.65625 136.976562 -110.847656 137.265625 -120.609375 C 137.839844 -134.105469 136.976562 -147.890625 133.820312 -161.101562 C 132.382812 -167.992188 129.511719 -174.023438 126.925781 -180.339844 C 126.066406 -181.777344 124.917969 -182.925781 124.054688 -184.359375 C 123.480469 -185.222656 122.621094 -186.082031 121.757812 -187.230469 C 117.164062 -193.261719 111.132812 -197.28125 103.667969 -199.292969 C 102.519531 -199.578125 101.082031 -199.867188 99.933594 -200.441406 C 96.773438 -201.589844 93.617188 -201.878906 90.167969 -201.878906 C 88.160156 -201.878906 86.4375 -201.878906 84.714844 -201.878906 C 74.664062 -202.164062 64.613281 -202.453125 54.273438 -202.738281 C 50.253906 -202.738281 46.519531 -202.738281 42.5 -202.738281 C 34.746094 -203.027344 26.992188 -203.027344 19.238281 -203.027344 C 14.644531 -203.027344 12.636719 -201.015625 12.347656 -196.707031 C 11.488281 -189.527344 11.488281 -182.351562 11.488281 -175.457031 C 11.488281 -172.875 11.488281 -170.574219 11.773438 -167.992188 C 12.0625 -159.089844 13.210938 -150.1875 13.210938 -141.285156 C 13.496094 -119.171875 13.210938 -96.773438 13.210938 -74.664062 Z M 55.421875 -129.222656 C 55.421875 -140.136719 55.136719 -151.050781 55.136719 -161.960938 C 55.136719 -163.972656 55.136719 -163.972656 57.144531 -163.972656 C 63.175781 -163.972656 69.207031 -164.257812 75.523438 -164.257812 C 80.117188 -164.257812 84.425781 -162.824219 88.445312 -161.101562 C 90.457031 -160.238281 91.894531 -158.800781 92.753906 -156.503906 C 94.765625 -152.484375 95.914062 -148.464844 95.914062 -143.871094 C 96.199219 -136.402344 96.488281 -128.9375 95.339844 -121.472656 C 94.765625 -116.015625 92.753906 -111.132812 90.746094 -106.539062 C 90.167969 -105.390625 89.308594 -104.242188 89.019531 -102.804688 C 87.871094 -99.933594 85.574219 -97.921875 82.703125 -97.0625 C 79.542969 -95.914062 76.097656 -95.050781 72.941406 -94.476562 C 68.058594 -93.617188 62.890625 -93.617188 58.007812 -93.617188 C 56.285156 -93.617188 55.996094 -93.617188 55.996094 -95.339844 C 55.710938 -97.0625 55.996094 -98.785156 55.996094 -100.507812 C 55.996094 -109.984375 55.710938 -119.746094 55.710938 -129.222656 C 55.710938 -129.222656 55.710938 -129.222656 55.421875 -129.222656 Z M 55.421875 -129.222656 "/></g></g></g><g fill="#f67e7e" fill-opacity="1"><g transform="translate(144.330295, 275.822861)"><g><path d="M 14.070312 -96.773438 C 13.785156 -90.167969 13.496094 -79.257812 13.210938 -68.34375 C 12.921875 -56.285156 12.636719 -44.511719 12.347656 -32.449219 C 12.0625 -24.121094 12.0625 -15.507812 11.773438 -6.890625 C 11.488281 -3.734375 13.210938 -1.4375 14.644531 0.863281 C 14.933594 1.4375 15.792969 2.011719 16.65625 2.296875 C 19.527344 2.871094 22.398438 4.019531 24.984375 4.019531 C 30.726562 4.308594 36.46875 4.308594 41.925781 4.019531 C 47.382812 3.734375 52.839844 3.160156 58.292969 2.871094 C 65.761719 2.871094 73.800781 2.871094 81.269531 2.585938 C 86.4375 2.296875 91.320312 1.722656 96.199219 1.722656 C 105.964844 1.4375 115.441406 1.4375 125.203125 1.148438 C 126.640625 1.148438 128.074219 1.148438 128.9375 0 C 130.949219 -2.296875 132.382812 -4.59375 132.382812 -7.753906 C 132.671875 -14.359375 131.523438 -20.964844 131.234375 -27.566406 C 131.234375 -29.863281 131.234375 -32.738281 128.648438 -34.460938 C 128.648438 -34.460938 128.648438 -34.746094 128.363281 -35.035156 C 126.925781 -37.617188 124.054688 -39.054688 121.183594 -38.480469 C 120.035156 -38.480469 118.886719 -38.191406 117.738281 -38.480469 C 114.292969 -38.480469 110.558594 -38.765625 107.113281 -38.765625 C 101.65625 -38.480469 96.199219 -37.90625 90.746094 -37.90625 C 80.980469 -37.617188 71.21875 -37.617188 61.742188 -37.617188 C 59.15625 -37.332031 59.15625 -37.617188 59.15625 -39.914062 C 59.15625 -45.945312 59.15625 -51.976562 59.15625 -57.71875 C 58.867188 -68.34375 58.867188 -78.683594 58.867188 -89.019531 C 58.867188 -92.753906 59.15625 -92.753906 62.890625 -92.753906 C 69.492188 -93.328125 76.097656 -93.617188 82.703125 -94.191406 C 88.734375 -94.476562 94.476562 -95.339844 100.507812 -95.914062 C 103.09375 -95.914062 105.964844 -95.914062 108.835938 -95.914062 C 111.132812 -96.199219 112.570312 -97.347656 112.570312 -99.933594 C 112.570312 -106.539062 112.570312 -112.855469 112.28125 -119.171875 C 112.28125 -122.046875 111.996094 -124.917969 111.707031 -127.789062 C 111.421875 -129.796875 111.421875 -129.796875 109.410156 -129.796875 C 107.398438 -129.796875 105.675781 -129.796875 103.667969 -129.796875 C 95.914062 -129.796875 87.871094 -130.085938 79.832031 -129.796875 C 73.515625 -129.796875 67.195312 -129.511719 60.59375 -129.511719 C 58.582031 -129.511719 58.292969 -129.511719 58.292969 -131.808594 C 58.582031 -139.847656 58.867188 -147.890625 58.867188 -156.21875 C 59.15625 -157.941406 59.15625 -157.941406 60.878906 -158.226562 C 67.484375 -159.089844 74.375 -159.375 80.980469 -159.664062 C 89.019531 -159.664062 96.773438 -159.664062 104.816406 -159.949219 C 110.558594 -160.238281 116.589844 -160.523438 122.332031 -160.8125 C 124.628906 -161.101562 126.925781 -161.386719 128.363281 -163.398438 C 129.511719 -165.121094 130.371094 -167.128906 130.085938 -169.140625 C 129.796875 -178.042969 129.511719 -186.945312 129.222656 -195.847656 C 128.9375 -200.726562 126.351562 -204.175781 121.183594 -204.460938 C 120.320312 -204.460938 119.171875 -204.460938 118.597656 -204.175781 C 115.726562 -203.601562 113.144531 -203.886719 110.558594 -203.886719 C 105.101562 -203.886719 99.644531 -204.175781 94.476562 -204.175781 C 91.03125 -204.175781 87.871094 -204.460938 84.714844 -204.460938 C 72.652344 -204.460938 60.304688 -204.175781 48.242188 -204.175781 C 47.382812 -204.175781 46.519531 -203.886719 45.371094 -203.886719 C 40.203125 -203.886719 34.746094 -203.886719 29.289062 -203.886719 C 26.707031 -203.886719 23.835938 -203.886719 21.25 -203.886719 C 17.230469 -203.3125 15.21875 -201.304688 15.21875 -197.28125 C 14.933594 -196.132812 15.21875 -195.273438 15.21875 -194.410156 C 15.21875 -190.390625 15.507812 -186.371094 15.507812 -182.351562 C 14.933594 -155.355469 14.644531 -128.363281 14.070312 -96.773438 Z M 14.070312 -96.773438 "/></g></g></g><g fill="#f797d3" fill-opacity="1"><g transform="translate(288.486348, 275.822861)"><g><path d="M 55.136719 -27.566406 C 55.136719 -29.289062 55.136719 -30.726562 55.136719 -32.449219 C 55.136719 -39.628906 55.136719 -46.808594 55.421875 -53.699219 C 55.421875 -55.710938 55.421875 -55.710938 57.144531 -55.710938 C 59.730469 -55.996094 62.027344 -56.285156 64.613281 -56.570312 C 66.621094 -56.570312 68.632812 -56.859375 70.355469 -57.144531 C 71.792969 -57.144531 72.652344 -56.570312 72.941406 -55.421875 C 74.664062 -51.976562 76.671875 -48.53125 78.394531 -44.796875 C 81.84375 -37.042969 85.289062 -29.003906 89.308594 -20.964844 C 93.042969 -13.785156 97.347656 -6.605469 101.371094 0.574219 C 101.65625 0.863281 101.65625 1.148438 101.945312 1.148438 C 102.519531 2.585938 103.667969 3.160156 105.101562 2.871094 C 107.113281 2.871094 108.835938 2.871094 110.558594 2.871094 C 118.886719 2.871094 127.214844 2.871094 135.542969 2.871094 C 137.265625 2.585938 138.699219 2.585938 140.421875 2.296875 C 143.582031 1.722656 145.878906 -1.722656 145.019531 -4.882812 C 144.15625 -7.179688 143.007812 -9.761719 141.859375 -12.0625 C 141.285156 -13.785156 140.136719 -15.21875 139.5625 -16.65625 C 137.265625 -22.6875 134.96875 -28.429688 132.671875 -34.460938 C 130.949219 -37.90625 129.222656 -41.640625 127.789062 -45.085938 C 126.640625 -47.667969 125.777344 -50.253906 124.34375 -52.550781 C 121.472656 -58.292969 118.597656 -64.039062 115.441406 -69.78125 C 114.867188 -70.644531 114.867188 -71.503906 116.015625 -72.078125 C 118.023438 -74.089844 120.320312 -75.523438 121.757812 -77.820312 C 125.203125 -82.417969 128.648438 -87.011719 130.660156 -92.179688 C 134.96875 -102.230469 137.839844 -112.570312 137.550781 -123.769531 C 137.550781 -130.660156 137.265625 -137.550781 136.691406 -144.445312 C 135.828125 -157.078125 132.382812 -168.851562 127.214844 -180.050781 C 126.351562 -181.488281 125.492188 -182.925781 124.34375 -184.359375 C 123.769531 -185.222656 122.90625 -186.082031 122.046875 -187.230469 C 117.449219 -193.261719 111.132812 -197.28125 103.953125 -199.292969 C 102.804688 -199.578125 101.65625 -199.867188 100.507812 -200.152344 C 97.0625 -201.589844 93.617188 -201.878906 90.167969 -201.878906 C 88.445312 -201.878906 86.722656 -201.878906 85 -201.878906 C 75.523438 -202.164062 66.335938 -202.453125 57.144531 -202.738281 C 50.253906 -203.027344 43.363281 -203.027344 36.183594 -203.027344 C 30.726562 -203.027344 24.984375 -203.3125 19.238281 -203.027344 C 14.644531 -202.738281 12.921875 -201.015625 12.636719 -196.996094 C 12.347656 -190.390625 12.0625 -184.074219 11.773438 -177.753906 C 11.488281 -174.597656 11.773438 -171.4375 11.773438 -168.277344 C 12.0625 -163.683594 12.921875 -159.089844 12.921875 -154.496094 C 13.496094 -147.027344 13.496094 -139.847656 13.785156 -132.671875 C 13.785156 -110.269531 13.785156 -87.871094 13.785156 -65.472656 C 14.070312 -44.222656 13.496094 -23.261719 12.636719 -2.296875 C 12.347656 1.4375 13.785156 2.871094 17.515625 2.871094 C 19.238281 2.871094 20.964844 2.871094 22.6875 3.160156 C 26.992188 3.160156 31.015625 3.734375 35.320312 4.019531 C 39.628906 4.019531 43.648438 4.019531 47.957031 4.019531 C 51.976562 4.019531 53.699219 2.011719 53.988281 -2.011719 C 54.273438 -10.339844 54.847656 -18.953125 55.136719 -27.566406 Z M 55.710938 -128.9375 C 55.710938 -140.136719 55.421875 -151.050781 55.421875 -161.960938 C 55.421875 -163.972656 55.421875 -163.972656 57.433594 -163.972656 C 63.464844 -163.972656 69.492188 -164.257812 75.523438 -164.257812 C 80.117188 -164.257812 84.714844 -162.824219 88.734375 -161.101562 C 90.746094 -160.238281 92.179688 -158.800781 93.042969 -156.503906 C 95.050781 -152.484375 96.199219 -148.464844 96.199219 -143.871094 C 96.488281 -136.402344 96.773438 -128.9375 95.625 -121.472656 C 95.050781 -116.015625 93.042969 -111.132812 91.03125 -106.539062 C 90.167969 -105.390625 89.59375 -104.242188 89.308594 -102.804688 C 87.871094 -99.933594 85.863281 -97.921875 82.992188 -97.0625 C 79.832031 -95.914062 76.386719 -95.050781 72.941406 -94.476562 C 68.34375 -93.617188 63.175781 -93.617188 58.292969 -93.617188 C 56.570312 -93.617188 56.285156 -93.617188 56.285156 -95.339844 C 55.996094 -97.0625 56.285156 -98.496094 56.285156 -100.21875 C 56.285156 -109.695312 55.996094 -119.460938 55.996094 -128.9375 C 55.996094 -128.9375 55.996094 -128.9375 55.710938 -128.9375 Z M 55.710938 -128.9375 "/></g></g></g><g fill="#83c467" fill-opacity="1"><g transform="translate(445.301057, 275.822861)"><g><path d="M 12.0625 -99.070312 C 12.0625 -86.4375 12.0625 -73.515625 11.773438 -60.878906 C 11.773438 -55.136719 11.773438 -49.390625 11.773438 -43.363281 C 11.773438 -30.152344 11.773438 -16.65625 12.0625 -3.160156 C 12.0625 0.289062 12.0625 0.574219 15.792969 1.148438 C 16.367188 1.148438 16.941406 1.148438 17.515625 1.148438 C 20.675781 1.148438 23.835938 0.863281 26.707031 1.148438 C 33.3125 1.722656 39.914062 1.722656 46.519531 1.722656 C 47.667969 1.722656 48.53125 1.4375 49.390625 1.4375 C 51.976562 0.863281 53.125 -0.574219 53.414062 -3.160156 C 53.414062 -9.1875 53.699219 -15.507812 53.699219 -21.539062 C 53.414062 -35.320312 53.125 -49.105469 53.125 -62.890625 C 53.125 -70.929688 53.414062 -78.96875 53.699219 -87.011719 C 53.699219 -88.160156 53.988281 -88.734375 55.136719 -88.734375 C 57.71875 -88.734375 60.304688 -89.019531 62.890625 -89.019531 C 71.21875 -89.308594 79.257812 -89.308594 87.296875 -88.734375 C 92.753906 -88.445312 98.496094 -88.734375 103.953125 -89.019531 C 105.675781 -89.308594 106.25 -89.882812 106.25 -91.894531 C 106.25 -94.191406 106.539062 -96.488281 106.539062 -98.785156 C 106.539062 -105.101562 106.539062 -111.132812 106.25 -117.164062 C 106.25 -118.597656 105.675781 -120.035156 105.101562 -121.183594 C 103.953125 -123.480469 101.945312 -124.054688 99.644531 -124.34375 C 91.605469 -124.34375 83.566406 -124.628906 75.8125 -124.628906 C 75.238281 -124.628906 74.664062 -124.628906 74.089844 -124.628906 C 68.632812 -124.34375 62.890625 -124.054688 57.144531 -123.769531 C 55.710938 -123.769531 55.421875 -124.054688 55.421875 -125.777344 C 55.421875 -128.074219 55.710938 -130.371094 55.421875 -132.671875 C 55.421875 -141.859375 55.136719 -150.761719 55.136719 -159.949219 C 55.136719 -161.960938 55.136719 -161.960938 57.144531 -162.25 C 61.167969 -162.535156 65.1875 -162.824219 69.207031 -163.109375 C 73.800781 -163.109375 78.683594 -163.683594 83.277344 -163.683594 C 89.308594 -163.972656 95.050781 -163.972656 101.082031 -163.972656 C 103.953125 -163.972656 107.113281 -163.972656 109.984375 -164.257812 C 114.578125 -164.832031 116.589844 -165.980469 117.164062 -170.863281 C 118.3125 -179.476562 118.3125 -188.09375 118.023438 -196.707031 C 118.023438 -197.570312 118.023438 -198.144531 117.738281 -198.71875 C 116.875 -201.589844 115.726562 -203.886719 112.28125 -204.175781 C 109.121094 -204.75 105.964844 -205.324219 102.804688 -205.324219 C 98.210938 -205.609375 93.617188 -205.324219 89.019531 -205.324219 C 74.089844 -205.324219 59.441406 -205.324219 44.511719 -205.324219 C 36.183594 -205.035156 27.566406 -204.175781 19.238281 -203.027344 C 16.941406 -202.738281 14.933594 -201.878906 13.496094 -200.152344 C 12.636719 -199.578125 12.0625 -198.144531 12.0625 -197.28125 C 11.773438 -194.410156 11.488281 -191.539062 11.773438 -188.667969 C 11.773438 -170.863281 12.0625 -152.773438 12.0625 -134.679688 C 12.0625 -122.90625 12.0625 -111.132812 12.0625 -99.070312 Z M 12.0625 -99.070312 "/></g></g></g><g fill="#38b6ff" fill-opacity="1"><g transform="translate(569.355781, 275.822861)"><g><path d="M 47.667969 -179.191406 C 47.382812 -179.191406 47.382812 -179.191406 47.382812 -179.191406 C 47.382812 -186.082031 47.382812 -193.261719 47.382812 -200.152344 C 47.382812 -203.601562 45.945312 -204.75 42.5 -204.460938 C 40.203125 -204.175781 37.90625 -204.175781 35.894531 -204.175781 C 31.875 -204.175781 27.566406 -204.175781 23.546875 -204.175781 C 20.964844 -204.175781 18.664062 -203.886719 16.082031 -203.601562 C 13.785156 -203.3125 12.636719 -202.164062 12.347656 -199.867188 C 12.0625 -196.421875 11.773438 -192.976562 11.773438 -189.527344 C 11.773438 -184.074219 12.0625 -178.617188 12.0625 -173.160156 C 12.0625 -165.695312 12.0625 -157.941406 12.0625 -150.1875 C 12.0625 -147.027344 12.347656 -143.871094 12.347656 -140.710938 C 12.347656 -124.917969 12.636719 -109.121094 12.347656 -93.328125 C 12.347656 -81.84375 12.347656 -70.066406 11.773438 -58.292969 C 11.488281 -46.519531 11.488281 -34.460938 11.773438 -22.398438 C 12.0625 -16.65625 11.773438 -10.625 11.773438 -4.882812 C 11.773438 -3.160156 11.488281 -1.722656 11.488281 0 C 11.488281 2.296875 12.347656 2.871094 14.644531 3.160156 C 15.21875 3.160156 15.792969 3.160156 16.367188 3.160156 C 24.984375 3.160156 33.597656 3.160156 42.214844 2.871094 C 43.648438 2.871094 45.371094 2.011719 45.945312 0 C 45.945312 -0.574219 46.234375 -1.4375 46.234375 -2.296875 C 46.519531 -11.773438 46.808594 -21.539062 47.09375 -31.300781 C 47.09375 -33.597656 47.382812 -36.183594 47.382812 -38.480469 C 47.667969 -42.789062 47.957031 -47.09375 47.957031 -51.402344 C 48.242188 -62.027344 48.242188 -72.652344 48.242188 -82.992188 C 48.242188 -86.722656 47.957031 -90.457031 47.957031 -94.191406 C 47.667969 -99.359375 47.382812 -104.816406 47.382812 -109.984375 C 47.382812 -115.152344 47.667969 -120.320312 47.667969 -125.203125 C 47.667969 -134.394531 47.382812 -143.296875 47.382812 -152.199219 C 47.382812 -154.207031 47.667969 -156.21875 47.667969 -158.515625 C 47.667969 -165.40625 47.667969 -172.300781 47.667969 -179.191406 Z M 47.667969 -179.191406 "/></g></g></g><g fill="#ef811b" fill-opacity="1"><g transform="translate(629.110701, 275.822861)"><g><path d="M 12.0625 -78.683594 C 12.0625 -64.613281 11.773438 -50.253906 12.0625 -36.183594 C 12.0625 -25.269531 12.347656 -14.359375 12.636719 -3.734375 C 12.921875 1.4375 14.359375 2.585938 19.238281 2.585938 C 25.84375 2.296875 32.449219 1.148438 39.054688 1.4375 C 42.789062 1.4375 46.234375 1.148438 49.964844 1.148438 C 56.570312 1.4375 63.175781 1.722656 69.78125 2.011719 C 79.257812 2.296875 88.734375 2.011719 97.921875 1.4375 C 99.644531 1.148438 101.65625 0.863281 103.09375 0.289062 C 105.675781 -0.289062 106.25 -1.148438 106.539062 -3.734375 C 106.539062 -4.308594 106.539062 -4.59375 106.539062 -5.457031 C 106.824219 -10.339844 106.824219 -15.21875 107.113281 -20.390625 C 107.398438 -23.835938 107.398438 -26.992188 107.398438 -30.441406 C 107.398438 -33.023438 105.964844 -35.320312 104.242188 -35.894531 C 102.519531 -36.183594 101.082031 -36.46875 99.359375 -36.46875 C 95.625 -36.757812 91.605469 -36.757812 87.585938 -37.042969 C 76.960938 -37.332031 66.335938 -38.765625 55.710938 -38.765625 C 54.5625 -38.765625 53.699219 -38.765625 52.550781 -38.765625 C 51.402344 -38.765625 51.117188 -39.054688 51.117188 -40.203125 C 51.117188 -45.085938 51.402344 -50.253906 51.402344 -55.421875 C 51.117188 -71.21875 51.117188 -87.296875 50.828125 -103.09375 C 50.542969 -110.847656 49.964844 -118.886719 50.253906 -126.640625 C 50.542969 -148.175781 49.679688 -169.425781 48.816406 -190.964844 C 48.816406 -194.125 48.816406 -197.28125 48.816406 -200.441406 C 48.816406 -202.164062 47.667969 -203.601562 45.660156 -203.601562 C 44.511719 -203.886719 43.363281 -203.886719 41.925781 -203.886719 C 34.171875 -203.601562 26.417969 -203.601562 18.378906 -203.3125 C 14.644531 -203.3125 12.921875 -203.027344 12.636719 -197.570312 C 12.347656 -192.6875 12.347656 -188.09375 12.347656 -182.925781 C 12.0625 -180.050781 12.0625 -177.179688 11.773438 -174.308594 C 11.773438 -169.425781 11.488281 -164.546875 11.488281 -159.949219 C 11.488281 -153.058594 11.773438 -146.167969 12.0625 -139.273438 C 12.0625 -119.171875 12.0625 -98.785156 12.0625 -78.683594 Z M 12.0625 -78.683594 "/></g></g></g><g fill="#f4cf5d" fill-opacity="1"><g transform="translate(748.010467, 275.822861)"><g><path d="M 14.070312 -96.773438 C 13.785156 -90.167969 13.496094 -79.257812 13.210938 -68.34375 C 12.921875 -56.285156 12.636719 -44.511719 12.347656 -32.449219 C 12.0625 -24.121094 12.0625 -15.507812 11.773438 -6.890625 C 11.488281 -3.734375 13.210938 -1.4375 14.644531 0.863281 C 14.933594 1.4375 15.792969 2.011719 16.65625 2.296875 C 19.527344 2.871094 22.398438 4.019531 24.984375 4.019531 C 30.726562 4.308594 36.46875 4.308594 41.925781 4.019531 C 47.382812 3.734375 52.839844 3.160156 58.292969 2.871094 C 65.761719 2.871094 73.800781 2.871094 81.269531 2.585938 C 86.4375 2.296875 91.320312 1.722656 96.199219 1.722656 C 105.964844 1.4375 115.441406 1.4375 125.203125 1.148438 C 126.640625 1.148438 128.074219 1.148438 128.9375 0 C 130.949219 -2.296875 132.382812 -4.59375 132.382812 -7.753906 C 132.671875 -14.359375 131.523438 -20.964844 131.234375 -27.566406 C 131.234375 -29.863281 131.234375 -32.738281 128.648438 -34.460938 C 128.648438 -34.460938 128.648438 -34.746094 128.363281 -35.035156 C 126.925781 -37.617188 124.054688 -39.054688 121.183594 -38.480469 C 120.035156 -38.480469 118.886719 -38.191406 117.738281 -38.480469 C 114.292969 -38.480469 110.558594 -38.765625 107.113281 -38.765625 C 101.65625 -38.480469 96.199219 -37.90625 90.746094 -37.90625 C 80.980469 -37.617188 71.21875 -37.617188 61.742188 -37.617188 C 59.15625 -37.332031 59.15625 -37.617188 59.15625 -39.914062 C 59.15625 -45.945312 59.15625 -51.976562 59.15625 -57.71875 C 58.867188 -68.34375 58.867188 -78.683594 58.867188 -89.019531 C 58.867188 -92.753906 59.15625 -92.753906 62.890625 -92.753906 C 69.492188 -93.328125 76.097656 -93.617188 82.703125 -94.191406 C 88.734375 -94.476562 94.476562 -95.339844 100.507812 -95.914062 C 103.09375 -95.914062 105.964844 -95.914062 108.835938 -95.914062 C 111.132812 -96.199219 112.570312 -97.347656 112.570312 -99.933594 C 112.570312 -106.539062 112.570312 -112.855469 112.28125 -119.171875 C 112.28125 -122.046875 111.996094 -124.917969 111.707031 -127.789062 C 111.421875 -129.796875 111.421875 -129.796875 109.410156 -129.796875 C 107.398438 -129.796875 105.675781 -129.796875 103.667969 -129.796875 C 95.914062 -129.796875 87.871094 -130.085938 79.832031 -129.796875 C 73.515625 -129.796875 67.195312 -129.511719 60.59375 -129.511719 C 58.582031 -129.511719 58.292969 -129.511719 58.292969 -131.808594 C 58.582031 -139.847656 58.867188 -147.890625 58.867188 -156.21875 C 59.15625 -157.941406 59.15625 -157.941406 60.878906 -158.226562 C 67.484375 -159.089844 74.375 -159.375 80.980469 -159.664062 C 89.019531 -159.664062 96.773438 -159.664062 104.816406 -159.949219 C 110.558594 -160.238281 116.589844 -160.523438 122.332031 -160.8125 C 124.628906 -161.101562 126.925781 -161.386719 128.363281 -163.398438 C 129.511719 -165.121094 130.371094 -167.128906 130.085938 -169.140625 C 129.796875 -178.042969 129.511719 -186.945312 129.222656 -195.847656 C 128.9375 -200.726562 126.351562 -204.175781 121.183594 -204.460938 C 120.320312 -204.460938 119.171875 -204.460938 118.597656 -204.175781 C 115.726562 -203.601562 113.144531 -203.886719 110.558594 -203.886719 C 105.101562 -203.886719 99.644531 -204.175781 94.476562 -204.175781 C 91.03125 -204.175781 87.871094 -204.460938 84.714844 -204.460938 C 72.652344 -204.460938 60.304688 -204.175781 48.242188 -204.175781 C 47.382812 -204.175781 46.519531 -203.886719 45.371094 -203.886719 C 40.203125 -203.886719 34.746094 -203.886719 29.289062 -203.886719 C 26.707031 -203.886719 23.835938 -203.886719 21.25 -203.886719 C 17.230469 -203.3125 15.21875 -201.304688 15.21875 -197.28125 C 14.933594 -196.132812 15.21875 -195.273438 15.21875 -194.410156 C 15.21875 -190.390625 15.507812 -186.371094 15.507812 -182.351562 C 14.933594 -155.355469 14.644531 -128.363281 14.070312 -96.773438 Z M 14.070312 -96.773438 "/></g></g></g><g fill="#d8854d" fill-opacity="1"><g transform="translate(892.166521, 275.822861)"><g><path d="M 74.089844 3.445312 C 82.703125 3.445312 91.03125 2.585938 99.070312 -1.4375 C 100.796875 -2.585938 102.519531 -3.445312 104.242188 -4.308594 C 109.984375 -8.328125 116.015625 -12.0625 120.320312 -17.804688 C 124.34375 -23.261719 128.363281 -28.429688 130.949219 -34.746094 C 136.402344 -47.09375 137.839844 -60.304688 135.253906 -73.800781 C 134.679688 -77.246094 133.246094 -80.980469 132.097656 -84.425781 C 131.234375 -86.4375 130.085938 -88.160156 129.222656 -90.167969 C 127.214844 -94.191406 124.054688 -97.347656 120.609375 -99.933594 C 119.171875 -100.796875 118.3125 -102.230469 116.875 -103.378906 C 115.152344 -104.816406 113.144531 -106.25 111.421875 -107.972656 C 107.972656 -110.847656 104.242188 -112.570312 100.21875 -114.578125 C 96.199219 -116.875 91.894531 -118.597656 87.871094 -120.609375 C 86.722656 -121.183594 85.289062 -121.472656 84.140625 -122.332031 C 79.832031 -124.917969 74.949219 -127.5 70.644531 -130.371094 C 67.769531 -132.097656 65.1875 -134.105469 63.175781 -136.691406 C 61.167969 -138.988281 60.015625 -141.574219 59.730469 -144.445312 C 59.441406 -146.742188 59.730469 -149.324219 60.304688 -151.625 C 61.167969 -154.207031 63.175781 -156.503906 65.472656 -158.226562 C 67.769531 -160.238281 70.355469 -161.675781 73.226562 -161.675781 C 79.257812 -162.25 85.574219 -162.25 91.605469 -160.523438 C 95.050781 -159.664062 97.921875 -158.226562 100.21875 -155.644531 C 101.945312 -153.921875 104.242188 -152.484375 106.25 -150.761719 C 106.824219 -150.472656 107.398438 -149.898438 107.972656 -149.898438 C 110.847656 -149.898438 113.429688 -150.1875 115.441406 -152.199219 C 117.449219 -154.207031 119.460938 -156.21875 121.183594 -158.226562 C 124.054688 -161.960938 126.925781 -165.40625 129.796875 -169.140625 C 131.808594 -171.726562 132.097656 -174.308594 130.660156 -177.179688 C 128.9375 -180.050781 126.640625 -182.636719 124.34375 -185.222656 C 121.183594 -189.527344 117.164062 -192.402344 112.855469 -195.273438 C 107.6875 -199.292969 101.945312 -201.589844 95.914062 -203.3125 C 91.03125 -204.75 86.148438 -205.324219 81.269531 -205.324219 C 72.652344 -205.035156 64.324219 -204.175781 56.570312 -200.152344 C 54.847656 -199.292969 53.125 -198.429688 51.402344 -197.28125 C 45.371094 -193.550781 39.628906 -189.527344 35.035156 -183.785156 C 31.015625 -178.328125 26.992188 -173.160156 24.410156 -166.84375 C 18.953125 -154.496094 17.515625 -141.285156 20.101562 -128.074219 C 20.964844 -123.480469 22.6875 -118.597656 24.695312 -114.292969 C 26.417969 -110.558594 28.429688 -107.113281 31.589844 -104.242188 C 34.460938 -101.945312 37.042969 -99.359375 39.914062 -97.0625 C 43.363281 -94.476562 46.808594 -92.179688 50.253906 -89.59375 C 51.976562 -88.445312 53.699219 -87.585938 55.710938 -86.722656 C 58.582031 -85.289062 61.742188 -83.277344 64.898438 -82.128906 C 70.066406 -80.40625 74.375 -77.535156 78.96875 -74.949219 C 82.128906 -73.226562 85 -71.21875 87.871094 -69.207031 C 91.320312 -66.910156 93.617188 -64.039062 95.050781 -60.304688 C 97.0625 -54.273438 95.625 -48.816406 91.320312 -44.796875 C 88.160156 -41.640625 84.140625 -40.203125 79.832031 -38.765625 C 76.386719 -37.90625 73.226562 -37.90625 69.78125 -39.054688 C 66.046875 -40.203125 62.601562 -41.640625 58.867188 -43.074219 C 57.433594 -43.648438 56.285156 -44.511719 54.847656 -45.371094 C 50.542969 -47.667969 47.667969 -51.691406 44.222656 -55.136719 C 43.074219 -56.859375 41.925781 -58.582031 40.492188 -60.304688 C 39.628906 -61.167969 38.765625 -62.601562 37.042969 -62.027344 C 35.320312 -61.742188 33.886719 -61.167969 32.449219 -59.730469 C 30.441406 -57.71875 28.429688 -55.710938 26.132812 -53.988281 C 21.539062 -50.828125 17.515625 -46.519531 13.210938 -43.074219 C 11.773438 -41.925781 11.199219 -40.203125 11.773438 -38.480469 C 12.636719 -36.46875 13.210938 -34.171875 14.359375 -32.449219 C 18.089844 -26.132812 22.113281 -20.101562 27.566406 -15.21875 C 29.289062 -13.496094 31.015625 -12.0625 33.023438 -10.625 C 34.460938 -9.476562 36.46875 -8.328125 38.191406 -7.179688 C 43.363281 -3.445312 49.105469 -0.863281 55.421875 0.863281 C 61.453125 2.296875 67.484375 3.734375 74.089844 3.445312 Z M 74.089844 3.445312 "/></g></g></g></g></g></g></svg>