<svg xmlns="http://www.w3.org/2000/svg" xmlns:xlink="http://www.w3.org/1999/xlink" width="300" zoomAndPan="magnify" viewBox="0 0 224.87999 225" height="300" preserveAspectRatio="xMidYMid meet" version="1.0"><defs><clipPath id="a8551eabe1"><path d="M 0 0.0585938 L 224.761719 0.0585938 L 224.761719 224.9375 L 0 224.9375 Z M 0 0.0585938 " clip-rule="nonzero"/></clipPath><clipPath id="7c7cdfbcd5"><path d="M 112.441406 0.0585938 C 50.339844 0.0585938 0 50.402344 0 112.5 C 0 174.597656 50.339844 224.941406 112.441406 224.941406 C 174.539062 224.941406 224.878906 174.597656 224.878906 112.5 C 224.878906 50.402344 174.539062 0.0585938 112.441406 0.0585938 Z M 112.441406 0.0585938 " clip-rule="nonzero"/></clipPath><linearGradient x1="0.000000000000024253" gradientTransform="matrix(0.878437, 0, 0, 0.878437, -0.000000000000021305, 0.060015)" y1="0" x2="255.863455" gradientUnits="userSpaceOnUse" y2="0" id="831f58a050"><stop stop-opacity="1" stop-color="rgb(100%, 39.99939%, 76.899719%)" offset="0"/><stop stop-opacity="1" stop-color="rgb(100%, 40.182495%, 76.734924%)" offset="0.0078125"/><stop stop-opacity="1" stop-color="rgb(100%, 40.550232%, 76.40686%)" offset="0.015625"/><stop stop-opacity="1" stop-color="rgb(100%, 40.917969%, 76.078796%)" offset="0.0234375"/><stop stop-opacity="1" stop-color="rgb(100%, 41.285706%, 75.750732%)" offset="0.03125"/><stop stop-opacity="1" stop-color="rgb(100%, 41.653442%, 75.422668%)" offset="0.0390625"/><stop stop-opacity="1" stop-color="rgb(100%, 42.021179%, 75.094604%)" offset="0.046875"/><stop stop-opacity="1" stop-color="rgb(100%, 42.388916%, 74.766541%)" offset="0.0546875"/><stop stop-opacity="1" stop-color="rgb(100%, 42.756653%, 74.438477%)" offset="0.0625"/><stop stop-opacity="1" stop-color="rgb(100%, 43.12439%, 74.110413%)" offset="0.0703125"/><stop stop-opacity="1" stop-color="rgb(100%, 43.492126%, 73.782349%)" offset="0.078125"/><stop stop-opacity="1" stop-color="rgb(100%, 43.859863%, 73.455811%)" offset="0.0859375"/><stop stop-opacity="1" stop-color="rgb(100%, 44.2276%, 73.127747%)" offset="0.09375"/><stop stop-opacity="1" stop-color="rgb(100%, 44.595337%, 72.799683%)" offset="0.101562"/><stop stop-opacity="1" stop-color="rgb(100%, 44.963074%, 72.471619%)" offset="0.109375"/><stop stop-opacity="1" stop-color="rgb(100%, 45.330811%, 72.143555%)" offset="0.117188"/><stop stop-opacity="1" stop-color="rgb(100%, 45.698547%, 71.815491%)" offset="0.125"/><stop stop-opacity="1" stop-color="rgb(100%, 46.066284%, 71.487427%)" offset="0.132813"/><stop stop-opacity="1" stop-color="rgb(100%, 46.434021%, 71.159363%)" offset="0.140625"/><stop stop-opacity="1" stop-color="rgb(100%, 46.801758%, 70.831299%)" offset="0.148438"/><stop stop-opacity="1" stop-color="rgb(100%, 47.169495%, 70.503235%)" offset="0.15625"/><stop stop-opacity="1" stop-color="rgb(100%, 47.537231%, 70.175171%)" offset="0.164063"/><stop stop-opacity="1" stop-color="rgb(100%, 47.904968%, 69.847107%)" offset="0.171875"/><stop stop-opacity="1" stop-color="rgb(100%, 48.272705%, 69.519043%)" offset="0.179688"/><stop stop-opacity="1" stop-color="rgb(100%, 48.640442%, 69.190979%)" offset="0.1875"/><stop stop-opacity="1" stop-color="rgb(100%, 49.008179%, 68.864441%)" offset="0.195313"/><stop stop-opacity="1" stop-color="rgb(100%, 49.377441%, 68.536377%)" offset="0.203125"/><stop stop-opacity="1" stop-color="rgb(100%, 49.745178%, 68.208313%)" offset="0.210938"/><stop stop-opacity="1" stop-color="rgb(100%, 50.112915%, 67.880249%)" offset="0.21875"/><stop stop-opacity="1" stop-color="rgb(100%, 50.480652%, 67.552185%)" offset="0.226563"/><stop stop-opacity="1" stop-color="rgb(100%, 50.848389%, 67.224121%)" offset="0.234375"/><stop stop-opacity="1" stop-color="rgb(100%, 51.216125%, 66.896057%)" offset="0.242188"/><stop stop-opacity="1" stop-color="rgb(100%, 51.583862%, 66.567993%)" offset="0.25"/><stop stop-opacity="1" stop-color="rgb(100%, 51.951599%, 66.239929%)" offset="0.257812"/><stop stop-opacity="1" stop-color="rgb(100%, 52.319336%, 65.911865%)" offset="0.265625"/><stop stop-opacity="1" stop-color="rgb(100%, 52.687073%, 65.583801%)" offset="0.273438"/><stop stop-opacity="1" stop-color="rgb(100%, 53.05481%, 65.255737%)" offset="0.28125"/><stop stop-opacity="1" stop-color="rgb(100%, 53.422546%, 64.927673%)" offset="0.289062"/><stop stop-opacity="1" stop-color="rgb(100%, 53.790283%, 64.601135%)" offset="0.296875"/><stop stop-opacity="1" stop-color="rgb(100%, 54.15802%, 64.273071%)" offset="0.304688"/><stop stop-opacity="1" stop-color="rgb(100%, 54.525757%, 63.945007%)" offset="0.3125"/><stop stop-opacity="1" stop-color="rgb(100%, 54.893494%, 63.616943%)" offset="0.320312"/><stop stop-opacity="1" stop-color="rgb(100%, 55.26123%, 63.288879%)" offset="0.328125"/><stop stop-opacity="1" stop-color="rgb(100%, 55.628967%, 62.960815%)" offset="0.335938"/><stop stop-opacity="1" stop-color="rgb(100%, 55.996704%, 62.632751%)" offset="0.34375"/><stop stop-opacity="1" stop-color="rgb(100%, 56.364441%, 62.304688%)" offset="0.351562"/><stop stop-opacity="1" stop-color="rgb(100%, 56.732178%, 61.976624%)" offset="0.359375"/><stop stop-opacity="1" stop-color="rgb(100%, 57.099915%, 61.64856%)" offset="0.367188"/><stop stop-opacity="1" stop-color="rgb(100%, 57.467651%, 61.320496%)" offset="0.375"/><stop stop-opacity="1" stop-color="rgb(100%, 57.835388%, 60.992432%)" offset="0.382812"/><stop stop-opacity="1" stop-color="rgb(100%, 58.203125%, 60.664368%)" offset="0.390625"/><stop stop-opacity="1" stop-color="rgb(100%, 58.570862%, 60.336304%)" offset="0.398438"/><stop stop-opacity="1" stop-color="rgb(100%, 58.938599%, 60.009766%)" offset="0.40625"/><stop stop-opacity="1" stop-color="rgb(100%, 59.306335%, 59.681702%)" offset="0.414062"/><stop stop-opacity="1" stop-color="rgb(100%, 59.674072%, 59.353638%)" offset="0.421875"/><stop stop-opacity="1" stop-color="rgb(100%, 60.041809%, 59.025574%)" offset="0.429688"/><stop stop-opacity="1" stop-color="rgb(100%, 60.409546%, 58.69751%)" offset="0.4375"/><stop stop-opacity="1" stop-color="rgb(100%, 60.777283%, 58.369446%)" offset="0.445312"/><stop stop-opacity="1" stop-color="rgb(100%, 61.14502%, 58.041382%)" offset="0.453125"/><stop stop-opacity="1" stop-color="rgb(100%, 61.512756%, 57.713318%)" offset="0.460938"/><stop stop-opacity="1" stop-color="rgb(100%, 61.880493%, 57.385254%)" offset="0.46875"/><stop stop-opacity="1" stop-color="rgb(100%, 62.24823%, 57.05719%)" offset="0.476562"/><stop stop-opacity="1" stop-color="rgb(100%, 62.615967%, 56.729126%)" offset="0.484375"/><stop stop-opacity="1" stop-color="rgb(100%, 62.983704%, 56.401062%)" offset="0.492188"/><stop stop-opacity="1" stop-color="rgb(100%, 63.35144%, 56.072998%)" offset="0.5"/><stop stop-opacity="1" stop-color="rgb(100%, 63.719177%, 55.74646%)" offset="0.507812"/><stop stop-opacity="1" stop-color="rgb(100%, 64.086914%, 55.418396%)" offset="0.515625"/><stop stop-opacity="1" stop-color="rgb(100%, 64.454651%, 55.090332%)" offset="0.523437"/><stop stop-opacity="1" stop-color="rgb(100%, 64.822388%, 54.762268%)" offset="0.53125"/><stop stop-opacity="1" stop-color="rgb(100%, 65.19165%, 54.434204%)" offset="0.539062"/><stop stop-opacity="1" stop-color="rgb(100%, 65.559387%, 54.10614%)" offset="0.546875"/><stop stop-opacity="1" stop-color="rgb(100%, 65.927124%, 53.778076%)" offset="0.554687"/><stop stop-opacity="1" stop-color="rgb(100%, 66.294861%, 53.450012%)" offset="0.5625"/><stop stop-opacity="1" stop-color="rgb(100%, 66.662598%, 53.121948%)" offset="0.570312"/><stop stop-opacity="1" stop-color="rgb(100%, 67.030334%, 52.793884%)" offset="0.578125"/><stop stop-opacity="1" stop-color="rgb(100%, 67.398071%, 52.46582%)" offset="0.585937"/><stop stop-opacity="1" stop-color="rgb(100%, 67.765808%, 52.137756%)" offset="0.59375"/><stop stop-opacity="1" stop-color="rgb(100%, 68.133545%, 51.809692%)" offset="0.601562"/><stop stop-opacity="1" stop-color="rgb(100%, 68.501282%, 51.483154%)" offset="0.609375"/><stop stop-opacity="1" stop-color="rgb(100%, 68.869019%, 51.15509%)" offset="0.617187"/><stop stop-opacity="1" stop-color="rgb(100%, 69.236755%, 50.827026%)" offset="0.625"/><stop stop-opacity="1" stop-color="rgb(100%, 69.604492%, 50.498962%)" offset="0.632812"/><stop stop-opacity="1" stop-color="rgb(100%, 69.972229%, 50.170898%)" offset="0.640625"/><stop stop-opacity="1" stop-color="rgb(100%, 70.339966%, 49.842834%)" offset="0.648437"/><stop stop-opacity="1" stop-color="rgb(100%, 70.707703%, 49.514771%)" offset="0.65625"/><stop stop-opacity="1" stop-color="rgb(100%, 71.075439%, 49.186707%)" offset="0.664062"/><stop stop-opacity="1" stop-color="rgb(100%, 71.443176%, 48.858643%)" offset="0.671875"/><stop stop-opacity="1" stop-color="rgb(100%, 71.810913%, 48.530579%)" offset="0.679687"/><stop stop-opacity="1" stop-color="rgb(100%, 72.17865%, 48.202515%)" offset="0.6875"/><stop stop-opacity="1" stop-color="rgb(100%, 72.546387%, 47.874451%)" offset="0.695312"/><stop stop-opacity="1" stop-color="rgb(100%, 72.914124%, 47.546387%)" offset="0.703125"/><stop stop-opacity="1" stop-color="rgb(100%, 73.28186%, 47.218323%)" offset="0.710937"/><stop stop-opacity="1" stop-color="rgb(100%, 73.649597%, 46.891785%)" offset="0.71875"/><stop stop-opacity="1" stop-color="rgb(100%, 74.017334%, 46.563721%)" offset="0.726562"/><stop stop-opacity="1" stop-color="rgb(100%, 74.385071%, 46.235657%)" offset="0.734375"/><stop stop-opacity="1" stop-color="rgb(100%, 74.752808%, 45.907593%)" offset="0.742187"/><stop stop-opacity="1" stop-color="rgb(100%, 75.120544%, 45.579529%)" offset="0.75"/><stop stop-opacity="1" stop-color="rgb(100%, 75.488281%, 45.251465%)" offset="0.757812"/><stop stop-opacity="1" stop-color="rgb(100%, 75.856018%, 44.923401%)" offset="0.765625"/><stop stop-opacity="1" stop-color="rgb(100%, 76.223755%, 44.595337%)" offset="0.773437"/><stop stop-opacity="1" stop-color="rgb(100%, 76.591492%, 44.267273%)" offset="0.78125"/><stop stop-opacity="1" stop-color="rgb(100%, 76.959229%, 43.939209%)" offset="0.789062"/><stop stop-opacity="1" stop-color="rgb(100%, 77.326965%, 43.611145%)" offset="0.796875"/><stop stop-opacity="1" stop-color="rgb(100%, 77.694702%, 43.283081%)" offset="0.804687"/><stop stop-opacity="1" stop-color="rgb(100%, 78.062439%, 42.955017%)" offset="0.8125"/><stop stop-opacity="1" stop-color="rgb(100%, 78.430176%, 42.628479%)" offset="0.820312"/><stop stop-opacity="1" stop-color="rgb(100%, 78.797913%, 42.300415%)" offset="0.828125"/><stop stop-opacity="1" stop-color="rgb(100%, 79.165649%, 41.972351%)" offset="0.835937"/><stop stop-opacity="1" stop-color="rgb(100%, 79.533386%, 41.644287%)" offset="0.84375"/><stop stop-opacity="1" stop-color="rgb(100%, 79.901123%, 41.316223%)" offset="0.851562"/><stop stop-opacity="1" stop-color="rgb(100%, 80.26886%, 40.988159%)" offset="0.859375"/><stop stop-opacity="1" stop-color="rgb(100%, 80.636597%, 40.660095%)" offset="0.867187"/><stop stop-opacity="1" stop-color="rgb(100%, 81.005859%, 40.332031%)" offset="0.875"/><stop stop-opacity="1" stop-color="rgb(100%, 81.373596%, 40.003967%)" offset="0.882812"/><stop stop-opacity="1" stop-color="rgb(100%, 81.741333%, 39.675903%)" offset="0.890625"/><stop stop-opacity="1" stop-color="rgb(100%, 82.10907%, 39.347839%)" offset="0.898437"/><stop stop-opacity="1" stop-color="rgb(100%, 82.476807%, 39.019775%)" offset="0.90625"/><stop stop-opacity="1" stop-color="rgb(100%, 82.844543%, 38.691711%)" offset="0.914062"/><stop stop-opacity="1" stop-color="rgb(100%, 83.21228%, 38.363647%)" offset="0.921875"/><stop stop-opacity="1" stop-color="rgb(100%, 83.580017%, 38.037109%)" offset="0.929687"/><stop stop-opacity="1" stop-color="rgb(100%, 83.947754%, 37.709045%)" offset="0.9375"/><stop stop-opacity="1" stop-color="rgb(100%, 84.315491%, 37.380981%)" offset="0.945312"/><stop stop-opacity="1" stop-color="rgb(100%, 84.683228%, 37.052917%)" offset="0.953125"/><stop stop-opacity="1" stop-color="rgb(100%, 85.050964%, 36.724854%)" offset="0.960937"/><stop stop-opacity="1" stop-color="rgb(100%, 85.418701%, 36.39679%)" offset="0.96875"/><stop stop-opacity="1" stop-color="rgb(100%, 85.786438%, 36.068726%)" offset="0.976562"/><stop stop-opacity="1" stop-color="rgb(100%, 86.154175%, 35.740662%)" offset="0.984375"/><stop stop-opacity="1" stop-color="rgb(100%, 86.521912%, 35.412598%)" offset="0.992187"/><stop stop-opacity="1" stop-color="rgb(100%, 86.889648%, 35.084534%)" offset="1"/></linearGradient><clipPath id="aba2ea3f02"><path d="M 32 22.546875 L 193.734375 22.546875 L 193.734375 185.210938 L 32 185.210938 Z M 32 22.546875 " clip-rule="nonzero"/></clipPath></defs><g clip-path="url(#a8551eabe1)"><g clip-path="url(#7c7cdfbcd5)"><path fill="url(#831f58a050)" d="M 0 0.0585938 L 0 224.941406 L 224.761719 224.941406 L 224.761719 0.0585938 Z M 0 0.0585938 " fill-rule="nonzero"/></g></g><g clip-path="url(#aba2ea3f02)"><path fill="#000000" d="M 68.148438 67.109375 C 68.148438 65.652344 68.222656 64.199219 68.367188 62.75 C 68.507812 61.300781 68.722656 59.863281 69.007812 58.433594 C 69.292969 57.007812 69.648438 55.59375 70.074219 54.203125 C 70.496094 52.808594 70.988281 51.4375 71.546875 50.09375 C 72.101562 48.746094 72.726562 47.433594 73.414062 46.148438 C 74.101562 44.863281 74.847656 43.617188 75.65625 42.40625 C 76.46875 41.195312 77.335938 40.027344 78.257812 38.898438 C 79.183594 37.773438 80.160156 36.695312 81.1875 35.664062 C 82.21875 34.636719 83.296875 33.660156 84.421875 32.734375 C 85.546875 31.808594 86.71875 30.941406 87.929688 30.132812 C 89.136719 29.324219 90.386719 28.574219 91.671875 27.886719 C 92.953125 27.199219 94.269531 26.578125 95.613281 26.019531 C 96.960938 25.460938 98.328125 24.96875 99.722656 24.546875 C 101.117188 24.121094 102.527344 23.769531 103.957031 23.480469 C 105.382812 23.195312 106.824219 22.980469 108.273438 22.835938 C 109.722656 22.695312 111.175781 22.621094 112.632812 22.617188 C 171.429688 24.699219 171.546875 109.335938 112.78125 111.59375 C 111.324219 111.597656 109.867188 111.53125 108.414062 111.390625 C 106.960938 111.25 105.519531 111.039062 104.085938 110.757812 C 102.652344 110.476562 101.238281 110.125 99.839844 109.703125 C 98.441406 109.285156 97.070312 108.796875 95.71875 108.238281 C 94.371094 107.683594 93.050781 107.0625 91.761719 106.378906 C 90.472656 105.691406 89.222656 104.945312 88.007812 104.136719 C 86.792969 103.328125 85.617188 102.460938 84.488281 101.539062 C 83.359375 100.613281 82.277344 99.636719 81.242188 98.605469 C 80.210938 97.574219 79.226562 96.496094 78.300781 95.371094 C 77.371094 94.242188 76.503906 93.074219 75.6875 91.859375 C 74.875 90.648438 74.125 89.398438 73.433594 88.113281 C 72.746094 86.828125 72.121094 85.507812 71.558594 84.160156 C 71 82.8125 70.507812 81.441406 70.082031 80.046875 C 69.65625 78.648438 69.300781 77.234375 69.011719 75.804688 C 68.726562 74.371094 68.511719 72.929688 68.367188 71.480469 C 68.222656 70.027344 68.148438 68.570312 68.148438 67.109375 Z M 157.65625 111.617188 C 157.066406 111.253906 156.433594 110.980469 155.761719 110.800781 C 155.089844 110.621094 154.410156 110.539062 153.714844 110.554688 C 153.019531 110.570312 152.339844 110.6875 151.679688 110.902344 C 151.019531 111.113281 150.402344 111.417969 149.828125 111.808594 C 148.5 112.882812 147.132812 113.902344 145.71875 114.859375 C 144.308594 115.816406 142.855469 116.714844 141.367188 117.546875 C 139.875 118.378906 138.355469 119.144531 136.796875 119.847656 C 135.242188 120.550781 133.660156 121.183594 132.046875 121.75 C 130.4375 122.3125 128.804688 122.808594 127.152344 123.234375 C 125.5 123.65625 123.832031 124.011719 122.148438 124.292969 C 120.460938 124.570312 118.769531 124.78125 117.070312 124.914062 C 115.367188 125.050781 113.664062 125.109375 111.957031 125.097656 C 110.25 125.085938 108.546875 125 106.847656 124.84375 C 105.148438 124.683594 103.457031 124.453125 101.777344 124.148438 C 100.097656 123.84375 98.433594 123.46875 96.789062 123.019531 C 95.140625 122.570312 93.515625 122.054688 91.914062 121.464844 C 90.3125 120.878906 88.738281 120.222656 87.191406 119.5 C 85.644531 118.777344 84.132812 117.988281 82.65625 117.132812 C 81.175781 116.28125 79.738281 115.363281 78.339844 114.386719 C 76.941406 113.410156 75.585938 112.371094 74.277344 111.277344 C 73.273438 110.816406 72.21875 110.617188 71.117188 110.671875 C 70.015625 110.730469 68.992188 111.042969 68.042969 111.605469 C 65.304688 113.425781 62.691406 115.40625 60.199219 117.550781 C 57.707031 119.695312 55.355469 121.980469 53.144531 124.414062 C 50.933594 126.847656 48.882812 129.40625 46.988281 132.09375 C 45.09375 134.78125 43.371094 137.570312 41.820312 140.46875 C 40.269531 143.367188 38.902344 146.351562 37.722656 149.417969 C 36.539062 152.484375 35.550781 155.613281 34.753906 158.804688 C 33.957031 161.992188 33.359375 165.21875 32.960938 168.480469 C 32.5625 171.742188 32.367188 175.019531 32.371094 178.304688 C 32.371094 178.753906 32.414062 179.199219 32.503906 179.640625 C 32.589844 180.078125 32.71875 180.507812 32.890625 180.921875 C 33.0625 181.335938 33.273438 181.730469 33.523438 182.105469 C 33.773438 182.476562 34.054688 182.824219 34.371094 183.140625 C 34.691406 183.457031 35.035156 183.742188 35.410156 183.988281 C 35.78125 184.238281 36.175781 184.449219 36.589844 184.621094 C 37.003906 184.792969 37.433594 184.921875 37.875 185.007812 C 38.3125 185.097656 38.757812 185.140625 39.207031 185.140625 L 186.285156 185.140625 C 186.734375 185.140625 187.175781 185.097656 187.617188 185.007812 C 188.058594 184.921875 188.484375 184.792969 188.898438 184.621094 C 189.316406 184.449219 189.707031 184.238281 190.082031 183.988281 C 190.457031 183.742188 190.800781 183.457031 191.117188 183.140625 C 191.433594 182.824219 191.71875 182.476562 191.96875 182.105469 C 192.21875 181.730469 192.429688 181.335938 192.597656 180.921875 C 192.769531 180.507812 192.902344 180.078125 192.988281 179.640625 C 193.074219 179.199219 193.117188 178.753906 193.117188 178.304688 C 193.117188 175.027344 192.914062 171.757812 192.511719 168.503906 C 192.109375 165.25 191.511719 162.03125 190.71875 158.847656 C 189.925781 155.667969 188.9375 152.542969 187.761719 149.484375 C 186.585938 146.421875 185.230469 143.441406 183.6875 140.546875 C 182.148438 137.652344 180.4375 134.859375 178.558594 132.171875 C 176.679688 129.484375 174.640625 126.921875 172.445312 124.484375 C 170.253906 122.046875 167.917969 119.75 165.445312 117.597656 C 162.972656 115.445312 160.375 113.453125 157.65625 111.617188 Z M 157.65625 111.617188 " fill-opacity="1" fill-rule="nonzero"/></g></svg>