<svg xmlns="http://www.w3.org/2000/svg" xmlns:xlink="http://www.w3.org/1999/xlink" width="400" zoomAndPan="magnify" viewBox="0 0 300 299.999988" height="400" preserveAspectRatio="xMidYMid meet" version="1.0"><defs><clipPath id="032e59fc94"><path d="M 150 0 C 67.15625 0 0 67.15625 0 150 C 0 232.84375 67.15625 300 150 300 C 232.84375 300 300 232.84375 300 150 C 300 67.15625 232.84375 0 150 0 Z M 150 0 " clip-rule="nonzero"/></clipPath><linearGradient x1="0.00000000000005457" gradientTransform="matrix(1.171875, 0, 0, 1.171875, 0.000006, 0)" y1="0" x2="255.999989" gradientUnits="userSpaceOnUse" y2="0" id="840092a25e"><stop stop-opacity="1" stop-color="rgb(100%, 87.098694%, 34.899902%)" offset="0"/><stop stop-opacity="1" stop-color="rgb(100%, 86.981201%, 34.881592%)" offset="0.0078125"/><stop stop-opacity="1" stop-color="rgb(100%, 86.74469%, 34.843445%)" offset="0.015625"/><stop stop-opacity="1" stop-color="rgb(100%, 86.508179%, 34.806824%)" offset="0.0234375"/><stop stop-opacity="1" stop-color="rgb(100%, 86.273193%, 34.770203%)" offset="0.03125"/><stop stop-opacity="1" stop-color="rgb(100%, 86.036682%, 34.733582%)" offset="0.0390625"/><stop stop-opacity="1" stop-color="rgb(100%, 85.801697%, 34.69696%)" offset="0.046875"/><stop stop-opacity="1" stop-color="rgb(100%, 85.565186%, 34.660339%)" offset="0.0546875"/><stop stop-opacity="1" stop-color="rgb(100%, 85.328674%, 34.623718%)" offset="0.0625"/><stop stop-opacity="1" stop-color="rgb(100%, 85.093689%, 34.587097%)" offset="0.0703125"/><stop stop-opacity="1" stop-color="rgb(100%, 84.857178%, 34.550476%)" offset="0.078125"/><stop stop-opacity="1" stop-color="rgb(100%, 84.620667%, 34.513855%)" offset="0.0859375"/><stop stop-opacity="1" stop-color="rgb(100%, 84.385681%, 34.477234%)" offset="0.09375"/><stop stop-opacity="1" stop-color="rgb(100%, 84.14917%, 34.440613%)" offset="0.101563"/><stop stop-opacity="1" stop-color="rgb(100%, 83.914185%, 34.403992%)" offset="0.109375"/><stop stop-opacity="1" stop-color="rgb(100%, 83.677673%, 34.367371%)" offset="0.117188"/><stop stop-opacity="1" stop-color="rgb(100%, 83.441162%, 34.33075%)" offset="0.125"/><stop stop-opacity="1" stop-color="rgb(100%, 83.206177%, 34.292603%)" offset="0.132812"/><stop stop-opacity="1" stop-color="rgb(100%, 82.969666%, 34.255981%)" offset="0.140625"/><stop stop-opacity="1" stop-color="rgb(100%, 82.73468%, 34.21936%)" offset="0.148438"/><stop stop-opacity="1" stop-color="rgb(100%, 82.498169%, 34.182739%)" offset="0.15625"/><stop stop-opacity="1" stop-color="rgb(100%, 82.261658%, 34.146118%)" offset="0.164062"/><stop stop-opacity="1" stop-color="rgb(100%, 82.026672%, 34.109497%)" offset="0.171875"/><stop stop-opacity="1" stop-color="rgb(100%, 81.790161%, 34.072876%)" offset="0.179688"/><stop stop-opacity="1" stop-color="rgb(100%, 81.55365%, 34.036255%)" offset="0.1875"/><stop stop-opacity="1" stop-color="rgb(100%, 81.318665%, 33.999634%)" offset="0.195312"/><stop stop-opacity="1" stop-color="rgb(100%, 81.082153%, 33.963013%)" offset="0.203125"/><stop stop-opacity="1" stop-color="rgb(100%, 80.847168%, 33.926392%)" offset="0.210938"/><stop stop-opacity="1" stop-color="rgb(100%, 80.610657%, 33.889771%)" offset="0.21875"/><stop stop-opacity="1" stop-color="rgb(100%, 80.374146%, 33.853149%)" offset="0.226562"/><stop stop-opacity="1" stop-color="rgb(100%, 80.13916%, 33.816528%)" offset="0.234375"/><stop stop-opacity="1" stop-color="rgb(100%, 79.902649%, 33.779907%)" offset="0.242188"/><stop stop-opacity="1" stop-color="rgb(100%, 79.666138%, 33.743286%)" offset="0.25"/><stop stop-opacity="1" stop-color="rgb(100%, 79.431152%, 33.705139%)" offset="0.257812"/><stop stop-opacity="1" stop-color="rgb(100%, 79.194641%, 33.668518%)" offset="0.265625"/><stop stop-opacity="1" stop-color="rgb(100%, 78.959656%, 33.631897%)" offset="0.273438"/><stop stop-opacity="1" stop-color="rgb(100%, 78.723145%, 33.595276%)" offset="0.28125"/><stop stop-opacity="1" stop-color="rgb(100%, 78.486633%, 33.558655%)" offset="0.289062"/><stop stop-opacity="1" stop-color="rgb(100%, 78.251648%, 33.522034%)" offset="0.296875"/><stop stop-opacity="1" stop-color="rgb(100%, 78.015137%, 33.485413%)" offset="0.304688"/><stop stop-opacity="1" stop-color="rgb(100%, 77.778625%, 33.448792%)" offset="0.3125"/><stop stop-opacity="1" stop-color="rgb(100%, 77.54364%, 33.41217%)" offset="0.320312"/><stop stop-opacity="1" stop-color="rgb(100%, 77.307129%, 33.375549%)" offset="0.328125"/><stop stop-opacity="1" stop-color="rgb(100%, 77.072144%, 33.338928%)" offset="0.335938"/><stop stop-opacity="1" stop-color="rgb(100%, 76.835632%, 33.302307%)" offset="0.34375"/><stop stop-opacity="1" stop-color="rgb(100%, 76.599121%, 33.265686%)" offset="0.351562"/><stop stop-opacity="1" stop-color="rgb(100%, 76.364136%, 33.229065%)" offset="0.359375"/><stop stop-opacity="1" stop-color="rgb(100%, 76.127625%, 33.192444%)" offset="0.367188"/><stop stop-opacity="1" stop-color="rgb(100%, 75.891113%, 33.154297%)" offset="0.375"/><stop stop-opacity="1" stop-color="rgb(100%, 75.656128%, 33.117676%)" offset="0.382812"/><stop stop-opacity="1" stop-color="rgb(100%, 75.419617%, 33.081055%)" offset="0.390625"/><stop stop-opacity="1" stop-color="rgb(100%, 75.184631%, 33.044434%)" offset="0.398438"/><stop stop-opacity="1" stop-color="rgb(100%, 74.94812%, 33.007812%)" offset="0.40625"/><stop stop-opacity="1" stop-color="rgb(100%, 74.711609%, 32.971191%)" offset="0.414062"/><stop stop-opacity="1" stop-color="rgb(100%, 74.476624%, 32.93457%)" offset="0.421875"/><stop stop-opacity="1" stop-color="rgb(100%, 74.240112%, 32.897949%)" offset="0.429688"/><stop stop-opacity="1" stop-color="rgb(100%, 74.003601%, 32.861328%)" offset="0.4375"/><stop stop-opacity="1" stop-color="rgb(100%, 73.768616%, 32.824707%)" offset="0.445312"/><stop stop-opacity="1" stop-color="rgb(100%, 73.532104%, 32.788086%)" offset="0.453125"/><stop stop-opacity="1" stop-color="rgb(100%, 73.297119%, 32.751465%)" offset="0.460938"/><stop stop-opacity="1" stop-color="rgb(100%, 73.060608%, 32.714844%)" offset="0.46875"/><stop stop-opacity="1" stop-color="rgb(100%, 72.824097%, 32.678223%)" offset="0.476562"/><stop stop-opacity="1" stop-color="rgb(100%, 72.589111%, 32.641602%)" offset="0.484375"/><stop stop-opacity="1" stop-color="rgb(100%, 72.3526%, 32.60498%)" offset="0.492188"/><stop stop-opacity="1" stop-color="rgb(100%, 72.116089%, 32.566833%)" offset="0.5"/><stop stop-opacity="1" stop-color="rgb(100%, 71.881104%, 32.530212%)" offset="0.507812"/><stop stop-opacity="1" stop-color="rgb(100%, 71.644592%, 32.493591%)" offset="0.515625"/><stop stop-opacity="1" stop-color="rgb(100%, 71.409607%, 32.45697%)" offset="0.523438"/><stop stop-opacity="1" stop-color="rgb(100%, 71.173096%, 32.420349%)" offset="0.53125"/><stop stop-opacity="1" stop-color="rgb(100%, 70.936584%, 32.383728%)" offset="0.539062"/><stop stop-opacity="1" stop-color="rgb(100%, 70.701599%, 32.347107%)" offset="0.546875"/><stop stop-opacity="1" stop-color="rgb(100%, 70.465088%, 32.310486%)" offset="0.554688"/><stop stop-opacity="1" stop-color="rgb(100%, 70.228577%, 32.273865%)" offset="0.5625"/><stop stop-opacity="1" stop-color="rgb(100%, 69.993591%, 32.237244%)" offset="0.570312"/><stop stop-opacity="1" stop-color="rgb(100%, 69.75708%, 32.200623%)" offset="0.578125"/><stop stop-opacity="1" stop-color="rgb(100%, 69.522095%, 32.164001%)" offset="0.585938"/><stop stop-opacity="1" stop-color="rgb(100%, 69.285583%, 32.12738%)" offset="0.59375"/><stop stop-opacity="1" stop-color="rgb(100%, 69.049072%, 32.090759%)" offset="0.601562"/><stop stop-opacity="1" stop-color="rgb(100%, 68.814087%, 32.054138%)" offset="0.609375"/><stop stop-opacity="1" stop-color="rgb(100%, 68.577576%, 32.017517%)" offset="0.617188"/><stop stop-opacity="1" stop-color="rgb(100%, 68.341064%, 31.97937%)" offset="0.625"/><stop stop-opacity="1" stop-color="rgb(100%, 68.106079%, 31.942749%)" offset="0.632812"/><stop stop-opacity="1" stop-color="rgb(100%, 67.869568%, 31.906128%)" offset="0.640625"/><stop stop-opacity="1" stop-color="rgb(100%, 67.634583%, 31.869507%)" offset="0.648438"/><stop stop-opacity="1" stop-color="rgb(100%, 67.398071%, 31.832886%)" offset="0.65625"/><stop stop-opacity="1" stop-color="rgb(100%, 67.16156%, 31.796265%)" offset="0.664062"/><stop stop-opacity="1" stop-color="rgb(100%, 66.926575%, 31.759644%)" offset="0.671875"/><stop stop-opacity="1" stop-color="rgb(100%, 66.690063%, 31.723022%)" offset="0.679688"/><stop stop-opacity="1" stop-color="rgb(100%, 66.453552%, 31.686401%)" offset="0.6875"/><stop stop-opacity="1" stop-color="rgb(100%, 66.218567%, 31.64978%)" offset="0.695312"/><stop stop-opacity="1" stop-color="rgb(100%, 65.982056%, 31.613159%)" offset="0.703125"/><stop stop-opacity="1" stop-color="rgb(100%, 65.74707%, 31.576538%)" offset="0.710938"/><stop stop-opacity="1" stop-color="rgb(100%, 65.510559%, 31.539917%)" offset="0.71875"/><stop stop-opacity="1" stop-color="rgb(100%, 65.274048%, 31.503296%)" offset="0.726562"/><stop stop-opacity="1" stop-color="rgb(100%, 65.039062%, 31.466675%)" offset="0.734375"/><stop stop-opacity="1" stop-color="rgb(100%, 64.802551%, 31.428528%)" offset="0.742188"/><stop stop-opacity="1" stop-color="rgb(100%, 64.56604%, 31.391907%)" offset="0.75"/><stop stop-opacity="1" stop-color="rgb(100%, 64.331055%, 31.355286%)" offset="0.757812"/><stop stop-opacity="1" stop-color="rgb(100%, 64.094543%, 31.318665%)" offset="0.765625"/><stop stop-opacity="1" stop-color="rgb(100%, 63.859558%, 31.282043%)" offset="0.773438"/><stop stop-opacity="1" stop-color="rgb(100%, 63.623047%, 31.245422%)" offset="0.78125"/><stop stop-opacity="1" stop-color="rgb(100%, 63.386536%, 31.208801%)" offset="0.789062"/><stop stop-opacity="1" stop-color="rgb(100%, 63.15155%, 31.17218%)" offset="0.796875"/><stop stop-opacity="1" stop-color="rgb(100%, 62.915039%, 31.135559%)" offset="0.804688"/><stop stop-opacity="1" stop-color="rgb(100%, 62.678528%, 31.098938%)" offset="0.8125"/><stop stop-opacity="1" stop-color="rgb(100%, 62.443542%, 31.062317%)" offset="0.820312"/><stop stop-opacity="1" stop-color="rgb(100%, 62.207031%, 31.025696%)" offset="0.828125"/><stop stop-opacity="1" stop-color="rgb(100%, 61.972046%, 30.989075%)" offset="0.835938"/><stop stop-opacity="1" stop-color="rgb(100%, 61.735535%, 30.952454%)" offset="0.84375"/><stop stop-opacity="1" stop-color="rgb(100%, 61.499023%, 30.915833%)" offset="0.851562"/><stop stop-opacity="1" stop-color="rgb(100%, 61.264038%, 30.879211%)" offset="0.859375"/><stop stop-opacity="1" stop-color="rgb(100%, 61.027527%, 30.841064%)" offset="0.867188"/><stop stop-opacity="1" stop-color="rgb(100%, 60.791016%, 30.804443%)" offset="0.875"/><stop stop-opacity="1" stop-color="rgb(100%, 60.55603%, 30.767822%)" offset="0.882812"/><stop stop-opacity="1" stop-color="rgb(100%, 60.319519%, 30.731201%)" offset="0.890625"/><stop stop-opacity="1" stop-color="rgb(100%, 60.084534%, 30.69458%)" offset="0.898438"/><stop stop-opacity="1" stop-color="rgb(100%, 59.848022%, 30.657959%)" offset="0.90625"/><stop stop-opacity="1" stop-color="rgb(100%, 59.611511%, 30.621338%)" offset="0.914062"/><stop stop-opacity="1" stop-color="rgb(100%, 59.376526%, 30.584717%)" offset="0.921875"/><stop stop-opacity="1" stop-color="rgb(100%, 59.140015%, 30.548096%)" offset="0.929688"/><stop stop-opacity="1" stop-color="rgb(100%, 58.903503%, 30.511475%)" offset="0.9375"/><stop stop-opacity="1" stop-color="rgb(100%, 58.668518%, 30.474854%)" offset="0.945312"/><stop stop-opacity="1" stop-color="rgb(100%, 58.432007%, 30.438232%)" offset="0.953125"/><stop stop-opacity="1" stop-color="rgb(100%, 58.197021%, 30.401611%)" offset="0.960938"/><stop stop-opacity="1" stop-color="rgb(100%, 57.96051%, 30.36499%)" offset="0.96875"/><stop stop-opacity="1" stop-color="rgb(100%, 57.723999%, 30.328369%)" offset="0.976562"/><stop stop-opacity="1" stop-color="rgb(100%, 57.489014%, 30.291748%)" offset="0.984375"/><stop stop-opacity="1" stop-color="rgb(100%, 57.252502%, 30.253601%)" offset="0.992188"/><stop stop-opacity="1" stop-color="rgb(100%, 57.015991%, 30.21698%)" offset="1"/></linearGradient><clipPath id="3e67cdd554"><path d="M 37.480469 157 L 262.480469 157 L 262.480469 236.449219 L 37.480469 236.449219 Z M 37.480469 157 " clip-rule="nonzero"/></clipPath><clipPath id="5119728791"><path d="M 222 207 L 235 207 L 235 236.449219 L 222 236.449219 Z M 222 207 " clip-rule="nonzero"/></clipPath></defs><g clip-path="url(#032e59fc94)"><rect x="-30" fill="url(#840092a25e)" width="360" y="-29.999999" height="359.999986"/></g><g clip-path="url(#3e67cdd554)"><path fill="#a12151" d="M 262.476562 230.019531 L 262.476562 236.40625 L 37.488281 236.40625 L 37.488281 234.261719 C 45.410156 218.707031 53.785156 204.34375 59.882812 197.867188 C 73.265625 183.730469 101.804688 177.480469 116.777344 168.90625 L 116.824219 168.90625 C 119.367188 167.566406 121.628906 165.847656 123.605469 163.753906 L 127.703125 163.296875 L 133.34375 162.703125 L 133.390625 162.703125 L 143.3125 161.609375 L 154.101562 160.421875 L 158.199219 159.96875 C 158.199219 159.96875 161.609375 159.054688 166.800781 157.871094 C 168.9375 157.414062 170.824219 163.757812 170.824219 163.757812 C 184.980469 161.113281 212.773438 174.195312 222.054688 179.578125 C 233.574219 186.191406 247.773438 203.25 262.476562 230.019531 Z M 262.476562 230.019531 " fill-opacity="1" fill-rule="nonzero"/></g><g clip-path="url(#5119728791)"><path fill="#870b3d" d="M 234.757812 236.40625 L 227.246094 236.40625 C 225.425781 223.910156 223.648438 212.550781 222.648438 208.679688 C 222.582031 208.425781 222.535156 208.167969 222.511719 207.902344 C 222.96875 207.902344 228.246094 220.714844 234.757812 236.40625 Z M 234.757812 236.40625 " fill-opacity="1" fill-rule="nonzero"/></g><path fill="#ffbbbb" d="M 166.847656 161.039062 C 166.910156 163.152344 166.746094 165.25 166.347656 167.332031 C 165.253906 172.894531 161.929688 178.734375 152.964844 179.464844 C 140.265625 180.464844 128.84375 169.109375 127.613281 162.90625 C 126.613281 157.753906 128.160156 155.109375 126.929688 140.558594 C 126.9375 140.421875 126.921875 140.285156 126.882812 140.148438 C 126.65625 137.414062 126.339844 134.21875 125.882812 130.574219 L 130.707031 130.984375 L 166.847656 134.222656 C 166.847656 134.222656 166.621094 154.882812 166.847656 161.039062 Z M 166.847656 161.039062 " fill-opacity="1" fill-rule="nonzero"/><path fill="#ff7d7d" d="M 166.847656 161.039062 C 166.910156 163.152344 166.746094 165.25 166.347656 167.332031 C 151.191406 171.664062 132.253906 156.019531 126.929688 140.558594 C 126.882812 140.46875 126.882812 140.378906 126.839844 140.285156 L 126.882812 140.148438 L 130.710938 130.984375 L 166.847656 134.222656 C 166.847656 134.222656 166.621094 154.882812 166.847656 161.039062 Z M 166.847656 161.039062 " fill-opacity="1" fill-rule="nonzero"/><path fill="#542147" d="M 122.667969 134.226562 C 106.707031 114.636719 103.949219 103.003906 103.507812 92.300781 C 103.0625 81.597656 110.996094 82.148438 110.996094 82.148438 C 110.996094 82.148438 104.71875 66.921875 120.464844 55.667969 C 136.214844 44.414062 186.867188 48.273438 195.238281 71.003906 C 203.605469 93.734375 191.714844 130.585938 176.519531 134.226562 Z M 122.667969 134.226562 " fill-opacity="1" fill-rule="nonzero"/><path fill="#ff7d7d" d="M 123.605469 112.082031 C 123.605469 112.746094 123.550781 113.402344 123.441406 114.050781 C 123.332031 114.703125 123.171875 115.332031 122.957031 115.945312 C 122.746094 116.558594 122.480469 117.140625 122.171875 117.691406 C 121.863281 118.242188 121.507812 118.753906 121.113281 119.222656 C 120.71875 119.691406 120.289062 120.109375 119.824219 120.476562 C 119.359375 120.84375 118.871094 121.15625 118.355469 121.410156 C 117.839844 121.664062 117.304688 121.855469 116.757812 121.984375 C 116.210938 122.113281 115.65625 122.179688 115.097656 122.179688 C 114.539062 122.179688 113.988281 122.113281 113.4375 121.984375 C 112.890625 121.855469 112.359375 121.664062 111.84375 121.410156 C 111.328125 121.15625 110.835938 120.84375 110.371094 120.476562 C 109.910156 120.109375 109.480469 119.691406 109.082031 119.222656 C 108.6875 118.753906 108.335938 118.242188 108.027344 117.691406 C 107.714844 117.140625 107.453125 116.558594 107.238281 115.945312 C 107.027344 115.332031 106.863281 114.703125 106.753906 114.050781 C 106.648438 113.402344 106.59375 112.746094 106.59375 112.082031 C 106.59375 111.417969 106.648438 110.761719 106.753906 110.113281 C 106.863281 109.464844 107.027344 108.832031 107.238281 108.21875 C 107.453125 107.605469 107.714844 107.023438 108.027344 106.472656 C 108.335938 105.921875 108.6875 105.414062 109.082031 104.945312 C 109.480469 104.476562 109.910156 104.054688 110.371094 103.6875 C 110.835938 103.320312 111.328125 103.007812 111.84375 102.753906 C 112.359375 102.5 112.890625 102.308594 113.4375 102.179688 C 113.988281 102.050781 114.539062 101.988281 115.097656 101.988281 C 115.65625 101.988281 116.210938 102.050781 116.757812 102.179688 C 117.304688 102.308594 117.839844 102.5 118.355469 102.753906 C 118.871094 103.007812 119.359375 103.320312 119.824219 103.6875 C 120.289062 104.054688 120.71875 104.476562 121.113281 104.945312 C 121.507812 105.414062 121.863281 105.921875 122.171875 106.472656 C 122.480469 107.023438 122.746094 107.605469 122.957031 108.21875 C 123.171875 108.832031 123.332031 109.464844 123.441406 110.113281 C 123.550781 110.761719 123.605469 111.417969 123.605469 112.082031 Z M 123.605469 112.082031 " fill-opacity="1" fill-rule="nonzero"/><path fill="#ff7d7d" d="M 194.5 113.59375 C 194.5 114.257812 194.445312 114.914062 194.335938 115.566406 C 194.226562 116.214844 194.066406 116.847656 193.851562 117.457031 C 193.636719 118.070312 193.375 118.652344 193.066406 119.203125 C 192.757812 119.753906 192.402344 120.265625 192.007812 120.734375 C 191.613281 121.203125 191.183594 121.621094 190.71875 121.988281 C 190.253906 122.359375 189.765625 122.667969 189.25 122.921875 C 188.734375 123.175781 188.199219 123.367188 187.652344 123.496094 C 187.105469 123.625 186.550781 123.691406 185.992188 123.691406 C 185.433594 123.691406 184.882812 123.625 184.332031 123.496094 C 183.785156 123.367188 183.253906 123.175781 182.738281 122.921875 C 182.222656 122.667969 181.730469 122.359375 181.265625 121.988281 C 180.800781 121.621094 180.371094 121.203125 179.976562 120.734375 C 179.582031 120.265625 179.230469 119.753906 178.921875 119.203125 C 178.609375 118.652344 178.347656 118.070312 178.132812 117.457031 C 177.921875 116.847656 177.757812 116.214844 177.648438 115.566406 C 177.539062 114.914062 177.488281 114.257812 177.488281 113.59375 C 177.488281 112.933594 177.539062 112.277344 177.648438 111.625 C 177.757812 110.976562 177.921875 110.34375 178.132812 109.730469 C 178.347656 109.117188 178.609375 108.539062 178.921875 107.984375 C 179.230469 107.433594 179.582031 106.925781 179.976562 106.457031 C 180.371094 105.988281 180.800781 105.570312 181.265625 105.199219 C 181.730469 104.832031 182.222656 104.519531 182.738281 104.269531 C 183.253906 104.015625 183.785156 103.824219 184.332031 103.691406 C 184.882812 103.5625 185.433594 103.5 185.992188 103.5 C 186.550781 103.5 187.105469 103.5625 187.652344 103.691406 C 188.199219 103.824219 188.734375 104.015625 189.25 104.269531 C 189.765625 104.519531 190.253906 104.832031 190.71875 105.199219 C 191.183594 105.570312 191.613281 105.988281 192.007812 106.457031 C 192.402344 106.925781 192.757812 107.433594 193.066406 107.984375 C 193.375 108.539062 193.636719 109.117188 193.851562 109.730469 C 194.066406 110.34375 194.226562 110.976562 194.335938 111.625 C 194.445312 112.277344 194.5 112.933594 194.5 113.59375 Z M 194.5 113.59375 " fill-opacity="1" fill-rule="nonzero"/><path fill="#ffbbbb" d="M 118.117188 84.6875 C 118.117188 84.6875 114.445312 118.230469 118.117188 129.851562 C 121.789062 141.472656 136.617188 151.625 148.65625 152.949219 C 160.695312 154.273438 178.167969 142.503906 183.308594 131.324219 C 188.445312 120.140625 184.628906 100.574219 184.628906 100.574219 C 184.628906 100.574219 156.515625 112.082031 118.117188 84.6875 Z M 118.117188 84.6875 " fill-opacity="1" fill-rule="nonzero"/><path fill="#ffffff" d="M 127.316406 158.191406 C 128.128906 167.167969 149.214844 174.324219 149.324219 175.269531 C 149.433594 176.214844 141.828125 191.566406 139.054688 190.621094 C 136.28125 189.675781 123.015625 179.21875 119.792969 173.433594 C 116.566406 167.644531 127.316406 158.191406 127.316406 158.191406 Z M 127.316406 158.191406 " fill-opacity="1" fill-rule="nonzero"/><path fill="#ffffff" d="M 166.886719 157.175781 C 166.074219 166.15625 144.988281 173.308594 144.878906 174.253906 C 144.769531 175.199219 152.375 190.554688 155.148438 189.605469 C 157.925781 188.660156 171.191406 178.203125 174.414062 172.417969 C 177.632812 166.632812 166.886719 157.175781 166.886719 157.175781 Z M 166.886719 157.175781 " fill-opacity="1" fill-rule="nonzero"/></svg>