<?xml version="1.0" standalone="no"?>
<!DOCTYPE svg PUBLIC "-//W3C//DTD SVG 20010904//EN"
 "http://www.w3.org/TR/2001/REC-SVG-20010904/DTD/svg10.dtd">
<svg version="1.0" xmlns="http://www.w3.org/2000/svg"
 width="1382.000000pt" height="1346.000000pt" viewBox="0 0 1382.000000 1346.000000"
 preserveAspectRatio="xMidYMid meet">

<g transform="translate(0.000000,1346.000000) scale(0.100000,-0.100000)"
fill="#000000" stroke="none">
<path d="M9083 13240 c-307 -109 -515 -381 -553 -725 -15 -129 1 -248 56 -429
25 -82 43 -154 41 -161 -3 -6 -25 -17 -48 -24 -195 -57 -288 -160 -289 -320
l0 -74 -1407 8 c-1268 6 -1416 5 -1484 -9 -92 -20 -183 -54 -251 -96 -51 -32
-51 -32 -35 -6 34 52 14 127 -37 140 -34 8 -72 -8 -107 -46 l-29 -32 0 37 c0
32 3 37 28 42 77 16 102 28 131 60 17 20 31 47 31 61 0 33 -30 84 -50 86 -35
3 -65 -5 -92 -23 -21 -15 -28 -17 -28 -7 0 19 17 39 64 72 72 54 94 149 43
196 -71 67 -170 -43 -153 -170 3 -25 3 -67 0 -93 l-7 -47 -42 45 c-35 38 -47
45 -79 45 -55 0 -90 -38 -81 -88 11 -64 63 -105 158 -126 25 -6 27 -9 27 -62
l0 -56 -42 31 c-85 63 -168 30 -158 -63 6 -60 73 -100 156 -94 l54 3 10 -35
c16 -57 14 -60 -30 -43 -32 13 -45 14 -69 4 -61 -26 -62 -121 -1 -157 l28 -17
-20 -48 c-15 -34 -28 -51 -48 -58 -36 -12 -50 -38 -58 -111 l-7 -59 -56 42
-57 43 34 36 c44 49 60 109 42 157 -27 70 -96 79 -142 18 -15 -20 -20 -43 -21
-86 0 -67 -6 -68 -64 -7 l-34 35 37 42 c75 88 55 209 -34 209 -51 0 -79 -32
-87 -99 l-6 -51 -22 32 -23 33 48 50 c55 59 69 105 46 159 -17 41 -48 60 -84
51 -37 -9 -60 -32 -67 -66 -4 -16 -10 -29 -15 -29 -18 0 -18 32 0 72 34 75 19
182 -28 207 -56 30 -122 -9 -122 -72 0 -49 26 -116 61 -160 17 -20 37 -54 45
-73 15 -37 15 -37 -8 -29 -81 26 -138 12 -159 -37 -19 -47 11 -98 69 -117 39
-12 49 -11 105 8 33 11 62 19 63 18 1 -1 13 -21 28 -44 l26 -43 -32 0 c-54 0
-107 -20 -124 -45 -21 -32 -11 -89 19 -110 45 -32 138 -14 195 38 l22 21 35
-34 35 -34 -45 -13 c-56 -17 -80 -49 -71 -98 9 -44 39 -65 94 -65 45 0 92 19
129 52 l21 20 46 -35 46 -35 -39 -6 c-44 -7 -81 -44 -81 -82 0 -12 12 -36 26
-53 22 -26 33 -31 72 -31 30 0 59 8 89 25 l43 26 0 -26 c0 -15 -6 -25 -15 -25
-21 0 -55 -40 -55 -66 0 -35 20 -70 48 -85 l25 -14 -6 -614 c-4 -338 -7 -924
-7 -1302 l0 -687 -34 -12 c-61 -20 -219 -132 -296 -210 -107 -107 -196 -248
-241 -379 -10 -29 -43 -92 -73 -140 -29 -47 -75 -124 -102 -171 -26 -47 -56
-98 -66 -115 l-18 -30 5 40 c21 168 50 360 71 469 13 71 24 130 24 131 0 2 24
18 53 35 188 116 348 270 462 445 114 174 147 239 139 270 -13 54 -83 48 -192
-17 -121 -71 -246 -212 -357 -398 -54 -92 -56 -94 -49 -51 4 25 27 78 51 119
143 242 263 547 331 840 l20 83 -22 -7 c-138 -41 -255 -169 -341 -372 -69
-163 -103 -357 -90 -506 6 -71 1 -107 -41 -323 l-48 -243 -32 91 c-31 85 -32
92 -19 130 48 134 70 462 41 598 -16 76 -69 186 -99 205 -13 8 -23 4 -48 -19
-121 -115 -142 -301 -62 -540 23 -66 40 -121 38 -123 -1 -1 -61 75 -132 170
-157 207 -164 215 -201 202 -40 -14 -41 -64 -3 -147 72 -160 202 -294 346
-358 38 -17 46 -26 68 -81 13 -35 37 -107 52 -160 l28 -98 -17 -127 c-21 -166
-36 -333 -36 -405 0 -32 -4 -58 -8 -58 -5 0 -149 193 -320 429 l-312 429 24
74 c81 241 70 523 -29 766 l-18 43 -40 -38 c-88 -85 -128 -229 -107 -391 10
-78 45 -221 76 -312 5 -13 4 -13 -9 0 -23 25 -287 389 -287 396 0 3 20 38 44
78 113 180 226 500 209 588 -18 94 -126 90 -193 -7 -89 -129 -140 -292 -142
-453 -2 -180 -29 -65 -53 229 -15 192 -38 306 -76 381 -24 47 -89 138 -100
138 -12 0 -47 -94 -59 -160 -13 -72 -8 -162 16 -255 17 -65 86 -219 134 -297
39 -64 38 -69 -7 -26 -92 87 -214 164 -285 182 -15 3 -78 15 -140 26 -62 10
-130 26 -152 35 -21 9 -40 14 -42 12 -7 -6 25 -88 51 -133 27 -46 121 -136
168 -160 74 -39 170 -66 343 -98 103 -19 190 -39 194 -43 29 -34 159 -223 148
-217 -7 4 -33 22 -58 39 -25 18 -72 47 -104 65 l-59 33 7 -53 c21 -162 141
-321 346 -459 100 -68 167 -121 152 -121 -5 0 -35 9 -68 21 -94 32 -215 59
-269 59 -60 0 -150 -22 -206 -50 -41 -21 -119 -86 -119 -100 0 -4 37 -20 83
-35 65 -23 105 -29 195 -33 132 -5 206 7 309 49 84 35 109 33 196 -14 56 -31
69 -47 322 -397 144 -201 262 -366 261 -367 -1 -1 -66 18 -145 42 -202 61
-207 65 -311 266 -94 181 -134 242 -208 311 -45 42 -137 98 -161 98 -12 0 16
-100 55 -195 41 -103 133 -233 221 -314 42 -39 74 -71 71 -71 -3 0 -64 14
-134 30 -71 17 -139 33 -151 35 -14 3 -40 32 -68 74 -109 166 -285 326 -465
423 -81 44 -178 83 -186 76 -10 -10 51 -143 99 -215 95 -142 238 -270 371
-334 63 -30 61 -33 -19 -44 -244 -33 -433 -189 -469 -389 l-7 -38 38 6 c21 4
48 10 60 13 18 4 14 -3 -19 -39 -109 -118 -161 -290 -134 -446 l8 -42 31 17
c54 31 156 133 202 204 57 84 112 204 154 332 36 107 64 142 173 215 51 35
197 106 203 100 2 -2 -31 -32 -72 -68 -250 -217 -375 -434 -409 -714 l-7 -59
44 24 c64 36 163 132 215 211 62 93 115 215 161 372 l38 129 55 44 c91 72 92
72 361 -1 129 -36 286 -79 349 -97 l115 -32 403 -554 402 -554 0 -111 c0 -100
-2 -110 -17 -105 -10 2 -71 21 -136 41 -65 20 -127 36 -138 36 -24 0 -35 26
-44 106 -10 87 -55 212 -129 366 -76 155 -117 214 -182 259 -39 26 -50 30 -69
21 -25 -12 -45 -63 -45 -116 0 -133 126 -386 269 -538 61 -66 62 -67 29 -58
-18 4 -85 20 -149 35 l-117 26 -6 50 c-17 125 -94 307 -186 437 -51 72 -196
224 -233 243 -18 10 -18 7 -11 -73 17 -212 100 -404 236 -553 l60 -65 -73 26
c-41 14 -113 46 -161 71 -87 45 -88 45 -88 83 0 109 -60 349 -119 475 -38 81
-125 185 -154 185 -22 0 -41 -84 -40 -175 2 -93 28 -186 82 -290 20 -38 37
-74 39 -78 2 -4 -25 8 -60 27 -125 69 -357 126 -512 126 -65 0 -69 -8 -36 -76
37 -75 191 -171 335 -208 46 -11 163 -30 235 -36 3 -1 -23 -12 -58 -25 -158
-61 -281 -144 -318 -217 -8 -16 -14 -46 -12 -66 4 -50 34 -60 133 -43 74 12
142 36 220 78 56 29 168 135 206 193 l31 48 93 -49 c51 -27 128 -63 171 -79
44 -16 78 -33 77 -38 -1 -6 -16 -30 -33 -55 -71 -106 -116 -287 -107 -437 5
-91 45 -252 66 -265 12 -7 76 66 102 116 50 100 54 128 52 387 -2 226 -1 243
15 237 17 -7 398 -95 410 -95 4 0 -19 -26 -50 -58 -72 -72 -121 -155 -155
-257 -22 -68 -27 -98 -27 -195 0 -133 12 -173 56 -178 56 -7 148 126 183 262
8 33 22 111 30 175 9 64 21 142 27 174 l11 58 31 -7 c17 -4 83 -23 146 -43
l115 -37 0 -112 c0 -62 -1 -215 -3 -342 l-2 -230 -49 -37 c-28 -21 -50 -40
-50 -43 -1 -3 22 -32 49 -65 l50 -59 0 -103 c0 -98 -1 -103 -22 -108 -13 -3
-104 -18 -202 -35 -151 -25 -183 -33 -202 -52 -20 -20 -26 -48 -49 -243 -14
-120 -27 -220 -28 -220 -1 -1 -22 -15 -47 -32 l-45 -30 -106 11 -106 11 153
265 c89 153 154 276 154 290 0 46 -13 50 -180 50 -183 0 -161 12 -247 -135
-39 -67 -63 -99 -73 -97 -9 1 -49 -15 -89 -36 -70 -37 -75 -43 -117 -118 l-43
-79 -25 55 c-13 30 -50 114 -81 185 -94 214 -132 280 -192 335 -60 55 -151
102 -228 119 -112 23 -151 44 -229 120 -93 90 -97 109 -27 134 69 24 136 93
156 159 25 84 14 607 -14 681 -9 22 -7 33 9 60 24 39 26 115 5 156 -16 32 -70
81 -88 81 -7 0 -22 22 -35 49 -30 67 -74 88 -146 72 -28 -6 -66 -20 -84 -31
-26 -16 -51 -20 -130 -20 -158 -1 -207 -35 -298 -210 -59 -112 -68 -167 -40
-235 8 -19 16 -71 17 -115 2 -81 2 -82 -29 -100 -35 -22 -44 -44 -44 -110 1
-79 34 -127 94 -136 l38 -7 0 -88 c0 -86 -2 -93 -44 -177 l-44 -88 -157 -104
c-149 -99 -242 -181 -267 -236 -8 -16 -36 -31 -102 -54 -275 -96 -475 -237
-542 -385 -65 -141 -119 -553 -130 -980 -16 -600 70 -1107 247 -1459 60 -117
159 -218 271 -274 l63 -32 -287 0 c-289 0 -314 -3 -288 -35 11 -13 741 -15
5766 -15 3684 0 5762 3 5778 10 17 6 24 14 20 25 -5 13 -33 15 -175 15 -136 0
-169 3 -169 14 0 7 16 114 35 236 34 222 40 240 78 240 15 0 17 11 17 95 l0
95 -202 2 -203 3 1 60 c0 42 11 87 34 150 32 87 37 94 151 210 207 211 260
295 279 445 l7 55 2 -50 c2 -76 27 -181 61 -252 53 -114 247 -377 356 -483
l56 -55 -7 120 c-14 264 -56 438 -136 579 -68 116 -132 173 -238 211 l-36 13
49 7 c77 12 154 0 282 -43 65 -22 161 -52 213 -67 118 -33 184 -66 239 -118
l42 -41 0 44 c-1 72 -40 141 -110 193 -79 58 -332 118 -497 119 l-103 0 59 43
c32 24 70 58 84 77 25 33 55 114 45 123 -14 15 -225 -42 -303 -83 -70 -35
-115 -104 -115 -173 0 -17 -3 -29 -7 -27 -63 30 -82 38 -106 43 l-27 5 34 68
c81 161 265 616 307 760 7 23 16 42 21 42 30 0 101 -59 124 -102 7 -14 29 -84
49 -155 50 -185 90 -282 179 -428 30 -50 36 -56 43 -39 4 10 7 107 8 214 0
175 -2 202 -22 265 -13 39 -34 90 -48 114 l-25 43 70 -62 c78 -69 133 -146
192 -268 45 -92 47 -92 81 -5 57 146 13 328 -108 442 -111 105 -248 142 -396
108 l-56 -14 20 51 c41 106 19 237 -55 321 l-41 46 -33 -32 c-43 -42 -76 -119
-82 -196 -5 -64 -11 -74 -31 -49 -6 8 -35 24 -64 36 -93 41 -222 19 -449 -77
-60 -25 -110 -49 -113 -53 -3 -5 25 -19 62 -30 89 -28 201 -29 313 -1 47 11
101 21 120 20 34 0 34 -1 10 -11 -189 -80 -301 -181 -370 -333 -29 -63 -57
-171 -48 -181 3 -3 46 15 94 39 49 24 127 58 174 76 190 72 253 116 311 217
17 30 32 54 35 54 18 0 -228 -605 -327 -802 -36 -71 -41 -78 -76 -84 -102 -19
-219 -98 -333 -224 -40 -44 -69 -80 -64 -80 24 0 170 47 244 79 l86 38 -32
-61 c-51 -98 -101 -235 -119 -326 -9 -47 -19 -96 -22 -109 -3 -20 -13 -6 -47
71 -113 250 -326 579 -510 788 -63 71 -65 75 -43 83 55 21 236 -2 504 -62 70
-16 129 -28 131 -26 10 9 -47 95 -92 141 -121 120 -289 154 -447 90 -32 -13
-59 -22 -59 -19 0 8 63 97 140 198 42 55 79 105 83 112 9 14 -1 43 -15 43 -23
0 -180 -83 -228 -121 -48 -38 -52 -40 -47 -18 15 64 19 99 9 99 -30 0 -144
-44 -179 -69 -87 -63 -98 -179 -24 -265 15 -18 15 -19 -4 -12 -130 48 -246 24
-391 -79 -71 -51 -167 -153 -195 -207 -23 -45 -24 -57 -4 -64 9 -4 43 20 91
65 82 74 244 166 314 177 33 5 32 4 -11 -14 -93 -38 -166 -87 -239 -161 -144
-144 -220 -354 -220 -608 0 -90 1 -93 23 -93 19 0 26 12 50 88 78 245 257 512
443 662 42 33 79 59 81 56 3 -3 -7 -20 -21 -39 -47 -61 -69 -141 -70 -247 0
-183 65 -328 261 -578 7 -8 15 -13 17 -11 8 7 73 253 93 349 18 90 25 356 11
455 l-7 50 35 -40 c172 -192 433 -618 527 -860 31 -81 35 -103 41 -223 l7
-132 -211 0 -211 0 3 -98 3 -97 32 -3 c20 -2 34 -10 37 -20 9 -35 59 -452 54
-457 -2 -3 -370 -4 -816 -3 l-812 3 114 69 c88 54 119 79 141 113 21 34 30 41
40 33 10 -8 21 -7 43 4 28 14 29 16 22 69 -10 70 -40 127 -89 168 -37 32 -44
47 -99 214 -33 99 -89 256 -126 349 l-67 169 3 811 c2 454 7 819 12 830 7 15
16 17 52 12 49 -6 43 -17 68 109 28 134 56 368 67 542 20 339 -21 654 -116
893 -19 47 -39 110 -45 140 -6 30 -16 65 -22 77 -8 15 -9 76 -4 193 7 170 7
170 46 252 73 159 158 415 193 586 17 80 10 136 -23 182 -23 32 -95 79 -162
106 l-48 19 0 206 c0 122 4 219 11 237 6 17 25 40 44 51 18 11 41 31 51 46 18
28 23 100 7 116 -7 7 -3 24 12 52 46 82 40 173 -13 227 -22 22 -27 36 -28 81
-1 59 -31 131 -64 151 -19 12 -20 25 -19 483 1 258 5 733 8 1053 l6 584 585
217 c322 119 599 225 616 234 109 57 175 211 145 334 -25 97 -503 1598 -521
1633 -31 61 -68 97 -125 126 -87 42 -183 32 -355 -40 -13 -5 -24 20 -60 131
-92 290 -213 454 -418 570 -114 64 -161 73 -365 72 -151 0 -191 -4 -234 -19z
m369 -14 c97 -19 150 -39 230 -87 133 -78 245 -205 312 -351 33 -71 111 -307
104 -313 -2 -2 -68 -26 -146 -54 -143 -50 -143 -50 -151 -28 -5 12 -23 67 -40
122 -39 128 -90 213 -161 272 -68 56 -112 79 -192 99 -219 56 -442 -92 -513
-340 -28 -96 -17 -222 33 -374 22 -68 35 -121 29 -119 -15 5 -55 124 -78 232
-42 201 -11 345 102 469 106 116 216 161 377 154 72 -3 110 -10 146 -26 39
-18 51 -20 58 -10 16 27 -74 72 -177 88 -148 24 -307 -30 -419 -142 -168 -169
-201 -376 -105 -662 22 -66 36 -123 32 -126 -10 -9 -216 -91 -219 -87 -8 9
-85 268 -95 319 -40 212 14 472 132 645 170 247 463 373 741 319z m1 -396
c134 -50 215 -151 277 -349 22 -69 39 -125 37 -126 -1 -1 -166 -62 -367 -137
-201 -75 -372 -139 -381 -142 -12 -5 -23 17 -53 111 -63 192 -60 319 7 447 56
105 159 189 264 216 54 13 150 4 216 -20z m1031 -334 c51 -21 100 -70 124
-123 12 -26 133 -399 269 -828 226 -714 247 -786 247 -850 -1 -117 -53 -195
-165 -244 -64 -28 -1128 -421 -1140 -421 -6 0 -9 14 -7 31 l3 30 496 184 c273
100 516 193 540 205 163 82 221 224 171 415 -28 104 -469 1451 -488 1487 -15
29 -44 38 -44 14 0 -15 68 -233 300 -956 197 -614 193 -599 192 -681 -1 -106
-43 -168 -146 -221 -33 -17 -1011 -388 -1022 -388 -2 0 -4 49 -4 109 l0 110
28 -3 c15 -2 32 0 37 4 10 8 172 67 188 68 4 1 15 5 23 10 17 10 28 63 15 72
-4 3 -36 85 -71 183 -52 146 -62 182 -52 195 79 112 106 194 100 308 -4 67
-10 94 -36 147 -88 179 -291 257 -460 177 -34 -16 -87 -52 -116 -80 l-54 -51
-41 20 c-22 12 -75 33 -118 48 l-78 26 -420 8 c-231 3 -421 7 -422 8 -2 0 -3
31 -3 69 0 50 6 80 24 117 44 93 77 113 356 210 208 72 770 280 1130 418 461
176 489 186 553 186 32 1 72 -5 91 -13z m-5432 -551 c8 -18 8 -32 -2 -55 -14
-35 -77 -93 -91 -85 -21 13 -1 121 27 150 23 23 53 18 66 -10z m-220 -242 c50
-54 63 -103 28 -103 -67 0 -141 77 -110 115 19 23 53 18 82 -12z m254 -18 c7
-28 -9 -61 -39 -77 -29 -15 -107 -27 -107 -16 0 18 29 64 57 89 47 44 79 45
89 4z m-922 -97 c27 -38 12 -165 -18 -155 -15 4 -46 68 -53 111 -10 61 39 90
71 44z m914 -90 c20 -20 14 -63 -12 -87 -13 -12 -45 -29 -71 -36 l-47 -15 7
28 c9 40 53 102 78 112 30 12 31 12 45 -2z m4767 -13 c59 -29 113 -89 148
-164 57 -121 38 -260 -51 -376 l-39 -50 65 -185 c35 -102 66 -192 69 -201 4
-13 -13 -23 -79 -44 -45 -16 -88 -30 -94 -32 -22 -8 -53 145 -58 282 -5 147
-25 233 -81 346 -56 113 -122 199 -205 264 -27 22 -50 43 -50 48 0 17 46 69
78 89 83 51 218 61 297 23z m-870 -25 c174 -7 221 -12 275 -30 240 -80 415
-266 491 -521 21 -68 23 -100 27 -379 2 -168 1 -831 -3 -1475 l-7 -1170 -23
-1 c-16 -1 -25 5 -29 20 -8 33 -71 102 -107 116 l-32 14 6 1316 c6 1446 8
1398 -54 1524 -39 79 -128 180 -200 226 -28 18 -80 45 -117 59 l-67 26 -415 3
c-474 3 -460 5 -515 -83 -27 -44 -30 -57 -35 -172 -7 -133 -14 -153 -74 -197
-27 -21 -33 -21 -729 -18 -791 4 -743 -1 -784 82 -19 37 -23 60 -23 142 0 111
-13 155 -62 205 -17 18 -45 37 -62 42 -18 6 -235 11 -506 13 -438 3 -480 2
-535 -15 -208 -64 -360 -244 -394 -469 -6 -38 -14 -1380 -21 -3433 -6 -1853
-15 -3379 -20 -3391 -7 -17 -23 -23 -95 -33 -47 -7 -88 -12 -90 -9 -6 5 23
6784 29 6903 11 205 78 358 221 500 49 50 115 105 147 123 62 37 178 80 248
92 57 10 3275 1 3555 -10z m-4129 -45 c25 -25 42 -50 39 -55 -9 -14 -85 -12
-115 3 -57 29 -57 97 1 97 22 0 41 -12 75 -45z m-520 -20 c22 -34 10 -78 -34
-121 -31 -30 -37 -33 -45 -18 -15 26 -3 121 18 144 24 27 41 25 61 -5z m689
-85 c-38 -39 -61 -41 -53 -4 2 14 38 31 88 43 2 1 -14 -17 -35 -39z m-882 -44
c18 -7 40 -23 50 -34 19 -20 18 -21 -35 -37 -63 -20 -102 -10 -120 30 -22 49
34 71 105 41z m308 -50 c17 -36 3 -89 -32 -122 -25 -24 -31 -26 -39 -14 -13
20 -13 102 0 134 13 35 56 36 71 2z m434 -18 c30 -14 31 -21 4 -65 -20 -32
-23 -33 -43 -20 -11 8 -25 27 -31 42 -8 22 -6 29 10 41 23 17 27 17 60 2z
m1571 -54 c60 -45 67 -64 74 -201 8 -163 30 -209 121 -247 55 -23 1412 -25
1455 -3 74 38 104 101 110 226 3 53 7 110 10 127 5 35 45 81 84 96 15 7 173
10 413 9 420 -3 452 -6 551 -59 76 -40 176 -145 214 -224 67 -137 64 -72 56
-1525 l-7 -1312 -26 -6 c-14 -4 -40 -17 -58 -31 l-31 -24 -44 25 c-52 30 -82
31 -130 6 l-37 -18 -3 70 c-5 121 216 106 -1812 119 -1398 8 -1762 8 -1781 -2
-42 -22 -45 -47 -45 -331 0 -268 0 -270 23 -293 l23 -23 484 -6 c266 -4 1021
-7 1679 -7 l1196 0 13 -30 c8 -17 26 -37 41 -45 27 -14 28 -17 35 -124 8 -146
31 -268 60 -333 40 -89 120 -148 201 -148 60 0 43 -27 -38 -59 -31 -13 -60
-27 -62 -31 -3 -5 -49 -22 -103 -39 -62 -19 -109 -41 -132 -60 -28 -24 -45
-30 -82 -31 -55 0 -50 -16 -73 210 -9 85 -21 167 -27 183 l-10 27 -138 0
c-109 0 -140 -3 -150 -15 -9 -11 -10 -35 -3 -96 9 -77 8 -82 -12 -91 -12 -5
-26 -18 -33 -29 -19 -30 -62 -149 -62 -172 l0 -20 -792 7 c-1276 10 -1973 9
-1995 -3 -47 -25 -53 -62 -53 -328 0 -272 1 -278 60 -308 25 -13 116 -15 628
-15 329 0 943 -3 1365 -7 l766 -6 20 -57 c39 -106 123 -170 222 -170 45 0 129
36 188 81 29 22 56 38 59 34 8 -8 24 -295 25 -440 1 -138 -3 -165 -50 -300
l-38 -110 -85 0 c-47 0 -763 4 -1591 8 l-1506 9 -28 -24 c-37 -33 -43 -79 -44
-338 -1 -227 6 -262 61 -288 22 -10 327 -14 1524 -19 l1495 -6 -6 -26 c-7 -26
-111 -465 -121 -509 -4 -18 0 -25 16 -29 11 -3 20 -9 20 -15 0 -5 -18 -97 -40
-204 -22 -108 -40 -213 -40 -235 l0 -40 -1248 7 -1248 7 -21 -26 c-19 -25 -21
-43 -28 -391 -8 -383 -4 -425 35 -446 12 -6 503 -12 1333 -17 l1314 -6 19 28
c17 26 20 56 24 278 l5 248 210 -300 c116 -166 239 -342 274 -391 l63 -91 -16
-262 c-18 -276 -52 -626 -62 -636 -9 -9 -1725 -12 -2073 -3 l-304 7 244 233
c135 129 250 247 257 264 25 58 -22 116 -85 106 -15 -3 -147 -37 -293 -77
-146 -39 -268 -71 -271 -71 -3 0 -84 62 -178 139 -95 76 -178 138 -186 137 -7
0 -53 33 -101 75 -107 91 -351 287 -378 303 -10 6 -72 119 -136 251 -104 211
-125 248 -175 299 -63 64 -159 116 -213 116 -31 0 -33 2 -28 27 21 104 107
732 104 765 -2 35 -8 45 -34 60 -30 17 -36 18 -137 1 -59 -9 -108 -15 -111
-12 -2 2 3 1532 10 3399 13 3012 16 3403 30 3468 45 209 209 366 424 406 14 2
233 3 487 3 449 -2 462 -3 489 -23z m-1819 -85 c9 -18 10 -36 3 -59 -10 -35
-58 -93 -71 -85 -26 17 -15 157 14 169 23 9 42 1 54 -25z m-338 -20 c38 -13
36 -26 -9 -56 -58 -40 -138 -25 -128 24 7 37 76 53 137 32z m492 -160 c-6 -24
-11 -60 -11 -79 -1 -30 -2 -32 -12 -16 -13 22 -4 112 13 132 18 22 21 11 10
-37z m-258 -10 c29 0 19 -15 -30 -48 -56 -37 -116 -42 -133 -12 -27 52 4 74
90 66 30 -3 63 -6 73 -6z m220 -170 c29 0 19 -15 -30 -48 -56 -37 -116 -42
-133 -12 -27 52 4 74 90 66 30 -3 63 -6 73 -6z m17 -201 c-1 -40 -2 -42 -15
-24 -16 21 -20 48 -8 59 15 16 23 4 23 -35z m-2184 -1739 c42 -84 63 -185 79
-388 9 -106 14 -195 11 -198 -9 -9 -136 264 -153 327 -31 123 -14 350 24 318
8 -6 25 -33 39 -59z m1815 -221 c-36 -135 -78 -257 -133 -388 -52 -122 -138
-294 -144 -287 -3 2 7 67 21 143 24 131 23 166 -3 150 -6 -4 -18 -41 -27 -84
-39 -181 -50 -198 -34 -53 27 247 160 519 298 612 24 16 46 27 48 25 3 -2 -9
-56 -26 -118z m-1351 78 c17 -46 -51 -288 -122 -430 -40 -82 -102 -186 -109
-186 -27 -1 -27 217 1 326 23 92 88 230 132 279 37 43 83 48 98 11z m-824
-295 c121 -20 189 -48 264 -109 97 -78 181 -157 171 -160 -18 -6 -238 37 -320
63 -103 33 -194 95 -243 165 -45 64 -47 73 -10 66 15 -4 77 -15 138 -25z
m1634 -132 c42 -89 54 -179 47 -349 -5 -131 -28 -284 -46 -318 -9 -16 -93 198
-121 308 -23 90 -26 207 -5 276 16 55 69 144 85 144 6 0 24 -27 40 -61z m-631
-77 c29 -112 44 -245 38 -342 -6 -91 -31 -225 -51 -275 l-13 -30 -21 70 c-78
258 -99 370 -87 465 8 65 35 139 67 186 20 29 25 32 35 18 6 -8 20 -50 32 -92z
m1361 -89 c-88 -152 -169 -261 -255 -344 -72 -70 -192 -166 -255 -203 l-32
-18 7 23 c12 37 83 175 133 259 90 149 194 266 296 334 69 46 147 78 160 66 5
-5 -18 -54 -54 -117z m4568 70 c9 -12 12 -47 10 -113 l-3 -95 -35 -5 c-53 -9
-78 -27 -100 -70 -22 -43 -27 -138 -10 -170 8 -15 5 -28 -12 -56 l-23 -36
-370 6 c-203 3 -956 9 -1673 12 -1235 7 -1303 8 -1312 25 -11 20 -14 488 -3
515 6 16 98 17 1762 11 1666 -6 1756 -7 1769 -24z m476 -131 c14 -16 35 -51
46 -78 10 -28 24 -48 31 -46 61 15 69 14 98 -15 35 -36 55 -102 44 -146 -11
-47 -11 -49 22 -67 19 -11 35 -31 44 -57 19 -52 5 -103 -44 -168 -31 -39 -32
-45 -15 -45 39 0 45 -54 11 -94 -9 -10 -31 -25 -48 -33 -18 -7 -33 -19 -34
-26 -3 -54 -28 -84 -76 -93 -19 -4 -36 -4 -39 -2 -7 8 18 70 44 110 26 40 32
99 12 123 -7 8 -18 49 -26 92 -25 147 -102 255 -219 309 -107 49 -252 40 -313
-19 -45 -44 -102 -160 -102 -208 0 -43 -5 -47 -32 -22 -35 32 -9 113 37 113
12 0 11 7 -6 40 -13 24 -22 61 -22 90 -1 86 33 122 114 122 l49 -1 0 35 c0 20
5 44 10 55 13 22 61 49 90 49 33 0 78 -28 93 -56 l14 -26 19 23 c39 49 75 69
123 69 39 0 52 -5 75 -28z m-6000 -246 c74 -99 133 -182 131 -185 -10 -10
-119 76 -181 142 -67 73 -144 210 -144 258 l0 24 29 -30 c16 -17 90 -111 165
-209z m-838 73 c118 -75 216 -183 278 -306 29 -58 26 -63 -19 -33 -16 11 -38
17 -47 14 -29 -9 -197 167 -235 246 -37 75 -48 110 -36 110 5 0 31 -14 59 -31z
m1934 -178 c-61 -114 -179 -237 -315 -328 -80 -54 -155 -96 -155 -88 0 3 23
39 50 80 28 41 50 81 50 90 0 27 -26 16 -53 -22 -47 -65 -29 -19 22 58 93 142
224 263 366 338 l60 32 3 -50 c2 -42 -3 -62 -28 -110z m4747 81 c51 -27 108
-84 135 -136 l20 -39 -52 52 c-98 95 -237 144 -339 117 -42 -11 -50 -11 -39
-1 40 40 203 44 275 7z m-101 -43 c56 -14 72 -35 20 -26 -58 9 -156 -11 -208
-43 -57 -34 -62 -24 -13 24 52 52 115 66 201 45z m64 -68 c20 -5 26 -16 32
-51 4 -25 28 -85 52 -135 39 -77 44 -96 39 -131 -7 -52 12 -111 38 -119 17 -6
19 -12 14 -37 -11 -49 -51 -120 -87 -155 -59 -57 -184 -96 -252 -79 -41 10
-92 62 -115 117 -26 59 -51 181 -51 246 l0 45 19 -23 c33 -40 71 -2 57 56 -4
16 -16 25 -41 29 -28 6 -35 11 -35 30 0 23 10 30 73 50 28 9 17 40 -16 44 -33
4 -34 12 -3 45 56 60 187 93 276 68z m124 -51 c40 -43 106 -156 95 -164 -27
-17 -59 -23 -67 -13 -26 33 -92 193 -92 224 0 13 24 -5 64 -47z m-4804 -94 l0
-133 -87 -6 c-49 -4 -113 -14 -143 -22 -77 -21 -78 -20 -18 27 71 56 173 162
211 221 16 26 32 47 34 47 2 0 3 -60 3 -134z m-1570 -65 c24 -31 28 -41 14
-33 -27 14 -50 43 -59 72 -8 29 -4 24 45 -39z m6514 -84 c11 -31 -12 -71 -57
-97 -32 -18 -37 -13 -44 39 -8 57 17 93 60 89 24 -2 34 -9 41 -31z m-6691 -7
c42 -13 67 -26 67 -35 0 -8 5 -15 12 -15 29 0 -13 -20 -82 -39 -119 -33 -292
-28 -393 11 -22 9 -25 13 -15 25 16 20 99 61 145 73 57 14 190 4 266 -20z
m1747 -54 c0 -29 -7 -38 -60 -75 -80 -56 -207 -115 -305 -141 -92 -24 -265
-39 -265 -22 0 19 127 127 194 164 120 66 254 104 379 107 l57 1 0 -34z m-10
-482 c0 -347 -2 -393 -19 -462 -11 -43 -25 -109 -32 -149 l-13 -72 -22 33
c-12 18 -38 73 -57 122 -84 218 -165 352 -277 457 -60 58 -169 127 -199 127
-13 0 25 -159 59 -248 69 -180 192 -334 348 -439 125 -85 126 -86 133 -323 6
-166 21 -302 46 -410 6 -28 14 -39 -466 622 l-333 460 1 52 c0 76 25 137 134
333 l52 93 75 0 c86 0 201 20 291 50 71 24 202 90 239 119 14 11 28 21 33 21
4 0 7 -174 7 -386z m-2165 314 c160 -91 296 -211 403 -353 63 -85 65 -97 15
-83 -118 31 -266 129 -372 244 -57 62 -161 215 -161 237 0 13 39 -2 115 -45z
m7185 -168 c0 -124 -3 -180 -11 -180 -6 0 -40 19 -76 43 l-65 42 5 110 c5 136
9 145 56 146 20 0 45 4 56 9 11 5 23 9 28 9 4 1 7 -80 7 -179z m-6565 96 c56
-56 112 -141 169 -253 44 -88 54 -115 39 -100 -3 4 -12 2 -18 -3 -15 -13 -118
92 -173 178 -42 65 -102 199 -102 227 0 22 31 4 85 -49z m5543 6 c8 -5 15 -44
19 -105 3 -53 9 -97 13 -97 4 0 10 -44 14 -97 4 -54 10 -115 13 -135 l6 -38
-107 0 c-72 0 -106 4 -106 11 0 7 29 38 64 71 86 78 91 101 40 175 -41 60 -82
84 -125 76 -26 -5 -26 -4 -32 64 -3 46 -1 70 6 75 16 10 179 10 195 0z m831
-123 c1 -77 7 -111 27 -150 12 -25 9 -28 -132 -155 -80 -71 -149 -130 -153
-132 -7 -2 -21 61 -47 213 -4 27 0 32 36 53 42 24 90 88 90 120 0 13 16 25 53
40 29 12 69 36 88 52 19 16 35 29 35 30 1 0 2 -32 3 -71z m-953 -57 c21 -14
74 -95 74 -113 0 -9 -21 -36 -47 -59 -82 -73 -83 -73 -149 -56 -31 8 -61 19
-66 24 -10 10 37 149 58 172 25 26 109 47 130 32z m-4379 -118 c115 -85 202
-210 289 -413 42 -97 43 -104 27 -116 -15 -11 -23 -9 -54 15 -69 55 -169 170
-213 247 -64 108 -133 303 -108 303 6 0 32 -16 59 -36z m5480 -47 c8 -16 13
-30 11 -32 -2 -2 -21 4 -43 14 l-40 18 -45 -30 -45 -30 53 55 c33 34 50 58 43
62 -6 4 -11 12 -11 18 0 17 59 -42 77 -75z m-490 -17 c10 -63 5 -69 -13 -17
-10 27 -16 32 -40 29 l-29 -2 30 25 c17 14 33 25 36 25 3 0 11 -27 16 -60z
m579 21 c5 -1 19 -7 29 -15 18 -13 17 -14 -14 -30 -18 -10 -34 -16 -35 -14 -4
6 -26 59 -26 63 0 2 8 2 18 0 9 -2 22 -4 28 -4z m-726 -16 c-7 -8 -19 -15 -26
-15 -8 0 -14 -4 -14 -10 0 -5 -7 -10 -15 -10 -26 0 -16 20 18 35 42 18 52 18
37 0z m127 -126 c17 -46 34 -98 38 -114 l6 -30 -18 25 c-10 14 -30 36 -44 50
-27 25 -99 129 -99 142 0 6 55 16 75 13 6 -1 24 -39 42 -86z m531 46 c2 -1 -6
-18 -18 -37 -11 -19 -38 -102 -60 -184 -23 -82 -59 -205 -82 -273 l-41 -124
-29 34 c-48 57 -240 348 -236 359 1 5 86 67 188 138 l185 129 45 -20 c25 -11
46 -21 48 -22z m212 18 c38 -32 52 -64 51 -120 -1 -101 -54 -153 -156 -153
-33 0 -77 5 -99 11 l-39 11 7 59 c8 79 36 131 90 169 83 56 103 60 146 23z
m-2157 -13 l578 0 -8 -122 c-4 -68 -8 -194 -8 -281 l0 -157 -25 0 c-14 0 -625
5 -1359 10 -968 7 -1337 13 -1347 21 -11 9 -14 63 -14 265 0 230 2 254 18 264
12 8 235 10 802 6 432 -3 1045 -6 1363 -6z m-4804 -4 c-2 -2 -44 -31 -94 -65
-49 -33 -128 -90 -175 -126 -123 -94 -300 -181 -300 -147 0 20 40 104 67 139
39 51 132 118 201 143 69 27 212 58 266 59 22 1 37 -1 35 -3z m5509 -16 c39
-10 42 -13 42 -44 l0 -33 -47 8 c-77 15 -83 18 -83 48 0 33 8 43 29 37 9 -3
35 -10 59 -16z m372 4 c0 -8 -5 -12 -10 -9 -6 4 -8 11 -5 16 9 14 15 11 15 -7z
m232 -58 l48 -70 -47 -42 c-27 -24 -55 -43 -63 -44 -9 0 -48 16 -87 34 -52 25
-74 41 -78 58 -6 25 28 117 48 130 7 5 39 7 72 6 l60 -3 47 -69z m-267 -47
c-2 -22 -18 -66 -36 -97 -50 -90 -127 -207 -148 -226 -18 -16 -19 -15 -30 31
-20 91 -41 228 -41 275 l0 47 128 4 c70 1 128 4 129 5 1 1 0 -16 -2 -39z
m-353 -10 l55 -11 13 -91 c7 -49 21 -131 31 -181 17 -83 17 -92 3 -103 -20
-15 -11 -43 14 -43 10 0 23 -5 30 -12 8 -8 15 -8 27 2 11 9 13 16 5 24 -18 18
-11 37 34 97 25 32 71 104 103 159 55 94 74 113 88 90 3 -5 -1 -75 -10 -156
-8 -81 -15 -181 -15 -223 l0 -77 -57 -48 c-84 -71 -151 -99 -219 -94 -67 6
-98 27 -136 95 -48 84 -61 172 -56 379 3 99 8 186 12 192 9 15 9 15 78 1z
m721 -73 c15 -22 14 -25 -27 -65 -49 -48 -62 -50 -78 -15 -11 24 -9 29 30 65
22 21 45 39 50 39 6 0 17 -11 25 -24z m-6229 -78 c-29 -99 -79 -223 -118 -293
-42 -75 -195 -239 -203 -218 -6 17 32 161 63 237 27 67 82 161 127 218 22 28
36 36 51 33 16 -4 28 5 50 35 17 22 33 40 37 40 5 0 1 -24 -7 -52z m6009 33
c61 -26 116 -98 152 -197 38 -107 125 -291 166 -350 61 -90 127 -152 186 -174
98 -36 169 -24 242 44 l34 31 -7 -55 c-3 -30 -6 -97 -6 -147 l0 -93 -409 0
-408 0 -6 48 c-3 26 -12 154 -18 285 -15 274 0 627 26 627 2 0 24 -9 48 -19z
m331 -134 c40 -61 103 -152 140 -200 56 -73 65 -91 56 -107 -8 -15 -6 -21 7
-28 10 -5 27 -6 38 -2 11 4 25 5 31 3 23 -9 26 19 4 42 l-22 23 41 119 c22 65
50 151 61 191 18 61 24 72 38 67 66 -25 190 -31 235 -11 25 12 23 -5 -28 -162
-80 -247 -163 -416 -230 -467 -66 -51 -158 -48 -230 7 -93 72 -209 266 -281
471 l-27 78 44 45 c24 24 45 44 46 44 2 0 36 -51 77 -113z m-6660 32 c9 8 16
9 16 3 0 -20 -76 -198 -112 -263 -40 -71 -135 -183 -180 -212 l-28 -19 -1 34
c-5 169 57 303 194 418 63 54 71 58 82 43 11 -15 15 -15 29 -4z m2085 -431
c-1 -174 -5 -251 -9 -213 -14 113 -9 485 6 485 2 0 3 -123 3 -272z m-1349 87
c46 -94 84 -220 106 -352 16 -95 14 -119 -9 -91 -100 122 -163 230 -192 332
-17 58 -24 214 -10 236 13 21 65 -41 105 -125z m375 -190 c71 -93 127 -200
163 -310 36 -111 45 -155 31 -155 -38 0 -195 183 -248 289 -38 74 -79 208 -87
279 l-7 57 47 -45 c26 -25 71 -76 101 -115z m356 58 c40 -43 74 -101 138 -240
73 -157 97 -229 106 -313 l7 -65 -57 55 c-188 181 -331 484 -285 605 l10 26
28 -19 c15 -11 39 -33 53 -49z m-1100 -133 c47 -10 122 -32 167 -50 80 -31
214 -110 241 -143 12 -16 8 -17 -46 -17 -156 0 -335 39 -445 97 -71 37 -158
110 -158 133 0 16 117 7 241 -20z m-367 -50 c29 -11 49 -44 48 -80 0 -22 5
-28 41 -38 53 -14 87 -61 87 -118 0 -21 -4 -45 -9 -52 -5 -8 -6 8 -3 37 4 49
3 53 -32 85 -19 19 -50 37 -67 41 -17 4 -46 15 -63 26 -17 10 -58 25 -90 33
-32 9 -61 17 -63 19 -7 7 24 27 63 41 48 18 56 18 88 6z m-382 -82 c-34 -17
-78 -48 -97 -70 -38 -42 -43 -42 -21 1 26 49 104 99 156 100 18 0 8 -8 -38
-31z m269 -14 c38 -8 69 -19 69 -23 0 -4 -82 -27 -182 -50 -101 -24 -187 -46
-191 -48 -5 -3 -4 -10 1 -15 6 -6 5 -19 -4 -36 -18 -34 -17 -63 1 -132 35
-129 5 -358 -47 -368 -13 -2 -19 6 -24 35 -7 41 -29 73 -50 73 -21 0 -27 44
-22 164 9 176 54 285 147 348 97 68 175 81 302 52z m214 -89 c27 -26 34 -82
13 -103 -19 -19 -55 -14 -71 9 -15 20 -16 20 -63 4 -72 -25 -191 -12 -294 32
-22 9 275 81 338 82 43 1 57 -3 77 -24z m725 -34 c0 -16 -75 -104 -130 -154
-90 -81 -245 -146 -347 -147 -27 0 -33 4 -33 21 0 97 222 229 475 282 33 7 35
7 35 -2z m5798 -33 c3 -28 3 -28 -57 -28 l-61 0 0 30 0 31 58 -3 c54 -3 57 -4
60 -30z m-308 2 c0 -15 -7 -20 -25 -20 -18 0 -25 5 -25 20 0 15 7 20 25 20 18
0 25 -5 25 -20z m150 0 c0 -16 -7 -20 -34 -20 -36 0 -52 12 -41 30 3 6 22 10
41 10 27 0 34 -4 34 -20z m350 0 c0 -18 -7 -20 -74 -20 -54 0 -75 4 -79 14 -9
22 2 26 80 26 66 0 73 -2 73 -20z m303 0 c5 -19 0 -20 -119 -20 -117 0 -124 1
-124 20 0 19 7 20 119 20 110 0 119 -1 124 -20z m-7405 -42 c74 -26 191 -39
249 -29 36 7 54 6 77 -6 17 -9 42 -13 61 -10 30 5 32 3 43 -39 19 -72 18 -75
-23 -58 -46 19 -78 18 -106 -4 -38 -31 -20 -48 58 -55 37 -3 73 -1 79 4 22 18
33 -466 12 -549 -24 -95 -144 -173 -241 -157 -67 11 -140 42 -200 85 -62 43
-63 40 -18 -48 35 -68 118 -123 206 -137 l40 -7 0 -46 c-1 -60 -10 -83 -40
-105 -52 -38 -60 -33 -242 154 l-173 176 0 85 c0 47 3 118 6 159 6 72 8 75 32
74 30 0 65 45 82 104 21 71 24 231 6 299 -9 35 -16 76 -16 91 0 33 19 54 40
45 8 -4 39 -16 68 -26z m-293 -43 c-10 -37 -13 -43 -14 -23 -1 25 18 82 25 75
2 -1 -3 -25 -11 -52z m7722 -20 c36 -64 90 -240 113 -365 55 -308 38 -795 -41
-1142 l-11 -48 -63 0 c-78 0 -393 25 -575 46 -209 23 -615 89 -676 109 -23 7
213 951 323 1290 25 77 47 143 49 146 1 3 195 5 431 5 l427 -1 23 -40z m-5892
-267 c4 -122 3 -206 -5 -253 -12 -76 -52 -174 -80 -200 -16 -15 -18 -12 -35
47 -39 134 -29 294 27 448 21 57 68 140 79 140 4 0 10 -82 14 -182z m468 -90
c-33 -235 -65 -332 -136 -413 -24 -27 -39 -37 -46 -30 -5 6 -13 46 -17 90 -8
98 13 211 56 304 30 64 118 183 148 201 10 5 17 10 17 10 0 0 -10 -73 -22
-162z m3469 99 c510 -2 929 -5 932 -8 3 -2 -17 -83 -43 -179 -27 -96 -59 -219
-72 -273 l-23 -99 -1496 7 c-1269 6 -1498 9 -1518 21 l-22 15 2 252 c3 246 3
252 25 262 14 8 218 10 655 8 348 -2 1050 -4 1560 -6z m-5724 -149 c3 -65 2
-66 -20 -61 -28 7 -38 21 -38 51 0 16 5 22 18 20 27 -5 28 36 0 50 -22 11 -22
12 7 9 30 -2 30 -3 33 -69z m2 -103 c0 -10 -10 -15 -32 -15 l-33 0 25 14 c33
19 40 19 40 1z m182 -466 c89 -94 163 -176 163 -182 0 -7 -15 -41 -33 -76
l-33 -63 -37 43 c-20 24 -96 105 -170 180 l-133 136 33 67 c18 36 35 66 39 66
4 0 81 -77 171 -171z m179 125 c24 -8 62 -19 83 -22 22 -4 42 -14 44 -21 7
-22 -83 -6 -135 24 -24 14 -43 28 -43 30 0 7 3 6 51 -11z m-306 -267 c77 -83
161 -173 186 -200 l46 -50 38 69 c21 38 40 71 41 73 10 12 41 -45 88 -161 29
-73 83 -192 119 -264 36 -73 84 -175 106 -227 l40 -96 -47 -7 c-51 -8 -97 -8
-263 1 l-106 6 -121 248 -121 248 -185 179 c-103 98 -185 182 -184 186 3 8
209 146 218 146 3 0 68 -68 145 -151z m579 34 c-1 -2 -17 7 -33 19 l-31 21 0
-28 c0 -26 -2 -24 -20 16 -33 71 -24 77 34 24 29 -26 52 -50 50 -52z m1986 44
c0 -51 -7 -55 -34 -18 -19 26 -19 26 3 45 13 10 25 18 27 18 2 0 4 -20 4 -45z
m-2006 -263 c121 -281 107 -256 247 -459 66 -94 119 -173 119 -176 0 -7 -198
-30 -213 -24 -8 3 -22 27 -32 54 -9 26 -57 129 -105 228 -94 192 -139 297
-188 437 l-31 86 30 12 c16 7 39 26 50 42 12 16 22 28 24 26 2 -2 46 -103 99
-226z m170 141 c20 -50 266 -761 266 -767 0 -30 -44 23 -156 187 -116 169
-140 213 -206 367 -60 140 -74 182 -70 210 l5 34 42 -49 c31 -35 47 -46 59
-42 11 4 15 14 12 24 -3 10 -8 30 -12 45 -6 27 -5 27 24 17 17 -6 33 -18 36
-26z m-947 -150 l185 -178 65 -130 c36 -71 61 -126 57 -122 -5 5 -45 56 -89
115 -44 58 -86 108 -92 110 -44 13 12 -81 227 -376 105 -145 100 -142 228
-142 l62 0 0 -105 c0 -58 -3 -105 -7 -105 -15 0 -540 69 -608 80 -38 6 -76 16
-83 23 -26 21 -174 231 -227 322 -125 215 -142 336 -69 492 22 46 145 193 161
193 3 0 88 -80 190 -177z m1091 122 c73 -33 157 -116 197 -195 18 -36 67 -144
110 -240 42 -96 83 -188 90 -203 15 -31 3 -77 -20 -77 -15 0 -129 126 -174
193 -18 26 -57 114 -87 194 -53 142 -87 213 -104 213 -16 0 -20 -32 -6 -58 8
-15 33 -81 56 -147 59 -167 86 -217 173 -317 l76 -86 -70 -7 c-39 -4 -72 -6
-74 -4 -5 5 -265 754 -265 763 0 10 32 0 98 -29z m9400 -148 c23 -24 45 -79
55 -137 9 -49 -15 -142 -49 -191 -28 -41 -28 -41 -45 -20 -10 12 -27 51 -40
88 -27 83 -22 162 18 234 14 27 29 49 33 49 4 0 16 -10 28 -23z m-7204 -4 c8
-26 -108 -811 -122 -825 -8 -8 -791 -178 -822 -178 -3 0 6 98 21 218 15 119
39 315 53 435 13 121 27 222 31 225 7 8 764 140 807 141 17 1 29 -5 32 -16z
m-3693 -21 c-6 -11 -15 -51 -21 -89 -22 -143 44 -307 224 -558 51 -71 92 -131
91 -133 -1 -1 -110 14 -241 34 -131 20 -279 37 -329 38 -49 2 -112 6 -139 11
l-49 8 6 -169 c6 -185 26 -317 82 -529 59 -228 143 -457 241 -665 89 -187 146
-229 318 -239 l99 -6 27 -135 c42 -205 97 -385 174 -567 14 -34 26 -65 26 -68
0 -3 -127 -5 -282 -3 -265 3 -287 5 -346 26 -174 63 -279 170 -364 372 -196
464 -257 1154 -167 1880 39 311 67 417 133 507 55 75 153 149 281 213 91 46
235 101 243 95 2 -2 -1 -12 -7 -23z m2639 -33 c0 -23 -293 -519 -307 -519 -14
0 -16 9 -13 52 1 14 -3 29 -9 32 -5 4 -7 22 -4 41 3 20 1 41 -6 49 -16 19 -1
27 48 25 81 -5 93 46 23 96 -34 23 -53 30 -88 28 -24 -1 -44 1 -44 3 0 3 26
50 58 105 l57 99 143 0 c100 0 142 -3 142 -11z m4481 -68 c52 -10 162 -29 244
-41 83 -12 156 -24 162 -26 13 -3 -15 -55 -126 -233 -28 -46 -50 -87 -49 -92
2 -4 37 -49 78 -99 41 -50 108 -137 148 -193 l74 -102 -6 -295 c-4 -162 -9
-319 -12 -348 l-6 -52 -49 67 c-27 38 -142 201 -256 363 -114 162 -236 336
-272 385 -76 105 -110 182 -111 246 0 57 73 439 85 439 1 0 45 -8 96 -19z
m-4321 -67 c-5 -32 -27 -212 -49 -399 -23 -187 -43 -360 -47 -384 l-6 -44
-341 8 c-329 7 -367 11 -351 37 3 4 156 8 340 8 184 0 334 3 334 8 0 4 22 189
50 411 33 271 53 407 62 412 18 11 18 9 8 -57z m7865 -8 c46 -21 123 -92 112
-103 -3 -2 -23 5 -45 16 -64 33 -154 37 -252 12 -53 -14 -114 -22 -167 -22
-142 0 -132 16 47 75 129 43 132 43 200 45 38 0 70 -6 105 -23z m-3027 -11 c6
-6 15 -615 10 -615 -3 0 -34 37 -69 83 -35 45 -89 113 -121 151 -32 39 -58 76
-58 83 0 11 64 123 167 291 12 19 20 22 41 17 15 -4 28 -8 30 -10z m267 -19
c105 -9 214 -18 244 -20 29 -3 55 -7 57 -9 2 -2 -21 -103 -51 -224 -53 -212
-54 -223 -43 -279 15 -78 15 -412 -1 -539 -51 -410 -166 -881 -337 -1374 -54
-156 -58 -162 -73 -143 -12 17 -29 22 -76 24 -47 2 -60 6 -58 18 1 8 11 78 22
155 67 464 110 1383 97 2068 -6 330 -5 348 11 343 10 -3 104 -12 208 -20z
m-5557 -76 c46 -28 40 -40 -16 -33 -37 4 -60 0 -100 -17 -29 -12 -52 -29 -52
-36 0 -8 4 -14 9 -14 4 0 6 -11 3 -25 -5 -30 15 -58 36 -50 20 7 52 -23 52
-49 -1 -19 -3 -18 -16 7 -15 28 -43 37 -45 15 -5 -48 12 -78 40 -71 11 3 21
-2 25 -13 19 -51 -211 -189 -505 -303 l-206 -79 -242 31 -241 31 0 106 0 107
393 47 c215 26 400 50 409 52 9 3 48 62 87 133 73 132 98 157 144 145 13 -3
36 0 52 7 33 13 89 26 120 28 11 0 35 -8 53 -19z m8436 -51 c31 -24 33 -36 8
-43 -10 -4 -29 -25 -42 -49 -33 -58 -107 -135 -152 -158 -21 -11 -71 -31 -111
-46 -39 -14 -110 -43 -156 -64 -46 -22 -86 -37 -88 -35 -7 7 37 112 67 159 16
26 47 66 69 90 120 130 329 206 405 146z m493 -29 c143 -66 238 -231 219 -384
-11 -85 -18 -84 -76 15 -54 90 -97 142 -176 209 -36 30 -43 42 -49 87 -4 34
-15 61 -31 78 -13 14 -24 28 -24 31 0 11 79 -10 137 -36z m-168 -8 c33 -16 43
-37 61 -129 0 -1 -19 17 -43 40 -23 24 -66 55 -95 69 -45 23 -49 27 -30 31 48
9 74 6 107 -11z m-8841 -39 c5 -31 -18 -29 -42 3 l-18 26 28 -4 c21 -2 30 -9
32 -25z m8768 -28 c128 -75 197 -251 192 -488 l-3 -122 -52 105 c-32 64 -66
156 -88 235 -53 188 -63 212 -111 262 l-43 45 31 -6 c18 -3 51 -17 74 -31z
m-2846 -702 c0 -355 -3 -644 -6 -640 -17 17 -82 180 -79 200 1 12 12 85 24
162 29 195 41 415 31 568 -5 70 -12 137 -16 149 -5 18 34 208 43 208 2 0 3
-291 3 -647z m-1662 540 l383 -6 19 -44 c10 -24 39 -70 64 -102 l46 -59 0
-286 c0 -262 -1 -286 -17 -293 -10 -5 -600 -6 -1312 -3 -1250 6 -1294 7 -1307
25 -11 15 -14 89 -14 371 0 205 4 363 10 378 l10 26 867 0 c478 0 1040 -3
1251 -7z m-3859 -60 c-4 -32 -8 -68 -8 -80 -1 -18 -7 -23 -26 -23 -19 0 -25 5
-25 23 0 12 -3 38 -6 57 -5 32 -3 37 33 57 21 13 38 23 39 23 0 0 -3 -26 -7
-57z m-214 24 l110 -12 3 -49 c2 -27 -1 -53 -7 -59 -6 -6 -6 -16 2 -28 6 -10
8 -21 4 -25 -6 -7 -447 -24 -455 -18 -2 1 -1 15 2 31 5 20 20 36 55 56 27 15
71 47 98 72 26 24 55 44 63 44 8 0 65 -6 125 -12z m7261 -44 c-20 -27 -75
-105 -123 -175 -49 -70 -91 -127 -95 -128 -5 0 -8 23 -8 51 0 63 35 141 87
191 37 36 148 108 166 108 5 0 -7 -21 -27 -47z m-249 -127 c-19 -80 -37 -149
-40 -153 -10 -10 -46 27 -74 75 -45 76 -20 157 62 199 30 16 78 32 83 28 1 -1
-13 -68 -31 -149z m-9592 34 c127 -17 289 -38 360 -47 72 -9 132 -18 133 -19
2 -1 -12 -67 -32 -146 -32 -130 -53 -241 -71 -370 -3 -27 -11 -48 -17 -48 -6
0 -26 9 -44 21 -30 18 -35 19 -40 4 -8 -20 18 -49 57 -65 16 -7 29 -16 29 -21
0 -4 -32 -11 -70 -15 -39 -4 -73 -10 -75 -14 -11 -18 27 -32 82 -28 l58 3 1
-270 c1 -170 7 -306 16 -367 l14 -98 -81 0 c-189 0 -226 40 -368 390 -143 353
-224 669 -247 962 -12 155 -8 170 34 163 17 -3 135 -19 261 -35z m2200 -30
c-3 -5 -10 -10 -16 -10 -5 0 -9 5 -9 10 0 6 7 10 16 10 8 0 12 -4 9 -10z
m1672 -42 c88 -44 146 -121 244 -324 50 -102 89 -187 87 -189 -3 -3 -293 201
-448 315 -52 39 -125 85 -162 103 -37 17 -68 35 -68 38 0 3 33 12 72 19 92 16
125 28 132 46 9 22 91 18 143 -8z m-2337 -123 c498 -63 939 -123 980 -133 106
-26 165 -57 230 -121 110 -110 162 -252 215 -586 19 -121 37 -234 41 -252 7
-37 13 -35 -161 -53 -570 -58 -1279 -104 -1974 -126 -196 -7 -214 -6 -208 9 9
25 -9 31 -118 37 l-100 5 -7 50 c-12 74 -22 553 -14 619 5 39 12 56 22 56 18
0 18 26 0 37 -22 13 5 201 66 456 l30 127 46 -5 c26 -3 454 -57 952 -120z
m627 119 c-3 -3 -12 -4 -19 -1 -8 3 -5 6 6 6 11 1 17 -2 13 -5z m-73 -17 c16
-12 7 -18 -84 -60 -99 -46 -136 -53 -189 -38 -20 5 -2 16 105 58 147 58 144
57 168 40z m686 3 c0 -6 -91 -10 -254 -10 -213 0 -256 -2 -266 -15 -8 -10 -29
-15 -59 -14 l-46 1 35 16 c27 13 76 18 205 22 311 10 385 10 385 0z m7324 -79
c55 -27 156 -114 145 -125 -2 -2 -51 6 -109 19 -143 32 -369 64 -404 58 -37
-7 -28 10 17 34 119 62 244 67 351 14z m-6544 -32 c41 -22 143 -88 225 -147
83 -59 233 -168 335 -241 303 -218 635 -490 635 -520 0 -21 -216 -392 -232
-398 -6 -3 -114 38 -240 90 -455 189 -568 246 -694 349 -41 34 -135 104 -209
157 l-134 96 -139 5 -139 5 -25 84 c-72 252 -216 389 -463 440 l-95 20 221 0
c163 1 223 -2 232 -11 10 -10 15 -10 20 -1 7 11 446 106 532 115 57 6 91 -2
170 -43z m-1460 7 l0 -34 -42 5 c-73 8 -77 14 -23 39 65 30 65 30 65 -10z
m7305 -8 l40 -12 -60 -8 c-113 -15 -254 -68 -350 -130 -19 -12 -12 -2 19 27
57 54 121 93 191 117 59 20 105 22 160 6z m240 -158 c22 -90 31 -330 16 -427
-25 -153 -76 -353 -91 -353 -4 0 -30 33 -57 73 -192 278 -212 538 -53 698 45
45 146 95 162 81 4 -4 14 -36 23 -72z m-259 47 c-41 -26 -136 -108 -195 -170
-120 -123 -243 -311 -302 -457 -33 -82 -42 -85 -34 -10 35 318 205 544 475
631 64 21 83 23 56 6z m1748 -26 c12 -19 -76 -99 -188 -173 -66 -43 -124 -78
-129 -78 -5 0 -7 24 -5 55 5 63 34 102 101 136 41 21 159 59 209 68 4 0 9 -3
12 -8z m-519 -238 c-16 -9 -63 -36 -104 -60 -75 -45 -223 -113 -244 -113 -17
1 100 107 151 137 58 34 117 52 177 52 l50 0 -30 -16z m645 -4 c95 -14 227
-52 290 -84 42 -21 100 -78 100 -99 0 -3 -26 7 -57 23 -32 16 -107 43 -168 60
-161 45 -345 107 -339 113 6 6 71 1 174 -13z m-527 -41 c15 -11 10 -17 -45
-45 -161 -83 -217 -170 -254 -395 -23 -140 -47 -228 -79 -298 -16 -34 -16 -32
-11 75 9 186 49 316 162 528 43 81 63 108 92 125 41 24 109 29 135 10z m242
-82 c155 -84 261 -345 277 -684 l3 -54 -40 45 c-69 75 -197 248 -248 332 -55
91 -83 176 -96 290 -5 44 -12 88 -16 99 -7 16 -4 18 26 11 19 -4 61 -21 94
-39z m-195 -24 c0 -77 -21 -146 -68 -218 -42 -65 -247 -294 -263 -294 -6 0 -8
4 -5 8 3 5 15 68 26 140 28 183 48 233 124 307 51 50 149 113 179 115 4 0 7
-26 7 -58z m-7595 -200 c141 -183 424 -440 605 -550 62 -37 65 -41 68 -80 5
-61 -24 -212 -54 -287 -79 -197 -240 -349 -449 -422 l-80 -28 -1293 0 -1294 0
-24 59 c-75 185 -173 518 -190 647 l-6 48 58 -24 c71 -30 117 -33 112 -8 -2 9
-24 23 -53 33 -30 11 -44 20 -35 23 8 3 123 8 255 11 132 4 425 15 650 26 565
28 889 52 1484 111 l123 13 -5 30 c-3 17 -13 63 -21 101 -15 70 -56 336 -56
361 0 11 18 14 73 14 l72 0 60 -78z m270 -93 c165 -127 244 -181 317 -217 l97
-47 1 -97 c0 -54 -3 -98 -6 -98 -12 0 -178 113 -244 165 -109 87 -237 212
-342 335 -54 63 -98 118 -98 122 0 5 12 8 28 8 19 -1 88 -48 247 -171z m4929
-269 c75 -187 178 -491 172 -506 -5 -13 -95 -69 -100 -63 -1 2 -22 38 -46 79
-24 41 -99 160 -167 263 -67 104 -123 194 -123 200 0 19 80 359 91 386 9 23
16 13 65 -100 30 -68 79 -185 108 -259z m-3409 48 c78 -63 150 -121 160 -127
17 -10 54 -3 213 38 106 28 194 51 195 51 1 0 3 -21 4 -46 1 -29 10 -59 25
-81 l23 -35 -125 -121 c-69 -67 -146 -142 -172 -166 l-48 -45 -39 22 c-54 31
-116 37 -171 18 l-44 -15 -216 86 c-118 48 -220 90 -227 95 -8 6 1 29 30 79
47 78 39 76 154 34 68 -26 103 -28 103 -6 0 5 -37 24 -82 41 -46 18 -87 35
-92 40 -6 6 35 95 60 128 1 2 38 -15 83 -37 91 -46 101 -49 101 -22 0 18 -14
26 -158 98 -2 1 4 13 12 27 9 14 23 38 32 52 10 17 19 22 27 16 7 -4 75 -60
152 -124z m795 -17 c0 -9 -31 -47 -69 -85 l-69 -68 -18 27 c-10 16 -18 47 -18
73 l-1 46 75 22 c77 22 100 19 100 -15z m-1763 -147 c35 -66 40 -81 28 -90
-14 -11 5 -49 122 -253 l26 -44 -89 5 c-49 3 -118 13 -153 23 l-63 18 5 46 c4
25 11 100 17 166 21 239 19 225 43 216 14 -5 38 -38 64 -87z m112 10 l63 -28
-47 -23 c-26 -14 -48 -23 -50 -21 -1 2 -15 27 -30 57 -16 33 -22 52 -13 48 7
-3 42 -17 77 -33z m4080 -124 c82 -120 82 -121 71 -158 -35 -108 -141 -259
-237 -333 -58 -46 -143 -99 -158 -99 -13 0 2 50 96 320 50 146 101 293 113
327 11 35 24 63 27 63 3 0 43 -54 88 -120z m-3907 51 c29 -12 53 -33 71 -60
31 -46 57 -54 57 -17 l0 24 40 -15 c29 -12 39 -21 35 -32 -4 -13 8 -22 46 -36
47 -18 54 -26 82 -82 l31 -62 190 -71 c105 -40 192 -73 193 -74 1 -1 -9 -24
-22 -51 -14 -26 -25 -65 -25 -86 0 -33 -3 -38 -27 -43 -48 -10 -403 -66 -418
-66 -8 0 -22 15 -31 33 -33 64 -113 127 -163 127 -15 0 -48 52 -145 223 -69
123 -126 226 -126 230 0 4 13 13 29 21 l29 15 51 -69 c48 -67 81 -88 81 -54 0
9 -20 45 -45 80 -39 57 -42 65 -27 73 25 15 45 13 94 -8z m-3683 -7 c2 -2 -30
-4 -72 -4 -42 0 -79 4 -82 10 -6 9 143 3 154 -6z m4199 -240 c75 -31 141 -60
147 -65 5 -5 -10 -9 -40 -9 -74 0 -223 57 -241 92 -15 29 -17 38 -8 38 3 0 67
-25 142 -56z m5912 -9 l0 -55 -400 0 -400 0 0 55 0 55 400 0 400 0 0 -55z
m-2350 -67 c62 -105 62 -108 29 -250 -15 -64 -30 -101 -54 -132 -44 -58 -55
-80 -55 -110 l0 -26 -220 0 c-121 0 -220 2 -220 4 0 2 7 20 15 39 8 20 15 54
15 76 0 30 5 41 19 46 39 12 147 89 209 149 69 65 147 175 178 250 11 25 21
46 24 46 3 0 30 -42 60 -92z m-3194 7 c20 -8 34 -20 32 -27 -7 -23 -71 -49
-103 -43 -32 6 -90 55 -78 66 23 21 103 23 149 4z m-1240 -14 c33 -11 108 -23
165 -26 l105 -7 37 -72 c23 -44 41 -95 47 -136 6 -37 19 -77 31 -93 l21 -29
-203 4 c-179 4 -212 8 -269 27 -53 19 -135 55 -148 66 -1 1 18 33 43 71 25 38
58 102 73 141 15 40 29 73 32 73 3 0 32 -9 66 -19z m3739 -81 c-19 -129 -23
-139 -104 -221 l-76 -78 -1408 6 c-774 3 -1405 8 -1403 10 2 2 116 22 252 43
312 50 317 51 338 94 23 49 7 79 -58 107 -43 18 -48 23 -31 29 11 4 31 20 45
34 l24 27 1214 -3 1213 -3 -6 -45z m2982 28 c-3 -13 -20 -119 -38 -235 l-33
-213 -268 0 -268 0 0 23 c-1 12 -13 118 -29 235 l-28 212 335 0 334 0 -5 -22z
m-2067 -2 c0 -2 -20 -50 -45 -107 -28 -65 -58 -117 -82 -141 -39 -40 -60 -50
-44 -20 7 14 18 61 47 199 4 23 77 73 107 73 9 0 17 -2 17 -4z m58 -49 c27
-28 52 -88 52 -123 0 -26 -1 -26 -18 -11 -10 10 -21 17 -24 17 -3 0 -23 -26
-44 -59 -33 -51 -53 -68 -159 -133 -66 -41 -122 -71 -123 -66 -2 5 7 26 21 47
18 27 35 40 58 45 62 12 137 118 190 269 7 20 16 37 19 37 4 0 16 -10 28 -23z
m-3402 -81 c10 -29 -19 -48 -98 -62 -109 -19 -108 -20 -108 22 0 36 12 66 37
95 13 16 20 15 89 -10 48 -17 76 -32 80 -45z m-850 -61 c52 -30 94 -92 73
-106 -18 -12 -76 -4 -96 13 -33 27 -57 118 -31 118 6 0 30 -11 54 -25z m3403
-7 c0 -18 -130 -115 -182 -137 -83 -36 -130 -35 -74 1 12 9 47 45 77 81 l55
67 63 0 c43 0 62 -4 61 -12z m-4028 -82 c152 -70 58 -66 1849 -76 888 -5 1651
-10 1695 -10 l80 -1 -28 -17 c-16 -9 -31 -29 -34 -44 l-5 -28 -1977 0 -1976 1
75 37 c81 41 142 81 205 136 22 19 40 35 41 36 1 0 34 -15 75 -34z m4063 12
c9 -36 7 -92 -5 -127 -12 -34 -29 -42 -29 -13 0 31 -9 31 -76 1 -63 -29 -68
-29 -212 -27 l-147 3 45 22 c37 18 55 21 102 16 76 -8 125 12 224 88 42 32 80
59 84 59 4 0 10 -10 14 -22z m-74 -178 c0 -5 -8 -10 -17 -10 -15 0 -16 2 -3
10 19 12 20 12 20 0z"/>
<path d="M7363 10140 c-51 -11 -83 -38 -105 -87 -22 -51 -18 -107 13 -160 l18
-33 -27 -14 c-67 -35 -112 -111 -120 -203 l-5 -63 249 2 249 3 3 33 c8 79 -68
218 -130 238 -17 5 -18 8 -5 22 18 22 37 78 37 111 -1 39 -35 107 -63 126 -36
23 -78 32 -114 25z m95 -63 c30 -32 42 -78 32 -122 -10 -43 -24 -61 -63 -81
-108 -56 -197 129 -100 206 37 29 103 27 131 -3z m-2 -248 c60 -15 110 -67
129 -132 25 -83 39 -77 -195 -77 l-210 0 0 28 c0 45 47 129 87 153 60 38 117
46 189 28z"/>
<path d="M6520 9367 l0 -127 273 0 c151 0 531 -3 845 -7 l572 -6 0 126 0 127
-633 0 c-349 0 -729 3 -845 7 l-212 6 0 -126z m963 73 l688 0 -3 -82 -3 -83
-52 0 c-29 1 -390 2 -803 3 l-750 2 0 78 c0 43 3 82 8 87 4 4 57 5 117 1 61
-3 420 -6 798 -6z"/>
<path d="M5570 8495 l0 -105 464 0 463 0 7 38 c3 20 6 64 6 98 l0 61 -152 6
c-83 4 -294 7 -470 7 l-318 0 0 -105z m900 1 c0 -36 -4 -67 -8 -70 -5 -3 -198
-2 -430 1 l-422 6 0 64 0 63 430 0 430 0 0 -64z"/>
<path d="M5560 6935 l0 -105 470 0 470 0 0 105 0 105 -470 0 -470 0 0 -105z
m900 0 l0 -65 -430 0 -430 0 0 65 0 65 430 0 430 0 0 -65z"/>
<path d="M5560 5315 l0 -105 465 0 465 0 0 105 0 105 -465 0 -465 0 0 -105z
m890 -6 l0 -71 -31 6 c-17 3 -211 6 -430 6 l-399 0 0 65 0 65 430 0 430 0 0
-71z"/>
<path d="M5810 7846 l0 -93 53 -7 c28 -3 406 -6 840 -6 l787 0 0 94 0 93 -46
7 c-26 3 -404 6 -840 6 l-794 0 0 -94z m1640 -6 l0 -60 -800 0 -800 0 0 60 0
60 800 0 800 0 0 -60z"/>
<path d="M9295 7469 c-9 -27 8 -39 56 -39 19 0 40 -5 47 -12 10 -9 16 -8 30 6
16 16 16 18 -11 42 -38 33 -112 35 -122 3z"/>
<path d="M9290 7361 c5 -11 15 -23 20 -26 6 -3 10 -17 10 -30 0 -14 9 -29 21
-35 29 -16 49 4 49 49 0 35 -2 37 -45 49 -62 17 -68 16 -55 -7z"/>
<path d="M9167 7225 l-26 -54 22 -16 c12 -8 35 -15 51 -15 l29 0 -7 53 c-3 28
-6 60 -6 70 0 10 -8 17 -18 17 -12 0 -27 -19 -45 -55z"/>
<path d="M9346 7121 c-16 -31 -34 -41 -71 -41 -28 0 -45 -37 -24 -52 22 -14
79 -1 106 24 31 28 56 75 48 88 -12 20 -45 10 -59 -19z"/>
<path d="M5808 6385 c-5 -5 -8 -50 -8 -100 l0 -92 836 -8 c459 -4 837 -6 838
-4 2 2 7 48 11 102 l7 97 -609 0 c-334 0 -711 3 -838 6 -126 4 -233 3 -237 -1z
m1385 -45 l257 0 0 -60 0 -60 -518 0 c-285 0 -648 3 -805 7 l-287 6 0 60 0 60
548 -6 c301 -4 663 -7 805 -7z"/>
<path d="M2349 5121 c-38 -31 -10 -48 81 -53 69 -3 75 -1 78 17 7 48 -112 74
-159 36z"/>
<path d="M2368 5019 c-10 -5 -18 -19 -18 -29 0 -17 6 -20 48 -17 26 1 57 -2
68 -6 16 -6 23 -3 28 10 15 38 -79 70 -126 42z"/>
<path d="M2682 5015 c-43 -31 -25 -49 51 -50 74 -2 89 7 60 36 -27 28 -82 34
-111 14z"/>
<path d="M2564 5005 c-5 -12 41 -195 63 -251 3 -10 -3 -14 -20 -14 -31 0 -57
-27 -34 -36 8 -3 34 -4 58 -2 39 3 44 6 47 30 3 27 -24 129 -59 225 -20 52
-45 74 -55 48z"/>
<path d="M2412 4908 c-28 -28 -7 -78 33 -78 27 0 45 18 45 45 0 27 -18 45 -45
45 -12 0 -26 -5 -33 -12z m38 -38 c0 -5 -2 -10 -4 -10 -3 0 -8 5 -11 10 -3 6
-1 10 4 10 6 0 11 -4 11 -10z"/>
<path d="M2703 4908 c-31 -40 -15 -78 33 -78 30 0 54 42 37 68 -13 21 -56 27
-70 10z"/>
<path d="M2464 4695 c-15 -38 67 -101 111 -85 37 13 30 38 -14 50 -22 6 -45
20 -51 30 -13 24 -38 26 -46 5z"/>
<path d="M5848 4723 c-47 -54 -50 -103 -8 -144 24 -25 37 -30 67 -27 30 2 42
10 60 37 32 47 30 86 -6 122 -35 34 -89 40 -113 12z m92 -44 c14 -24 12 -63
-2 -77 -20 -20 -66 -15 -78 8 -17 32 -8 73 19 86 28 14 48 9 61 -17z"/>
<path d="M6073 4725 c-34 -24 -47 -76 -29 -118 16 -40 42 -57 83 -57 50 1 83
42 83 103 0 65 -84 109 -137 72z m85 -37 c16 -16 15 -73 0 -85 -41 -31 -88 -9
-88 41 0 46 58 74 88 44z"/>
<path d="M6299 4727 c-47 -36 -53 -115 -13 -152 70 -65 168 5 143 100 -14 51
-91 82 -130 52z m87 -52 c21 -32 11 -73 -21 -85 -33 -13 -51 -4 -65 31 -26 62
49 110 86 54z"/>
<path d="M6509 4709 c-66 -71 -15 -171 81 -160 21 3 59 47 66 77 13 53 -38
114 -96 114 -12 0 -35 -14 -51 -31z m93 -26 c36 -32 10 -103 -39 -103 -36 0
-59 80 -31 108 17 17 48 15 70 -5z"/>
<path d="M6748 4724 c-37 -19 -56 -81 -39 -123 18 -41 68 -64 110 -50 50 18
77 91 51 140 -11 20 -60 49 -82 49 -7 -1 -25 -7 -40 -16z m82 -43 c22 -42 0
-101 -38 -101 -25 0 -52 31 -52 58 0 53 67 85 90 43z"/>
<path d="M6983 4730 c-31 -13 -57 -57 -57 -97 0 -78 100 -118 150 -59 26 29
32 83 13 118 -8 15 -68 50 -81 47 -2 0 -13 -4 -25 -9z m71 -62 c17 -40 7 -70
-29 -83 -23 -8 -30 -6 -46 14 -25 31 -24 66 3 85 35 25 57 20 72 -16z"/>
<path d="M7204 4730 c-78 -31 -67 -167 17 -185 81 -18 139 106 75 163 -26 24
-64 33 -92 22z m70 -52 c21 -29 20 -57 -1 -80 -35 -39 -86 -13 -86 44 0 54 58
78 87 36z"/>
<path d="M7422 4723 c-79 -38 -63 -162 22 -179 43 -7 80 16 95 58 16 46 14 63
-14 96 -30 36 -64 44 -103 25z m72 -45 c32 -45 10 -98 -39 -98 -46 0 -62 77
-23 104 30 22 44 20 62 -6z"/>
<path d="M7621 4703 c-29 -36 -36 -68 -21 -104 14 -32 55 -59 90 -59 36 0 80
56 80 100 0 80 -102 124 -149 63z m107 -62 c4 -41 -12 -61 -49 -61 -53 0 -68
83 -19 107 34 17 64 -3 68 -46z"/>
<path d="M4781 3457 c-33 -16 -63 -75 -56 -107 25 -99 155 -66 155 39 0 58
-51 93 -99 68z m59 -47 c15 -27 4 -57 -27 -77 -24 -16 -26 -16 -39 2 -19 26
-17 52 6 75 26 26 46 25 60 0z"/>
<path d="M10051 9013 c-24 -9 -64 -35 -87 -58 -71 -71 -74 -93 -74 -500 0
-411 3 -429 78 -504 59 -59 100 -71 236 -71 124 0 117 11 81 -130 -14 -52 -25
-102 -25 -110 0 -8 54 42 120 112 l120 127 218 3 c216 3 217 3 258 30 56 36
89 78 109 137 14 42 16 98 13 422 l-3 374 -30 54 c-32 59 -75 96 -132 117 -60
21 -821 18 -882 -3z m916 -66 c22 -15 50 -46 64 -70 l24 -42 0 -385 c0 -423 1
-415 -63 -476 -52 -50 -75 -54 -297 -54 l-205 0 -72 -76 c-40 -42 -74 -71 -76
-66 -2 6 4 37 12 70 9 33 16 63 16 66 0 3 -63 6 -140 6 -97 0 -151 4 -173 14
-46 19 -103 88 -116 141 -13 52 -15 677 -2 742 11 57 47 109 96 139 l40 24
426 -2 426 -3 40 -28z"/>
<path d="M10438 8839 c-191 -29 -329 -209 -316 -412 18 -274 320 -444 553
-311 48 28 114 95 143 147 158 277 -71 624 -380 576z m139 -43 c64 -17 107
-43 154 -93 76 -80 104 -162 97 -277 -9 -136 -92 -249 -216 -296 -79 -30 -195
-25 -268 13 -193 99 -246 386 -100 545 52 57 103 89 169 107 67 18 100 18 164
1z"/>
<path d="M10554 8524 l-97 -117 -31 39 c-49 62 -93 104 -109 104 -23 0 -47
-28 -47 -55 0 -28 134 -198 169 -214 33 -16 43 -7 171 149 81 99 110 141 110
162 0 27 -23 48 -54 48 -9 0 -59 -52 -112 -116z m130 68 c5 -8 -207 -274 -223
-280 -9 -3 -161 177 -161 190 0 24 33 0 76 -53 27 -34 56 -70 65 -81 15 -20
20 -16 119 106 99 122 113 135 124 118z"/>
</g>
</svg>
