<svg xmlns="http://www.w3.org/2000/svg" xmlns:xlink="http://www.w3.org/1999/xlink" width="1920" zoomAndPan="magnify" viewBox="0 0 1440 374.999991" height="500" preserveAspectRatio="xMidYMid meet" version="1.0"><defs><g/><clipPath id="f6c47e8bfb"><path d="M 1205.042969 73.816406 L 1329.328125 73.816406 L 1329.328125 198.101562 L 1205.042969 198.101562 Z M 1205.042969 73.816406 " clip-rule="nonzero"/></clipPath><clipPath id="c782e28f4a"><path d="M 1267.1875 73.816406 C 1232.867188 73.816406 1205.042969 101.636719 1205.042969 135.957031 C 1205.042969 170.277344 1232.867188 198.101562 1267.1875 198.101562 C 1301.507812 198.101562 1329.328125 170.277344 1329.328125 135.957031 C 1329.328125 101.636719 1301.507812 73.816406 1267.1875 73.816406 Z M 1267.1875 73.816406 " clip-rule="nonzero"/></clipPath><clipPath id="ab92613065"><path d="M 124.285156 62.003906 L 210.535156 62.003906 L 210.535156 148.25 L 124.285156 148.25 Z M 124.285156 62.003906 " clip-rule="nonzero"/></clipPath><clipPath id="e8360182a5"><path d="M 167.410156 62.003906 C 143.59375 62.003906 124.285156 81.308594 124.285156 105.128906 C 124.285156 128.945312 143.59375 148.25 167.410156 148.25 C 191.226562 148.25 210.535156 128.945312 210.535156 105.128906 C 210.535156 81.308594 191.226562 62.003906 167.410156 62.003906 Z M 167.410156 62.003906 " clip-rule="nonzero"/></clipPath><clipPath id="3136a96099"><path d="M 1353.75 198.101562 L 1440 198.101562 L 1440 284.351562 L 1353.75 284.351562 Z M 1353.75 198.101562 " clip-rule="nonzero"/></clipPath><clipPath id="ba34b96489"><path d="M 1396.875 198.101562 C 1373.058594 198.101562 1353.75 217.40625 1353.75 241.226562 C 1353.75 265.042969 1373.058594 284.351562 1396.875 284.351562 C 1420.691406 284.351562 1440 265.042969 1440 241.226562 C 1440 217.40625 1420.691406 198.101562 1396.875 198.101562 Z M 1396.875 198.101562 " clip-rule="nonzero"/></clipPath><clipPath id="92ff331be1"><path d="M 0 186.289062 L 124.285156 186.289062 L 124.285156 310.570312 L 0 310.570312 Z M 0 186.289062 " clip-rule="nonzero"/></clipPath><clipPath id="6933254aa4"><path d="M 62.140625 186.289062 C 27.820312 186.289062 0 214.109375 0 248.429688 C 0 282.75 27.820312 310.570312 62.140625 310.570312 C 96.460938 310.570312 124.285156 282.75 124.285156 248.429688 C 124.285156 214.109375 96.460938 186.289062 62.140625 186.289062 Z M 62.140625 186.289062 " clip-rule="nonzero"/></clipPath><clipPath id="475ad34073"><path d="M 182.375 245.421875 L 238.695312 245.421875 L 238.695312 301.742188 L 182.375 301.742188 Z M 182.375 245.421875 " clip-rule="nonzero"/></clipPath><clipPath id="aed987bc8a"><path d="M 210.535156 245.421875 C 194.980469 245.421875 182.375 258.03125 182.375 273.582031 C 182.375 289.136719 194.980469 301.742188 210.535156 301.742188 C 226.085938 301.742188 238.695312 289.136719 238.695312 273.582031 C 238.695312 258.03125 226.085938 245.421875 210.535156 245.421875 Z M 210.535156 245.421875 " clip-rule="nonzero"/></clipPath><clipPath id="a42539c914"><path d="M 1226.890625 242.4375 L 1283.210938 242.4375 L 1283.210938 298.757812 L 1226.890625 298.757812 Z M 1226.890625 242.4375 " clip-rule="nonzero"/></clipPath><clipPath id="f6a37c12bc"><path d="M 1255.050781 242.4375 C 1239.496094 242.4375 1226.890625 255.046875 1226.890625 270.597656 C 1226.890625 286.152344 1239.496094 298.757812 1255.050781 298.757812 C 1270.601562 298.757812 1283.210938 286.152344 1283.210938 270.597656 C 1283.210938 255.046875 1270.601562 242.4375 1255.050781 242.4375 Z M 1255.050781 242.4375 " clip-rule="nonzero"/></clipPath></defs><g clip-path="url(#f6c47e8bfb)"><g clip-path="url(#c782e28f4a)"><path fill="#fd6868" d="M 1205.042969 73.816406 L 1329.328125 73.816406 L 1329.328125 198.101562 L 1205.042969 198.101562 Z M 1205.042969 73.816406 " fill-opacity="1" fill-rule="nonzero"/></g></g><g fill="#000000" fill-opacity="1"><g transform="translate(239.506173, 265.205618)"><g><path d="M 8.832031 -72.558594 C 8.832031 -63.304688 8.832031 -53.839844 8.621094 -44.585938 C 8.621094 -40.378906 8.621094 -36.175781 8.621094 -31.757812 C 8.621094 -22.082031 8.621094 -12.199219 8.832031 -2.3125 C 8.832031 0.210938 8.832031 0.421875 11.566406 0.839844 C 11.988281 0.839844 12.410156 0.839844 12.828125 0.839844 C 15.144531 0.839844 17.457031 0.632812 19.558594 0.839844 C 24.398438 1.261719 29.234375 1.261719 34.070312 1.261719 C 34.914062 1.261719 35.542969 1.050781 36.175781 1.050781 C 38.066406 0.632812 38.910156 -0.421875 39.117188 -2.3125 C 39.117188 -6.730469 39.328125 -11.355469 39.328125 -15.773438 C 39.117188 -25.867188 38.910156 -35.964844 38.910156 -46.058594 C 38.910156 -51.949219 39.117188 -57.835938 39.328125 -63.726562 C 39.328125 -64.566406 39.539062 -64.988281 40.378906 -64.988281 C 42.273438 -64.988281 44.167969 -65.199219 46.058594 -65.199219 C 52.160156 -65.410156 58.046875 -65.410156 63.9375 -64.988281 C 67.933594 -64.777344 72.136719 -64.988281 76.132812 -65.199219 C 77.394531 -65.410156 77.816406 -65.828125 77.816406 -67.300781 C 77.816406 -68.984375 78.027344 -70.667969 78.027344 -72.347656 C 78.027344 -76.976562 78.027344 -81.390625 77.816406 -85.808594 C 77.816406 -86.859375 77.394531 -87.910156 76.976562 -88.753906 C 76.132812 -90.4375 74.664062 -90.855469 72.980469 -91.066406 C 67.089844 -91.066406 61.203125 -91.277344 55.523438 -91.277344 C 55.101562 -91.277344 54.683594 -91.277344 54.261719 -91.277344 C 50.265625 -91.066406 46.058594 -90.855469 41.851562 -90.644531 C 40.800781 -90.644531 40.589844 -90.855469 40.589844 -92.117188 C 40.589844 -93.800781 40.800781 -95.484375 40.589844 -97.164062 C 40.589844 -103.894531 40.378906 -110.414062 40.378906 -117.144531 C 40.378906 -118.617188 40.378906 -118.617188 41.851562 -118.828125 C 44.796875 -119.039062 47.742188 -119.25 50.6875 -119.460938 C 54.050781 -119.460938 57.625 -119.878906 60.992188 -119.878906 C 65.410156 -120.089844 69.613281 -120.089844 74.03125 -120.089844 C 76.132812 -120.089844 78.449219 -120.089844 80.550781 -120.300781 C 83.917969 -120.722656 85.386719 -121.5625 85.808594 -125.136719 C 86.648438 -131.449219 86.648438 -137.757812 86.441406 -144.066406 C 86.441406 -144.699219 86.441406 -145.117188 86.230469 -145.539062 C 85.597656 -147.640625 84.757812 -149.324219 82.234375 -149.535156 C 79.921875 -149.957031 77.605469 -150.375 75.292969 -150.375 C 71.929688 -150.585938 68.5625 -150.375 65.199219 -150.375 C 54.261719 -150.375 43.535156 -150.375 32.597656 -150.375 C 26.5 -150.164062 20.191406 -149.535156 14.089844 -148.691406 C 12.410156 -148.484375 10.9375 -147.851562 9.886719 -146.589844 C 9.253906 -146.167969 8.832031 -145.117188 8.832031 -144.488281 C 8.621094 -142.382812 8.414062 -140.28125 8.621094 -138.175781 C 8.621094 -125.136719 8.832031 -111.886719 8.832031 -98.636719 C 8.832031 -90.015625 8.832031 -81.390625 8.832031 -72.558594 Z M 8.832031 -72.558594 "/></g></g></g><g fill="#000000" fill-opacity="1"><g transform="translate(330.351768, 265.205618)"><g><path d="M 103.6875 1.894531 C 105.15625 2.3125 106.628906 1.894531 108.101562 1.472656 C 109.996094 1.050781 111.675781 -1.261719 111.46875 -3.15625 C 111.046875 -4.625 110.625 -6.097656 110.207031 -7.570312 C 109.574219 -9.886719 108.945312 -11.988281 108.3125 -14.089844 C 107.683594 -16.824219 107.261719 -19.558594 106.628906 -22.082031 C 106.210938 -23.976562 105.789062 -25.660156 105.367188 -27.550781 C 104.949219 -30.707031 104.316406 -34.070312 103.6875 -37.226562 C 102.421875 -42.695312 100.953125 -48.371094 99.480469 -53.839844 C 96.746094 -63.9375 94.011719 -74.242188 91.488281 -84.335938 C 90.226562 -88.753906 88.964844 -93.378906 87.703125 -97.585938 C 86.230469 -103.054688 84.335938 -108.3125 82.652344 -113.570312 C 81.8125 -116.9375 80.761719 -120.089844 80.128906 -123.457031 C 79.289062 -127.242188 78.65625 -131.238281 77.1875 -134.8125 C 76.976562 -135.445312 76.976562 -136.074219 76.765625 -136.707031 C 76.132812 -139.4375 75.503906 -142.171875 74.664062 -144.90625 C 74.03125 -147.222656 72.980469 -148.273438 70.457031 -148.0625 C 69.195312 -147.851562 67.933594 -148.0625 66.671875 -148.273438 C 65.199219 -148.484375 63.726562 -148.273438 62.253906 -148.0625 C 58.886719 -147.640625 55.3125 -147.011719 51.738281 -146.589844 C 49.84375 -146.378906 47.953125 -146.167969 46.058594 -145.960938 C 45.007812 -145.960938 44.167969 -145.328125 43.746094 -144.277344 C 42.90625 -142.804688 42.0625 -141.332031 41.640625 -139.859375 C 40.171875 -134.8125 39.117188 -129.976562 37.855469 -124.925781 C 37.4375 -123.246094 37.226562 -121.5625 36.59375 -120.089844 C 34.28125 -111.886719 31.96875 -103.6875 29.65625 -95.484375 C 27.761719 -89.175781 25.867188 -83.074219 23.976562 -76.765625 C 22.082031 -69.824219 19.980469 -63.09375 18.085938 -56.363281 C 16.824219 -51.527344 15.773438 -46.691406 14.933594 -41.851562 C 14.089844 -37.226562 13.039062 -32.808594 11.777344 -28.394531 C 10.726562 -25.449219 9.675781 -22.292969 8.621094 -19.140625 C 7.359375 -14.300781 6.097656 -9.253906 4.625 -4.417969 C 3.996094 -2.101562 4.417969 -0.421875 6.519531 0.839844 C 7.152344 1.261719 7.78125 1.683594 8.621094 1.683594 C 10.09375 1.894531 11.566406 2.101562 13.25 2.101562 C 18.71875 1.894531 24.1875 1.472656 29.65625 1.261719 C 31.335938 1.261719 32.808594 1.050781 34.492188 0.839844 C 35.753906 0.839844 36.804688 0 37.226562 -1.261719 C 37.855469 -2.734375 38.488281 -4.207031 39.117188 -5.679688 C 40.378906 -8.203125 41.011719 -10.9375 41.433594 -13.671875 C 41.851562 -16.613281 41.851562 -15.984375 44.375 -15.984375 C 48.164062 -15.984375 51.949219 -15.984375 55.734375 -16.195312 C 58.679688 -16.40625 61.832031 -16.824219 64.988281 -17.035156 C 67.933594 -17.246094 70.875 -17.246094 73.820312 -17.246094 C 74.664062 -17.457031 75.082031 -17.035156 75.292969 -16.195312 C 75.292969 -14.933594 75.714844 -13.671875 75.925781 -12.410156 C 76.765625 -7.992188 78.65625 -3.785156 80.550781 0.421875 C 80.972656 1.050781 81.601562 1.683594 82.445312 2.101562 C 84.125 3.363281 86.019531 3.363281 87.910156 3.15625 C 90.644531 2.945312 93.171875 2.734375 95.695312 2.523438 C 96.535156 2.523438 97.375 2.3125 98.21875 2.3125 C 100.109375 2.101562 102.003906 2.101562 103.6875 1.894531 Z M 58.257812 -90.644531 C 58.886719 -89.175781 59.097656 -87.492188 59.730469 -86.019531 C 60.78125 -82.863281 61.832031 -79.921875 62.882812 -76.976562 C 64.777344 -71.507812 66.039062 -65.617188 67.300781 -59.941406 C 67.722656 -58.046875 68.5625 -56.363281 68.984375 -54.472656 C 69.195312 -54.050781 69.195312 -53.839844 69.402344 -53.421875 C 70.035156 -51.316406 70.035156 -51.316406 67.722656 -51.105469 C 63.726562 -50.476562 59.730469 -50.476562 55.734375 -50.054688 C 54.050781 -50.054688 52.578125 -50.054688 50.894531 -50.054688 C 49.84375 -50.054688 49.632812 -50.054688 49.84375 -51.316406 C 50.476562 -55.3125 51.105469 -59.308594 51.949219 -63.304688 C 53.421875 -71.085938 55.101562 -78.867188 56.785156 -86.441406 C 56.996094 -87.910156 57.417969 -89.382812 57.835938 -90.644531 C 58.046875 -90.644531 58.257812 -90.644531 58.257812 -90.644531 Z M 58.257812 -90.644531 "/></g></g></g><g fill="#000000" fill-opacity="1"><g transform="translate(446.221975, 265.205618)"><g><path d="M 52.160156 -60.359375 C 51.949219 -60.78125 51.738281 -60.992188 51.738281 -61.414062 C 51.105469 -63.726562 50.476562 -66.039062 49.84375 -68.351562 C 47.320312 -79.710938 44.796875 -91.277344 42.0625 -102.632812 C 39.75 -111.886719 37.648438 -121.140625 35.964844 -130.605469 C 35.121094 -135.023438 33.859375 -139.4375 33.019531 -143.855469 C 32.597656 -146.167969 31.125 -147.429688 29.023438 -148.0625 C 25.027344 -149.324219 20.820312 -149.324219 16.613281 -148.691406 C 15.144531 -148.484375 13.460938 -148.273438 11.777344 -148.273438 C 9.886719 -148.273438 8.203125 -148.0625 6.308594 -147.429688 C 4.835938 -147.011719 4.207031 -146.167969 4.207031 -144.699219 C 4.417969 -141.964844 4.207031 -139.4375 4.625 -136.914062 C 5.046875 -133.339844 5.679688 -129.765625 6.519531 -126.398438 C 8.203125 -120.300781 10.09375 -114.203125 11.566406 -108.101562 C 13.878906 -98.636719 16.195312 -89.175781 18.296875 -79.710938 C 20.402344 -70.667969 22.082031 -61.414062 23.976562 -52.160156 C 25.867188 -42.273438 29.023438 -32.808594 31.546875 -22.925781 C 33.441406 -16.40625 35.542969 -10.09375 37.4375 -3.785156 C 37.855469 -2.734375 38.277344 -1.683594 38.910156 -0.632812 C 39.75 0.632812 40.800781 1.261719 42.273438 1.261719 C 49.003906 0.839844 55.734375 0.421875 62.464844 1.261719 C 63.726562 1.261719 64.566406 0.839844 64.988281 0 C 66.25 -2.3125 67.511719 -4.625 68.140625 -6.941406 C 70.246094 -14.511719 72.558594 -22.082031 74.453125 -29.65625 C 76.554688 -39.328125 79.289062 -48.792969 82.023438 -58.257812 C 84.546875 -67.089844 87.070312 -75.714844 88.964844 -84.757812 C 90.226562 -89.804688 91.488281 -94.640625 92.328125 -99.898438 C 93.589844 -107.050781 94.640625 -114.621094 96.535156 -121.773438 C 96.746094 -123.246094 96.957031 -124.71875 97.164062 -126.191406 C 97.585938 -128.503906 98.007812 -131.027344 98.847656 -133.339844 C 99.691406 -135.863281 100.320312 -138.808594 100.953125 -141.542969 C 101.371094 -142.804688 101.582031 -144.066406 101.792969 -145.328125 C 101.792969 -146.589844 101.371094 -147.429688 100.109375 -148.0625 C 99.058594 -148.484375 98.007812 -148.902344 96.957031 -148.902344 C 92.75 -149.324219 88.332031 -149.535156 84.125 -149.535156 C 81.183594 -149.535156 78.027344 -149.113281 75.082031 -148.691406 C 74.03125 -148.273438 73.191406 -147.851562 72.769531 -146.800781 C 72.136719 -145.328125 71.507812 -144.066406 71.296875 -142.804688 C 70.457031 -139.4375 69.402344 -136.074219 68.773438 -132.5 C 68.140625 -128.082031 67.089844 -123.664062 66.25 -119.25 C 64.988281 -113.992188 63.9375 -108.734375 62.675781 -103.476562 C 61.414062 -97.585938 60.148438 -91.699219 58.886719 -86.019531 C 56.785156 -77.816406 54.683594 -69.613281 52.578125 -61.414062 C 52.578125 -61.203125 52.367188 -60.992188 52.160156 -60.359375 Z M 52.160156 -60.359375 "/></g></g></g><g fill="#000000" fill-opacity="1"><g transform="translate(552.208508, 265.205618)"><g><path d="M 110.835938 -78.238281 C 111.046875 -86.019531 109.996094 -93.589844 108.523438 -101.160156 C 107.683594 -105.789062 106.628906 -110.414062 105.578125 -115.042969 C 104.105469 -122.613281 100.53125 -129.132812 95.902344 -135.234375 C 93.800781 -137.96875 91.488281 -140.703125 88.332031 -142.804688 C 84.96875 -144.90625 81.183594 -146.589844 77.394531 -148.484375 C 77.394531 -148.484375 77.1875 -148.484375 77.1875 -148.691406 C 74.453125 -149.324219 71.929688 -149.957031 69.195312 -150.375 C 64.988281 -150.796875 60.78125 -150.585938 56.574219 -150.585938 C 53.628906 -150.375 50.476562 -150.164062 47.53125 -149.113281 C 43.113281 -147.640625 38.699219 -145.960938 34.914062 -143.015625 C 31.96875 -140.703125 28.601562 -138.597656 26.078125 -135.652344 C 23.132812 -132.078125 20.820312 -128.292969 18.507812 -124.296875 C 17.035156 -121.351562 16.195312 -118.199219 15.144531 -115.253906 C 12.617188 -107.683594 11.148438 -100.109375 10.304688 -92.328125 C 9.886719 -88.964844 9.675781 -85.597656 9.464844 -82.445312 C 9.253906 -78.027344 8.832031 -73.609375 8.621094 -69.195312 C 8.414062 -64.355469 8.621094 -59.519531 9.675781 -54.683594 C 9.675781 -53.839844 9.886719 -53 9.886719 -52.160156 C 10.304688 -49.003906 10.515625 -46.058594 10.726562 -42.90625 C 11.355469 -38.488281 12.617188 -34.492188 14.089844 -30.496094 C 16.824219 -22.714844 21.03125 -15.5625 26.5 -9.464844 C 27.339844 -8.621094 28.394531 -7.78125 29.234375 -6.941406 C 30.285156 -6.308594 31.125 -5.46875 31.96875 -4.835938 C 34.914062 -2.523438 38.066406 -0.839844 41.433594 0 C 46.902344 1.683594 52.578125 2.3125 58.257812 2.523438 C 63.09375 2.523438 67.933594 2.523438 72.347656 0.210938 C 74.03125 -0.421875 75.503906 -1.050781 77.1875 -1.683594 C 78.027344 -2.101562 78.867188 -2.734375 79.710938 -3.363281 C 80.761719 -4.207031 81.8125 -5.046875 82.863281 -5.679688 C 86.441406 -8.203125 89.804688 -10.726562 92.117188 -14.511719 C 94.011719 -17.457031 96.113281 -20.402344 97.585938 -23.554688 C 100.320312 -28.8125 102.632812 -34.070312 104.316406 -39.75 C 106.628906 -46.902344 108.734375 -54.050781 109.574219 -61.621094 C 109.785156 -63.515625 109.574219 -65.410156 110.207031 -67.300781 C 110.835938 -69.402344 110.625 -71.71875 110.835938 -73.820312 C 110.835938 -75.292969 110.835938 -76.765625 110.835938 -78.238281 Z M 36.175781 -71.929688 C 35.753906 -78.65625 36.175781 -85.179688 37.648438 -91.699219 C 39.539062 -99.691406 42.695312 -107.261719 47.953125 -113.78125 C 50.894531 -117.144531 54.890625 -119.25 59.308594 -119.25 C 63.726562 -119.460938 67.722656 -117.988281 71.085938 -115.464844 C 71.507812 -115.042969 71.929688 -114.832031 72.136719 -114.203125 C 74.453125 -110.835938 76.34375 -107.050781 77.605469 -103.054688 C 79.289062 -96.957031 80.550781 -90.644531 81.183594 -84.546875 C 81.390625 -79.078125 81.183594 -73.820312 80.972656 -68.5625 C 80.972656 -65.199219 80.761719 -61.832031 80.128906 -58.679688 C 79.078125 -51.527344 77.605469 -44.375 75.082031 -37.4375 C 74.03125 -34.492188 72.347656 -31.96875 69.613281 -30.707031 C 66.25 -28.8125 62.464844 -27.550781 58.46875 -28.394531 C 56.15625 -28.8125 53.839844 -29.234375 51.527344 -29.863281 C 46.902344 -31.125 43.957031 -34.070312 41.640625 -38.066406 C 39.328125 -42.90625 38.277344 -47.742188 37.4375 -52.789062 C 36.382812 -59.308594 35.753906 -65.617188 36.175781 -71.929688 Z M 36.175781 -71.929688 "/></g></g></g><g fill="#000000" fill-opacity="1"><g transform="translate(671.653651, 265.205618)"><g><path d="M 40.378906 -20.191406 C 40.378906 -21.453125 40.378906 -22.503906 40.378906 -23.765625 C 40.378906 -29.023438 40.378906 -34.28125 40.589844 -39.328125 C 40.589844 -40.800781 40.589844 -40.800781 41.851562 -40.800781 C 43.746094 -41.011719 45.429688 -41.222656 47.320312 -41.433594 C 48.792969 -41.433594 50.265625 -41.640625 51.527344 -41.851562 C 52.578125 -41.851562 53.210938 -41.433594 53.421875 -40.589844 C 54.683594 -38.066406 56.15625 -35.542969 57.417969 -32.808594 C 59.941406 -27.128906 62.464844 -21.242188 65.410156 -15.351562 C 68.140625 -10.09375 71.296875 -4.835938 74.242188 0.421875 C 74.453125 0.632812 74.453125 0.839844 74.664062 0.839844 C 75.082031 1.894531 75.925781 2.3125 76.976562 2.101562 C 78.449219 2.101562 79.710938 2.101562 80.972656 2.101562 C 87.070312 2.101562 93.171875 2.101562 99.269531 2.101562 C 100.53125 1.894531 101.582031 1.894531 102.84375 1.683594 C 105.15625 1.261719 106.839844 -1.261719 106.210938 -3.574219 C 105.578125 -5.257812 104.738281 -7.152344 103.894531 -8.832031 C 103.476562 -10.09375 102.632812 -11.148438 102.214844 -12.199219 C 100.53125 -16.613281 98.847656 -20.820312 97.164062 -25.238281 C 95.902344 -27.761719 94.640625 -30.496094 93.589844 -33.019531 C 92.75 -34.914062 92.117188 -36.804688 91.066406 -38.488281 C 88.964844 -42.695312 86.859375 -46.902344 84.546875 -51.105469 C 84.125 -51.738281 84.125 -52.367188 84.96875 -52.789062 C 86.441406 -54.261719 88.121094 -55.3125 89.175781 -56.996094 C 91.699219 -60.359375 94.222656 -63.726562 95.695312 -67.511719 C 98.847656 -74.871094 100.953125 -82.445312 100.742188 -90.644531 C 100.742188 -95.695312 100.53125 -100.742188 100.109375 -105.789062 C 99.480469 -115.042969 96.957031 -123.664062 93.171875 -131.867188 C 92.539062 -132.917969 91.90625 -133.972656 91.066406 -135.023438 C 90.644531 -135.652344 90.015625 -136.285156 89.382812 -137.125 C 86.019531 -141.542969 81.390625 -144.488281 76.132812 -145.960938 C 75.292969 -146.167969 74.453125 -146.378906 73.609375 -146.589844 C 71.085938 -147.640625 68.5625 -147.851562 66.039062 -147.851562 C 64.777344 -147.851562 63.515625 -147.851562 62.253906 -147.851562 C 55.3125 -148.0625 48.582031 -148.273438 41.851562 -148.484375 C 36.804688 -148.691406 31.757812 -148.691406 26.5 -148.691406 C 22.503906 -148.691406 18.296875 -148.902344 14.089844 -148.691406 C 10.726562 -148.484375 9.464844 -147.222656 9.253906 -144.277344 C 9.042969 -139.4375 8.832031 -134.8125 8.621094 -130.183594 C 8.414062 -127.871094 8.621094 -125.558594 8.621094 -123.246094 C 8.832031 -119.878906 9.464844 -116.515625 9.464844 -113.148438 C 9.886719 -107.683594 9.886719 -102.421875 10.09375 -97.164062 C 10.09375 -80.761719 10.09375 -64.355469 10.09375 -47.953125 C 10.304688 -32.386719 9.886719 -17.035156 9.253906 -1.683594 C 9.042969 1.050781 10.09375 2.101562 12.828125 2.101562 C 14.089844 2.101562 15.351562 2.101562 16.613281 2.3125 C 19.769531 2.3125 22.714844 2.734375 25.867188 2.945312 C 29.023438 2.945312 31.96875 2.945312 35.121094 2.945312 C 38.066406 2.945312 39.328125 1.472656 39.539062 -1.472656 C 39.75 -7.570312 40.171875 -13.878906 40.378906 -20.191406 Z M 40.800781 -94.433594 C 40.800781 -102.632812 40.589844 -110.625 40.589844 -118.617188 C 40.589844 -120.089844 40.589844 -120.089844 42.0625 -120.089844 C 46.480469 -120.089844 50.894531 -120.300781 55.3125 -120.300781 C 58.679688 -120.300781 62.042969 -119.25 64.988281 -117.988281 C 66.460938 -117.355469 67.511719 -116.304688 68.140625 -114.621094 C 69.613281 -111.675781 70.457031 -108.734375 70.457031 -105.367188 C 70.667969 -99.898438 70.875 -94.433594 70.035156 -88.964844 C 69.613281 -84.96875 68.140625 -81.390625 66.671875 -78.027344 C 66.039062 -77.1875 65.617188 -76.34375 65.410156 -75.292969 C 64.355469 -73.191406 62.882812 -71.71875 60.78125 -71.085938 C 58.46875 -70.246094 55.945312 -69.613281 53.421875 -69.195312 C 50.054688 -68.5625 46.269531 -68.5625 42.695312 -68.5625 C 41.433594 -68.5625 41.222656 -68.5625 41.222656 -69.824219 C 41.011719 -71.085938 41.222656 -72.136719 41.222656 -73.398438 C 41.222656 -80.339844 41.011719 -87.492188 41.011719 -94.433594 C 41.011719 -94.433594 41.011719 -94.433594 40.800781 -94.433594 Z M 40.800781 -94.433594 "/></g></g></g><g fill="#000000" fill-opacity="1"><g transform="translate(786.472385, 265.205618)"><g><path d="M 34.914062 -131.238281 C 34.703125 -131.238281 34.703125 -131.238281 34.703125 -131.238281 C 34.703125 -136.285156 34.703125 -141.542969 34.703125 -146.589844 C 34.703125 -149.113281 33.652344 -149.957031 31.125 -149.746094 C 29.445312 -149.535156 27.761719 -149.535156 26.289062 -149.535156 C 23.34375 -149.535156 20.191406 -149.535156 17.246094 -149.535156 C 15.351562 -149.535156 13.671875 -149.324219 11.777344 -149.113281 C 10.09375 -148.902344 9.253906 -148.0625 9.042969 -146.378906 C 8.832031 -143.855469 8.621094 -141.332031 8.621094 -138.808594 C 8.621094 -134.8125 8.832031 -130.816406 8.832031 -126.820312 C 8.832031 -121.351562 8.832031 -115.671875 8.832031 -109.996094 C 8.832031 -107.683594 9.042969 -105.367188 9.042969 -103.054688 C 9.042969 -91.488281 9.253906 -79.921875 9.042969 -68.351562 C 9.042969 -59.941406 9.042969 -51.316406 8.621094 -42.695312 C 8.414062 -34.070312 8.414062 -25.238281 8.621094 -16.40625 C 8.832031 -12.199219 8.621094 -7.78125 8.621094 -3.574219 C 8.621094 -2.3125 8.414062 -1.261719 8.414062 0 C 8.414062 1.683594 9.042969 2.101562 10.726562 2.3125 C 11.148438 2.3125 11.566406 2.3125 11.988281 2.3125 C 18.296875 2.3125 24.605469 2.3125 30.917969 2.101562 C 31.96875 2.101562 33.230469 1.472656 33.652344 0 C 33.652344 -0.421875 33.859375 -1.050781 33.859375 -1.683594 C 34.070312 -8.621094 34.28125 -15.773438 34.492188 -22.925781 C 34.492188 -24.605469 34.703125 -26.5 34.703125 -28.183594 C 34.914062 -31.335938 35.121094 -34.492188 35.121094 -37.648438 C 35.332031 -45.429688 35.332031 -53.210938 35.332031 -60.78125 C 35.332031 -63.515625 35.121094 -66.25 35.121094 -68.984375 C 34.914062 -72.769531 34.703125 -76.765625 34.703125 -80.550781 C 34.703125 -84.335938 34.914062 -88.121094 34.914062 -91.699219 C 34.914062 -98.429688 34.703125 -104.949219 34.703125 -111.46875 C 34.703125 -112.941406 34.914062 -114.410156 34.914062 -116.09375 C 34.914062 -121.140625 34.914062 -126.191406 34.914062 -131.238281 Z M 34.914062 -131.238281 "/></g></g></g><g fill="#000000" fill-opacity="1"><g transform="translate(830.212905, 265.205618)"><g><path d="M 56.574219 -67.511719 C 56.785156 -67.511719 56.785156 -67.511719 56.785156 -67.511719 C 56.785156 -68.140625 56.785156 -68.773438 56.996094 -69.402344 C 57.417969 -79.5 57.835938 -89.59375 58.046875 -99.898438 C 58.257812 -106 58.046875 -112.308594 58.046875 -118.617188 C 58.046875 -119.25 58.046875 -119.878906 58.046875 -120.300781 C 58.046875 -121.140625 58.257812 -121.351562 59.097656 -121.351562 C 60.148438 -121.351562 61.414062 -121.351562 62.464844 -121.351562 C 68.140625 -121.5625 74.03125 -122.195312 79.921875 -121.5625 C 80.339844 -121.5625 80.761719 -121.5625 81.183594 -121.5625 C 82.863281 -121.773438 83.496094 -122.613281 83.707031 -124.296875 C 83.707031 -125.769531 83.707031 -127.242188 83.707031 -128.503906 C 83.917969 -134.390625 84.546875 -140.070312 84.335938 -145.75 C 84.335938 -148.0625 83.707031 -148.484375 81.601562 -148.484375 C 77.816406 -148.484375 74.03125 -148.273438 70.246094 -148.273438 C 54.472656 -148.0625 38.910156 -148.0625 23.132812 -149.113281 C 18.085938 -149.324219 12.828125 -149.113281 7.78125 -148.902344 C 6.097656 -148.691406 5.257812 -148.0625 5.046875 -146.167969 C 4.417969 -140.070312 4.207031 -133.972656 4.207031 -127.871094 C 4.207031 -125.980469 4.417969 -124.296875 4.625 -122.613281 C 4.835938 -121.5625 5.46875 -120.929688 6.308594 -120.929688 C 6.941406 -120.929688 7.570312 -120.929688 8.203125 -120.929688 C 15.351562 -121.5625 22.503906 -121.351562 29.445312 -121.351562 C 30.707031 -121.351562 30.707031 -121.351562 30.707031 -120.089844 C 30.917969 -117.355469 30.917969 -114.621094 30.917969 -111.675781 C 30.917969 -104.527344 30.917969 -97.375 30.496094 -90.015625 C 29.863281 -79.5 29.445312 -68.984375 29.445312 -58.679688 C 29.234375 -47.109375 29.65625 -35.753906 29.65625 -24.398438 C 29.65625 -17.246094 29.65625 -10.09375 29.65625 -2.945312 C 29.65625 -0.421875 31.125 1.050781 33.652344 1.472656 C 34.703125 1.683594 35.964844 1.683594 37.226562 1.894531 C 42.695312 2.734375 47.953125 2.3125 53.210938 1.261719 C 54.472656 0.839844 55.523438 0 55.523438 -1.472656 C 55.734375 -8.203125 56.15625 -14.933594 56.15625 -21.664062 C 56.363281 -37.015625 56.574219 -52.160156 56.574219 -67.511719 Z M 56.574219 -67.511719 "/></g></g></g><g fill="#000000" fill-opacity="1"><g transform="translate(918.955588, 265.205618)"><g><path d="M 110.835938 -78.238281 C 111.046875 -86.019531 109.996094 -93.589844 108.523438 -101.160156 C 107.683594 -105.789062 106.628906 -110.414062 105.578125 -115.042969 C 104.105469 -122.613281 100.53125 -129.132812 95.902344 -135.234375 C 93.800781 -137.96875 91.488281 -140.703125 88.332031 -142.804688 C 84.96875 -144.90625 81.183594 -146.589844 77.394531 -148.484375 C 77.394531 -148.484375 77.1875 -148.484375 77.1875 -148.691406 C 74.453125 -149.324219 71.929688 -149.957031 69.195312 -150.375 C 64.988281 -150.796875 60.78125 -150.585938 56.574219 -150.585938 C 53.628906 -150.375 50.476562 -150.164062 47.53125 -149.113281 C 43.113281 -147.640625 38.699219 -145.960938 34.914062 -143.015625 C 31.96875 -140.703125 28.601562 -138.597656 26.078125 -135.652344 C 23.132812 -132.078125 20.820312 -128.292969 18.507812 -124.296875 C 17.035156 -121.351562 16.195312 -118.199219 15.144531 -115.253906 C 12.617188 -107.683594 11.148438 -100.109375 10.304688 -92.328125 C 9.886719 -88.964844 9.675781 -85.597656 9.464844 -82.445312 C 9.253906 -78.027344 8.832031 -73.609375 8.621094 -69.195312 C 8.414062 -64.355469 8.621094 -59.519531 9.675781 -54.683594 C 9.675781 -53.839844 9.886719 -53 9.886719 -52.160156 C 10.304688 -49.003906 10.515625 -46.058594 10.726562 -42.90625 C 11.355469 -38.488281 12.617188 -34.492188 14.089844 -30.496094 C 16.824219 -22.714844 21.03125 -15.5625 26.5 -9.464844 C 27.339844 -8.621094 28.394531 -7.78125 29.234375 -6.941406 C 30.285156 -6.308594 31.125 -5.46875 31.96875 -4.835938 C 34.914062 -2.523438 38.066406 -0.839844 41.433594 0 C 46.902344 1.683594 52.578125 2.3125 58.257812 2.523438 C 63.09375 2.523438 67.933594 2.523438 72.347656 0.210938 C 74.03125 -0.421875 75.503906 -1.050781 77.1875 -1.683594 C 78.027344 -2.101562 78.867188 -2.734375 79.710938 -3.363281 C 80.761719 -4.207031 81.8125 -5.046875 82.863281 -5.679688 C 86.441406 -8.203125 89.804688 -10.726562 92.117188 -14.511719 C 94.011719 -17.457031 96.113281 -20.402344 97.585938 -23.554688 C 100.320312 -28.8125 102.632812 -34.070312 104.316406 -39.75 C 106.628906 -46.902344 108.734375 -54.050781 109.574219 -61.621094 C 109.785156 -63.515625 109.574219 -65.410156 110.207031 -67.300781 C 110.835938 -69.402344 110.625 -71.71875 110.835938 -73.820312 C 110.835938 -75.292969 110.835938 -76.765625 110.835938 -78.238281 Z M 36.175781 -71.929688 C 35.753906 -78.65625 36.175781 -85.179688 37.648438 -91.699219 C 39.539062 -99.691406 42.695312 -107.261719 47.953125 -113.78125 C 50.894531 -117.144531 54.890625 -119.25 59.308594 -119.25 C 63.726562 -119.460938 67.722656 -117.988281 71.085938 -115.464844 C 71.507812 -115.042969 71.929688 -114.832031 72.136719 -114.203125 C 74.453125 -110.835938 76.34375 -107.050781 77.605469 -103.054688 C 79.289062 -96.957031 80.550781 -90.644531 81.183594 -84.546875 C 81.390625 -79.078125 81.183594 -73.820312 80.972656 -68.5625 C 80.972656 -65.199219 80.761719 -61.832031 80.128906 -58.679688 C 79.078125 -51.527344 77.605469 -44.375 75.082031 -37.4375 C 74.03125 -34.492188 72.347656 -31.96875 69.613281 -30.707031 C 66.25 -28.8125 62.464844 -27.550781 58.46875 -28.394531 C 56.15625 -28.8125 53.839844 -29.234375 51.527344 -29.863281 C 46.902344 -31.125 43.957031 -34.070312 41.640625 -38.066406 C 39.328125 -42.90625 38.277344 -47.742188 37.4375 -52.789062 C 36.382812 -59.308594 35.753906 -65.617188 36.175781 -71.929688 Z M 36.175781 -71.929688 "/></g></g></g><g fill="#000000" fill-opacity="1"><g transform="translate(1038.400696, 265.205618)"><g><path d="M 54.261719 2.523438 C 60.570312 2.523438 66.671875 1.894531 72.558594 -1.050781 C 73.820312 -1.894531 75.082031 -2.523438 76.34375 -3.15625 C 80.550781 -6.097656 84.96875 -8.832031 88.121094 -13.039062 C 91.066406 -17.035156 94.011719 -20.820312 95.902344 -25.449219 C 99.898438 -34.492188 100.953125 -44.167969 99.058594 -54.050781 C 98.636719 -56.574219 97.585938 -59.308594 96.746094 -61.832031 C 96.113281 -63.304688 95.273438 -64.566406 94.640625 -66.039062 C 93.171875 -68.984375 90.855469 -71.296875 88.332031 -73.191406 C 87.28125 -73.820312 86.648438 -74.871094 85.597656 -75.714844 C 84.335938 -76.765625 82.863281 -77.816406 81.601562 -79.078125 C 79.078125 -81.183594 76.34375 -82.445312 73.398438 -83.917969 C 70.457031 -85.597656 67.300781 -86.859375 64.355469 -88.332031 C 63.515625 -88.753906 62.464844 -88.964844 61.621094 -89.59375 C 58.46875 -91.488281 54.890625 -93.378906 51.738281 -95.484375 C 49.632812 -96.746094 47.742188 -98.21875 46.269531 -100.109375 C 44.796875 -101.792969 43.957031 -103.6875 43.746094 -105.789062 C 43.535156 -107.472656 43.746094 -109.363281 44.167969 -111.046875 C 44.796875 -112.941406 46.269531 -114.621094 47.953125 -115.882812 C 49.632812 -117.355469 51.527344 -118.40625 53.628906 -118.40625 C 58.046875 -118.828125 62.675781 -118.828125 67.089844 -117.566406 C 69.613281 -116.9375 71.71875 -115.882812 73.398438 -113.992188 C 74.664062 -112.730469 76.34375 -111.675781 77.816406 -110.414062 C 78.238281 -110.207031 78.65625 -109.785156 79.078125 -109.785156 C 81.183594 -109.785156 83.074219 -109.996094 84.546875 -111.46875 C 86.019531 -112.941406 87.492188 -114.410156 88.753906 -115.882812 C 90.855469 -118.617188 92.960938 -121.140625 95.0625 -123.875 C 96.535156 -125.769531 96.746094 -127.660156 95.695312 -129.765625 C 94.433594 -131.867188 92.75 -133.761719 91.066406 -135.652344 C 88.753906 -138.808594 85.808594 -140.910156 82.652344 -143.015625 C 78.867188 -145.960938 74.664062 -147.640625 70.246094 -148.902344 C 66.671875 -149.957031 63.09375 -150.375 59.519531 -150.375 C 53.210938 -150.164062 47.109375 -149.535156 41.433594 -146.589844 C 40.171875 -145.960938 38.910156 -145.328125 37.648438 -144.488281 C 33.230469 -141.753906 29.023438 -138.808594 25.660156 -134.601562 C 22.714844 -130.605469 19.769531 -126.820312 17.875 -122.195312 C 13.878906 -113.148438 12.828125 -103.476562 14.722656 -93.800781 C 15.351562 -90.4375 16.613281 -86.859375 18.085938 -83.707031 C 19.347656 -80.972656 20.820312 -78.449219 23.132812 -76.34375 C 25.238281 -74.664062 27.128906 -72.769531 29.234375 -71.085938 C 31.757812 -69.195312 34.28125 -67.511719 36.804688 -65.617188 C 38.066406 -64.777344 39.328125 -64.144531 40.800781 -63.515625 C 42.90625 -62.464844 45.21875 -60.992188 47.53125 -60.148438 C 51.316406 -58.886719 54.472656 -56.785156 57.835938 -54.890625 C 60.148438 -53.628906 62.253906 -52.160156 64.355469 -50.6875 C 66.878906 -49.003906 68.5625 -46.902344 69.613281 -44.167969 C 71.085938 -39.75 70.035156 -35.753906 66.878906 -32.808594 C 64.566406 -30.496094 61.621094 -29.445312 58.46875 -28.394531 C 55.945312 -27.761719 53.628906 -27.761719 51.105469 -28.601562 C 48.371094 -29.445312 45.847656 -30.496094 43.113281 -31.546875 C 42.0625 -31.96875 41.222656 -32.597656 40.171875 -33.230469 C 37.015625 -34.914062 34.914062 -37.855469 32.386719 -40.378906 C 31.546875 -41.640625 30.707031 -42.90625 29.65625 -44.167969 C 29.023438 -44.796875 28.394531 -45.847656 27.128906 -45.429688 C 25.867188 -45.21875 24.816406 -44.796875 23.765625 -43.746094 C 22.292969 -42.273438 20.820312 -40.800781 19.140625 -39.539062 C 15.773438 -37.226562 12.828125 -34.070312 9.675781 -31.546875 C 8.621094 -30.707031 8.203125 -29.445312 8.621094 -28.183594 C 9.253906 -26.710938 9.675781 -25.027344 10.515625 -23.765625 C 13.25 -19.140625 16.195312 -14.722656 20.191406 -11.148438 C 21.453125 -9.886719 22.714844 -8.832031 24.1875 -7.78125 C 25.238281 -6.941406 26.710938 -6.097656 27.972656 -5.257812 C 31.757812 -2.523438 35.964844 -0.632812 40.589844 0.632812 C 45.007812 1.683594 49.425781 2.734375 54.261719 2.523438 Z M 54.261719 2.523438 "/></g></g></g><g clip-path="url(#ab92613065)"><g clip-path="url(#e8360182a5)"><path fill="#f19d42" d="M 124.285156 62.003906 L 210.535156 62.003906 L 210.535156 148.25 L 124.285156 148.25 Z M 124.285156 62.003906 " fill-opacity="1" fill-rule="nonzero"/></g></g><g clip-path="url(#3136a96099)"><g clip-path="url(#ba34b96489)"><path fill="#38adf1" d="M 1353.75 198.101562 L 1440 198.101562 L 1440 284.351562 L 1353.75 284.351562 Z M 1353.75 198.101562 " fill-opacity="1" fill-rule="nonzero"/></g></g><g clip-path="url(#92ff331be1)"><g clip-path="url(#6933254aa4)"><path fill="#e46270" d="M 0 186.289062 L 124.285156 186.289062 L 124.285156 310.570312 L 0 310.570312 Z M 0 186.289062 " fill-opacity="1" fill-rule="nonzero"/></g></g><g clip-path="url(#475ad34073)"><g clip-path="url(#aed987bc8a)"><path fill="#7ed957" d="M 182.375 245.421875 L 238.695312 245.421875 L 238.695312 301.742188 L 182.375 301.742188 Z M 182.375 245.421875 " fill-opacity="1" fill-rule="nonzero"/></g></g><g clip-path="url(#a42539c914)"><g clip-path="url(#f6a37c12bc)"><path fill="#f2c70f" d="M 1226.890625 242.4375 L 1283.210938 242.4375 L 1283.210938 298.757812 L 1226.890625 298.757812 Z M 1226.890625 242.4375 " fill-opacity="1" fill-rule="nonzero"/></g></g></svg>