<?xml version="1.0" standalone="no"?>
<!DOCTYPE svg PUBLIC "-//W3C//DTD SVG 20010904//EN"
 "http://www.w3.org/TR/2001/REC-SVG-20010904/DTD/svg10.dtd">
<svg version="1.0" xmlns="http://www.w3.org/2000/svg"
 width="1382.000000pt" height="1346.000000pt" viewBox="0 0 1382.000000 1346.000000"
 preserveAspectRatio="xMidYMid meet">

<g transform="translate(0.000000,1346.000000) scale(0.100000,-0.100000)"
fill="#000000" stroke="none">
<path d="M5137 13076 c-54 -20 -104 -61 -130 -109 l-22 -42 3 -2483 c2 -2036
5 -2489 16 -2515 20 -49 66 -98 111 -118 38 -18 141 -19 2702 -19 1862 0 2677
3 2712 11 64 13 107 43 146 98 l30 43 3 2481 c3 2781 10 2530 -72 2605 -24 22
-61 45 -82 51 -27 8 -842 11 -2709 11 -2205 -1 -2677 -3 -2708 -14z m5444 -69
c19 -12 44 -42 57 -67 21 -42 22 -56 22 -270 l0 -225 -2810 0 -2810 -1 0 229
c0 275 5 295 95 341 27 14 300 16 2721 16 l2691 0 34 -23z m79 -2833 l0 -2221
-29 -40 c-58 -80 222 -73 -2775 -73 -2251 0 -2682 2 -2709 14 -39 16 -82 61
-96 99 -8 20 -11 700 -11 2235 l0 2207 2810 0 2810 0 0 -2221z"/>
<path d="M5264 12774 c-44 -46 -48 -106 -9 -148 50 -54 109 -60 159 -15 86 75
37 199 -78 199 -31 0 -45 -7 -72 -36z m109 -6 c33 -17 46 -39 47 -75 0 -58
-85 -97 -125 -56 -45 44 -37 104 17 128 41 18 35 17 61 3z"/>
<path d="M5551 12778 c-57 -58 -48 -136 22 -178 50 -31 90 -26 131 14 43 43
53 84 32 128 -21 43 -63 68 -114 68 -31 0 -46 -7 -71 -32z m130 -27 c36 -36
37 -73 4 -106 -46 -47 -119 -24 -131 41 -7 38 12 68 51 85 34 13 45 10 76 -20z"/>
<path d="M5848 12787 c-50 -42 -62 -96 -31 -148 19 -32 68 -59 105 -59 57 1
108 60 108 124 0 31 -7 45 -36 72 -44 42 -104 47 -146 11z m125 -39 c17 -20
23 -74 9 -94 -26 -40 -93 -44 -121 -8 -36 46 -26 98 23 120 37 15 64 10 89
-18z"/>
<path d="M8381 11935 c-30 -7 -90 -32 -135 -54 l-81 -42 -60 28 c-53 25 -71
28 -160 28 -88 0 -107 -3 -158 -27 -31 -15 -81 -50 -110 -77 l-54 -51 -89 31
c-63 23 -114 33 -174 36 -76 4 -90 2 -129 -19 -101 -54 -119 -184 -47 -349 19
-46 34 -84 33 -84 -1 -1 -35 -19 -75 -40 -119 -62 -192 -148 -192 -225 0 -97
109 -195 300 -267 50 -19 84 -37 84 -45 -1 -7 -11 -49 -23 -92 -30 -112 -29
-228 2 -286 29 -55 90 -90 158 -90 92 0 237 63 350 152 36 28 39 28 173 28
126 0 140 -2 186 -25 170 -86 364 -115 443 -66 40 24 71 75 82 131 8 44 -16
158 -48 230 l-24 54 86 42 c136 67 205 137 215 219 13 107 -110 221 -314 291
-30 10 -56 19 -58 20 -1 0 14 50 34 110 42 123 57 270 35 337 -15 45 -68 92
-118 106 -47 13 -64 13 -132 -4z m144 -39 c64 -27 89 -106 74 -230 -9 -70 -63
-251 -78 -260 -4 -3 -44 2 -88 11 l-80 17 -7 78 c-8 101 -37 176 -92 244 -24
29 -44 55 -44 57 0 8 136 71 179 83 62 17 95 17 136 0z m-465 -48 c47 -13 133
-72 163 -111 73 -96 89 -171 85 -387 l-3 -165 -37 -3 -37 -3 -3 208 c-3 206
-3 208 -30 255 -70 118 -215 175 -341 132 -60 -20 -126 -79 -157 -140 -24 -46
-25 -61 -30 -249 l-5 -200 -38 -3 -39 -3 4 208 c3 201 4 210 30 265 76 163
262 247 438 196z m-542 -113 c45 -15 82 -30 82 -34 0 -3 -9 -30 -21 -60 -11
-30 -23 -88 -27 -129 l-7 -75 -85 -17 c-47 -10 -109 -25 -139 -34 -30 -9 -55
-16 -56 -16 -11 0 -70 156 -78 206 -16 92 2 141 63 172 38 20 55 23 115 19 39
-3 107 -17 153 -32z m498 7 c7 -4 -16 -32 -62 -75 l-73 -68 -55 32 c-31 17
-56 35 -56 39 0 13 58 52 99 66 39 14 129 18 147 6z m147 -122 c20 -39 27 -67
27 -109 l0 -56 -62 3 c-57 4 -67 8 -135 59 -41 31 -72 59 -71 64 2 4 37 37 78
73 l74 65 31 -23 c16 -13 42 -47 58 -76z m-361 -21 l48 -31 -48 -53 c-36 -41
-54 -54 -76 -54 l-29 -1 7 53 c9 68 25 117 38 117 6 0 33 -14 60 -31z m136
-91 l47 -33 -80 -6 c-44 -3 -82 -4 -84 -2 -5 3 59 73 67 73 2 0 24 -15 50 -32z
m184 -145 l67 -58 0 -63 1 -62 -242 2 -243 3 -3 73 c-3 72 -2 75 33 118 l36
44 143 0 142 0 66 -57z m46 51 c15 -4 22 -14 22 -31 l0 -25 -29 24 c-43 34
-41 44 7 32z m-620 -126 l-3 -103 -35 -3 c-20 -2 -46 -14 -61 -28 l-26 -25
-64 91 c-35 50 -64 96 -64 103 0 12 186 65 233 66 22 1 23 0 20 -101z m884 91
c29 -6 57 -15 62 -19 5 -5 -12 -47 -39 -95 -42 -78 -49 -86 -73 -83 l-27 3 -3
103 c-3 115 -8 109 80 91z m243 -76 c106 -44 174 -96 204 -156 32 -65 24 -105
-36 -163 -43 -42 -193 -125 -224 -123 -20 0 -139 186 -139 216 0 14 -7 40 -16
59 -9 18 -14 37 -12 41 2 4 22 45 46 91 49 95 39 93 177 35z m-1394 -45 c18
-28 57 -82 86 -120 49 -63 53 -73 53 -121 0 -35 -9 -70 -26 -107 -39 -83 -35
-82 -115 -55 -152 52 -270 143 -285 220 -13 69 48 140 171 203 33 17 65 31 71
32 7 0 27 -23 45 -52z m1139 -128 c19 -19 20 -33 20 -294 0 -236 -2 -277 -16
-290 -14 -14 -70 -16 -474 -16 -405 0 -460 2 -474 16 -14 14 -16 51 -14 297
l3 281 25 13 c19 10 131 13 468 13 429 0 443 -1 462 -20z m117 -238 c28 -47
25 -56 -24 -67 l-33 -7 0 79 c1 87 3 87 57 -5z m-1117 -59 c0 -19 -3 -24 -10
-17 -6 6 -8 18 -4 27 9 24 14 21 14 -10z m1188 -70 c46 -92 70 -210 52 -258
-39 -103 -169 -120 -363 -47 l-72 27 95 5 c52 3 103 10 113 14 31 15 42 49 47
160 l5 109 40 13 c60 18 63 17 83 -23z m-1188 -103 c3 -63 9 -121 14 -129 20
-30 74 -41 213 -41 l138 0 -25 -20 c-14 -11 -61 -38 -105 -60 -161 -81 -258
-78 -303 10 -21 40 -23 55 -18 135 6 112 40 228 64 223 14 -3 18 -21 22 -118z"/>
<path d="M7354 11595 c-4 -9 -2 -21 4 -27 15 -15 44 -1 40 19 -4 23 -36 29
-44 8z"/>
<path d="M8797 11113 c-11 -10 -8 -41 4 -49 6 -3 18 1 27 9 13 13 13 19 2 31
-14 17 -23 20 -33 9z"/>
<path d="M7476 11058 c-8 -30 -8 -462 0 -482 9 -23 31 -19 38 7 10 39 7 457
-4 478 -14 25 -26 24 -34 -3z"/>
<path d="M7874 11031 c-62 -38 -82 -131 -41 -192 26 -39 63 -50 70 -22 3 10 5
-12 6 -49 l1 -68 40 0 40 0 0 65 c0 50 4 67 15 72 22 8 45 56 45 93 0 34 -46
90 -73 90 -8 0 -20 7 -27 15 -17 20 -39 19 -76 -4z m114 -57 c32 -22 27 -79
-9 -106 -21 -16 -29 -17 -52 -7 -47 21 -53 93 -10 118 25 15 45 13 71 -5z"/>
<path d="M8920 11839 c-23 -42 12 -89 60 -80 18 4 39 31 40 53 1 45 -79 67
-100 27z m52 -41 c-15 -15 -26 -4 -18 18 5 13 9 15 18 6 9 -9 9 -15 0 -24z"/>
<path d="M8921 11536 c-14 -16 -4 -46 15 -46 7 0 18 9 24 20 8 15 6 21 -9 29
-14 8 -22 7 -30 -3z"/>
<path d="M6896 10698 c-21 -29 -20 -51 2 -71 26 -23 58 -21 76 5 22 31 20 54
-6 72 -31 22 -54 20 -72 -6z m54 -33 c0 -8 -7 -15 -15 -15 -8 0 -15 7 -15 15
0 8 7 15 15 15 8 0 15 -7 15 -15z"/>
<path d="M7167 10593 c-11 -10 -8 -41 4 -49 6 -3 18 1 27 9 13 13 13 19 2 31
-14 17 -23 20 -33 9z"/>
<path d="M6215 9946 c-99 -46 -153 -113 -175 -220 -32 -157 44 -302 187 -356
54 -20 70 -20 1686 -18 l1632 3 42 23 c124 66 186 197 162 344 -13 78 -55 148
-115 189 -92 63 28 59 -1748 59 l-1621 0 -50 -24z m3350 -35 c96 -43 149 -132
149 -251 0 -122 -46 -198 -149 -246 l-50 -24 -1626 0 -1627 0 -53 28 c-155 80
-188 311 -63 436 80 80 -63 74 1754 75 1553 1 1627 0 1665 -18z"/>
<path d="M8367 9770 c-8 -12 -12 -31 -9 -42 4 -18 3 -19 -18 -8 -29 16 -86 15
-105 0 -11 -9 -19 -10 -28 -1 -8 6 -54 10 -114 9 -78 0 -105 3 -125 16 -59 39
-141 29 -173 -21 -15 -23 -18 -23 -34 -9 -23 21 -79 21 -102 0 -17 -15 -19
-15 -34 0 -15 15 -37 21 -60 16 -5 -1 -17 -1 -25 -1 -65 3 -125 -1 -130 -9 -3
-5 -11 -5 -20 0 -19 12 -81 12 -99 1 -9 -6 -22 -6 -33 0 -28 15 -209 14 -219
-2 -6 -10 -10 -10 -23 1 -11 8 -33 11 -69 7 -28 -2 -63 -2 -77 2 -14 4 -37 4
-52 0 -25 -7 -28 -5 -28 17 0 21 -5 24 -35 24 l-35 0 0 -60 c0 -47 -3 -60 -15
-60 -12 0 -15 13 -15 60 l0 60 -41 0 -42 0 5 -72 c5 -63 9 -75 33 -96 23 -20
35 -23 69 -18 23 3 49 6 59 5 18 0 105 -1 135 0 9 0 59 -1 110 -4 l92 -4 0 39
c0 22 5 40 10 40 6 0 10 -18 10 -40 0 -39 1 -40 34 -40 34 0 35 1 39 48 l3 47
2 -46 2 -47 134 -1 135 -1 4 47 3 48 2 -47 c2 -48 2 -48 36 -48 34 0 35 1 39
48 l3 47 2 -47 c2 -48 2 -48 36 -48 19 0 36 5 38 11 3 9 9 9 25 0 26 -13 72
-14 92 -2 10 7 25 1 50 -20 30 -24 45 -29 89 -29 43 0 55 3 59 18 5 20 43 48
43 32 0 -5 15 -10 34 -10 34 0 35 1 39 43 l4 42 1 -42 c2 -42 3 -43 36 -43 34
0 35 1 39 48 l3 47 2 -47 2 -47 187 0 c112 0 192 4 200 10 8 7 18 7 32 0 27
-15 74 -14 89 1 10 10 17 10 32 0 24 -15 65 -16 91 -2 13 7 19 7 19 0 0 -5 16
-10 34 -10 34 0 35 1 39 48 l3 47 2 -47 c2 -48 2 -48 36 -48 34 0 35 1 39 48
l3 47 2 -47 2 -48 40 0 c40 0 40 0 40 39 0 82 -41 130 -95 111 -11 -4 -24 -5
-29 -2 -15 8 -110 2 -116 -8 -3 -5 -11 -5 -20 0 -21 14 -84 12 -98 -2 -8 -8
-15 -8 -24 -1 -37 30 -104 14 -122 -29 -8 -17 -21 -33 -30 -34 -13 -2 -16 9
-16 62 l0 64 -44 0 c-24 0 -51 3 -59 6 -9 3 -21 -4 -30 -16z m263 -109 c0 -6
-4 -13 -10 -16 -5 -3 -10 1 -10 9 0 9 5 16 10 16 6 0 10 -4 10 -9z m120 -7 c0
-8 -4 -12 -10 -9 -5 3 -10 10 -10 16 0 5 5 9 10 9 6 0 10 -7 10 -16z m-850 -4
c0 -5 -4 -10 -10 -10 -5 0 -10 5 -10 10 0 6 5 10 10 10 6 0 10 -4 10 -10z"/>
<path d="M6280 9161 c-135 -42 -220 -160 -220 -306 0 -122 60 -220 170 -277
l45 -23 1639 -3 1639 -2 52 24 c61 28 116 82 147 145 19 39 23 62 23 146 0 83
-4 107 -22 140 -29 55 -88 110 -148 137 l-50 23 -1625 2 c-894 1 -1636 -2
-1650 -6z m3315 -55 c99 -47 144 -125 145 -249 0 -123 -43 -195 -145 -243
l-50 -24 -1628 0 c-1782 0 -1657 -4 -1731 60 -55 49 -79 102 -84 193 -6 97 14
153 73 212 79 79 -62 73 1750 74 l1620 1 50 -24z"/>
<path d="M7000 8950 c0 -23 -4 -24 -30 -10 -15 8 -22 4 -39 -25 -19 -32 -19
-35 -3 -45 16 -9 16 -11 -1 -24 -17 -13 -17 -15 4 -50 17 -30 24 -34 39 -26
26 14 30 13 30 -10 0 -17 7 -20 40 -20 33 0 40 3 40 20 0 22 10 26 27 9 8 -8
15 -4 27 12 l16 23 16 -22 c12 -18 19 -20 35 -12 16 9 19 7 19 -10 0 -17 6
-20 45 -20 38 0 45 3 45 20 0 22 15 27 26 9 4 -8 13 -4 25 12 16 20 20 22 29
9 5 -8 11 -19 13 -24 2 -5 13 -4 25 3 19 10 22 9 22 -9 0 -17 6 -20 45 -20 39
0 45 3 45 20 0 17 3 19 20 10 16 -8 21 -6 31 12 l12 22 19 -24 c14 -18 22 -20
30 -12 18 18 28 14 28 -8 0 -17 7 -20 40 -20 33 0 40 3 40 20 0 22 7 25 30 11
10 -7 18 -4 28 11 l15 21 18 -24 c14 -19 20 -22 30 -11 19 18 29 15 29 -8 0
-17 7 -20 40 -20 33 0 40 3 40 20 0 23 4 24 30 10 15 -8 20 -6 25 10 8 26 21
25 35 0 9 -16 15 -18 30 -10 17 9 20 7 20 -10 0 -17 6 -20 45 -20 38 0 45 3
45 20 0 22 10 26 27 9 8 -8 15 -4 27 12 l16 23 16 -22 c12 -18 19 -20 35 -12
16 9 19 7 19 -10 0 -17 6 -20 45 -20 39 0 45 3 45 20 0 17 3 19 19 11 15 -8
22 -6 34 12 14 19 18 20 26 7 6 -8 12 -19 14 -24 2 -5 13 -4 25 3 19 10 22 9
22 -9 0 -17 6 -20 45 -20 39 0 45 3 45 20 0 17 3 19 19 10 16 -8 22 -4 40 26
20 34 21 37 5 49 -16 11 -16 13 1 22 17 10 17 12 -4 47 -25 39 -31 42 -49 24
-9 -9 -12 -7 -12 10 0 19 -5 22 -45 22 -39 0 -45 -3 -45 -20 0 -18 -3 -19 -21
-9 -21 11 -31 5 -42 -26 -2 -5 -13 1 -24 15 -18 21 -23 22 -37 11 -14 -12 -16
-11 -16 8 0 18 -6 21 -45 21 -39 0 -45 -3 -45 -20 0 -17 -3 -19 -19 -11 -15 8
-22 6 -34 -12 -14 -19 -18 -20 -26 -7 -6 8 -12 19 -14 24 -2 5 -13 4 -25 -3
-19 -10 -22 -9 -22 9 0 17 -6 20 -45 20 -39 0 -45 -3 -45 -20 0 -17 -3 -19
-20 -10 -16 8 -21 6 -31 -12 l-12 -22 -18 23 c-15 18 -22 20 -39 11 -17 -9
-20 -8 -20 10 0 17 -6 20 -40 20 -33 0 -40 -3 -40 -20 0 -23 -10 -26 -28 -8
-10 10 -16 7 -29 -11 l-16 -24 -17 23 c-14 19 -20 21 -38 11 -19 -10 -22 -9
-22 9 0 17 -6 20 -40 20 -33 0 -40 -3 -40 -20 0 -23 -10 -26 -28 -8 -13 13
-21 6 -36 -27 -3 -5 -13 1 -24 15 -17 20 -22 22 -36 11 -14 -12 -16 -11 -16 8
0 18 -6 21 -45 21 -39 0 -45 -3 -45 -20 0 -17 -3 -19 -19 -10 -16 8 -23 6 -36
-12 -13 -20 -17 -21 -25 -8 -5 8 -11 19 -13 24 -2 5 -13 4 -25 -3 -19 -10 -22
-9 -22 9 0 17 -6 20 -45 20 -39 0 -45 -3 -45 -20 0 -17 -3 -19 -20 -10 -16 8
-21 6 -31 -12 l-12 -22 -18 23 c-15 18 -22 20 -39 11 -17 -9 -20 -8 -20 10 0
17 -6 20 -40 20 -33 0 -40 -3 -40 -20z m531 -108 c16 -9 29 -21 29 -25 0 -5
-10 -1 -22 7 -32 23 -38 20 -39 -16 -2 -31 -2 -31 -8 7 -3 22 -4 60 -1 85 l5
45 3 -43 c3 -36 8 -47 33 -60z m-479 24 c6 4 8 3 4 -4 -3 -5 -3 -12 1 -15 5
-2 3 -2 -4 -1 -7 2 -13 -12 -16 -34 l-4 -37 -1 41 c-2 36 -6 43 -32 54 -16 7
-30 17 -30 22 0 6 11 3 25 -6 33 -22 35 -21 37 17 1 31 2 30 5 -6 3 -24 8 -35
15 -31z m241 9 c12 8 26 15 32 15 5 0 -4 -9 -22 -20 -25 -15 -33 -27 -36 -57
l-4 -38 -1 41 c-2 36 -6 42 -38 58 -20 9 -34 19 -31 22 3 4 16 -1 29 -10 32
-23 38 -20 40 17 1 31 2 30 5 -6 4 -36 5 -37 26 -22z m434 33 c-3 -8 -6 -5 -6
6 -1 11 2 17 5 13 3 -3 4 -12 1 -19z m220 0 c-3 -8 -6 -5 -6 6 -1 11 2 17 5
13 3 -3 4 -12 1 -19z m246 -41 c9 5 9 3 0 -8 -6 -8 -13 -30 -16 -49 -4 -34 -4
-34 -5 6 -2 36 -6 43 -32 54 -16 7 -30 17 -30 22 0 5 10 2 22 -6 32 -23 38
-20 40 17 1 31 2 30 5 -6 3 -25 8 -35 16 -30z m240 8 c12 8 26 15 32 15 5 0
-5 -9 -22 -20 -27 -16 -33 -26 -35 -57 l-1 -38 -4 38 c-3 24 -8 35 -15 31 -7
-4 -8 -2 -4 4 4 7 -6 18 -25 27 -17 9 -28 19 -26 22 3 3 16 -2 29 -11 32 -23
38 -20 40 17 1 31 2 30 5 -6 4 -36 5 -37 26 -22z m216 -5 c4 0 16 7 27 15 10
8 24 14 29 15 6 0 -5 -10 -24 -22 -31 -20 -32 -22 -15 -35 10 -7 21 -13 26
-13 4 0 8 -5 8 -11 0 -5 -10 -3 -22 5 -32 23 -38 20 -39 -16 -2 -31 -2 -31 -8
7 -3 22 -4 58 -1 80 4 39 5 39 8 8 2 -18 7 -33 11 -33z m-1539 25 c0 -2 -10
-9 -22 -15 -22 -11 -22 -10 -4 4 21 17 26 19 26 11z m359 -21 c14 -12 -19 -1
-35 12 -18 14 -18 14 6 3 14 -6 27 -13 29 -15z m211 4 c0 -6 -6 -5 -15 2 -8 7
-15 14 -15 16 0 2 7 1 15 -2 8 -4 15 -11 15 -16z m281 -12 c7 4 9 3 6 -3 -4
-6 7 -16 23 -23 17 -7 30 -16 30 -21 0 -11 -140 63 -140 74 0 5 16 -1 35 -13
19 -12 40 -18 46 -14z m59 29 c0 -2 -10 -9 -22 -15 -22 -11 -22 -10 -4 4 21
17 26 19 26 11z m230 0 c0 -2 -10 -9 -22 -15 -22 -11 -22 -10 -4 4 21 17 26
19 26 11z m360 -27 c0 -5 -11 -1 -25 8 -14 9 -25 18 -25 20 0 2 11 -2 25 -8
14 -6 25 -15 25 -20z m-1060 17 c0 -2 -10 -9 -22 -15 -22 -11 -22 -10 -4 4 21
17 26 19 26 11z m159 -19 c10 -12 8 -17 -11 -26 -22 -11 -22 -10 -4 4 11 9 14
16 8 16 -7 0 -12 5 -12 10 0 14 5 13 19 -4z m46 4 c-3 -5 -12 -10 -18 -10 -7
0 -6 4 3 10 19 12 23 12 15 0z m-590 -9 c7 -12 -12 -24 -25 -16 -11 7 -4 25
10 25 5 0 11 -4 15 -9z m229 0 c3 -5 -1 -11 -9 -15 -15 -6 -29 7 -18 18 9 9
21 8 27 -3z m230 0 c3 -5 -1 -11 -9 -15 -15 -6 -29 7 -18 18 9 9 21 8 27 -3z
m230 0 c3 -5 -1 -11 -9 -15 -15 -6 -29 7 -18 18 9 9 21 8 27 -3z m224 -3 c-6
-18 -28 -21 -28 -4 0 9 7 16 16 16 9 0 14 -5 12 -12z m227 3 c7 -12 -12 -24
-25 -16 -11 7 -4 25 10 25 5 0 11 -4 15 -9z m229 0 c3 -5 -1 -11 -9 -15 -15
-6 -29 7 -18 18 9 9 21 8 27 -3z m-1528 -26 c-11 -8 -25 -15 -30 -15 -6 1 0 7
14 15 32 19 40 18 16 0z m320 -12 c-6 -6 -36 9 -36 18 0 5 9 4 20 -3 10 -7 18
-14 16 -15z m445 11 c17 -8 29 -18 26 -20 -3 -3 -20 4 -38 15 -40 25 -31 28
12 5z m439 6 c0 -5 -2 -10 -4 -10 -3 0 -8 5 -11 10 -3 6 -1 10 4 10 6 0 11 -4
11 -10z m256 -17 c-6 -6 -36 9 -36 18 0 5 9 4 20 -3 10 -7 18 -14 16 -15z
m-1356 -4 c0 -4 -7 -6 -15 -3 -8 4 -15 10 -15 15 0 4 7 6 15 3 8 -4 15 -10 15
-15z m120 16 c0 -2 -10 -9 -22 -15 -22 -11 -22 -10 -4 4 21 17 26 19 26 11z
m690 1 c0 -2 -7 -7 -16 -10 -8 -3 -12 -2 -9 4 6 10 25 14 25 6z m220 -1 c0 -2
-10 -9 -22 -15 -22 -11 -22 -10 -4 4 21 17 26 19 26 11z m100 -10 c11 -13 10
-14 -4 -9 -9 3 -16 10 -16 15 0 13 6 11 20 -6z m130 10 c0 -2 -10 -9 -22 -15
-22 -11 -22 -10 -4 4 21 17 26 19 26 11z m-423 -47 c-3 -7 -5 -2 -5 12 0 14 2
19 5 13 2 -7 2 -19 0 -25z m-220 0 c-3 -8 -6 -5 -6 6 -1 11 2 17 5 13 3 -3 4
-12 1 -19z"/>
<path d="M3042 12505 c-73 -20 -131 -56 -185 -114 -57 -61 -85 -115 -103 -202
-29 -138 13 -276 116 -383 l61 -63 -32 -7 c-109 -21 -270 -139 -339 -247 -70
-107 -120 -280 -120 -408 l0 -58 293 -6 c160 -4 469 -7 684 -7 l393 0 7 27
c19 79 -45 333 -113 444 -70 116 -197 217 -314 250 -25 7 -47 14 -49 16 -2 1
16 21 41 43 98 86 144 198 136 334 -11 175 -111 319 -258 371 -66 23 -156 27
-218 10z m178 -41 c169 -50 270 -205 257 -393 -9 -137 -84 -246 -212 -309
l-59 -30 59 -12 c239 -47 372 -155 458 -371 26 -64 57 -213 57 -270 l0 -29
-318 0 c-175 0 -468 3 -650 7 l-332 6 0 39 c0 115 58 286 133 390 92 129 198
188 425 234 19 4 11 11 -47 40 -300 150 -260 612 61 698 70 19 104 19 168 0z"/>
<path d="M12487 9415 c-4 -9 -7 -38 -7 -63 0 -73 -8 -76 -67 -31 -29 21 -55
39 -60 39 -4 0 -29 -30 -55 -67 l-48 -66 61 -45 60 -45 -67 -28 c-36 -16 -69
-30 -71 -33 -2 -2 9 -36 26 -76 17 -40 31 -74 31 -77 0 -3 -38 -3 -84 1 -94 8
-95 7 -97 -67 -1 -78 -7 -81 -66 -37 -28 22 -55 40 -60 40 -14 -1 -106 -132
-96 -139 50 -34 103 -76 103 -82 0 -3 -26 -17 -57 -29 -32 -13 -62 -26 -66
-30 -7 -6 4 -37 50 -148 5 -11 -12 -13 -83 -10 l-89 3 -7 -68 c-3 -38 -8 -70
-10 -72 -2 -2 -27 14 -55 36 -29 21 -56 39 -61 39 -14 0 -105 -132 -95 -139
50 -34 103 -76 103 -81 0 -4 -28 -18 -61 -31 -34 -13 -63 -29 -66 -35 -2 -6
11 -43 29 -83 l33 -71 64 30 c35 17 66 29 68 27 2 -3 -1 -35 -7 -72 -6 -37 -9
-69 -7 -71 5 -6 161 -22 167 -17 2 2 7 33 11 69 3 36 9 67 12 70 3 3 29 -12
59 -34 35 -27 56 -38 64 -31 6 5 30 36 53 69 l42 59 -61 44 -60 44 68 28 c37
16 69 30 71 31 5 5 -52 144 -62 151 -5 3 -36 -7 -68 -22 -32 -16 -61 -26 -63
-24 -3 3 0 36 5 75 l11 71 65 32 c36 18 67 30 70 28 2 -3 -1 -35 -7 -72 -6
-37 -9 -69 -8 -71 8 -7 164 -22 169 -16 4 4 9 35 11 69 2 35 7 65 11 69 3 4
25 -8 49 -27 24 -18 48 -37 55 -41 7 -6 26 10 55 49 25 32 48 63 52 70 4 8
-15 28 -54 56 l-60 44 70 28 c39 16 70 31 70 34 0 18 -56 144 -66 148 -7 2
-40 -10 -74 -27 l-62 -31 6 28 c3 15 8 51 11 79 l7 52 66 30 c36 17 68 29 70
27 2 -2 -1 -34 -7 -71 -6 -38 -9 -69 -8 -70 5 -6 161 -22 168 -19 3 3 9 34 12
70 2 36 7 69 10 71 3 3 31 -13 61 -36 31 -24 58 -41 60 -39 10 13 83 116 90
126 4 8 -15 28 -54 56 l-60 44 71 28 c80 31 79 27 34 129 -28 64 -28 64 -119
19 l-49 -25 6 24 c3 13 9 49 12 81 l7 57 -33 0 c-19 0 -57 3 -85 6 -42 5 -52
4 -57 -11z m122 -42 c3 -2 0 -40 -6 -86 -5 -45 -8 -84 -6 -87 2 -2 37 13 79
33 41 20 76 37 78 37 5 0 39 -80 35 -83 -2 -2 -40 -18 -84 -36 -44 -18 -81
-34 -83 -35 -1 -2 29 -25 68 -52 38 -27 70 -53 69 -59 0 -5 -11 -23 -24 -39
l-24 -30 -38 28 c-21 15 -53 38 -70 53 -39 30 -39 29 -48 -79 l-7 -78 -45 0
-46 0 7 58 c4 31 9 74 13 95 l6 37 -85 -38 -84 -39 -17 40 c-9 22 -16 41 -14
43 1 1 40 17 86 36 l85 35 -72 52 c-40 29 -72 55 -72 57 0 3 12 21 26 40 l26
34 72 -56 71 -55 8 83 c10 110 9 108 54 101 21 -3 40 -7 42 -10z m-370 -499
c3 -2 0 -41 -6 -87 -6 -45 -10 -84 -8 -86 3 -2 39 13 81 33 42 20 78 35 79 34
15 -18 35 -72 28 -79 -4 -4 -42 -22 -83 -40 -41 -17 -76 -32 -78 -34 -1 -1 29
-24 68 -51 38 -27 70 -53 70 -57 0 -10 -42 -67 -50 -67 -4 0 -35 22 -71 50
-35 27 -67 50 -71 50 -5 0 -8 -17 -8 -37 0 -21 -3 -62 -6 -90 l-7 -53 -39 0
c-24 0 -41 5 -44 14 -3 8 0 49 6 91 6 42 10 78 8 80 -2 1 -40 -14 -84 -35
l-82 -38 -16 41 c-9 22 -15 42 -13 43 1 1 40 18 86 37 l84 35 -71 52 c-40 29
-72 55 -72 58 0 3 12 20 26 39 l25 33 72 -55 72 -56 8 83 c10 112 10 110 54
102 21 -4 40 -8 42 -10z m-370 -500 c3 -2 0 -41 -6 -87 -6 -45 -10 -83 -8 -85
1 -1 37 13 80 33 43 19 79 34 81 32 2 -2 10 -20 19 -40 l15 -37 -57 -25 c-32
-14 -71 -31 -86 -38 l-29 -13 63 -44 c34 -25 67 -48 73 -52 9 -6 -32 -78 -45
-78 -3 0 -34 22 -70 50 -35 27 -67 50 -70 50 -4 0 -10 -40 -13 -90 l-8 -90
-39 0 c-50 0 -54 11 -40 107 6 42 10 77 9 79 -2 1 -36 -13 -77 -32 -40 -19
-78 -34 -82 -34 -7 0 -39 62 -39 75 0 2 36 17 80 35 44 18 80 36 80 41 0 4
-29 29 -65 54 -36 26 -65 49 -65 52 0 4 12 21 26 40 l26 34 64 -51 c35 -27 68
-50 72 -50 5 0 13 41 17 91 l7 90 41 -6 c23 -4 44 -9 46 -11z"/>
<path d="M2618 9275 c-112 -28 -268 -123 -346 -211 l-49 -54 -58 26 c-98 45
-218 29 -301 -39 -48 -40 -58 -69 -39 -113 13 -32 13 -38 -5 -72 -25 -47 -25
-108 0 -149 23 -38 48 -53 109 -62 l46 -8 -59 -56 -60 -57 75 0 c41 0 88 4
105 9 l31 9 16 -80 c29 -148 112 -286 222 -369 l55 -41 0 -197 0 -196 -128
-23 c-272 -48 -376 -87 -466 -172 -107 -101 -160 -245 -206 -555 -40 -270 -41
-251 19 -259 l49 -6 6 -103 c3 -56 11 -203 17 -327 16 -347 40 -476 129 -703
66 -166 140 -282 191 -299 8 -3 -2 -26 -28 -64 -119 -177 -230 -399 -264 -533
-20 -78 -25 -215 -10 -303 l8 -48 -263 0 c-157 0 -284 -5 -316 -11 -160 -34
-288 -162 -316 -317 -7 -38 5 -358 44 -1175 29 -617 54 -1126 54 -1130 0 -4
51 -7 112 -6 l112 1 38 -443 c20 -244 37 -454 37 -466 l1 -23 -370 0 -370 0 0
-25 0 -25 1915 0 1915 0 97 -45 c121 -57 139 -56 135 3 l-3 44 1533 -4 c843
-2 2772 -2 4286 0 l2752 2 0 25 0 25 -455 0 c-279 0 -455 4 -455 9 0 17 130
836 135 849 3 8 30 12 85 12 l80 0 0 175 0 175 -340 0 -340 0 1 33 c0 17 6 77
12 132 l12 100 120 61 c354 179 649 424 828 687 48 70 112 187 103 187 -13 0
-199 -86 -266 -123 -255 -139 -518 -365 -692 -596 -43 -56 -78 -98 -78 -94 0
4 16 118 35 253 23 157 40 246 48 249 36 11 264 136 342 186 297 192 552 452
669 683 14 29 22 52 17 52 -16 0 -206 -88 -281 -130 -179 -102 -320 -210 -476
-365 -89 -88 -196 -213 -246 -285 -14 -21 -16 -22 -13 -5 3 11 23 118 46 238
l41 217 117 58 c388 194 711 479 886 780 26 45 45 85 42 88 -7 7 -166 -64
-267 -119 -243 -132 -483 -335 -663 -562 -44 -55 -81 -101 -82 -103 -5 -5 11
63 66 289 l50 206 39 22 c81 45 283 205 394 311 204 197 329 361 422 555 56
116 72 165 57 165 -17 0 -214 -129 -302 -198 -171 -133 -361 -339 -483 -525
-28 -42 -53 -76 -54 -74 -8 8 57 212 74 231 57 65 183 268 256 414 124 245
203 486 231 700 16 121 20 242 8 242 -5 -1 -40 -44 -79 -98 -223 -306 -359
-622 -433 -1006 -12 -59 -21 -120 -21 -136 0 -17 -14 -74 -31 -127 l-32 -98
-22 115 c-92 465 -271 888 -492 1162 -31 38 -58 66 -61 64 -7 -8 15 -172 44
-317 72 -367 225 -741 424 -1037 39 -57 70 -107 70 -111 0 -17 -97 -361 -103
-367 -4 -4 -7 1 -7 12 0 34 -90 315 -147 459 -123 312 -264 551 -447 756 l-66
74 -2 960 -3 960 -22 40 c-24 46 -55 76 -99 98 -28 15 -259 16 -2285 19
l-2254 3 -46 -21 c-25 -12 -58 -34 -73 -50 -60 -65 -57 2 -54 -1300 l3 -1191
30 -49 c20 -31 47 -58 75 -74 l45 -25 1805 -2 1804 -2 24 -113 c45 -219 144
-473 253 -652 33 -56 89 -176 89 -193 0 -2 -39 28 -87 65 -167 132 -386 260
-573 337 -92 37 -272 82 -360 90 l-75 6 65 -61 c279 -260 647 -457 1003 -535
42 -9 77 -18 77 -20 0 -1 29 -68 64 -148 l64 -145 -97 63 c-325 211 -665 336
-956 352 -141 7 -141 9 -6 -91 294 -219 667 -374 1011 -421 107 -14 92 1 195
-205 l94 -189 -107 68 c-147 93 -237 141 -375 201 -222 95 -452 150 -628 150
l-73 0 65 -51 c322 -253 725 -422 1131 -474 l47 -6 62 -112 c34 -62 89 -157
121 -211 32 -54 57 -100 56 -101 -2 -2 -45 23 -97 56 -293 184 -618 305 -886
329 -156 14 -161 14 -144 -6 8 -9 47 -42 89 -74 290 -219 648 -372 998 -426
59 -9 113 -18 120 -20 6 -2 30 -32 52 -66 l40 -63 -390 -3 -390 -2 0 -175 0
-175 85 0 c80 0 85 -1 90 -22 7 -30 135 -825 135 -838 0 -7 -286 -10 -835 -10
l-835 0 0 440 0 440 50 0 50 0 0 125 0 125 168 2 167 3 3 458 2 457 50 0 50 0
0 150 0 150 -1545 0 -1545 0 0 -150 0 -150 60 0 60 0 0 -435 0 -435 -275 0
-275 0 0 -150 0 -150 60 0 60 0 -2 -437 -3 -438 -1047 -3 -1046 -2 -96 127
c-93 125 -130 169 -222 264 -24 26 -44 51 -44 56 0 5 39 82 86 172 74 141 84
165 70 173 -14 8 -15 12 -1 38 18 35 15 34 61 15 l35 -14 18 42 c10 23 39 97
66 164 27 68 50 121 52 120 2 -2 7 -77 12 -166 5 -90 12 -165 14 -167 3 -3
275 -2 606 2 513 6 601 9 601 22 0 30 -35 71 -95 111 -61 40 -245 131 -337
167 -27 11 -48 22 -48 27 0 4 -10 7 -22 7 -13 1 -43 11 -68 23 l-45 22 3 84 4
85 44 42 c55 54 66 90 35 115 -21 17 -25 17 -52 4 -29 -15 -29 -15 -29 15 0
18 -5 30 -13 30 -14 0 -27 120 -27 246 0 50 1 52 31 58 17 3 42 6 55 6 l24 0
-5 123 c-3 67 -10 304 -15 527 -21 802 -43 1272 -65 1381 -7 37 -23 85 -34
107 -12 23 -21 44 -21 47 0 3 131 5 290 5 160 0 290 2 290 4 0 3 41 286 90
630 l91 626 -19 43 c-14 32 -30 48 -57 61 -36 17 -72 18 -552 14 -282 -2 -513
-2 -513 2 0 12 167 169 194 181 18 9 33 25 37 42 4 15 19 37 33 48 14 11 28
28 31 39 3 10 16 22 28 26 12 4 25 12 29 18 4 6 8 65 7 131 0 117 14 264 27
288 4 7 58 92 121 189 64 99 113 185 111 195 -6 31 -50 38 -161 24 -150 -18
-184 -29 -212 -65 -43 -57 -498 -760 -502 -776 -3 -10 6 -21 23 -29 26 -11 26
-13 8 -25 -63 -43 -247 -137 -253 -130 -5 5 -74 130 -154 277 -122 223 -145
271 -136 286 10 14 -5 44 -86 177 -145 235 -188 296 -247 349 -76 69 -149 99
-348 143 l-175 38 -3 80 -3 80 58 26 c112 52 175 124 217 249 28 83 46 225 46
356 0 78 4 97 34 167 68 157 70 297 6 434 -36 77 -61 108 -154 191 -121 108
-251 155 -461 165 -79 4 -126 2 -167 -9z m270 -101 c108 -67 152 -106 152
-135 0 -26 -60 -98 -103 -123 -23 -14 -64 -30 -92 -37 -84 -20 -121 -44 -139
-89 -9 -22 -16 -49 -16 -61 0 -11 -7 -35 -15 -55 -12 -28 -26 -40 -77 -64 -83
-37 -115 -70 -124 -126 -11 -73 -26 -84 -110 -77 l-71 5 -13 56 c-9 43 -10 87
0 206 7 83 18 170 25 193 40 125 222 301 365 353 85 30 100 27 218 -46z m65
50 c62 -14 177 -57 177 -66 0 -2 -25 -1 -56 1 -32 1 -59 -2 -63 -7 -6 -11
-141 66 -141 81 0 9 0 9 83 -9z m-428 -36 c-62 -44 -191 -185 -220 -240 -16
-32 -33 -54 -37 -50 -3 4 -10 24 -14 45 -6 38 -5 40 67 111 44 43 105 90 149
114 83 46 101 53 55 20z m685 -104 c135 -74 224 -276 191 -435 -7 -34 -17 -73
-23 -87 -10 -24 -12 -17 -23 65 -17 127 -44 177 -174 319 -60 65 -117 132
-127 148 l-17 29 61 -5 c39 -4 79 -16 112 -34z m-1057 -86 c42 -21 45 -28 19
-52 -26 -23 -70 -113 -87 -177 -20 -75 -20 -173 1 -190 23 -19 34 4 34 77 0
33 7 85 16 115 17 59 63 149 75 149 12 0 29 -70 29 -121 0 -112 -80 -225 -187
-262 -75 -27 -90 -21 -60 23 28 42 60 120 52 128 -3 3 -16 -5 -29 -17 -15 -15
-42 -25 -70 -28 -40 -5 -48 -2 -76 25 -42 43 -43 101 0 144 32 31 39 58 17 58
-21 0 -36 41 -24 67 5 11 31 33 57 47 87 47 158 52 233 14z m1122 -229 l28
-52 -30 22 c-46 35 -94 38 -128 9 -44 -38 -29 -54 56 -61 46 -4 78 -2 86 5 24
19 28 -23 28 -287 0 -290 -12 -381 -65 -484 -33 -67 -103 -135 -168 -163 -89
-40 -281 -3 -426 82 -37 22 -70 40 -72 40 -15 0 52 -103 89 -137 74 -69 154
-102 281 -118 l49 -7 -6 -77 c-8 -123 -54 -190 -151 -221 -53 -17 -142 -9
-199 19 -55 27 -151 112 -209 184 l-38 49 0 244 c0 202 2 244 14 244 8 0 17 7
20 16 10 27 26 236 20 261 -5 16 0 31 14 46 27 31 42 62 42 90 0 37 33 72 92
97 29 12 60 28 68 35 9 8 56 17 118 21 73 5 105 11 109 21 14 37 -73 72 -139
55 l-39 -10 7 36 c10 64 33 84 128 113 98 30 142 60 186 124 l31 44 88 -94
c48 -52 100 -118 116 -146z m-1041 -191 c-4 -42 0 -85 10 -127 14 -61 14 -65
-6 -91 -11 -16 -26 -52 -32 -81 l-12 -52 -28 62 c-15 35 -35 97 -44 139 l-15
77 64 66 c35 37 65 67 67 68 1 0 0 -27 -4 -61z m176 -243 c7 -22 9 -64 5 -113
-10 -121 -10 -122 -51 -122 -50 0 -93 26 -110 65 -28 69 -11 168 33 194 10 6
39 11 65 11 44 0 47 -2 58 -35z m385 -595 c33 -11 93 -26 133 -32 48 -8 72
-16 72 -25 0 -22 -26 -26 -96 -14 -75 14 -135 39 -179 77 -34 29 -28 28 70 -6z
m-412 -207 c60 -84 171 -184 246 -221 67 -33 83 -37 150 -37 87 0 140 22 186
77 25 30 36 50 63 119 l10 27 184 -42 c299 -68 318 -84 552 -461 47 -76 86
-143 86 -150 0 -27 -253 -240 -272 -229 -4 3 -8 20 -8 37 0 44 -43 230 -70
300 -20 54 -42 78 -57 64 -3 -4 8 -59 25 -124 58 -219 65 -285 63 -638 -1
-176 -6 -405 -10 -508 l-8 -188 -38 -39 c-22 -22 -48 -40 -60 -40 -26 0 -1154
245 -1161 252 -3 3 -17 195 -32 426 -15 231 -30 423 -33 426 -3 3 -143 18
-312 34 -169 16 -310 31 -312 34 -12 12 55 408 84 498 79 248 171 320 486 384
94 19 179 35 191 35 13 1 31 -13 47 -36z m2790 -390 c-31 -49 -70 -110 -87
-137 -27 -43 -31 -46 -39 -28 -13 28 -45 34 -67 12 -10 -10 -27 -59 -40 -116
-34 -156 -26 -147 -92 -113 -32 16 -52 20 -85 15 -24 -3 -43 -4 -43 -1 0 12
272 416 283 420 6 2 26 6 44 9 29 5 32 3 30 -22 -2 -21 3 -28 20 -30 28 -4 50
32 33 53 -11 14 -9 15 83 23 13 2 3 -19 -40 -85z m6093 30 c57 -40 68 -81 72
-245 l4 -148 -2372 0 -2372 0 4 153 c3 137 5 156 26 189 13 20 41 45 65 57
l42 21 2250 -2 2250 -3 31 -22z m-6266 -365 c-7 -70 -16 -128 -20 -128 -4 0
-14 8 -23 18 -14 15 -13 27 9 127 14 61 27 117 30 125 15 36 16 -20 4 -142z
m-980 -318 c76 -140 145 -262 152 -271 12 -15 29 -8 178 77 229 129 211 124
261 79 23 -20 67 -48 98 -62 31 -14 58 -26 60 -28 2 -2 -34 -44 -80 -94 l-83
-90 -280 -3 c-303 -3 -307 -4 -340 -59 -9 -15 -25 -85 -36 -154 -10 -70 -21
-129 -23 -131 -2 -2 -20 8 -41 22 -50 34 -99 112 -207 328 l-89 180 0 140 1
141 71 50 c39 28 98 76 132 107 55 51 62 55 74 40 7 -9 76 -132 152 -272z
m832 229 c44 -22 60 -38 108 -106 23 -32 30 -53 30 -87 0 -42 -2 -46 -25 -46
-14 0 -25 6 -25 13 0 7 -21 33 -46 57 -25 25 -61 66 -79 91 -30 40 -41 47 -91
58 -58 13 -61 26 -9 34 66 9 98 6 137 -14z m6486 -995 l2 -1007 -25 -43 c-16
-28 -39 -49 -68 -63 -41 -20 -58 -21 -399 -21 l-356 0 -32 58 c-43 76 -126
195 -152 218 l-21 19 7 -110 c4 -60 9 -128 12 -149 l6 -39 -1798 7 c-1660 7
-1801 9 -1828 24 -39 23 -65 60 -76 108 -9 38 -14 1996 -6 2005 2 2 1068 3
2368 2 l2363 -2 3 -1007z m-6577 920 c6 -8 8 -14 5 -14 -9 0 -66 29 -66 34 0
9 51 -8 61 -20z m-29 -38 c88 -41 188 -131 188 -169 0 -18 -7 -28 -28 -35 -26
-9 -35 -4 -102 47 -83 64 -175 164 -165 180 10 17 29 13 107 -23z m-2769 -32
c173 -15 207 -21 207 -33 0 -31 52 -836 55 -839 1 -1 266 -60 588 -130 323
-71 589 -130 592 -133 4 -5 29 -119 48 -225 l6 -31 -334 -5 c-373 -6 -998 6
-1090 21 -51 9 -65 16 -92 47 -62 70 -157 292 -202 472 -27 105 -38 209 -51
467 -5 121 -13 265 -16 319 l-6 99 44 -6 c23 -3 136 -13 251 -23z m2686 -46
c34 -38 40 -48 25 -48 -11 0 -41 14 -67 31 -48 29 -48 31 -31 50 10 11 20 18
24 17 3 -2 25 -24 49 -50z m46 -88 c29 0 47 -9 82 -40 25 -22 54 -40 64 -40
11 0 19 -5 19 -11 0 -19 -104 -3 -168 26 -53 24 -142 98 -142 118 0 5 24 -5
54 -22 33 -19 67 -31 91 -31z m-170 20 c3 -5 -1 -10 -10 -10 -9 0 -13 5 -10
10 3 6 8 10 10 10 2 0 7 -4 10 -10z m-760 -605 c10 -16 34 -46 52 -66 l34 -36
-43 -6 c-95 -14 -133 -26 -148 -47 -31 -45 -79 -95 -85 -89 -3 4 -3 138 1 298
l7 292 82 -158 c44 -87 89 -171 100 -188z m1955 200 c17 -9 33 -27 37 -43 7
-29 7 -29 -97 -741 -38 -266 -70 -486 -70 -488 0 -1 -378 -3 -840 -3 -533 0
-840 4 -840 10 0 5 38 238 84 517 47 279 93 561 103 626 l18 117 235 1 c269 2
1209 14 1288 17 31 1 65 -4 82 -13z m-1650 -21 c0 -3 -43 -263 -95 -577 -52
-315 -97 -596 -101 -625 l-7 -52 -441 2 c-384 3 -441 5 -441 18 0 13 56 16
422 20 232 3 424 8 428 12 4 4 47 271 95 594 73 488 91 590 106 601 19 14 34
17 34 7z m8684 -376 c-23 -224 -97 -468 -218 -713 -76 -153 -212 -385 -226
-385 -12 0 -9 50 11 160 40 220 113 438 216 644 74 147 197 345 215 346 4 0 5
-24 2 -52z m-8941 23 c-5 -20 19 -31 70 -31 15 0 27 -6 27 -12 0 -10 -22 -12
-84 -10 -68 3 -84 1 -89 -12 -7 -18 5 -22 96 -31 62 -6 67 -8 67 -30 0 -46 -8
-53 -53 -44 -56 11 -149 11 -166 0 -8 -5 -11 -16 -8 -25 5 -12 21 -16 69 -16
35 0 80 -3 101 -6 34 -6 37 -9 37 -39 l0 -33 -105 -4 c-68 -2 -109 -8 -117
-16 -21 -21 9 -32 95 -32 44 0 77 -4 77 -10 0 -5 -4 -10 -9 -10 -5 0 -43 -32
-85 -71 -50 -46 -88 -74 -110 -79 -33 -7 -110 1 -122 13 -3 3 -16 60 -29 126
l-24 122 42 38 c23 21 75 67 115 101 41 35 78 74 83 87 6 18 16 23 41 23 18 0
40 5 48 10 24 15 39 12 33 -9z m7933 -194 c74 -110 170 -300 229 -452 70 -179
156 -497 179 -665 6 -42 5 -44 -10 -25 -85 109 -255 443 -327 645 -67 186
-161 590 -138 590 3 0 34 -42 67 -93z m-7917 -397 c-16 -107 -29 -201 -29
-208 0 -10 -25 -12 -107 -10 l-107 3 -38 125 c-21 69 -38 127 -38 129 0 2 19
1 43 -2 23 -3 59 -2 80 3 37 8 47 15 161 110 33 27 61 49 62 47 1 -1 -11 -90
-27 -197z m-1029 51 l664 -6 33 -105 c18 -57 35 -117 38 -132 l7 -28 -285 0
-286 0 -21 -27 c-14 -18 -20 -37 -18 -55 l4 -27 -37 30 c-91 72 -230 118 -421
138 -132 15 -210 14 -233 -2 -33 -25 -8 -37 78 -37 91 0 261 -22 351 -45 61
-16 179 -65 173 -72 -2 -2 -48 2 -101 8 -119 14 -243 1 -402 -41 -125 -33
-275 -88 -286 -104 -24 -35 10 -34 130 4 325 105 527 122 722 61 33 -10 63
-15 65 -10 3 5 -2 21 -11 36 -11 17 -12 23 -4 16 11 -10 88 -13 313 -13 234 0
298 -3 295 -12 -5 -15 -89 -74 -163 -114 l-51 -27 -149 62 c-107 44 -151 59
-159 51 -16 -16 4 -29 138 -86 64 -27 116 -51 116 -54 0 -3 -54 -33 -119 -67
-79 -42 -326 -142 -742 -302 l-624 -240 -28 59 c-67 146 -105 403 -78 530 28
129 143 365 274 559 l49 74 52 -8 c28 -4 350 -11 716 -14z m8730 -194 c184
-242 338 -568 450 -952 16 -55 33 -120 39 -145 l10 -45 -31 35 c-127 148 -304
443 -401 670 -77 178 -177 495 -177 558 0 20 20 -2 110 -121z m-44 -267 c107
-303 284 -619 501 -892 l42 -53 -34 -145 c-18 -80 -43 -194 -56 -255 l-23
-110 -13 55 c-95 384 -314 857 -506 1095 -22 28 -67 78 -100 111 -54 56 -65
84 -35 84 22 0 79 52 99 91 16 33 21 67 26 182 l6 141 28 -99 c16 -55 45 -147
65 -205z m1473 188 c-131 -261 -379 -533 -690 -756 -47 -34 -89 -62 -93 -62
-12 0 69 146 140 251 157 235 372 451 598 603 39 25 73 46 78 46 5 0 -10 -37
-33 -82z m-2520 -273 c92 -188 157 -404 192 -640 21 -145 24 -194 10 -180 -18
19 -92 156 -128 237 -97 222 -150 431 -177 708 l-6 55 25 -30 c13 -17 51 -84
84 -150z m-5425 98 c56 -85 67 -161 86 -583 14 -329 49 -1513 45 -1527 -1 -5
-696 -55 -701 -50 -3 3 -12 110 -20 239 -24 405 -84 1271 -92 1331 l-7 59
-457 196 c-252 107 -458 198 -458 201 0 3 28 22 62 41 34 19 79 52 101 72 32
30 50 38 100 46 34 5 344 10 689 11 l628 1 24 -37z m5866 -149 c0 -4 -13 -50
-29 -103 -82 -267 -115 -558 -93 -811 6 -63 9 -116 8 -117 -1 -2 -17 33 -35
77 -26 62 -34 99 -38 162 -13 245 -86 564 -178 781 -7 16 6 17 179 17 102 0
186 -3 186 -6z m345 -71 c28 -130 84 -329 127 -447 102 -280 294 -623 468
-836 25 -30 51 -63 59 -72 11 -15 9 -38 -10 -150 l-24 -133 -7 94 c-7 105 -27
221 -37 221 -8 0 -85 -170 -109 -238 l-14 -43 -55 128 -54 128 1 121 c1 117
-23 331 -39 347 -5 4 -28 -37 -52 -92 -24 -56 -46 -101 -50 -101 -3 0 -29 35
-56 78 l-51 77 0 160 c0 142 -19 316 -36 333 -7 6 -88 -168 -110 -236 -10 -29
-21 -52 -25 -52 -4 0 -18 11 -31 25 -13 14 -25 23 -27 22 -2 -2 4 -38 13 -80
15 -73 14 -81 -5 -159 -37 -149 -52 -270 -58 -456 -3 -100 -8 -181 -10 -179
-2 2 -41 84 -87 181 l-85 177 15 47 c26 85 62 245 79 352 22 140 31 421 16
542 -9 84 -47 252 -66 301 -7 16 4 17 148 17 l156 0 16 -77z m-7416 -139 c251
-107 461 -202 467 -209 6 -8 14 -73 17 -144 8 -168 96 -1426 103 -1468 5 -31
7 -33 48 -33 l44 0 6 -87 c4 -49 10 -103 13 -120 4 -26 2 -33 -11 -33 -16 0
-16 -50 -1 -245 5 -56 1 -71 -72 -253 -43 -107 -83 -196 -89 -199 -8 -3 -630
221 -642 232 -2 2 110 328 249 725 200 575 249 724 238 731 -7 4 -181 69 -386
144 l-373 135 -688 21 c-608 18 -689 23 -706 37 -62 55 -172 236 -189 312 -6
25 2 28 616 264 492 188 650 254 757 311 74 40 137 74 139 74 2 1 209 -87 460
-195z m7492 94 c218 -250 416 -643 537 -1068 17 -58 33 -121 37 -140 l6 -35
-36 40 c-124 138 -341 519 -435 762 -65 168 -149 463 -133 463 3 0 14 -10 24
-22z m-370 -203 c14 -122 7 -391 -15 -525 -21 -127 -66 -319 -75 -325 -11 -6
-28 104 -42 262 -12 141 -6 318 16 470 14 94 61 298 73 318 8 13 29 -83 43
-200z m2004 -77 c-129 -198 -330 -391 -575 -555 -87 -58 -264 -157 -300 -168
l-24 -8 19 29 c49 76 160 208 250 299 117 117 213 197 344 284 98 66 301 175
309 166 3 -2 -8 -24 -23 -47z m-11234 -21 l15 -52 -48 -49 c-45 -45 -62 -86
-37 -86 6 0 31 18 57 40 25 22 46 39 47 38 8 -9 65 -148 70 -170 l7 -28 -496
0 -496 0 0 43 c0 56 47 154 99 206 44 44 119 86 178 100 21 5 162 9 314 10
l276 1 14 -53z m8104 -116 c238 -58 532 -211 783 -411 45 -35 82 -67 82 -71 0
-9 -20 -4 -130 28 -196 57 -384 142 -553 253 -149 97 -301 220 -271 220 5 0
45 -9 89 -19z m1474 -279 c1 -252 -41 -474 -146 -755 -24 -66 -39 -94 -44 -85
-14 21 -10 281 6 408 23 196 80 415 148 574 29 69 35 44 36 -142z m-9725 32
l288 -6 17 -30 c25 -46 105 -150 142 -184 l34 -31 695 -21 695 -20 353 -130
c194 -71 356 -133 361 -138 4 -5 -106 -333 -244 -729 l-252 -720 33 -14 c19
-7 34 -16 34 -20 -1 -35 17 -34 -1402 -67 -760 -18 -1384 -31 -1387 -29 -4 4
-100 2015 -101 2103 l0 53 223 -6 c122 -3 352 -8 511 -11z m11296 -170 c0 -12
-86 -131 -155 -212 -109 -131 -277 -276 -454 -391 -111 -73 -300 -176 -308
-168 -14 14 168 236 293 357 159 154 334 280 519 374 89 45 105 51 105 40z
m-2953 -55 c188 -25 413 -101 618 -208 116 -61 270 -155 320 -196 39 -32 27
-32 -133 0 -259 53 -543 169 -762 313 -92 60 -144 102 -127 102 3 0 41 -5 84
-11z m1469 -124 c32 -52 45 -82 41 -98 -3 -12 -18 -64 -33 -116 -32 -108 -35
-107 -80 15 l-26 73 16 81 c9 44 16 92 16 106 0 36 12 24 66 -61z m163 -132
c2 -232 -76 -599 -171 -810 l-22 -48 -8 90 c-14 165 15 437 68 634 27 101 85
265 106 303 12 22 13 21 19 -22 4 -25 8 -91 8 -147z m-234 -173 l32 -75 -13
-75 c-20 -115 -36 -347 -29 -430 7 -89 12 -95 -101 114 l-80 150 42 105 c24
58 58 152 76 209 18 57 34 98 36 90 3 -7 19 -47 37 -88z m-1070 -77 c162 -31
380 -112 562 -209 137 -73 322 -197 302 -201 -31 -7 -270 47 -406 92 -75 25
-196 74 -267 109 -127 62 -366 211 -366 229 0 9 56 3 175 -20z m1395 -136 l38
-99 -24 -85 c-13 -47 -25 -87 -27 -89 -1 -2 -26 34 -54 80 l-51 83 26 132 c30
152 26 153 92 -22z m179 -61 c2 -219 -44 -468 -130 -711 -64 -180 -68 -179
-69 15 0 203 20 368 64 543 30 114 92 296 113 331 14 21 21 -39 22 -178z m921
69 c-151 -217 -374 -418 -644 -581 -115 -69 -215 -118 -223 -111 -12 12 141
201 257 318 125 126 205 192 346 287 102 68 276 162 300 162 10 0 -1 -23 -36
-75z m-4372 -57 l3 -108 -716 0 -715 0 0 110 0 110 713 -2 712 -3 3 -107z
m1580 0 l3 -108 -51 0 -50 0 -2 -457 -3 -458 -692 -3 -693 -2 0 23 c0 13 -13
236 -30 497 -16 261 -30 507 -30 547 l0 73 773 -2 772 -3 3 -107z m1617 -206
l50 -77 -13 -70 c-7 -38 -16 -166 -20 -283 l-7 -214 -103 172 -103 172 45 111
c48 121 86 232 86 254 0 27 16 11 65 -65z m-3195 41 c0 -10 11 -189 25 -398
14 -209 25 -399 25 -422 l0 -43 -680 0 -680 0 0 440 0 440 655 0 c617 0 655
-1 655 -17z m-3310 -220 c0 -38 3 -106 7 -152 l6 -84 -247 5 c-188 4 -250 8
-256 18 -8 13 -25 228 -19 234 3 3 396 39 487 45 21 1 22 -3 22 -66z m5509 8
c154 -30 340 -97 516 -186 153 -77 365 -207 365 -224 0 -9 -12 -7 -135 15
-271 51 -556 167 -797 326 -65 43 -118 81 -118 83 0 10 74 4 169 -14z m1193
-421 l-18 -175 -40 -3 c-65 -5 -70 11 -30 103 19 43 49 125 68 181 18 57 34
96 35 86 2 -9 -5 -96 -15 -192z m-6745 140 l83 0 0 -90 0 -90 -43 0 c-31 0
-49 -6 -61 -19 -28 -31 -11 -44 45 -37 l49 7 0 -48 c-1 -43 -4 -50 -33 -68
-36 -23 -57 -69 -39 -87 8 -8 20 -3 47 21 41 36 36 34 86 20 38 -12 38 -12 24
-40 -29 -55 -7 -106 24 -59 42 63 43 63 84 46 34 -14 37 -18 27 -36 -15 -28
-9 -74 11 -78 10 -2 21 11 31 37 l16 41 39 -16 c72 -30 191 -93 199 -105 5 -9
-15 -10 -82 -6 -49 4 -281 10 -517 13 -235 4 -429 10 -431 13 -2 3 -9 110 -15
236 -6 127 -14 259 -16 294 l-6 64 197 -6 c109 -4 235 -7 281 -7z m7423 -490
l0 -130 -795 0 -795 0 0 130 0 130 795 0 795 0 0 -130z m-4510 -20 l0 -110
-710 0 -710 0 0 110 0 110 710 0 710 0 0 -110z m1580 0 l0 -110 -50 0 -50 0 0
-460 0 -460 -689 0 -690 0 -5 53 c-13 117 -56 870 -56 975 l0 112 770 0 770 0
0 -110z m-5483 -61 c120 -44 222 -84 226 -88 10 -9 -12 -61 -26 -61 -5 0 -105
50 -223 111 -291 150 -289 154 23 38z m-38 -70 c130 -67 240 -125 246 -130 6
-7 -4 -35 -29 -82 -21 -40 -40 -73 -41 -75 -1 -1 -19 5 -40 14 -42 17 -85 12
-85 -12 0 -8 8 -17 18 -21 9 -3 32 -12 51 -19 l33 -14 -25 -42 c-16 -27 -32
-42 -42 -40 -26 5 -79 -16 -92 -37 -18 -28 5 -45 41 -31 44 16 69 11 94 -20
l23 -29 -21 -11 c-26 -14 -45 -59 -31 -73 6 -6 22 -2 44 12 46 28 59 27 85 -9
13 -16 18 -30 12 -30 -10 0 -50 -58 -50 -73 0 -22 34 -17 60 8 35 34 37 33
113 -68 102 -135 102 -133 -5 -78 -51 27 -255 133 -452 235 -198 103 -365 191
-372 197 -8 7 19 81 105 279 64 148 118 270 120 270 2 0 110 -54 240 -121z
m-299 97 c0 -3 -113 -267 -251 -584 l-19 -44 175 -84 c199 -95 182 -74 168
-216 l-6 -68 -1123 0 -1122 0 -6 93 c-14 215 -37 839 -31 845 3 3 499 18 1103
33 603 14 1100 27 1105 28 4 0 7 -1 7 -3z m-2260 -86 c0 -48 29 -718 35 -812
l6 -88 -116 0 c-103 0 -115 2 -115 18 -1 9 -18 218 -38 465 l-38 447 133 0
133 0 0 -30z m3883 -9 c326 -7 392 -11 376 -25 -2 -2 -253 -6 -556 -10 l-553
-6 0 29 0 30 183 -5 c100 -3 347 -9 550 -13z m2621 -43 c3 -13 14 -183 26
-378 11 -195 23 -383 26 -417 l6 -63 -681 0 -681 0 0 440 0 440 650 0 650 0 4
-22z m4336 1 c0 -5 -29 -196 -65 -423 -36 -227 -65 -416 -65 -419 0 -4 -220
-7 -489 -7 l-488 0 -57 353 c-31 193 -63 387 -70 430 l-13 77 623 0 c433 0
624 -3 624 -11z m-8278 -674 c260 -135 477 -250 482 -255 5 -5 7 -12 4 -15 -5
-5 -983 457 -996 470 -9 8 10 45 23 45 8 0 227 -110 487 -245z m-62 -55 c98
-49 100 -51 100 -85 l0 -35 -109 0 c-61 0 -112 4 -115 9 -9 14 6 161 16 161 4
0 53 -23 108 -50z m205 -105 l50 -23 -57 -1 c-55 -1 -58 0 -58 24 0 30 2 30
65 0z"/>
<path d="M2743 8574 c-43 -37 -34 -49 37 -49 36 0 77 -4 93 -9 23 -7 27 -5 27
11 0 51 -113 84 -157 47z"/>
<path d="M2990 8551 c0 -22 59 -225 87 -297 4 -10 -3 -14 -24 -14 -16 0 -38
-7 -49 -15 -16 -13 -17 -16 -4 -25 8 -5 36 -10 62 -10 40 0 50 4 64 25 15 24
14 31 -37 181 -49 147 -68 184 -90 184 -5 0 -9 -13 -9 -29z"/>
<path d="M3136 8559 c-41 -32 -28 -44 50 -45 38 -1 78 -3 89 -5 34 -7 30 28
-7 51 -43 26 -98 26 -132 -1z"/>
<path d="M2814 8472 c-6 -4 -16 -17 -23 -30 -29 -55 57 -101 93 -50 21 30 20
44 -4 68 -21 21 -47 25 -66 12z m46 -47 c0 -8 -9 -15 -20 -15 -20 0 -26 11
-13 23 12 13 33 7 33 -8z"/>
<path d="M3177 8452 c-33 -37 -11 -92 37 -92 48 0 73 62 38 93 -24 22 -55 21
-75 -1z m53 -37 c0 -8 -7 -15 -15 -15 -8 0 -15 7 -15 15 0 8 7 15 15 15 8 0
15 -7 15 -15z"/>
<path d="M2872 8197 c-5 -7 -13 -39 -17 -73 -9 -86 10 -98 125 -77 31 5 46 14
48 26 2 9 -1 17 -7 17 -6 0 -11 6 -11 14 0 19 -48 56 -72 56 -11 0 -22 9 -25
19 -6 24 -28 34 -41 18z"/>
<path d="M2290 8328 c-25 -28 -41 -82 -33 -119 12 -61 82 -101 113 -64 15 19
3 38 -21 32 -23 -6 -39 19 -39 62 0 45 10 64 26 50 17 -14 34 -3 34 22 0 12
-10 23 -26 29 -33 13 -30 13 -54 -12z"/>
<path d="M6822 7027 c-27 -29 -38 -78 -23 -106 13 -24 61 -51 91 -51 35 0 80
53 80 93 0 72 -100 115 -148 64z m96 -29 c7 -7 12 -24 12 -38 0 -14 -5 -31
-12 -38 -19 -19 -66 -15 -78 7 -23 44 -5 81 40 81 14 0 31 -5 38 -12z"/>
<path d="M7026 7019 c-49 -58 -20 -134 56 -146 32 -5 41 -1 68 25 42 42 42 90
-1 126 -44 37 -90 35 -123 -5z m103 -23 c22 -26 9 -69 -22 -80 -36 -13 -61 2
-65 38 -4 35 14 56 48 56 15 0 33 -6 39 -14z"/>
<path d="M7247 7039 c-11 -6 -25 -26 -33 -45 -12 -29 -12 -39 0 -67 33 -79
145 -69 167 16 18 71 -69 134 -134 96z m93 -59 c11 -26 10 -33 -5 -50 -10 -11
-28 -20 -41 -20 -23 0 -54 33 -54 57 0 21 31 43 60 43 21 0 30 -7 40 -30z"/>
<path d="M9120 6446 c-45 -15 -75 -57 -75 -107 0 -80 100 -131 172 -89 34 20
37 20 61 4 42 -28 107 -23 142 11 l30 29 0 -27 c0 -27 1 -27 71 -27 71 0 104
10 126 39 11 14 12 12 13 -11 l0 -28 88 0 89 0 0 105 0 105 -89 0 c-87 0 -88
0 -88 -25 l0 -24 -36 24 c-30 21 -49 25 -105 25 -68 0 -69 -1 -69 -26 l0 -26
-31 26 c-36 31 -105 35 -144 10 -22 -14 -28 -15 -47 -2 -33 22 -71 26 -108 14z
m66 -77 c3 -6 15 -9 25 -6 15 4 19 0 19 -18 0 -16 -6 -24 -17 -24 -10 0 -32
-3 -50 -7 -26 -5 -32 -2 -38 15 -12 37 41 72 61 40z m190 -15 c8 -31 -6 -47
-37 -42 -43 6 -38 68 5 68 19 0 27 -7 32 -26z m210 2 c8 -32 -2 -46 -32 -46
-21 0 -24 5 -24 35 0 31 3 35 25 35 18 0 26 -7 31 -24z"/>
<path d="M8090 6345 l0 -105 125 0 125 0 0 33 1 32 27 -33 c20 -24 35 -32 60
-32 l32 0 0 70 c0 63 2 70 20 70 18 0 20 -7 20 -70 l0 -70 40 0 40 0 0 70 c0
63 2 70 20 70 18 0 20 -7 20 -70 l0 -70 125 0 c118 0 125 1 125 20 0 11 4 20
10 20 5 0 14 -9 20 -20 8 -16 21 -20 56 -20 l46 0 -20 31 c-18 29 -18 35 -6
65 16 39 7 74 -28 98 -19 14 -61 16 -295 16 l-273 0 0 -37 0 -36 -27 36 -28
36 -117 1 -118 0 0 -105z m167 -17 c-2 -13 -4 -5 -4 17 -1 22 1 32 4 23 2 -10
2 -28 0 -40z m530 0 c-2 -13 -4 -5 -4 17 -1 22 1 32 4 23 2 -10 2 -28 0 -40z
m118 42 c3 -5 -3 -10 -14 -10 -12 0 -21 5 -21 10 0 6 6 10 14 10 8 0 18 -4 21
-10z"/>
<path d="M7073 5974 c-18 -9 -42 -31 -53 -49 -19 -31 -20 -49 -20 -409 0 -423
0 -420 71 -456 38 -20 54 -21 294 -18 l253 3 27 25 c55 52 55 49 55 454 l0
374 -27 33 c-47 55 -68 59 -330 59 -198 0 -244 -3 -270 -16z m558 -53 l29 -29
0 -379 0 -380 -26 -24 c-26 -24 -26 -24 -283 -27 l-257 -3 -27 26 c-16 17 -28
43 -32 68 -3 23 -5 193 -3 378 3 321 4 338 23 359 11 12 29 26 40 31 11 4 129
8 263 8 l244 1 29 -29z"/>
<path d="M7344 5711 c-81 -20 -126 -91 -126 -200 0 -115 46 -178 138 -189 87
-9 154 45 154 125 0 39 -5 50 -35 79 -45 42 -95 52 -152 32 -37 -13 -43 -13
-43 -1 0 24 29 72 51 84 27 14 106 14 123 0 10 -8 16 -5 24 15 16 33 16 33
-10 43 -39 14 -92 19 -124 12z m81 -226 c49 -48 24 -98 -50 -99 -40 -1 -50 3
-68 26 -17 23 -19 31 -9 53 22 48 89 59 127 20z"/>
<path d="M7899 5967 c-69 -46 -70 -48 -67 -469 l3 -376 25 -27 c47 -51 69 -55
332 -55 367 0 343 -34 343 480 0 372 0 375 -22 406 -41 58 -76 64 -342 64
-231 0 -239 -1 -272 -23z m545 -28 c53 -25 56 -46 56 -428 0 -250 -3 -358 -12
-376 -23 -51 -46 -55 -313 -55 l-247 0 -29 29 -29 29 0 374 c0 403 0 407 54
428 33 13 490 12 520 -1z"/>
<path d="M8100 5590 c-52 -65 -96 -130 -98 -144 l-3 -26 100 0 101 0 0 -50 c0
-49 1 -50 30 -50 29 0 30 1 30 50 l0 50 40 0 c38 0 40 2 40 29 0 27 -3 30 -37
33 -37 3 -38 4 -41 46 -3 39 -5 42 -33 42 -28 0 -29 -2 -29 -45 l0 -45 -50 0
c-27 0 -50 3 -50 8 0 4 36 52 80 106 44 54 83 102 86 107 3 5 -12 9 -33 8 -36
0 -42 -5 -133 -119z"/>
<path d="M8740 5972 c-19 -9 -43 -33 -55 -52 -19 -33 -20 -54 -23 -387 -2
-230 1 -366 8 -392 7 -27 23 -50 47 -68 l36 -28 257 -3 c253 -3 256 -3 290 20
69 46 70 50 70 459 0 364 0 366 -23 400 -43 65 -63 69 -332 69 -209 0 -245 -2
-275 -18z m557 -46 l28 -24 3 -380 3 -380 -25 -29 -24 -28 -256 -3 c-176 -2
-262 1 -277 8 -46 25 -49 56 -49 432 1 274 4 358 14 377 26 47 44 50 308 51
247 0 247 0 275 -24z"/>
<path d="M8900 5312 c-30 -5 -45 -12 -45 -22 0 -22 74 -32 208 -27 115 4 153
15 131 37 -12 12 -232 21 -294 12z"/>
<path d="M9572 5970 c-18 -11 -41 -34 -52 -52 -19 -31 -20 -51 -20 -406 0
-422 -1 -415 75 -452 38 -18 63 -20 279 -20 265 0 289 5 326 65 19 31 20 49
20 410 0 425 1 418 -75 455 -38 18 -63 20 -281 20 -221 0 -241 -2 -272 -20z
m560 -49 l33 -29 0 -377 0 -377 -33 -29 -32 -29 -251 0 -251 0 -29 29 -29 29
0 379 0 380 23 20 c12 11 29 23 37 26 8 3 124 6 257 6 l243 1 32 -29z"/>
<path d="M10414 5976 c-17 -8 -42 -29 -55 -47 l-24 -34 -3 -376 -3 -375 23
-35 c44 -65 63 -69 339 -69 239 0 247 1 280 23 68 45 69 51 69 450 0 395 -1
405 -61 448 -33 24 -38 24 -284 26 -195 2 -257 0 -281 -11z m537 -36 c47 -26
49 -46 49 -430 0 -229 -4 -368 -10 -381 -24 -44 -55 -49 -310 -49 -146 0 -249
4 -261 10 -47 26 -49 46 -49 430 0 228 4 368 10 380 24 45 51 49 308 50 149 0
251 -4 263 -10z"/>
<path d="M4745 5515 c-30 -30 -35 -42 -35 -81 0 -39 5 -51 34 -80 28 -28 41
-34 78 -34 120 1 161 153 58 214 -48 28 -94 21 -135 -19z m134 -31 c37 -47 24
-104 -29 -123 -52 -18 -94 9 -106 67 -14 70 90 113 135 56z"/>
<path d="M7400 2505 l0 -85 305 0 305 0 0 85 0 85 -305 0 -305 0 0 -85z m570
5 l0 -50 -265 0 -265 0 0 50 0 50 265 0 265 0 0 -50z"/>
<path d="M7322 2118 l3 -163 388 -3 387 -2 0 165 0 165 -390 0 -390 0 2 -162z
m738 -3 l0 -125 -350 0 -350 0 0 125 0 125 350 0 350 0 0 -125z"/>
<path d="M4700 1880 c-35 -35 -21 -93 24 -104 33 -8 54 1 70 33 32 62 -45 120
-94 71z m66 -31 c8 -14 -21 -43 -35 -35 -6 4 -11 16 -11 27 0 21 34 27 46 8z"/>
<path d="M3720 1290 c-41 -41 -13 -100 48 -100 56 0 81 62 40 100 -28 25 -62
26 -88 0z m68 -41 c4 -19 -27 -34 -41 -20 -14 14 0 43 20 39 10 -2 19 -10 21
-19z"/>
<path d="M6962 1333 l3 -88 303 -3 302 -2 0 90 0 90 -305 0 -306 0 3 -87z
m578 -3 l0 -50 -270 0 -270 0 0 50 0 50 270 0 270 0 0 -50z"/>
<path d="M6890 945 l0 -165 385 0 385 0 0 165 0 165 -385 0 -385 0 0 -165z
m740 0 l0 -125 -350 0 -350 0 0 125 0 125 350 0 350 0 0 -125z"/>
</g>
</svg>
