<svg xmlns="http://www.w3.org/2000/svg" xmlns:xlink="http://www.w3.org/1999/xlink" width="1920" zoomAndPan="magnify" viewBox="0 0 1440 809.999993" height="1080" preserveAspectRatio="xMidYMid meet" version="1.0"><defs><g/></defs><path fill="#1a4b93" d="M 476.136719 608.019531 C 473.886719 612.683594 466.035156 613.5625 461.640625 612.410156 C 448.023438 608.84375 434.734375 604.285156 421.886719 598.46875 C 418.042969 596.710938 414.035156 592.703125 418.042969 588.75 C 421.832031 585.019531 429.464844 584.742188 434.078125 586.828125 C 445.167969 591.824219 456.753906 596.105469 468.339844 599.179688 C 471.964844 600.167969 478.554688 603.023438 476.136719 608.019531 Z M 306.460938 476.050781 C 301.960938 473.085938 294.820312 472.921875 290.042969 475.5 C 279.226562 481.375 268.078125 486.316406 256.492188 490.320312 C 252.484375 491.695312 248.367188 495.59375 251.992188 499.710938 C 255.503906 503.71875 263.082031 504.429688 267.804688 502.785156 C 281.039062 498.226562 293.832031 492.628906 306.132812 485.929688 C 310.527344 483.570312 310.527344 478.792969 306.460938 476.050781 Z M 306.460938 476.050781 " fill-opacity="1" fill-rule="nonzero"/><path fill="#ffbfb6" d="M 271.703125 572.171875 C 262.863281 581.832031 253.199219 590.726562 242.875 598.796875 C 238.429688 602.253906 232.058594 602.804688 226.839844 600.71875 C 223.328125 599.289062 218.605469 594.40625 222.996094 591 C 233.320312 582.929688 242.929688 574.039062 251.824219 564.375 C 255.449219 560.371094 263.355469 560.644531 267.859375 562.457031 C 272.035156 564.101562 275.328125 568.21875 271.703125 572.171875 Z M 391.90625 456.230469 C 387.949219 455.519531 379.21875 455.628906 377.40625 460.625 C 372.960938 472.976562 367.578125 484.941406 361.210938 496.414062 C 356.320312 505.253906 379.109375 508.878906 383.503906 500.917969 C 389.871094 489.445312 395.308594 477.53125 399.703125 465.125 C 401.460938 460.183594 396.132812 457 391.90625 456.230469 Z M 57.332031 546.699219 C 53.378906 546.042969 44.644531 546.097656 42.835938 551.09375 C 38.441406 563.445312 33.003906 575.410156 26.636719 586.882812 C 21.75 595.722656 44.535156 599.34375 48.929688 591.386719 C 55.300781 579.914062 60.734375 568 65.128906 555.59375 C 66.886719 550.652344 61.558594 547.46875 57.332031 546.699219 Z M 57.332031 546.699219 " fill-opacity="1" fill-rule="nonzero"/><path fill="#f19d42" d="M 175.058594 571.074219 C 182.089844 580.902344 159.796875 584.523438 154.632812 577.441406 C 146.617188 566.1875 139.53125 554.386719 133.4375 541.980469 C 131.019531 537.039062 138.433594 534.128906 141.894531 533.691406 C 146.78125 533.03125 153.699219 534.183594 156.0625 539.070312 C 161.550781 550.214844 167.8125 560.917969 175.058594 571.074219 Z M 516.386719 499.929688 C 506.449219 492.464844 497.167969 484.175781 488.601562 475.171875 C 484.871094 471.273438 477.949219 472.261719 473.503906 474.292969 C 470.316406 475.773438 464.167969 480.769531 467.957031 484.777344 C 477.511719 494.769531 487.890625 503.882812 498.925781 512.117188 C 505.898438 517.386719 526.050781 507.230469 516.386719 499.929688 Z M 516.386719 499.929688 " fill-opacity="1" fill-rule="nonzero"/><path fill="#4aa6b8" d="M 143.871094 476.488281 C 140.136719 480.167969 132.394531 480.605469 127.835938 478.410156 C 115.207031 472.316406 103.070312 465.398438 91.648438 457.328125 C 87.53125 454.421875 87.53125 449.972656 91.980469 447.449219 C 96.648438 444.8125 104.058594 444.921875 108.453125 448.050781 C 118.445312 455.078125 128.933594 461.445312 139.972656 466.773438 C 143.761719 468.582031 147.878906 472.480469 143.871094 476.488281 Z M 396.296875 543.570312 C 384.21875 545.492188 371.917969 546.207031 359.671875 546.097656 C 354.289062 546.042969 348.140625 550.160156 345.777344 554.988281 C 343.527344 559.601562 346.109375 563.277344 351.105469 563.332031 C 365.109375 563.445312 379 562.289062 392.839844 560.09375 C 397.835938 559.328125 403.929688 554.496094 404.917969 549.390625 C 406.015625 543.734375 400.46875 542.914062 396.296875 543.570312 Z M 396.296875 543.570312 " fill-opacity="1" fill-rule="nonzero"/><path fill="#1a4b93" d="M 891.773438 616.902344 C 889.519531 621.570312 881.667969 622.449219 877.277344 621.292969 C 863.65625 617.726562 850.367188 613.171875 837.519531 607.351562 C 833.675781 605.59375 829.667969 601.585938 833.675781 597.632812 C 837.464844 593.902344 845.097656 593.628906 849.710938 595.714844 C 860.800781 600.707031 872.386719 604.992188 883.976562 608.066406 C 887.597656 609.054688 894.1875 611.90625 891.773438 616.902344 Z M 722.097656 484.933594 C 717.59375 481.96875 710.457031 481.804688 705.679688 484.382812 C 694.859375 490.257812 683.714844 495.199219 672.128906 499.207031 C 668.117188 500.578125 664 504.476562 667.625 508.59375 C 671.140625 512.601562 678.714844 513.3125 683.4375 511.667969 C 696.671875 507.109375 709.46875 501.511719 721.765625 494.816406 C 726.160156 492.453125 726.160156 487.679688 722.097656 484.933594 Z M 722.097656 484.933594 " fill-opacity="1" fill-rule="nonzero"/><path fill="#ffbfb6" d="M 687.335938 581.054688 C 678.496094 590.71875 668.832031 599.609375 658.507812 607.679688 C 654.0625 611.140625 647.691406 611.6875 642.476562 609.601562 C 638.960938 608.175781 634.238281 603.289062 638.632812 599.886719 C 648.953125 591.816406 658.5625 582.921875 667.460938 573.261719 C 671.085938 569.253906 678.992188 569.527344 683.492188 571.339844 C 687.667969 572.984375 690.960938 577.101562 687.335938 581.054688 Z M 807.539062 465.117188 C 803.585938 464.402344 794.855469 464.511719 793.042969 469.507812 C 788.59375 481.859375 783.210938 493.828125 776.84375 505.300781 C 771.957031 514.136719 794.742188 517.761719 799.136719 509.800781 C 805.507812 498.328125 810.941406 486.414062 815.335938 474.007812 C 817.09375 469.066406 811.765625 465.882812 807.539062 465.117188 Z M 472.964844 555.585938 C 469.011719 554.925781 460.28125 554.980469 458.46875 559.976562 C 454.074219 572.328125 448.640625 584.292969 442.269531 595.769531 C 437.382812 604.605469 460.171875 608.230469 464.5625 600.269531 C 470.933594 588.796875 476.367188 576.882812 480.761719 564.476562 C 482.519531 559.535156 477.191406 556.351562 472.964844 555.585938 Z M 472.964844 555.585938 " fill-opacity="1" fill-rule="nonzero"/><path fill="#f19d42" d="M 590.695312 579.957031 C 597.722656 589.785156 575.429688 593.40625 570.265625 586.324219 C 562.25 575.074219 555.167969 563.269531 549.070312 550.863281 C 546.65625 545.921875 554.066406 543.011719 557.527344 542.574219 C 562.414062 541.914062 569.332031 543.066406 571.695312 547.953125 C 577.1875 559.097656 583.445312 569.800781 590.695312 579.957031 Z M 932.023438 508.8125 C 922.082031 501.347656 912.804688 493.058594 904.238281 484.054688 C 900.503906 480.15625 893.585938 481.144531 889.136719 483.175781 C 885.953125 484.660156 879.800781 489.652344 883.589844 493.660156 C 893.144531 503.652344 903.523438 512.765625 914.558594 521 C 921.535156 526.269531 941.6875 516.113281 932.023438 508.8125 Z M 932.023438 508.8125 " fill-opacity="1" fill-rule="nonzero"/><path fill="#4aa6b8" d="M 559.503906 485.371094 C 555.769531 489.050781 548.027344 489.488281 543.46875 487.292969 C 530.839844 481.199219 518.707031 474.285156 507.285156 466.214844 C 503.164062 463.304688 503.164062 458.859375 507.613281 456.332031 C 512.28125 453.699219 519.695312 453.808594 524.085938 456.9375 C 534.082031 463.964844 544.570312 470.332031 555.605469 475.65625 C 559.394531 477.46875 563.511719 481.363281 559.503906 485.371094 Z M 811.929688 552.457031 C 799.851562 554.375 787.550781 555.089844 775.304688 554.980469 C 769.925781 554.925781 763.773438 559.042969 761.414062 563.875 C 759.160156 568.484375 761.742188 572.164062 766.738281 572.21875 C 780.742188 572.328125 794.632812 571.175781 808.472656 568.980469 C 813.46875 568.210938 819.5625 563.378906 820.550781 558.273438 C 821.652344 552.621094 816.105469 551.796875 811.929688 552.457031 Z M 811.929688 552.457031 " fill-opacity="1" fill-rule="nonzero"/><path fill="#1a4b93" d="M 1308.957031 616.902344 C 1306.707031 621.570312 1298.851562 622.449219 1294.460938 621.292969 C 1280.84375 617.726562 1267.554688 613.171875 1254.703125 607.351562 C 1250.859375 605.59375 1246.851562 601.585938 1250.859375 597.632812 C 1254.648438 593.902344 1262.28125 593.628906 1266.894531 595.714844 C 1277.988281 600.707031 1289.574219 604.992188 1301.160156 608.066406 C 1304.785156 609.054688 1311.375 611.90625 1308.957031 616.902344 Z M 1139.28125 484.933594 C 1134.777344 481.96875 1127.640625 481.804688 1122.863281 484.382812 C 1112.046875 490.257812 1100.898438 495.199219 1089.3125 499.207031 C 1085.304688 500.578125 1081.183594 504.476562 1084.808594 508.59375 C 1088.324219 512.601562 1095.902344 513.3125 1100.625 511.667969 C 1113.859375 507.109375 1126.652344 501.511719 1138.953125 494.816406 C 1143.34375 492.453125 1143.34375 487.679688 1139.28125 484.933594 Z M 1139.28125 484.933594 " fill-opacity="1" fill-rule="nonzero"/><path fill="#ffbfb6" d="M 1104.523438 581.054688 C 1095.683594 590.71875 1086.019531 599.609375 1075.695312 607.679688 C 1071.246094 611.140625 1064.875 611.6875 1059.660156 609.601562 C 1056.144531 608.175781 1051.421875 603.289062 1055.816406 599.886719 C 1066.140625 591.816406 1075.75 582.921875 1084.644531 573.261719 C 1088.269531 569.253906 1096.175781 569.527344 1100.679688 571.339844 C 1104.851562 572.984375 1108.148438 577.101562 1104.523438 581.054688 Z M 1224.722656 465.117188 C 1220.769531 464.402344 1212.039062 464.511719 1210.226562 469.507812 C 1205.777344 481.859375 1200.398438 493.828125 1194.027344 505.300781 C 1189.140625 514.136719 1211.929688 517.761719 1216.320312 509.800781 C 1222.691406 498.328125 1228.128906 486.414062 1232.519531 474.007812 C 1234.277344 469.066406 1228.953125 465.882812 1224.722656 465.117188 Z M 890.148438 555.585938 C 886.195312 554.925781 877.464844 554.980469 875.652344 559.976562 C 871.261719 572.328125 865.824219 584.292969 859.453125 595.769531 C 854.566406 604.605469 877.355469 608.230469 881.75 600.269531 C 888.117188 588.796875 893.554688 576.882812 897.945312 564.476562 C 899.703125 559.535156 894.378906 556.351562 890.148438 555.585938 Z M 890.148438 555.585938 " fill-opacity="1" fill-rule="nonzero"/><path fill="#f19d42" d="M 1007.878906 579.957031 C 1014.90625 589.785156 992.613281 593.40625 987.453125 586.324219 C 979.433594 575.074219 972.351562 563.269531 966.257812 550.863281 C 963.839844 545.921875 971.253906 543.011719 974.710938 542.574219 C 979.601562 541.914062 986.519531 543.066406 988.878906 547.953125 C 994.371094 559.097656 1000.628906 569.800781 1007.878906 579.957031 Z M 1349.207031 508.8125 C 1339.269531 501.347656 1329.988281 493.058594 1321.421875 484.054688 C 1317.6875 480.15625 1310.769531 481.144531 1306.320312 483.175781 C 1303.136719 484.660156 1296.988281 489.652344 1300.773438 493.660156 C 1310.328125 503.652344 1320.707031 512.765625 1331.746094 521 C 1338.71875 526.269531 1358.871094 516.113281 1349.207031 508.8125 Z M 1349.207031 508.8125 " fill-opacity="1" fill-rule="nonzero"/><path fill="#4aa6b8" d="M 976.691406 485.371094 C 972.957031 489.050781 965.214844 489.488281 960.65625 487.292969 C 948.027344 481.199219 935.890625 474.285156 924.46875 466.214844 C 920.351562 463.304688 920.351562 458.859375 924.796875 456.332031 C 929.464844 453.699219 936.878906 453.808594 941.273438 456.9375 C 951.265625 463.964844 961.753906 470.332031 972.789062 475.65625 C 976.578125 477.46875 980.699219 481.363281 976.691406 485.371094 Z M 1229.117188 552.457031 C 1217.035156 554.375 1204.734375 555.089844 1192.492188 554.980469 C 1187.109375 554.925781 1180.960938 559.042969 1178.597656 563.875 C 1176.347656 568.484375 1178.925781 572.164062 1183.925781 572.21875 C 1197.925781 572.328125 1211.820312 571.175781 1225.65625 568.980469 C 1230.652344 568.210938 1236.75 563.378906 1237.738281 558.273438 C 1238.835938 552.621094 1233.289062 551.796875 1229.117188 552.457031 Z M 1229.117188 552.457031 " fill-opacity="1" fill-rule="nonzero"/><g fill="#fd6868" fill-opacity="1"><g transform="translate(828.456907, 515.952547)"><g><path d="M 15.765625 -102.84375 C 15.765625 -84.453125 15.390625 -65.683594 15.765625 -47.292969 C 15.765625 -33.03125 16.140625 -18.765625 16.515625 -4.878906 C 16.890625 1.875 18.765625 3.378906 25.148438 3.378906 C 33.78125 3.003906 42.414062 1.5 51.046875 1.875 C 55.925781 1.875 60.429688 1.5 65.308594 1.5 C 73.941406 1.875 82.574219 2.253906 91.207031 2.628906 C 103.59375 3.003906 115.980469 2.628906 127.992188 1.875 C 130.246094 1.5 132.871094 1.125 134.75 0.375 C 138.125 -0.375 138.878906 -1.5 139.253906 -4.878906 C 139.253906 -5.628906 139.253906 -6.003906 139.253906 -7.132812 C 139.628906 -13.511719 139.628906 -19.894531 140.003906 -26.648438 C 140.378906 -31.152344 140.378906 -35.28125 140.378906 -39.785156 C 140.378906 -43.164062 138.503906 -46.167969 136.25 -46.917969 C 134 -47.292969 132.121094 -47.667969 129.871094 -47.667969 C 124.988281 -48.042969 119.734375 -48.042969 114.480469 -48.417969 C 100.59375 -48.792969 86.703125 -50.671875 72.816406 -50.671875 C 71.316406 -50.671875 70.191406 -50.671875 68.6875 -50.671875 C 67.1875 -50.671875 66.8125 -51.046875 66.8125 -52.546875 C 66.8125 -58.929688 67.1875 -65.683594 67.1875 -72.441406 C 66.8125 -93.085938 66.8125 -114.105469 66.4375 -134.75 C 66.0625 -144.882812 65.308594 -155.394531 65.683594 -165.527344 C 66.0625 -193.679688 64.933594 -221.453125 63.808594 -249.605469 C 63.808594 -253.734375 63.808594 -257.863281 63.808594 -261.992188 C 63.808594 -264.242188 62.308594 -266.121094 59.679688 -266.121094 C 58.179688 -266.496094 56.675781 -266.496094 54.800781 -266.496094 C 44.667969 -266.121094 34.53125 -266.121094 24.023438 -265.746094 C 19.144531 -265.746094 16.890625 -265.367188 16.515625 -258.238281 C 16.140625 -251.855469 16.140625 -245.851562 16.140625 -239.09375 C 15.765625 -235.339844 15.765625 -231.585938 15.390625 -227.835938 C 15.390625 -221.453125 15.015625 -215.074219 15.015625 -209.066406 C 15.015625 -200.058594 15.390625 -191.050781 15.765625 -182.042969 C 15.765625 -155.769531 15.765625 -129.117188 15.765625 -102.84375 Z M 15.765625 -102.84375 "/></g></g></g><g fill="#f4cf5d" fill-opacity="1"><g transform="translate(963.736563, 515.952547)"><g><path d="M 18.390625 -126.492188 C 18.015625 -117.859375 17.640625 -103.59375 17.265625 -89.332031 C 16.890625 -73.566406 16.515625 -58.179688 16.140625 -42.414062 C 15.765625 -31.527344 15.765625 -20.269531 15.390625 -9.007812 C 15.015625 -4.878906 17.265625 -1.875 19.144531 1.125 C 19.519531 1.875 20.644531 2.628906 21.769531 3.003906 C 25.523438 3.753906 29.277344 5.253906 32.65625 5.253906 C 40.160156 5.628906 47.667969 5.628906 54.800781 5.253906 C 61.933594 4.878906 69.0625 4.128906 76.195312 3.753906 C 85.953125 3.753906 96.464844 3.753906 106.222656 3.378906 C 112.980469 3.003906 119.359375 2.253906 125.742188 2.253906 C 138.503906 1.875 150.886719 1.875 163.648438 1.5 C 165.527344 1.5 167.402344 1.5 168.53125 0 C 171.15625 -3.003906 173.035156 -6.003906 173.035156 -10.132812 C 173.410156 -18.765625 171.90625 -27.398438 171.53125 -36.03125 C 171.53125 -39.035156 171.53125 -42.789062 168.15625 -45.042969 C 168.15625 -45.042969 168.15625 -45.417969 167.777344 -45.792969 C 165.902344 -49.171875 162.148438 -51.046875 158.394531 -50.296875 C 156.894531 -50.296875 155.394531 -49.921875 153.890625 -50.296875 C 149.386719 -50.296875 144.507812 -50.671875 140.003906 -50.671875 C 132.871094 -50.296875 125.742188 -49.546875 118.609375 -49.546875 C 105.847656 -49.171875 93.085938 -49.171875 80.699219 -49.171875 C 77.320312 -48.792969 77.320312 -49.171875 77.320312 -52.171875 C 77.320312 -60.054688 77.320312 -67.9375 77.320312 -75.445312 C 76.945312 -89.332031 76.945312 -102.84375 76.945312 -116.355469 C 76.945312 -121.238281 77.320312 -121.238281 82.199219 -121.238281 C 90.832031 -121.988281 99.464844 -122.363281 108.097656 -123.113281 C 115.980469 -123.488281 123.488281 -124.613281 131.371094 -125.363281 C 134.75 -125.363281 138.503906 -125.363281 142.253906 -125.363281 C 145.257812 -125.742188 147.136719 -127.242188 147.136719 -130.621094 C 147.136719 -139.253906 147.136719 -147.511719 146.761719 -155.769531 C 146.761719 -159.523438 146.382812 -163.273438 146.007812 -167.027344 C 145.632812 -169.65625 145.632812 -169.65625 143.007812 -169.65625 C 140.378906 -169.65625 138.125 -169.65625 135.5 -169.65625 C 125.363281 -169.65625 114.855469 -170.03125 104.347656 -169.65625 C 96.089844 -169.65625 87.832031 -169.28125 79.199219 -169.28125 C 76.570312 -169.28125 76.195312 -169.28125 76.195312 -172.285156 C 76.570312 -182.792969 76.945312 -193.300781 76.945312 -204.1875 C 77.320312 -206.441406 77.320312 -206.441406 79.574219 -206.816406 C 88.207031 -207.941406 97.214844 -208.316406 105.847656 -208.691406 C 116.355469 -208.691406 126.492188 -208.691406 137 -209.066406 C 144.507812 -209.441406 152.390625 -209.816406 159.898438 -210.191406 C 162.898438 -210.570312 165.902344 -210.945312 167.777344 -213.570312 C 169.28125 -215.824219 170.40625 -218.449219 170.03125 -221.078125 C 169.65625 -232.714844 169.28125 -244.347656 168.90625 -255.984375 C 168.53125 -262.367188 165.152344 -266.871094 158.394531 -267.246094 C 157.269531 -267.246094 155.769531 -267.246094 155.015625 -266.871094 C 151.265625 -266.121094 147.886719 -266.496094 144.507812 -266.496094 C 137.375 -266.496094 130.246094 -266.871094 123.488281 -266.871094 C 118.984375 -266.871094 114.855469 -267.246094 110.726562 -267.246094 C 94.960938 -267.246094 78.824219 -266.871094 63.058594 -266.871094 C 61.933594 -266.871094 60.804688 -266.496094 59.304688 -266.496094 C 52.546875 -266.496094 45.417969 -266.496094 38.285156 -266.496094 C 34.90625 -266.496094 31.152344 -266.496094 27.777344 -266.496094 C 22.519531 -265.746094 19.894531 -263.117188 19.894531 -257.863281 C 19.519531 -256.359375 19.894531 -255.234375 19.894531 -254.109375 C 19.894531 -248.855469 20.269531 -243.597656 20.269531 -238.34375 C 19.519531 -203.0625 19.144531 -167.777344 18.390625 -126.492188 Z M 18.390625 -126.492188 "/></g></g></g><g fill="#ef811b" fill-opacity="1"><g transform="translate(1118.767269, 515.952547)"><g><path d="M 96.839844 4.503906 C 108.097656 4.503906 118.984375 3.378906 129.492188 -1.875 C 131.746094 -3.378906 134 -4.503906 136.25 -5.628906 C 143.757812 -10.886719 151.640625 -15.765625 157.269531 -23.269531 C 162.523438 -30.402344 167.777344 -37.160156 171.15625 -45.417969 C 178.289062 -61.554688 180.164062 -78.824219 176.789062 -96.464844 C 176.035156 -100.96875 174.160156 -105.847656 172.660156 -110.351562 C 171.53125 -112.980469 170.03125 -115.230469 168.90625 -117.859375 C 166.277344 -123.113281 162.148438 -127.242188 157.644531 -130.621094 C 155.769531 -131.746094 154.640625 -133.621094 152.765625 -135.125 C 150.511719 -137 147.886719 -138.878906 145.632812 -141.128906 C 141.128906 -144.882812 136.25 -147.136719 130.996094 -149.761719 C 125.742188 -152.765625 120.109375 -155.015625 114.855469 -157.644531 C 113.355469 -158.394531 111.476562 -158.769531 109.976562 -159.898438 C 104.347656 -163.273438 97.964844 -166.652344 92.335938 -170.40625 C 88.582031 -172.660156 85.203125 -175.285156 82.574219 -178.664062 C 79.949219 -181.667969 78.445312 -185.046875 78.070312 -188.796875 C 77.695312 -191.800781 78.070312 -195.179688 78.824219 -198.183594 C 79.949219 -201.558594 82.574219 -204.5625 85.578125 -206.816406 C 88.582031 -209.441406 91.960938 -211.320312 95.714844 -211.320312 C 103.59375 -212.070312 111.851562 -212.070312 119.734375 -209.816406 C 124.238281 -208.691406 127.992188 -206.816406 130.996094 -203.4375 C 133.246094 -201.183594 136.25 -199.308594 138.878906 -197.054688 C 139.628906 -196.679688 140.378906 -195.929688 141.128906 -195.929688 C 144.882812 -195.929688 148.261719 -196.304688 150.886719 -198.933594 C 153.515625 -201.558594 156.144531 -204.1875 158.394531 -206.816406 C 162.148438 -211.695312 165.902344 -216.199219 169.65625 -221.078125 C 172.285156 -224.457031 172.660156 -227.835938 170.78125 -231.585938 C 168.53125 -235.339844 165.527344 -238.71875 162.523438 -242.097656 C 158.394531 -247.726562 153.140625 -251.480469 147.511719 -255.234375 C 140.753906 -260.488281 133.246094 -263.492188 125.363281 -265.746094 C 118.984375 -267.621094 112.601562 -268.371094 106.222656 -268.371094 C 94.960938 -267.996094 84.078125 -266.871094 73.941406 -261.617188 C 71.691406 -260.488281 69.4375 -259.363281 67.1875 -257.863281 C 59.304688 -252.984375 51.796875 -247.726562 45.792969 -240.222656 C 40.539062 -233.089844 35.28125 -226.332031 31.90625 -218.074219 C 24.773438 -201.9375 22.894531 -184.667969 26.273438 -167.402344 C 27.398438 -161.398438 29.652344 -155.015625 32.28125 -149.386719 C 34.53125 -144.507812 37.160156 -140.003906 41.289062 -136.25 C 45.042969 -133.246094 48.417969 -129.871094 52.171875 -126.867188 C 56.675781 -123.488281 61.179688 -120.484375 65.683594 -117.109375 C 67.9375 -115.605469 70.191406 -114.480469 72.816406 -113.355469 C 76.570312 -111.476562 80.699219 -108.851562 84.828125 -107.347656 C 91.585938 -105.097656 97.214844 -101.34375 103.21875 -97.964844 C 107.347656 -95.714844 111.101562 -93.085938 114.855469 -90.457031 C 119.359375 -87.457031 122.363281 -83.703125 124.238281 -78.824219 C 126.867188 -70.941406 124.988281 -63.808594 119.359375 -58.554688 C 115.230469 -54.425781 109.976562 -52.546875 104.347656 -50.671875 C 99.839844 -49.546875 95.714844 -49.546875 91.207031 -51.046875 C 86.328125 -52.546875 81.824219 -54.425781 76.945312 -56.300781 C 75.070312 -57.050781 73.566406 -58.179688 71.691406 -59.304688 C 66.0625 -62.308594 62.308594 -67.5625 57.804688 -72.066406 C 56.300781 -74.316406 54.800781 -76.570312 52.921875 -78.824219 C 51.796875 -79.949219 50.671875 -81.824219 48.417969 -81.074219 C 46.167969 -80.699219 44.289062 -79.949219 42.414062 -78.070312 C 39.785156 -75.445312 37.160156 -72.816406 34.15625 -70.566406 C 28.152344 -66.4375 22.894531 -60.804688 17.265625 -56.300781 C 15.390625 -54.800781 14.636719 -52.546875 15.390625 -50.296875 C 16.515625 -47.667969 17.265625 -44.667969 18.765625 -42.414062 C 23.648438 -34.15625 28.902344 -26.273438 36.03125 -19.894531 C 38.285156 -17.640625 40.539062 -15.765625 43.164062 -13.886719 C 45.042969 -12.386719 47.667969 -10.886719 49.921875 -9.382812 C 56.675781 -4.503906 64.183594 -1.125 72.441406 1.125 C 80.324219 3.003906 88.207031 4.878906 96.839844 4.503906 Z M 96.839844 4.503906 "/></g></g></g><g fill="#fd6868" fill-opacity="1"><g transform="translate(129.025809, 522.644642)"><g><path d="M 67.5625 -175.660156 C 67.1875 -175.660156 66.8125 -176.035156 66.8125 -176.035156 C 66.8125 -177.164062 66.8125 -178.289062 66.8125 -179.414062 C 66.8125 -188.796875 66.8125 -198.558594 66.8125 -207.941406 C 66.4375 -216.574219 66.0625 -225.207031 65.683594 -233.464844 C 64.933594 -243.597656 64.558594 -253.359375 64.183594 -263.117188 C 63.808594 -266.496094 62.308594 -267.996094 58.929688 -267.996094 C 55.925781 -267.621094 52.546875 -267.621094 49.546875 -267.621094 C 42.039062 -267.621094 34.15625 -267.996094 26.648438 -267.996094 C 24.773438 -267.996094 22.894531 -267.621094 21.019531 -267.246094 C 18.015625 -266.871094 16.515625 -264.617188 16.515625 -261.238281 C 16.140625 -251.480469 15.765625 -242.097656 16.140625 -232.339844 C 16.140625 -222.953125 16.890625 -213.945312 16.890625 -204.9375 C 16.890625 -186.921875 16.890625 -168.90625 16.515625 -150.886719 C 16.515625 -147.511719 16.515625 -144.507812 16.515625 -141.128906 C 16.140625 -129.117188 15.765625 -117.484375 15.765625 -105.472656 C 15.765625 -94.585938 15.765625 -83.703125 15.765625 -72.816406 C 15.765625 -61.554688 15.390625 -50.671875 15.015625 -39.410156 C 15.015625 -27.398438 15.015625 -15.390625 15.390625 -3.753906 C 15.390625 -2.628906 15.390625 -1.5 15.390625 -0.75 C 15.765625 1.5 16.890625 3.003906 18.765625 3.378906 C 19.894531 3.753906 21.019531 4.128906 21.769531 4.128906 C 30.027344 4.878906 38.285156 6.003906 46.542969 5.628906 C 49.921875 5.253906 53.675781 5.253906 57.429688 5.253906 C 61.554688 4.878906 63.808594 3.003906 64.183594 -1.125 C 64.558594 -3.003906 64.558594 -4.878906 64.933594 -6.757812 C 64.933594 -15.015625 64.558594 -23.648438 64.933594 -31.90625 C 65.308594 -40.914062 66.4375 -49.546875 66.4375 -58.554688 C 66.8125 -71.316406 67.1875 -84.078125 67.5625 -96.839844 C 67.5625 -98.339844 67.5625 -99.839844 68.3125 -100.59375 C 71.316406 -105.097656 74.695312 -109.601562 78.445312 -114.480469 C 79.949219 -111.476562 81.449219 -109.226562 82.953125 -106.972656 C 85.578125 -102.46875 88.582031 -98.339844 90.832031 -93.835938 C 91.960938 -92.710938 92.710938 -91.207031 93.085938 -89.707031 C 96.464844 -81.074219 101.34375 -73.566406 105.847656 -65.308594 C 106.597656 -63.808594 107.722656 -62.683594 108.476562 -61.179688 C 115.980469 -51.046875 122.363281 -40.160156 127.992188 -28.902344 C 130.996094 -23.648438 133.621094 -18.390625 135.875 -13.136719 C 138.125 -8.257812 140.753906 -3.378906 144.132812 1.125 C 145.257812 2.253906 146.382812 3.003906 147.886719 3.003906 C 155.015625 3.378906 162.523438 4.128906 169.65625 4.503906 C 171.15625 4.878906 172.285156 4.878906 173.785156 4.503906 C 180.164062 4.128906 186.546875 3.753906 193.300781 3.378906 C 197.808594 3.003906 200.433594 -1.125 198.558594 -5.253906 C 197.808594 -6.382812 197.429688 -7.507812 196.679688 -8.257812 C 190.675781 -17.265625 185.796875 -26.648438 181.292969 -36.410156 C 180.164062 -38.285156 179.039062 -40.539062 177.914062 -42.414062 C 175.660156 -46.542969 172.660156 -51.046875 170.40625 -55.175781 C 167.777344 -60.429688 165.527344 -66.0625 162.898438 -71.316406 C 162.148438 -73.191406 160.648438 -75.445312 159.523438 -77.695312 C 158.394531 -79.199219 156.894531 -81.074219 155.769531 -82.953125 C 152.390625 -88.582031 149.011719 -94.585938 145.632812 -100.59375 C 141.128906 -108.097656 136.625 -115.605469 132.496094 -123.113281 C 127.992188 -130.996094 123.488281 -139.253906 118.984375 -147.511719 C 117.109375 -150.136719 115.605469 -153.140625 113.730469 -156.144531 C 112.980469 -157.269531 112.980469 -158.394531 114.105469 -159.523438 C 116.355469 -162.148438 118.234375 -164.777344 120.484375 -167.402344 C 124.613281 -172.660156 129.117188 -178.289062 132.871094 -183.917969 C 138.125 -192.550781 143.757812 -200.808594 149.761719 -208.691406 C 152.390625 -212.070312 155.015625 -215.824219 157.269531 -219.203125 C 163.273438 -228.585938 168.90625 -237.59375 174.535156 -246.601562 C 177.164062 -251.105469 179.414062 -255.609375 182.042969 -260.113281 C 183.167969 -261.992188 182.042969 -264.992188 180.539062 -265.367188 C 178.664062 -266.121094 176.789062 -266.496094 174.910156 -266.496094 C 170.40625 -267.246094 165.902344 -267.996094 161.398438 -267.996094 C 152.765625 -267.996094 144.507812 -268.746094 136.25 -267.621094 C 133.621094 -267.246094 131.746094 -266.121094 130.246094 -264.242188 C 127.617188 -260.488281 125.363281 -256.734375 122.738281 -253.359375 C 121.613281 -251.105469 120.484375 -249.230469 119.359375 -247.351562 C 113.355469 -238.34375 107.347656 -229.335938 101.34375 -220.328125 C 98.714844 -216.199219 95.714844 -212.070312 92.710938 -207.941406 C 84.828125 -198.183594 76.570312 -188.796875 69.4375 -178.289062 C 69.0625 -177.164062 68.3125 -176.410156 67.5625 -175.660156 Z M 67.5625 -175.660156 "/></g></g></g><g fill="#edc448" fill-opacity="1"><g transform="translate(314.217923, 528.847274)"><g><path d="M 62.308594 -234.214844 C 61.933594 -234.214844 61.933594 -234.214844 61.933594 -234.214844 C 61.933594 -243.222656 61.933594 -252.605469 61.933594 -261.617188 C 61.933594 -266.121094 60.054688 -267.621094 55.550781 -267.246094 C 52.546875 -266.871094 49.546875 -266.871094 46.917969 -266.871094 C 41.664062 -266.871094 36.03125 -266.871094 30.777344 -266.871094 C 27.398438 -266.871094 24.398438 -266.496094 21.019531 -266.121094 C 18.015625 -265.746094 16.515625 -264.242188 16.140625 -261.238281 C 15.765625 -256.734375 15.390625 -252.230469 15.390625 -247.726562 C 15.390625 -240.597656 15.765625 -233.464844 15.765625 -226.332031 C 15.765625 -216.574219 15.765625 -206.441406 15.765625 -196.304688 C 15.765625 -192.175781 16.140625 -188.046875 16.140625 -183.917969 C 16.140625 -163.273438 16.515625 -142.632812 16.140625 -121.988281 C 16.140625 -106.972656 16.140625 -91.585938 15.390625 -76.195312 C 15.015625 -60.804688 15.015625 -45.042969 15.390625 -29.277344 C 15.765625 -21.769531 15.390625 -13.886719 15.390625 -6.382812 C 15.390625 -4.128906 15.015625 -2.253906 15.015625 0 C 15.015625 3.003906 16.140625 3.753906 19.144531 4.128906 C 19.894531 4.128906 20.644531 4.128906 21.394531 4.128906 C 32.65625 4.128906 43.914062 4.128906 55.175781 3.753906 C 57.050781 3.753906 59.304688 2.628906 60.054688 0 C 60.054688 -0.75 60.429688 -1.875 60.429688 -3.003906 C 60.804688 -15.390625 61.179688 -28.152344 61.554688 -40.914062 C 61.554688 -43.914062 61.933594 -47.292969 61.933594 -50.296875 C 62.308594 -55.925781 62.683594 -61.554688 62.683594 -67.1875 C 63.058594 -81.074219 63.058594 -94.960938 63.058594 -108.476562 C 63.058594 -113.355469 62.683594 -118.234375 62.683594 -123.113281 C 62.308594 -129.871094 61.933594 -137 61.933594 -143.757812 C 61.933594 -150.511719 62.308594 -157.269531 62.308594 -163.648438 C 62.308594 -175.660156 61.933594 -187.296875 61.933594 -198.933594 C 61.933594 -201.558594 62.308594 -204.1875 62.308594 -207.191406 C 62.308594 -216.199219 62.308594 -225.207031 62.308594 -234.214844 Z M 62.308594 -234.214844 "/></g></g></g><g fill="#ef811b" fill-opacity="1"><g transform="translate(369.764136, 522.644642)"><g><path d="M 76.945312 1.5 C 79.574219 1.5 82.199219 1.125 84.828125 1.5 C 94.960938 1.875 104.722656 1.5 114.480469 -0.375 C 119.734375 -1.125 124.613281 -2.253906 129.117188 -4.503906 C 129.871094 -5.253906 130.996094 -5.253906 131.746094 -5.628906 C 142.253906 -10.507812 151.640625 -17.640625 160.273438 -25.523438 C 162.898438 -27.777344 164.777344 -31.152344 167.027344 -33.78125 C 171.90625 -39.035156 175.285156 -45.042969 178.289062 -51.421875 C 181.667969 -58.929688 184.292969 -66.8125 186.546875 -74.695312 C 188.421875 -81.074219 189.550781 -87.832031 191.050781 -94.585938 C 193.679688 -106.222656 194.804688 -118.234375 194.804688 -130.246094 C 194.804688 -138.125 194.054688 -146.382812 193.679688 -154.265625 C 193.300781 -161.398438 192.925781 -168.15625 191.425781 -174.910156 C 190.675781 -180.164062 189.925781 -185.421875 189.550781 -190.675781 C 189.171875 -198.558594 186.921875 -205.6875 183.917969 -212.820312 C 179.789062 -221.078125 174.535156 -228.585938 169.28125 -235.714844 C 165.152344 -240.972656 160.648438 -245.476562 155.015625 -248.476562 C 153.140625 -249.605469 151.265625 -250.730469 149.761719 -251.855469 C 144.132812 -256.734375 137.75 -260.113281 131.746094 -263.867188 C 125.742188 -267.246094 119.734375 -268.746094 112.980469 -267.996094 C 108.476562 -267.246094 103.96875 -266.871094 99.464844 -267.621094 C 97.964844 -267.996094 96.839844 -267.996094 95.335938 -267.996094 C 85.203125 -267.621094 75.070312 -267.246094 64.933594 -267.246094 C 55.550781 -267.246094 46.542969 -267.621094 37.535156 -267.621094 C 33.03125 -267.621094 28.527344 -266.871094 24.023438 -266.121094 C 20.644531 -265.746094 18.390625 -263.492188 18.015625 -260.113281 C 17.640625 -256.734375 17.265625 -253.359375 17.265625 -249.980469 C 17.265625 -245.851562 17.265625 -241.722656 16.890625 -237.59375 C 16.140625 -235.339844 16.515625 -232.714844 16.515625 -230.460938 C 16.515625 -224.832031 17.265625 -219.203125 17.265625 -213.195312 C 17.265625 -206.441406 16.515625 -199.308594 16.515625 -192.175781 C 15.390625 -165.527344 15.015625 -138.503906 15.765625 -111.851562 C 16.140625 -100.21875 16.140625 -88.582031 16.515625 -76.945312 C 16.890625 -62.683594 17.265625 -48.792969 18.015625 -34.90625 C 18.390625 -24.773438 19.144531 -15.015625 19.894531 -5.253906 C 20.269531 -2.253906 22.144531 0 25.148438 0.375 C 27.023438 0.75 28.902344 0.75 30.777344 0.75 C 35.65625 0.75 40.914062 0.75 45.417969 0.75 C 50.296875 1.125 54.800781 1.5 59.679688 1.5 C 65.308594 1.5 71.316406 1.5 76.945312 1.5 Z M 74.695312 -130.246094 C 74.695312 -138.125 74.695312 -145.632812 74.695312 -153.515625 C 74.316406 -169.28125 73.941406 -185.421875 73.566406 -201.183594 C 73.566406 -201.9375 73.566406 -202.6875 73.941406 -203.4375 C 73.941406 -203.8125 74.695312 -204.5625 75.070312 -204.9375 C 76.570312 -205.3125 78.070312 -205.3125 79.574219 -205.3125 C 84.078125 -205.6875 88.582031 -205.6875 93.085938 -205.6875 C 98.714844 -205.6875 103.96875 -204.5625 108.097656 -200.058594 C 109.601562 -198.933594 111.101562 -197.808594 112.601562 -197.054688 C 118.984375 -193.300781 123.113281 -187.296875 125.363281 -180.539062 C 128.367188 -171.90625 130.996094 -163.273438 132.871094 -154.265625 C 135.5 -144.507812 136.625 -134.75 136.25 -124.988281 C 136.25 -121.988281 136.25 -118.609375 136.625 -115.605469 C 136.625 -110.351562 136.25 -105.847656 135.125 -100.96875 C 132.871094 -93.835938 131.371094 -87.078125 128.367188 -80.699219 C 124.238281 -73.191406 118.609375 -67.1875 111.101562 -63.058594 C 104.722656 -60.054688 97.964844 -58.929688 91.207031 -57.804688 C 86.703125 -57.429688 82.199219 -56.675781 77.695312 -56.300781 C 74.695312 -56.300781 74.316406 -56.675781 74.316406 -59.679688 C 74.316406 -72.066406 74.316406 -84.828125 74.316406 -97.589844 C 74.316406 -108.476562 74.695312 -119.359375 74.695312 -130.246094 Z M 74.695312 -130.246094 "/></g></g></g><g fill="#f4cf5d" fill-opacity="1"><g transform="translate(641.414447, 522.644642)"><g><path d="M 185.046875 3.378906 C 187.671875 4.128906 190.300781 3.378906 192.925781 2.628906 C 196.304688 1.875 199.308594 -2.253906 198.933594 -5.628906 C 198.183594 -8.257812 197.429688 -10.886719 196.679688 -13.511719 C 195.554688 -17.640625 194.429688 -21.394531 193.300781 -25.148438 C 192.175781 -30.027344 191.425781 -34.90625 190.300781 -39.410156 C 189.550781 -42.789062 188.796875 -45.792969 188.046875 -49.171875 C 187.296875 -54.800781 186.171875 -60.804688 185.046875 -66.4375 C 182.792969 -76.195312 180.164062 -86.328125 177.539062 -96.089844 C 172.660156 -114.105469 167.777344 -132.496094 163.273438 -150.511719 C 161.023438 -158.394531 158.769531 -166.652344 156.519531 -174.160156 C 153.890625 -183.917969 150.511719 -193.300781 147.511719 -202.6875 C 146.007812 -208.691406 144.132812 -214.320312 143.007812 -220.328125 C 141.503906 -227.082031 140.378906 -234.214844 137.75 -240.597656 C 137.375 -241.722656 137.375 -242.847656 137 -243.972656 C 135.875 -248.855469 134.75 -253.734375 133.246094 -258.613281 C 132.121094 -262.742188 130.246094 -264.617188 125.742188 -264.242188 C 123.488281 -263.867188 121.238281 -264.242188 118.984375 -264.617188 C 116.355469 -264.992188 113.730469 -264.617188 111.101562 -264.242188 C 105.097656 -263.492188 98.714844 -262.367188 92.335938 -261.617188 C 88.957031 -261.238281 85.578125 -260.863281 82.199219 -260.488281 C 80.324219 -260.488281 78.824219 -259.363281 78.070312 -257.488281 C 76.570312 -254.859375 75.070312 -252.230469 74.316406 -249.605469 C 71.691406 -240.597656 69.8125 -231.964844 67.5625 -222.953125 C 66.8125 -219.953125 66.4375 -216.949219 65.308594 -214.320312 C 61.179688 -199.683594 57.050781 -185.046875 52.921875 -170.40625 C 49.546875 -159.144531 46.167969 -148.261719 42.789062 -137 C 39.410156 -124.613281 35.65625 -112.601562 32.28125 -100.59375 C 30.027344 -91.960938 28.152344 -83.328125 26.648438 -74.695312 C 25.148438 -66.4375 23.269531 -58.554688 21.019531 -50.671875 C 19.144531 -45.417969 17.265625 -39.785156 15.390625 -34.15625 C 13.136719 -25.523438 10.886719 -16.515625 8.257812 -7.882812 C 7.132812 -3.753906 7.882812 -0.75 11.636719 1.5 C 12.761719 2.253906 13.886719 3.003906 15.390625 3.003906 C 18.015625 3.378906 20.644531 3.753906 23.648438 3.753906 C 33.40625 3.378906 43.164062 2.628906 52.921875 2.253906 C 55.925781 2.253906 58.554688 1.875 61.554688 1.5 C 63.808594 1.5 65.683594 0 66.4375 -2.253906 C 67.5625 -4.878906 68.6875 -7.507812 69.8125 -10.132812 C 72.066406 -14.636719 73.191406 -19.519531 73.941406 -24.398438 C 74.695312 -29.652344 74.695312 -28.527344 79.199219 -28.527344 C 85.953125 -28.527344 92.710938 -28.527344 99.464844 -28.902344 C 104.722656 -29.277344 110.351562 -30.027344 115.980469 -30.402344 C 121.238281 -30.777344 126.492188 -30.777344 131.746094 -30.777344 C 133.246094 -31.152344 134 -30.402344 134.375 -28.902344 C 134.375 -26.648438 135.125 -24.398438 135.5 -22.144531 C 137 -14.261719 140.378906 -6.757812 143.757812 0.75 C 144.507812 1.875 145.632812 3.003906 147.136719 3.753906 C 150.136719 6.003906 153.515625 6.003906 156.894531 5.628906 C 161.773438 5.253906 166.277344 4.878906 170.78125 4.503906 C 172.285156 4.503906 173.785156 4.128906 175.285156 4.128906 C 178.664062 3.753906 182.042969 3.753906 185.046875 3.378906 Z M 103.96875 -161.773438 C 105.097656 -159.144531 105.472656 -156.144531 106.597656 -153.515625 C 108.476562 -147.886719 110.351562 -142.632812 112.226562 -137.375 C 115.605469 -127.617188 117.859375 -117.109375 120.109375 -106.972656 C 120.859375 -103.59375 122.363281 -100.59375 123.113281 -97.214844 C 123.488281 -96.464844 123.488281 -96.089844 123.863281 -95.335938 C 124.988281 -91.585938 124.988281 -91.585938 120.859375 -91.207031 C 113.730469 -90.082031 106.597656 -90.082031 99.464844 -89.332031 C 96.464844 -89.332031 93.835938 -89.332031 90.832031 -89.332031 C 88.957031 -89.332031 88.582031 -89.332031 88.957031 -91.585938 C 90.082031 -98.714844 91.207031 -105.847656 92.710938 -112.980469 C 95.335938 -126.867188 98.339844 -140.753906 101.34375 -154.265625 C 101.71875 -156.894531 102.46875 -159.523438 103.21875 -161.773438 C 103.59375 -161.773438 103.96875 -161.773438 103.96875 -161.773438 Z M 103.96875 -161.773438 "/></g></g></g><g fill="#68acdd" fill-opacity="1"><g transform="translate(546.473086, 522.644642)"><g><path d="M 100.96875 -120.484375 C 101.34375 -120.484375 101.34375 -120.484375 101.34375 -120.484375 C 101.34375 -121.613281 101.34375 -122.738281 101.71875 -123.863281 C 102.46875 -141.878906 103.21875 -159.898438 103.59375 -178.289062 C 103.96875 -189.171875 103.59375 -200.433594 103.59375 -211.695312 C 103.59375 -212.820312 103.59375 -213.945312 103.59375 -214.699219 C 103.59375 -216.199219 103.96875 -216.574219 105.472656 -216.574219 C 107.347656 -216.574219 109.601562 -216.574219 111.476562 -216.574219 C 121.613281 -216.949219 132.121094 -218.074219 142.632812 -216.949219 C 143.382812 -216.949219 144.132812 -216.949219 144.882812 -216.949219 C 147.886719 -217.324219 149.011719 -218.824219 149.386719 -221.828125 C 149.386719 -224.457031 149.386719 -227.082031 149.386719 -229.335938 C 149.761719 -239.84375 150.886719 -249.980469 150.511719 -260.113281 C 150.511719 -264.242188 149.386719 -264.992188 145.632812 -264.992188 C 138.878906 -264.992188 132.121094 -264.617188 125.363281 -264.617188 C 97.214844 -264.242188 69.4375 -264.242188 41.289062 -266.121094 C 32.28125 -266.496094 22.894531 -266.121094 13.886719 -265.746094 C 10.886719 -265.367188 9.382812 -264.242188 9.007812 -260.863281 C 7.882812 -249.980469 7.507812 -239.09375 7.507812 -228.210938 C 7.507812 -224.832031 7.882812 -221.828125 8.257812 -218.824219 C 8.632812 -216.949219 9.757812 -215.824219 11.261719 -215.824219 C 12.386719 -215.824219 13.511719 -215.824219 14.636719 -215.824219 C 27.398438 -216.949219 40.160156 -216.574219 52.546875 -216.574219 C 54.800781 -216.574219 54.800781 -216.574219 54.800781 -214.320312 C 55.175781 -209.441406 55.175781 -204.5625 55.175781 -199.308594 C 55.175781 -186.546875 55.175781 -173.785156 54.425781 -160.648438 C 53.300781 -141.878906 52.546875 -123.113281 52.546875 -104.722656 C 52.171875 -84.078125 52.921875 -63.808594 52.921875 -43.539062 C 52.921875 -30.777344 52.921875 -18.015625 52.921875 -5.253906 C 52.921875 -0.75 55.550781 1.875 60.054688 2.628906 C 61.933594 3.003906 64.183594 3.003906 66.4375 3.378906 C 76.195312 4.878906 85.578125 4.128906 94.960938 2.253906 C 97.214844 1.5 99.089844 0 99.089844 -2.628906 C 99.464844 -14.636719 100.21875 -26.648438 100.21875 -38.660156 C 100.59375 -66.0625 100.96875 -93.085938 100.96875 -120.484375 Z M 100.96875 -120.484375 "/></g></g></g></svg>