<svg xmlns="http://www.w3.org/2000/svg" xmlns:xlink="http://www.w3.org/1999/xlink" width="1000" zoomAndPan="magnify" viewBox="0 0 750 202.499994" height="270" preserveAspectRatio="xMidYMid meet" version="1.0"><defs><g/><clipPath id="ca69f7ac35"><path d="M 0.921875 0 L 749.074219 0 L 749.074219 186.195312 L 0.921875 186.195312 Z M 0.921875 0 " clip-rule="nonzero"/></clipPath><clipPath id="8a73dcabeb"><path d="M 39.078125 0 L 710.921875 0 C 731.992188 0 749.078125 17.082031 749.078125 38.15625 L 749.078125 148.042969 C 749.078125 169.113281 731.992188 186.195312 710.921875 186.195312 L 39.078125 186.195312 C 18.007812 186.195312 0.921875 169.113281 0.921875 148.042969 L 0.921875 38.15625 C 0.921875 17.082031 18.007812 0 39.078125 0 Z M 39.078125 0 " clip-rule="nonzero"/></clipPath><clipPath id="fda5cd9a8a"><path d="M 51.226562 16.484375 L 147 16.484375 L 147 113 L 51.226562 113 Z M 51.226562 16.484375 " clip-rule="nonzero"/></clipPath><clipPath id="6228af2a54"><path d="M 127 88 L 192.679688 88 L 192.679688 154.339844 L 127 154.339844 Z M 127 88 " clip-rule="nonzero"/></clipPath><clipPath id="e5a11aecf2"><path d="M 51.226562 16.484375 L 147 16.484375 L 147 113 L 51.226562 113 Z M 51.226562 16.484375 " clip-rule="nonzero"/></clipPath><clipPath id="83a6663b67"><path d="M 127 88 L 192.679688 88 L 192.679688 154.339844 L 127 154.339844 Z M 127 88 " clip-rule="nonzero"/></clipPath></defs><g clip-path="url(#ca69f7ac35)"><g clip-path="url(#8a73dcabeb)"><path fill="#d8d4d3" d="M 0.921875 0 L 749.078125 0 L 749.078125 186.195312 L 0.921875 186.195312 Z M 0.921875 0 " fill-opacity="1" fill-rule="nonzero"/></g></g><g clip-path="url(#fda5cd9a8a)"><path fill="#f2c70f" d="M 137.996094 64.660156 C 137.996094 62.722656 137.851562 60.820312 137.574219 58.960938 L 146.738281 55.753906 L 141.847656 41.816406 L 132.632812 45.042969 C 131.160156 42.5625 129.421875 40.257812 127.449219 38.171875 L 133.242188 30.238281 L 121.308594 21.53125 L 115.4375 29.578125 C 112.582031 28.273438 109.542969 27.304688 106.363281 26.730469 L 106.363281 16.664062 L 91.589844 16.664062 L 91.589844 26.898438 C 88.683594 27.5 85.894531 28.429688 83.265625 29.640625 L 77.300781 21.203125 L 65.234375 29.722656 L 71.285156 38.285156 C 69.5 40.191406 67.902344 42.273438 66.527344 44.511719 L 56.667969 40.789062 L 51.445312 54.601562 L 61.363281 58.347656 C 61.023438 60.402344 60.847656 62.511719 60.847656 64.660156 C 60.847656 66.496094 60.976562 68.296875 61.226562 70.0625 L 51.21875 73.566406 L 56.105469 87.503906 L 66.054688 84.019531 C 67.433594 86.386719 69.058594 88.597656 70.894531 90.613281 L 64.710938 99.082031 L 76.648438 107.789062 L 82.742188 99.4375 C 85.523438 100.773438 88.488281 101.78125 91.589844 102.421875 L 91.589844 112.65625 L 106.363281 112.65625 L 106.363281 102.589844 C 109.34375 102.050781 112.203125 101.164062 114.902344 99.980469 L 120.652344 108.121094 L 132.71875 99.59375 L 127.042969 91.566406 C 128.964844 89.597656 130.675781 87.421875 132.140625 85.078125 L 141.285156 88.53125 L 146.507812 74.71875 L 137.425781 71.285156 C 137.796875 69.132812 137.996094 66.921875 137.996094 64.660156 Z M 137.996094 64.660156 " fill-opacity="1" fill-rule="nonzero"/></g><path fill="#ffffff" d="M 119.445312 64.660156 C 119.445312 65.328125 119.414062 66 119.347656 66.664062 C 119.28125 67.332031 119.183594 67.992188 119.054688 68.652344 C 118.921875 69.308594 118.757812 69.957031 118.566406 70.597656 C 118.371094 71.238281 118.144531 71.871094 117.886719 72.488281 C 117.632812 73.109375 117.34375 73.714844 117.03125 74.304688 C 116.714844 74.894531 116.371094 75.46875 115.996094 76.027344 C 115.625 76.582031 115.226562 77.121094 114.800781 77.640625 C 114.375 78.15625 113.925781 78.652344 113.449219 79.125 C 112.976562 79.601562 112.480469 80.050781 111.960938 80.476562 C 111.445312 80.898438 110.90625 81.296875 110.347656 81.671875 C 109.792969 82.042969 109.21875 82.386719 108.625 82.703125 C 108.035156 83.019531 107.429688 83.304688 106.808594 83.5625 C 106.191406 83.816406 105.5625 84.042969 104.917969 84.238281 C 104.277344 84.433594 103.628906 84.59375 102.96875 84.726562 C 102.3125 84.855469 101.652344 84.953125 100.984375 85.019531 C 100.316406 85.085938 99.648438 85.117188 98.976562 85.117188 C 98.308594 85.117188 97.636719 85.085938 96.972656 85.019531 C 96.304688 84.953125 95.640625 84.855469 94.984375 84.726562 C 94.328125 84.59375 93.675781 84.433594 93.035156 84.238281 C 92.394531 84.042969 91.761719 83.816406 91.144531 83.5625 C 90.523438 83.304688 89.917969 83.019531 89.328125 82.703125 C 88.738281 82.386719 88.164062 82.042969 87.605469 81.671875 C 87.046875 81.296875 86.511719 80.898438 85.992188 80.476562 C 85.472656 80.050781 84.976562 79.601562 84.503906 79.125 C 84.03125 78.652344 83.578125 78.15625 83.15625 77.640625 C 82.730469 77.121094 82.332031 76.582031 81.957031 76.027344 C 81.585938 75.46875 81.242188 74.894531 80.925781 74.304688 C 80.609375 73.714844 80.324219 73.109375 80.066406 72.488281 C 79.808594 71.871094 79.585938 71.238281 79.390625 70.597656 C 79.195312 69.957031 79.03125 69.308594 78.902344 68.652344 C 78.769531 67.992188 78.671875 67.332031 78.605469 66.664062 C 78.542969 66 78.507812 65.328125 78.507812 64.660156 C 78.507812 63.988281 78.542969 63.320312 78.605469 62.65625 C 78.671875 61.988281 78.769531 61.324219 78.902344 60.667969 C 79.03125 60.011719 79.195312 59.363281 79.390625 58.722656 C 79.585938 58.078125 79.808594 57.449219 80.066406 56.832031 C 80.324219 56.210938 80.609375 55.605469 80.925781 55.015625 C 81.242188 54.425781 81.585938 53.851562 81.957031 53.292969 C 82.332031 52.734375 82.730469 52.199219 83.15625 51.679688 C 83.578125 51.164062 84.03125 50.667969 84.503906 50.191406 C 84.976562 49.71875 85.472656 49.269531 85.992188 48.84375 C 86.511719 48.417969 87.046875 48.019531 87.605469 47.648438 C 88.164062 47.277344 88.738281 46.933594 89.328125 46.617188 C 89.917969 46.300781 90.523438 46.015625 91.144531 45.757812 C 91.761719 45.5 92.394531 45.277344 93.035156 45.082031 C 93.675781 44.886719 94.328125 44.722656 94.984375 44.59375 C 95.640625 44.464844 96.304688 44.363281 96.972656 44.300781 C 97.636719 44.234375 98.308594 44.199219 98.976562 44.199219 C 99.648438 44.199219 100.316406 44.234375 100.984375 44.300781 C 101.652344 44.363281 102.3125 44.464844 102.96875 44.59375 C 103.628906 44.722656 104.277344 44.886719 104.917969 45.082031 C 105.5625 45.277344 106.191406 45.5 106.808594 45.757812 C 107.429688 46.015625 108.035156 46.300781 108.625 46.617188 C 109.21875 46.933594 109.792969 47.277344 110.347656 47.648438 C 110.90625 48.019531 111.445312 48.417969 111.960938 48.84375 C 112.480469 49.269531 112.976562 49.71875 113.449219 50.191406 C 113.925781 50.667969 114.375 51.164062 114.800781 51.679688 C 115.226562 52.199219 115.625 52.734375 115.996094 53.292969 C 116.371094 53.851562 116.714844 54.425781 117.03125 55.015625 C 117.34375 55.605469 117.632812 56.210938 117.886719 56.832031 C 118.144531 57.449219 118.371094 58.078125 118.566406 58.722656 C 118.757812 59.363281 118.921875 60.011719 119.054688 60.667969 C 119.183594 61.324219 119.28125 61.988281 119.347656 62.65625 C 119.414062 63.320312 119.445312 63.988281 119.445312 64.660156 Z M 119.445312 64.660156 " fill-opacity="1" fill-rule="nonzero"/><path fill="#d8d4d3" d="M 185.699219 121.5625 C 185.699219 120.296875 185.605469 119.050781 185.421875 117.835938 L 191.417969 115.734375 L 188.21875 106.617188 L 182.191406 108.730469 C 181.230469 107.105469 180.089844 105.597656 178.800781 104.238281 L 182.589844 99.042969 L 174.78125 93.351562 L 170.941406 98.613281 C 169.074219 97.757812 167.085938 97.125 165.007812 96.75 L 165.007812 90.167969 L 155.34375 90.167969 L 155.34375 96.863281 C 153.441406 97.253906 151.617188 97.859375 149.898438 98.652344 L 145.996094 93.132812 L 138.101562 98.707031 L 142.0625 104.308594 C 140.894531 105.554688 139.847656 106.917969 138.949219 108.382812 L 132.5 105.945312 L 129.085938 114.984375 L 135.570312 117.433594 C 135.351562 118.777344 135.234375 120.15625 135.234375 121.5625 C 135.234375 122.765625 135.320312 123.941406 135.480469 125.097656 L 128.933594 127.390625 L 132.132812 136.507812 L 138.640625 134.226562 C 139.542969 135.777344 140.605469 137.222656 141.804688 138.539062 L 137.761719 144.082031 L 145.570312 149.773438 L 149.554688 144.3125 C 151.375 145.183594 153.316406 145.847656 155.34375 146.265625 L 155.34375 152.960938 L 165.007812 152.960938 L 165.007812 146.375 C 166.957031 146.023438 168.828125 145.445312 170.59375 144.667969 L 174.355469 149.992188 L 182.25 144.417969 L 178.535156 139.164062 C 179.792969 137.875 180.910156 136.453125 181.871094 134.921875 L 187.851562 137.179688 L 191.265625 128.140625 L 185.324219 125.898438 C 185.570312 124.488281 185.699219 123.042969 185.699219 121.5625 Z M 160.175781 137.863281 C 151.167969 137.863281 143.867188 130.566406 143.867188 121.5625 C 143.867188 112.558594 151.167969 105.261719 160.175781 105.261719 C 169.183594 105.261719 176.484375 112.558594 176.484375 121.5625 C 176.484375 130.566406 169.183594 137.863281 160.175781 137.863281 Z M 160.175781 137.863281 " fill-opacity="1" fill-rule="nonzero"/><g clip-path="url(#6228af2a54)"><path fill="#321019" d="M 165.007812 154.140625 L 155.34375 154.140625 C 154.691406 154.140625 154.160156 153.613281 154.160156 152.957031 L 154.160156 147.207031 C 152.71875 146.855469 151.304688 146.378906 149.941406 145.785156 L 146.523438 150.472656 C 146.339844 150.722656 146.0625 150.894531 145.75 150.941406 C 145.441406 150.988281 145.125 150.914062 144.871094 150.730469 L 137.0625 145.035156 C 136.808594 144.851562 136.640625 144.574219 136.589844 144.261719 C 136.542969 143.953125 136.621094 143.636719 136.804688 143.382812 L 140.289062 138.605469 C 139.503906 137.675781 138.777344 136.6875 138.125 135.660156 L 132.523438 137.621094 C 131.90625 137.839844 131.230469 137.511719 131.015625 136.898438 L 127.816406 127.777344 C 127.714844 127.484375 127.730469 127.15625 127.867188 126.875 C 128.003906 126.59375 128.246094 126.375 128.542969 126.273438 L 134.191406 124.296875 C 134.097656 123.382812 134.046875 122.46875 134.046875 121.5625 C 134.046875 120.445312 134.121094 119.320312 134.261719 118.203125 L 128.664062 116.089844 C 128.054688 115.859375 127.746094 115.175781 127.976562 114.566406 L 131.390625 105.527344 C 131.503906 105.234375 131.726562 105 132.011719 104.867188 C 132.296875 104.742188 132.625 104.730469 132.917969 104.839844 L 138.46875 106.9375 C 139.101562 105.992188 139.796875 105.082031 140.546875 104.21875 L 137.136719 99.390625 C 136.953125 99.132812 136.882812 98.816406 136.933594 98.507812 C 136.988281 98.199219 137.160156 97.921875 137.417969 97.742188 L 145.3125 92.167969 C 145.84375 91.792969 146.582031 91.917969 146.960938 92.453125 L 150.304688 97.183594 C 151.558594 96.660156 152.847656 96.238281 154.15625 95.917969 L 154.15625 90.164062 C 154.15625 89.511719 154.6875 88.984375 155.339844 88.984375 L 165.003906 88.984375 C 165.660156 88.984375 166.1875 89.511719 166.1875 90.164062 L 166.1875 95.78125 C 167.675781 96.109375 169.132812 96.566406 170.542969 97.148438 L 173.824219 92.652344 C 174.007812 92.398438 174.289062 92.230469 174.597656 92.179688 C 174.910156 92.136719 175.222656 92.210938 175.476562 92.394531 L 183.285156 98.089844 C 183.539062 98.273438 183.710938 98.550781 183.757812 98.859375 C 183.808594 99.171875 183.730469 99.488281 183.546875 99.742188 L 180.324219 104.152344 C 181.191406 105.140625 181.984375 106.195312 182.695312 107.300781 L 187.828125 105.5 C 188.125 105.398438 188.449219 105.417969 188.730469 105.550781 C 189.015625 105.6875 189.230469 105.929688 189.335938 106.226562 L 192.53125 115.34375 C 192.636719 115.640625 192.617188 115.964844 192.480469 116.246094 C 192.347656 116.527344 192.101562 116.746094 191.808594 116.847656 L 186.71875 118.632812 C 186.824219 119.605469 186.878906 120.585938 186.878906 121.558594 C 186.878906 122.75 186.800781 123.949219 186.640625 125.128906 L 191.683594 127.03125 C 192.292969 127.265625 192.601562 127.945312 192.371094 128.558594 L 188.957031 137.59375 C 188.84375 137.886719 188.621094 138.125 188.335938 138.253906 C 188.050781 138.382812 187.726562 138.394531 187.429688 138.28125 L 182.339844 136.359375 C 181.648438 137.378906 180.882812 138.351562 180.054688 139.265625 L 183.210938 143.730469 C 183.589844 144.265625 183.460938 145 182.929688 145.378906 L 175.035156 150.953125 C 174.777344 151.132812 174.460938 151.207031 174.152344 151.152344 C 173.84375 151.101562 173.566406 150.925781 173.386719 150.671875 L 170.171875 146.121094 C 168.875 146.632812 167.542969 147.039062 166.1875 147.339844 L 166.1875 152.957031 C 166.191406 153.613281 165.660156 154.140625 165.007812 154.140625 Z M 156.527344 151.777344 L 163.824219 151.777344 L 163.824219 146.375 C 163.824219 145.804688 164.234375 145.3125 164.796875 145.210938 C 166.621094 144.882812 168.410156 144.335938 170.117188 143.585938 C 170.632812 143.359375 171.234375 143.527344 171.558594 143.988281 L 174.636719 148.34375 L 180.601562 144.132812 L 177.570312 139.847656 C 177.238281 139.382812 177.289062 138.746094 177.6875 138.339844 C 178.886719 137.109375 179.957031 135.746094 180.867188 134.292969 C 181.167969 133.816406 181.761719 133.617188 182.289062 133.816406 L 187.164062 135.65625 L 189.742188 128.832031 L 184.90625 127.003906 C 184.378906 126.804688 184.0625 126.253906 184.160156 125.695312 C 184.394531 124.335938 184.515625 122.945312 184.515625 121.5625 C 184.515625 120.375 184.425781 119.179688 184.253906 118.007812 C 184.167969 117.449219 184.496094 116.90625 185.03125 116.71875 L 189.910156 115.011719 L 187.496094 108.125 L 182.582031 109.847656 C 182.050781 110.035156 181.460938 109.816406 181.171875 109.332031 C 180.261719 107.789062 179.171875 106.347656 177.941406 105.046875 C 177.550781 104.632812 177.507812 104 177.84375 103.539062 L 180.9375 99.300781 L 175.039062 95 L 171.898438 99.308594 C 171.566406 99.761719 170.960938 99.921875 170.449219 99.6875 C 168.648438 98.863281 166.746094 98.265625 164.796875 97.910156 C 164.234375 97.808594 163.824219 97.320312 163.824219 96.75 L 163.824219 91.347656 L 156.523438 91.347656 L 156.523438 96.863281 C 156.523438 97.421875 156.128906 97.90625 155.582031 98.019531 C 153.800781 98.386719 152.058594 98.960938 150.394531 99.726562 C 149.875 99.964844 149.261719 99.800781 148.933594 99.335938 L 145.710938 94.78125 L 139.75 98.992188 L 143.027344 103.628906 C 143.351562 104.085938 143.308594 104.707031 142.925781 105.117188 C 141.804688 106.308594 140.804688 107.617188 139.957031 109 C 139.660156 109.484375 139.0625 109.6875 138.53125 109.488281 L 133.1875 107.46875 L 130.609375 114.292969 L 135.988281 116.328125 C 136.515625 116.527344 136.828125 117.070312 136.738281 117.625 C 136.523438 118.925781 136.414062 120.25 136.414062 121.5625 C 136.414062 122.679688 136.492188 123.8125 136.652344 124.933594 C 136.730469 125.488281 136.402344 126.027344 135.871094 126.210938 L 130.441406 128.113281 L 132.855469 135 L 138.246094 133.109375 C 138.785156 132.925781 139.375 133.140625 139.660156 133.632812 C 140.515625 135.101562 141.53125 136.484375 142.679688 137.742188 C 143.058594 138.15625 143.089844 138.78125 142.761719 139.234375 L 139.414062 143.820312 L 145.308594 148.121094 L 148.601562 143.613281 C 148.9375 143.152344 149.554688 142.996094 150.066406 143.242188 C 151.820312 144.085938 153.675781 144.710938 155.582031 145.105469 C 156.132812 145.21875 156.527344 145.703125 156.527344 146.261719 Z M 160.175781 139.046875 C 150.53125 139.046875 142.683594 131.203125 142.683594 121.5625 C 142.683594 111.921875 150.53125 104.078125 160.175781 104.078125 C 169.820312 104.078125 177.667969 111.921875 177.667969 121.5625 C 177.667969 131.203125 169.820312 139.046875 160.175781 139.046875 Z M 160.175781 106.441406 C 151.835938 106.441406 145.050781 113.226562 145.050781 121.5625 C 145.050781 129.898438 151.835938 136.679688 160.175781 136.679688 C 168.515625 136.679688 175.300781 129.898438 175.300781 121.5625 C 175.300781 113.226562 168.515625 106.441406 160.175781 106.441406 Z M 160.175781 106.441406 " fill-opacity="1" fill-rule="nonzero"/></g><g clip-path="url(#e5a11aecf2)"><path fill="#f2c70f" d="M 137.996094 64.660156 C 137.996094 62.722656 137.851562 60.820312 137.574219 58.960938 L 146.738281 55.753906 L 141.847656 41.816406 L 132.632812 45.042969 C 131.160156 42.5625 129.421875 40.257812 127.449219 38.171875 L 133.242188 30.238281 L 121.308594 21.53125 L 115.4375 29.578125 C 112.582031 28.273438 109.542969 27.304688 106.363281 26.730469 L 106.363281 16.664062 L 91.589844 16.664062 L 91.589844 26.898438 C 88.683594 27.5 85.894531 28.429688 83.265625 29.640625 L 77.300781 21.203125 L 65.234375 29.722656 L 71.285156 38.285156 C 69.5 40.191406 67.902344 42.273438 66.527344 44.511719 L 56.667969 40.789062 L 51.445312 54.601562 L 61.363281 58.347656 C 61.023438 60.402344 60.847656 62.511719 60.847656 64.660156 C 60.847656 66.496094 60.976562 68.296875 61.226562 70.0625 L 51.21875 73.566406 L 56.105469 87.503906 L 66.054688 84.019531 C 67.433594 86.386719 69.058594 88.597656 70.894531 90.613281 L 64.710938 99.082031 L 76.648438 107.789062 L 82.742188 99.4375 C 85.523438 100.773438 88.488281 101.78125 91.589844 102.421875 L 91.589844 112.65625 L 106.363281 112.65625 L 106.363281 102.589844 C 109.34375 102.050781 112.203125 101.164062 114.902344 99.980469 L 120.652344 108.121094 L 132.71875 99.59375 L 127.042969 91.566406 C 128.964844 89.597656 130.675781 87.421875 132.140625 85.078125 L 141.285156 88.53125 L 146.507812 74.71875 L 137.425781 71.285156 C 137.796875 69.132812 137.996094 66.921875 137.996094 64.660156 Z M 137.996094 64.660156 " fill-opacity="1" fill-rule="nonzero"/></g><path fill="#ffffff" d="M 119.445312 64.660156 C 119.445312 65.328125 119.414062 66 119.347656 66.664062 C 119.28125 67.332031 119.183594 67.992188 119.054688 68.652344 C 118.921875 69.308594 118.757812 69.957031 118.566406 70.597656 C 118.371094 71.238281 118.144531 71.871094 117.886719 72.488281 C 117.632812 73.109375 117.34375 73.714844 117.03125 74.304688 C 116.714844 74.894531 116.371094 75.46875 115.996094 76.027344 C 115.625 76.582031 115.226562 77.121094 114.800781 77.640625 C 114.375 78.15625 113.925781 78.652344 113.449219 79.125 C 112.976562 79.601562 112.480469 80.050781 111.960938 80.476562 C 111.445312 80.898438 110.90625 81.296875 110.347656 81.671875 C 109.792969 82.042969 109.21875 82.386719 108.625 82.703125 C 108.035156 83.019531 107.429688 83.304688 106.808594 83.5625 C 106.191406 83.816406 105.5625 84.042969 104.917969 84.238281 C 104.277344 84.433594 103.628906 84.59375 102.96875 84.726562 C 102.3125 84.855469 101.652344 84.953125 100.984375 85.019531 C 100.316406 85.085938 99.648438 85.117188 98.976562 85.117188 C 98.308594 85.117188 97.636719 85.085938 96.972656 85.019531 C 96.304688 84.953125 95.640625 84.855469 94.984375 84.726562 C 94.328125 84.59375 93.675781 84.433594 93.035156 84.238281 C 92.394531 84.042969 91.761719 83.816406 91.144531 83.5625 C 90.523438 83.304688 89.917969 83.019531 89.328125 82.703125 C 88.738281 82.386719 88.164062 82.042969 87.605469 81.671875 C 87.046875 81.296875 86.511719 80.898438 85.992188 80.476562 C 85.472656 80.050781 84.976562 79.601562 84.503906 79.125 C 84.03125 78.652344 83.578125 78.15625 83.15625 77.640625 C 82.730469 77.121094 82.332031 76.582031 81.957031 76.027344 C 81.585938 75.46875 81.242188 74.894531 80.925781 74.304688 C 80.609375 73.714844 80.324219 73.109375 80.066406 72.488281 C 79.808594 71.871094 79.585938 71.238281 79.390625 70.597656 C 79.195312 69.957031 79.03125 69.308594 78.902344 68.652344 C 78.769531 67.992188 78.671875 67.332031 78.605469 66.664062 C 78.542969 66 78.507812 65.328125 78.507812 64.660156 C 78.507812 63.988281 78.542969 63.320312 78.605469 62.65625 C 78.671875 61.988281 78.769531 61.324219 78.902344 60.667969 C 79.03125 60.011719 79.195312 59.363281 79.390625 58.722656 C 79.585938 58.078125 79.808594 57.449219 80.066406 56.832031 C 80.324219 56.210938 80.609375 55.605469 80.925781 55.015625 C 81.242188 54.425781 81.585938 53.851562 81.957031 53.292969 C 82.332031 52.734375 82.730469 52.199219 83.15625 51.679688 C 83.578125 51.164062 84.03125 50.667969 84.503906 50.191406 C 84.976562 49.71875 85.472656 49.269531 85.992188 48.84375 C 86.511719 48.417969 87.046875 48.019531 87.605469 47.648438 C 88.164062 47.277344 88.738281 46.933594 89.328125 46.617188 C 89.917969 46.300781 90.523438 46.015625 91.144531 45.757812 C 91.761719 45.5 92.394531 45.277344 93.035156 45.082031 C 93.675781 44.886719 94.328125 44.722656 94.984375 44.59375 C 95.640625 44.464844 96.304688 44.363281 96.972656 44.300781 C 97.636719 44.234375 98.308594 44.199219 98.976562 44.199219 C 99.648438 44.199219 100.316406 44.234375 100.984375 44.300781 C 101.652344 44.363281 102.3125 44.464844 102.96875 44.59375 C 103.628906 44.722656 104.277344 44.886719 104.917969 45.082031 C 105.5625 45.277344 106.191406 45.5 106.808594 45.757812 C 107.429688 46.015625 108.035156 46.300781 108.625 46.617188 C 109.21875 46.933594 109.792969 47.277344 110.347656 47.648438 C 110.90625 48.019531 111.445312 48.417969 111.960938 48.84375 C 112.480469 49.269531 112.976562 49.71875 113.449219 50.191406 C 113.925781 50.667969 114.375 51.164062 114.800781 51.679688 C 115.226562 52.199219 115.625 52.734375 115.996094 53.292969 C 116.371094 53.851562 116.714844 54.425781 117.03125 55.015625 C 117.34375 55.605469 117.632812 56.210938 117.886719 56.832031 C 118.144531 57.449219 118.371094 58.078125 118.566406 58.722656 C 118.757812 59.363281 118.921875 60.011719 119.054688 60.667969 C 119.183594 61.324219 119.28125 61.988281 119.347656 62.65625 C 119.414062 63.320312 119.445312 63.988281 119.445312 64.660156 Z M 119.445312 64.660156 " fill-opacity="1" fill-rule="nonzero"/><path fill="#ffffff" d="M 71.800781 68.886719 C 71.269531 68.886719 70.808594 68.488281 70.75 67.949219 C 70.625 66.867188 70.558594 65.757812 70.558594 64.660156 C 70.558594 54.277344 76.226562 44.722656 85.347656 39.730469 C 85.863281 39.453125 86.503906 39.636719 86.785156 40.152344 C 87.066406 40.664062 86.878906 41.308594 86.367188 41.589844 C 77.925781 46.210938 72.679688 55.050781 72.679688 64.660156 C 72.679688 65.679688 72.738281 66.703125 72.855469 67.707031 C 72.921875 68.285156 72.503906 68.8125 71.921875 68.878906 C 71.878906 68.882812 71.839844 68.886719 71.800781 68.886719 Z M 71.800781 68.886719 " fill-opacity="1" fill-rule="nonzero"/><path fill="#d8d4d3" d="M 185.699219 121.5625 C 185.699219 120.296875 185.605469 119.050781 185.421875 117.835938 L 191.417969 115.734375 L 188.21875 106.617188 L 182.191406 108.730469 C 181.230469 107.105469 180.089844 105.597656 178.800781 104.238281 L 182.589844 99.042969 L 174.78125 93.351562 L 170.941406 98.613281 C 169.074219 97.757812 167.085938 97.125 165.007812 96.75 L 165.007812 90.167969 L 155.34375 90.167969 L 155.34375 96.863281 C 153.441406 97.253906 151.617188 97.859375 149.898438 98.652344 L 145.996094 93.132812 L 138.101562 98.707031 L 142.0625 104.308594 C 140.894531 105.554688 139.847656 106.917969 138.949219 108.382812 L 132.5 105.945312 L 129.085938 114.984375 L 135.570312 117.433594 C 135.351562 118.777344 135.234375 120.15625 135.234375 121.5625 C 135.234375 122.765625 135.320312 123.941406 135.480469 125.097656 L 128.933594 127.390625 L 132.132812 136.507812 L 138.640625 134.226562 C 139.542969 135.777344 140.605469 137.222656 141.804688 138.539062 L 137.761719 144.082031 L 145.570312 149.773438 L 149.554688 144.3125 C 151.375 145.183594 153.316406 145.847656 155.34375 146.265625 L 155.34375 152.960938 L 165.007812 152.960938 L 165.007812 146.375 C 166.957031 146.023438 168.828125 145.445312 170.59375 144.667969 L 174.355469 149.992188 L 182.25 144.417969 L 178.535156 139.164062 C 179.792969 137.875 180.910156 136.453125 181.871094 134.921875 L 187.851562 137.179688 L 191.265625 128.140625 L 185.324219 125.898438 C 185.570312 124.488281 185.699219 123.042969 185.699219 121.5625 Z M 160.175781 137.863281 C 151.167969 137.863281 143.867188 130.566406 143.867188 121.5625 C 143.867188 112.558594 151.167969 105.261719 160.175781 105.261719 C 169.183594 105.261719 176.484375 112.558594 176.484375 121.5625 C 176.484375 130.566406 169.183594 137.863281 160.175781 137.863281 Z M 160.175781 137.863281 " fill-opacity="1" fill-rule="nonzero"/><g clip-path="url(#83a6663b67)"><path fill="#321019" d="M 165.007812 154.140625 L 155.34375 154.140625 C 154.691406 154.140625 154.160156 153.613281 154.160156 152.957031 L 154.160156 147.207031 C 152.71875 146.855469 151.304688 146.378906 149.941406 145.785156 L 146.523438 150.472656 C 146.339844 150.722656 146.0625 150.894531 145.75 150.941406 C 145.441406 150.988281 145.125 150.914062 144.871094 150.730469 L 137.0625 145.035156 C 136.808594 144.851562 136.640625 144.574219 136.589844 144.261719 C 136.542969 143.953125 136.621094 143.636719 136.804688 143.382812 L 140.289062 138.605469 C 139.503906 137.675781 138.777344 136.6875 138.125 135.660156 L 132.523438 137.621094 C 131.90625 137.839844 131.230469 137.511719 131.015625 136.898438 L 127.816406 127.777344 C 127.714844 127.484375 127.730469 127.15625 127.867188 126.875 C 128.003906 126.59375 128.246094 126.375 128.542969 126.273438 L 134.191406 124.296875 C 134.097656 123.382812 134.046875 122.46875 134.046875 121.5625 C 134.046875 120.445312 134.121094 119.320312 134.261719 118.203125 L 128.664062 116.089844 C 128.054688 115.859375 127.746094 115.175781 127.976562 114.566406 L 131.390625 105.527344 C 131.503906 105.234375 131.726562 105 132.011719 104.867188 C 132.296875 104.742188 132.625 104.730469 132.917969 104.839844 L 138.46875 106.9375 C 139.101562 105.992188 139.796875 105.082031 140.546875 104.21875 L 137.136719 99.390625 C 136.953125 99.132812 136.882812 98.816406 136.933594 98.507812 C 136.988281 98.199219 137.160156 97.921875 137.417969 97.742188 L 145.3125 92.167969 C 145.84375 91.792969 146.582031 91.917969 146.960938 92.453125 L 150.304688 97.183594 C 151.558594 96.660156 152.847656 96.238281 154.15625 95.917969 L 154.15625 90.164062 C 154.15625 89.511719 154.6875 88.984375 155.339844 88.984375 L 165.003906 88.984375 C 165.660156 88.984375 166.1875 89.511719 166.1875 90.164062 L 166.1875 95.78125 C 167.675781 96.109375 169.132812 96.566406 170.542969 97.148438 L 173.824219 92.652344 C 174.007812 92.398438 174.289062 92.230469 174.597656 92.179688 C 174.910156 92.136719 175.222656 92.210938 175.476562 92.394531 L 183.285156 98.089844 C 183.539062 98.273438 183.710938 98.550781 183.757812 98.859375 C 183.808594 99.171875 183.730469 99.488281 183.546875 99.742188 L 180.324219 104.152344 C 181.191406 105.140625 181.984375 106.195312 182.695312 107.300781 L 187.828125 105.5 C 188.125 105.398438 188.449219 105.417969 188.730469 105.550781 C 189.015625 105.6875 189.230469 105.929688 189.335938 106.226562 L 192.53125 115.34375 C 192.636719 115.640625 192.617188 115.964844 192.480469 116.246094 C 192.347656 116.527344 192.101562 116.746094 191.808594 116.847656 L 186.71875 118.632812 C 186.824219 119.605469 186.878906 120.585938 186.878906 121.558594 C 186.878906 122.75 186.800781 123.949219 186.640625 125.128906 L 191.683594 127.03125 C 192.292969 127.265625 192.601562 127.945312 192.371094 128.558594 L 188.957031 137.59375 C 188.84375 137.886719 188.621094 138.125 188.335938 138.253906 C 188.050781 138.382812 187.726562 138.394531 187.429688 138.28125 L 182.339844 136.359375 C 181.648438 137.378906 180.882812 138.351562 180.054688 139.265625 L 183.210938 143.730469 C 183.589844 144.265625 183.460938 145 182.929688 145.378906 L 175.035156 150.953125 C 174.777344 151.132812 174.460938 151.207031 174.152344 151.152344 C 173.84375 151.101562 173.566406 150.925781 173.386719 150.671875 L 170.171875 146.121094 C 168.875 146.632812 167.542969 147.039062 166.1875 147.339844 L 166.1875 152.957031 C 166.191406 153.613281 165.660156 154.140625 165.007812 154.140625 Z M 156.527344 151.777344 L 163.824219 151.777344 L 163.824219 146.375 C 163.824219 145.804688 164.234375 145.3125 164.796875 145.210938 C 166.621094 144.882812 168.410156 144.335938 170.117188 143.585938 C 170.632812 143.359375 171.234375 143.527344 171.558594 143.988281 L 174.636719 148.34375 L 180.601562 144.132812 L 177.570312 139.847656 C 177.238281 139.382812 177.289062 138.746094 177.6875 138.339844 C 178.886719 137.109375 179.957031 135.746094 180.867188 134.292969 C 181.167969 133.816406 181.761719 133.617188 182.289062 133.816406 L 187.164062 135.65625 L 189.742188 128.832031 L 184.90625 127.003906 C 184.378906 126.804688 184.0625 126.253906 184.160156 125.695312 C 184.394531 124.335938 184.515625 122.945312 184.515625 121.5625 C 184.515625 120.375 184.425781 119.179688 184.253906 118.007812 C 184.167969 117.449219 184.496094 116.90625 185.03125 116.71875 L 189.910156 115.011719 L 187.496094 108.125 L 182.582031 109.847656 C 182.050781 110.035156 181.460938 109.816406 181.171875 109.332031 C 180.261719 107.789062 179.171875 106.347656 177.941406 105.046875 C 177.550781 104.632812 177.507812 104 177.84375 103.539062 L 180.9375 99.300781 L 175.039062 95 L 171.898438 99.308594 C 171.566406 99.761719 170.960938 99.921875 170.449219 99.6875 C 168.648438 98.863281 166.746094 98.265625 164.796875 97.910156 C 164.234375 97.808594 163.824219 97.320312 163.824219 96.75 L 163.824219 91.347656 L 156.523438 91.347656 L 156.523438 96.863281 C 156.523438 97.421875 156.128906 97.90625 155.582031 98.019531 C 153.800781 98.386719 152.058594 98.960938 150.394531 99.726562 C 149.875 99.964844 149.261719 99.800781 148.933594 99.335938 L 145.710938 94.78125 L 139.75 98.992188 L 143.027344 103.628906 C 143.351562 104.085938 143.308594 104.707031 142.925781 105.117188 C 141.804688 106.308594 140.804688 107.617188 139.957031 109 C 139.660156 109.484375 139.0625 109.6875 138.53125 109.488281 L 133.1875 107.46875 L 130.609375 114.292969 L 135.988281 116.328125 C 136.515625 116.527344 136.828125 117.070312 136.738281 117.625 C 136.523438 118.925781 136.414062 120.25 136.414062 121.5625 C 136.414062 122.679688 136.492188 123.8125 136.652344 124.933594 C 136.730469 125.488281 136.402344 126.027344 135.871094 126.210938 L 130.441406 128.113281 L 132.855469 135 L 138.246094 133.109375 C 138.785156 132.925781 139.375 133.140625 139.660156 133.632812 C 140.515625 135.101562 141.53125 136.484375 142.679688 137.742188 C 143.058594 138.15625 143.089844 138.78125 142.761719 139.234375 L 139.414062 143.820312 L 145.308594 148.121094 L 148.601562 143.613281 C 148.9375 143.152344 149.554688 142.996094 150.066406 143.242188 C 151.820312 144.085938 153.675781 144.710938 155.582031 145.105469 C 156.132812 145.21875 156.527344 145.703125 156.527344 146.261719 Z M 160.175781 139.046875 C 150.53125 139.046875 142.683594 131.203125 142.683594 121.5625 C 142.683594 111.921875 150.53125 104.078125 160.175781 104.078125 C 169.820312 104.078125 177.667969 111.921875 177.667969 121.5625 C 177.667969 131.203125 169.820312 139.046875 160.175781 139.046875 Z M 160.175781 106.441406 C 151.835938 106.441406 145.050781 113.226562 145.050781 121.5625 C 145.050781 129.898438 151.835938 136.679688 160.175781 136.679688 C 168.515625 136.679688 175.300781 129.898438 175.300781 121.5625 C 175.300781 113.226562 168.515625 106.441406 160.175781 106.441406 Z M 160.175781 106.441406 " fill-opacity="1" fill-rule="nonzero"/></g><path fill="#ffffff" d="M 153.667969 101.574219 C 153.257812 101.574219 152.871094 101.339844 152.691406 100.941406 C 152.453125 100.402344 152.695312 99.773438 153.234375 99.53125 C 154.542969 98.949219 155.886719 98.488281 157.242188 98.15625 L 157.242188 92.964844 C 157.242188 92.375 157.71875 91.894531 158.308594 91.894531 C 158.898438 91.894531 159.378906 92.375 159.378906 92.964844 L 159.378906 99.007812 C 159.378906 99.511719 159.019531 99.949219 158.523438 100.050781 C 157.03125 100.359375 155.542969 100.839844 154.101562 101.480469 C 153.960938 101.542969 153.8125 101.574219 153.667969 101.574219 Z M 153.667969 101.574219 " fill-opacity="1" fill-rule="nonzero"/><g fill="#000000" fill-opacity="1"><g transform="translate(279.564714, 109.281621)"><g><path d="M 9.1875 -12.414062 L 15.34375 -27.953125 L 21.449219 -12.414062 Z M 30.140625 0 L 15.34375 -36.097656 L 0.496094 0 L 4.269531 0 L 7.894531 -9.1875 L 22.742188 -9.1875 L 26.367188 0 Z M 30.140625 0 "/></g></g></g><g fill="#000000" fill-opacity="1"><g transform="translate(310.190007, 109.281621)"><g><path d="M 0.992188 -18.621094 L 6.453125 -18.621094 L 6.453125 0 L 9.929688 0 L 9.929688 -18.621094 L 15.34375 -18.621094 L 15.34375 -21.847656 L 9.929688 -21.847656 L 9.929688 -30.335938 L 6.453125 -30.335938 L 6.453125 -21.847656 L 0.992188 -21.847656 Z M 0.992188 -18.621094 "/></g></g></g><g fill="#000000" fill-opacity="1"><g transform="translate(326.520185, 109.281621)"><g><path d="M 25.074219 -11.421875 C 25.074219 -14.398438 23.882812 -16.980469 21.597656 -19.214844 C 19.363281 -21.351562 16.683594 -22.441406 13.65625 -22.441406 C 10.476562 -22.441406 7.796875 -21.300781 5.5625 -19.066406 C 3.328125 -16.832031 2.234375 -14.152344 2.234375 -11.023438 C 2.234375 -7.84375 3.328125 -5.164062 5.5625 -2.980469 C 6.605469 -1.9375 7.796875 -1.140625 9.1875 -0.546875 C 10.574219 0.0507812 12.214844 0.347656 14.152344 0.347656 C 16.085938 0.347656 17.972656 -0.25 19.859375 -1.441406 C 21.746094 -2.632812 23.136719 -4.320312 24.082031 -6.40625 L 20.109375 -6.40625 C 19.316406 -5.363281 18.371094 -4.566406 17.230469 -3.972656 C 16.085938 -3.375 14.894531 -3.128906 13.65625 -3.128906 C 11.769531 -3.128906 10.078125 -3.722656 8.589844 -4.964844 C 7.101562 -6.15625 6.15625 -7.695312 5.859375 -9.582031 L 25.074219 -9.582031 Z M 21.398438 -12.5625 L 5.910156 -12.5625 C 6.105469 -13.457031 6.453125 -14.300781 6.953125 -15.09375 C 8.539062 -17.675781 10.773438 -18.96875 13.65625 -18.96875 C 15.492188 -18.96875 17.128906 -18.371094 18.570312 -17.179688 C 20.058594 -15.9375 20.953125 -14.398438 21.398438 -12.5625 Z M 21.398438 -12.5625 "/></g></g></g><g fill="#000000" fill-opacity="1"><g transform="translate(353.571712, 109.281621)"><g><path d="M 18.816406 0 L 22.292969 0 L 22.292969 -13.65625 C 22.292969 -16.1875 21.597656 -18.222656 20.308594 -19.761719 C 19.613281 -20.554688 18.816406 -21.152344 17.875 -21.597656 C 16.882812 -22.046875 15.640625 -22.292969 14.101562 -22.292969 C 12.511719 -22.292969 11.171875 -21.847656 9.980469 -21.050781 C 8.839844 -20.308594 7.894531 -19.316406 7.199219 -18.074219 L 7.199219 -21.847656 L 3.722656 -21.847656 L 3.722656 0 L 7.199219 0 L 7.199219 -9.136719 C 7.199219 -11.917969 7.695312 -14.101562 8.738281 -15.738281 C 9.335938 -16.632812 10.078125 -17.378906 11.023438 -17.972656 C 11.917969 -18.519531 13.15625 -18.816406 14.648438 -18.816406 C 16.136719 -18.816406 17.179688 -18.273438 17.824219 -17.277344 C 18.46875 -16.285156 18.816406 -15.042969 18.816406 -13.65625 Z M 18.816406 0 "/></g></g></g><g fill="#000000" fill-opacity="1"><g transform="translate(378.836339, 109.281621)"><g><path d="M 24.132812 -14.003906 C 23.4375 -16.433594 22.09375 -18.421875 20.160156 -19.960938 C 18.125 -21.5 15.890625 -22.292969 13.40625 -22.292969 C 10.277344 -22.292969 7.597656 -21.152344 5.460938 -18.917969 C 3.277344 -16.683594 2.234375 -14.003906 2.234375 -10.921875 C 2.234375 -7.796875 3.277344 -5.164062 5.460938 -2.878906 C 6.453125 -1.835938 7.597656 -0.992188 8.988281 -0.398438 C 10.328125 0.199219 11.71875 0.496094 13.109375 0.496094 C 14.5 0.496094 15.738281 0.347656 16.832031 -0.0507812 C 20.308594 -1.289062 22.691406 -3.625 23.933594 -7.148438 L 20.011719 -7.148438 C 19.316406 -5.910156 18.421875 -4.914062 17.230469 -4.21875 C 16.039062 -3.476562 14.796875 -3.128906 13.40625 -3.128906 C 11.269531 -3.128906 9.484375 -3.871094 7.992188 -5.414062 C 6.503906 -6.953125 5.808594 -8.789062 5.808594 -10.921875 C 5.808594 -12.960938 6.503906 -14.796875 7.992188 -16.335938 C 8.6875 -17.03125 9.484375 -17.625 10.425781 -18.023438 C 11.320312 -18.421875 12.460938 -18.667969 13.753906 -18.667969 C 15.042969 -18.667969 16.285156 -18.222656 17.578125 -17.378906 C 18.816406 -16.484375 19.761719 -15.390625 20.359375 -14.003906 Z M 24.132812 -14.003906 "/></g></g></g><g fill="#000000" fill-opacity="1"><g transform="translate(404.696593, 109.281621)"><g><path d="M 7.25 -29.394531 C 6.800781 -29.792969 6.257812 -30.039062 5.660156 -30.039062 C 5.066406 -30.039062 4.519531 -29.792969 4.121094 -29.394531 C 3.675781 -28.949219 3.476562 -28.402344 3.476562 -27.804688 C 3.476562 -27.210938 3.675781 -26.664062 4.121094 -26.265625 C 4.519531 -25.820312 5.066406 -25.621094 5.660156 -25.621094 C 6.257812 -25.621094 6.800781 -25.820312 7.25 -26.265625 C 7.644531 -26.664062 7.894531 -27.210938 7.894531 -27.804688 C 7.894531 -28.402344 7.644531 -28.949219 7.25 -29.394531 Z M 7.449219 0 L 7.449219 -21.847656 L 3.972656 -21.847656 L 3.972656 0 Z M 7.449219 0 "/></g></g></g><g fill="#000000" fill-opacity="1"><g transform="translate(416.063196, 109.281621)"><g><path d="M 21.597656 -11.023438 C 21.597656 -8.839844 20.804688 -7 19.265625 -5.460938 C 17.675781 -3.871094 15.839844 -3.128906 13.65625 -3.128906 C 11.46875 -3.128906 9.582031 -3.871094 8.042969 -5.460938 C 6.453125 -7 5.710938 -8.839844 5.710938 -11.023438 C 5.710938 -13.207031 6.453125 -15.042969 8.042969 -16.632812 C 9.582031 -18.171875 11.46875 -18.96875 13.65625 -18.96875 C 15.839844 -18.96875 17.675781 -18.171875 19.265625 -16.632812 C 20.804688 -15.042969 21.597656 -13.207031 21.597656 -11.023438 Z M 25.074219 -11.023438 C 25.074219 -14.152344 23.933594 -16.832031 21.699219 -19.066406 C 19.464844 -21.300781 16.78125 -22.441406 13.65625 -22.441406 C 10.476562 -22.441406 7.796875 -21.300781 5.5625 -19.066406 C 3.328125 -16.832031 2.234375 -14.152344 2.234375 -11.023438 C 2.234375 -7.84375 3.328125 -5.164062 5.5625 -2.980469 C 7.796875 -0.746094 10.527344 0.347656 13.65625 0.347656 C 16.734375 0.347656 19.464844 -0.746094 21.699219 -2.980469 C 23.933594 -5.164062 25.074219 -7.84375 25.074219 -11.023438 Z M 25.074219 -11.023438 "/></g></g></g><g fill="#000000" fill-opacity="1"><g transform="translate(443.362904, 109.281621)"><g><path d="M 18.816406 0 L 22.292969 0 L 22.292969 -13.65625 C 22.292969 -16.1875 21.597656 -18.222656 20.308594 -19.761719 C 19.613281 -20.554688 18.816406 -21.152344 17.875 -21.597656 C 16.882812 -22.046875 15.640625 -22.292969 14.101562 -22.292969 C 12.511719 -22.292969 11.171875 -21.847656 9.980469 -21.050781 C 8.839844 -20.308594 7.894531 -19.316406 7.199219 -18.074219 L 7.199219 -21.847656 L 3.722656 -21.847656 L 3.722656 0 L 7.199219 0 L 7.199219 -9.136719 C 7.199219 -11.917969 7.695312 -14.101562 8.738281 -15.738281 C 9.335938 -16.632812 10.078125 -17.378906 11.023438 -17.972656 C 11.917969 -18.519531 13.15625 -18.816406 14.648438 -18.816406 C 16.136719 -18.816406 17.179688 -18.273438 17.824219 -17.277344 C 18.46875 -16.285156 18.816406 -15.042969 18.816406 -13.65625 Z M 18.816406 0 "/></g></g></g><g fill="#000000" fill-opacity="1"><g transform="translate(468.627531, 109.281621)"><g/></g></g><g fill="#000000" fill-opacity="1"><g transform="translate(482.029196, 109.281621)"><g><path d="M 21.101562 -10.921875 C 21.101562 -8.789062 20.359375 -6.902344 18.867188 -5.363281 C 17.378906 -3.773438 15.542969 -2.980469 13.40625 -2.980469 C 11.222656 -2.980469 9.382812 -3.773438 7.894531 -5.363281 C 6.40625 -6.902344 5.710938 -8.789062 5.710938 -10.921875 C 5.710938 -13.007812 6.40625 -14.894531 7.894531 -16.484375 C 9.382812 -18.074219 11.222656 -18.867188 13.40625 -18.867188 C 15.542969 -18.867188 17.378906 -18.074219 18.867188 -16.484375 C 20.359375 -14.894531 21.101562 -13.007812 21.101562 -10.921875 Z M 24.578125 0 L 24.578125 -21.847656 L 21.101562 -21.847656 L 21.101562 -18.074219 C 20.902344 -18.371094 20.65625 -18.621094 20.457031 -18.867188 C 18.371094 -21.152344 15.839844 -22.34375 12.859375 -22.34375 C 9.832031 -22.34375 7.300781 -21.152344 5.214844 -18.867188 C 3.226562 -16.582031 2.234375 -13.953125 2.234375 -10.921875 C 2.234375 -7.84375 3.226562 -5.214844 5.214844 -2.980469 C 7.300781 -0.644531 9.832031 0.496094 12.859375 0.496094 C 15.839844 0.496094 18.371094 -0.644531 20.457031 -2.980469 C 20.65625 -3.179688 20.902344 -3.425781 21.101562 -3.722656 L 21.101562 0 Z M 24.578125 0 "/></g></g></g><g fill="#000000" fill-opacity="1"><g transform="translate(510.321604, 109.281621)"><g><path d="M 7.199219 0 L 7.199219 -37.238281 L 3.722656 -37.238281 L 3.722656 0 Z M 7.199219 0 "/></g></g></g><g fill="#000000" fill-opacity="1"><g transform="translate(521.241491, 109.281621)"><g/></g></g><g fill="#000000" fill-opacity="1"><g transform="translate(534.643156, 109.281621)"><g><path d="M 24.132812 -14.003906 C 23.4375 -16.433594 22.09375 -18.421875 20.160156 -19.960938 C 18.125 -21.5 15.890625 -22.292969 13.40625 -22.292969 C 10.277344 -22.292969 7.597656 -21.152344 5.460938 -18.917969 C 3.277344 -16.683594 2.234375 -14.003906 2.234375 -10.921875 C 2.234375 -7.796875 3.277344 -5.164062 5.460938 -2.878906 C 6.453125 -1.835938 7.597656 -0.992188 8.988281 -0.398438 C 10.328125 0.199219 11.71875 0.496094 13.109375 0.496094 C 14.5 0.496094 15.738281 0.347656 16.832031 -0.0507812 C 20.308594 -1.289062 22.691406 -3.625 23.933594 -7.148438 L 20.011719 -7.148438 C 19.316406 -5.910156 18.421875 -4.914062 17.230469 -4.21875 C 16.039062 -3.476562 14.796875 -3.128906 13.40625 -3.128906 C 11.269531 -3.128906 9.484375 -3.871094 7.992188 -5.414062 C 6.503906 -6.953125 5.808594 -8.789062 5.808594 -10.921875 C 5.808594 -12.960938 6.503906 -14.796875 7.992188 -16.335938 C 8.6875 -17.03125 9.484375 -17.625 10.425781 -18.023438 C 11.320312 -18.421875 12.460938 -18.667969 13.753906 -18.667969 C 15.042969 -18.667969 16.285156 -18.222656 17.578125 -17.378906 C 18.816406 -16.484375 19.761719 -15.390625 20.359375 -14.003906 Z M 24.132812 -14.003906 "/></g></g></g><g fill="#000000" fill-opacity="1"><g transform="translate(560.50341, 109.281621)"><g><path d="M 7.199219 0 L 7.199219 -37.238281 L 3.722656 -37.238281 L 3.722656 0 Z M 7.199219 0 "/></g></g></g><g fill="#000000" fill-opacity="1"><g transform="translate(571.423297, 109.281621)"><g><path d="M 7.25 -29.394531 C 6.800781 -29.792969 6.257812 -30.039062 5.660156 -30.039062 C 5.066406 -30.039062 4.519531 -29.792969 4.121094 -29.394531 C 3.675781 -28.949219 3.476562 -28.402344 3.476562 -27.804688 C 3.476562 -27.210938 3.675781 -26.664062 4.121094 -26.265625 C 4.519531 -25.820312 5.066406 -25.621094 5.660156 -25.621094 C 6.257812 -25.621094 6.800781 -25.820312 7.25 -26.265625 C 7.644531 -26.664062 7.894531 -27.210938 7.894531 -27.804688 C 7.894531 -28.402344 7.644531 -28.949219 7.25 -29.394531 Z M 7.449219 0 L 7.449219 -21.847656 L 3.972656 -21.847656 L 3.972656 0 Z M 7.449219 0 "/></g></g></g><g fill="#000000" fill-opacity="1"><g transform="translate(582.7899, 109.281621)"><g><path d="M 25.074219 -11.421875 C 25.074219 -14.398438 23.882812 -16.980469 21.597656 -19.214844 C 19.363281 -21.351562 16.683594 -22.441406 13.65625 -22.441406 C 10.476562 -22.441406 7.796875 -21.300781 5.5625 -19.066406 C 3.328125 -16.832031 2.234375 -14.152344 2.234375 -11.023438 C 2.234375 -7.84375 3.328125 -5.164062 5.5625 -2.980469 C 6.605469 -1.9375 7.796875 -1.140625 9.1875 -0.546875 C 10.574219 0.0507812 12.214844 0.347656 14.152344 0.347656 C 16.085938 0.347656 17.972656 -0.25 19.859375 -1.441406 C 21.746094 -2.632812 23.136719 -4.320312 24.082031 -6.40625 L 20.109375 -6.40625 C 19.316406 -5.363281 18.371094 -4.566406 17.230469 -3.972656 C 16.085938 -3.375 14.894531 -3.128906 13.65625 -3.128906 C 11.769531 -3.128906 10.078125 -3.722656 8.589844 -4.964844 C 7.101562 -6.15625 6.15625 -7.695312 5.859375 -9.582031 L 25.074219 -9.582031 Z M 21.398438 -12.5625 L 5.910156 -12.5625 C 6.105469 -13.457031 6.453125 -14.300781 6.953125 -15.09375 C 8.539062 -17.675781 10.773438 -18.96875 13.65625 -18.96875 C 15.492188 -18.96875 17.128906 -18.371094 18.570312 -17.179688 C 20.058594 -15.9375 20.953125 -14.398438 21.398438 -12.5625 Z M 21.398438 -12.5625 "/></g></g></g><g fill="#000000" fill-opacity="1"><g transform="translate(609.841427, 109.281621)"><g><path d="M 18.816406 0 L 22.292969 0 L 22.292969 -13.65625 C 22.292969 -16.1875 21.597656 -18.222656 20.308594 -19.761719 C 19.613281 -20.554688 18.816406 -21.152344 17.875 -21.597656 C 16.882812 -22.046875 15.640625 -22.292969 14.101562 -22.292969 C 12.511719 -22.292969 11.171875 -21.847656 9.980469 -21.050781 C 8.839844 -20.308594 7.894531 -19.316406 7.199219 -18.074219 L 7.199219 -21.847656 L 3.722656 -21.847656 L 3.722656 0 L 7.199219 0 L 7.199219 -9.136719 C 7.199219 -11.917969 7.695312 -14.101562 8.738281 -15.738281 C 9.335938 -16.632812 10.078125 -17.378906 11.023438 -17.972656 C 11.917969 -18.519531 13.15625 -18.816406 14.648438 -18.816406 C 16.136719 -18.816406 17.179688 -18.273438 17.824219 -17.277344 C 18.46875 -16.285156 18.816406 -15.042969 18.816406 -13.65625 Z M 18.816406 0 "/></g></g></g><g fill="#000000" fill-opacity="1"><g transform="translate(635.106073, 109.281621)"><g><path d="M 0.992188 -18.621094 L 6.453125 -18.621094 L 6.453125 0 L 9.929688 0 L 9.929688 -18.621094 L 15.34375 -18.621094 L 15.34375 -21.847656 L 9.929688 -21.847656 L 9.929688 -30.335938 L 6.453125 -30.335938 L 6.453125 -21.847656 L 0.992188 -21.847656 Z M 0.992188 -18.621094 "/></g></g></g><g fill="#000000" fill-opacity="1"><g transform="translate(651.436251, 109.281621)"><g><path d="M 25.074219 -11.421875 C 25.074219 -14.398438 23.882812 -16.980469 21.597656 -19.214844 C 19.363281 -21.351562 16.683594 -22.441406 13.65625 -22.441406 C 10.476562 -22.441406 7.796875 -21.300781 5.5625 -19.066406 C 3.328125 -16.832031 2.234375 -14.152344 2.234375 -11.023438 C 2.234375 -7.84375 3.328125 -5.164062 5.5625 -2.980469 C 6.605469 -1.9375 7.796875 -1.140625 9.1875 -0.546875 C 10.574219 0.0507812 12.214844 0.347656 14.152344 0.347656 C 16.085938 0.347656 17.972656 -0.25 19.859375 -1.441406 C 21.746094 -2.632812 23.136719 -4.320312 24.082031 -6.40625 L 20.109375 -6.40625 C 19.316406 -5.363281 18.371094 -4.566406 17.230469 -3.972656 C 16.085938 -3.375 14.894531 -3.128906 13.65625 -3.128906 C 11.769531 -3.128906 10.078125 -3.722656 8.589844 -4.964844 C 7.101562 -6.15625 6.15625 -7.695312 5.859375 -9.582031 L 25.074219 -9.582031 Z M 21.398438 -12.5625 L 5.910156 -12.5625 C 6.105469 -13.457031 6.453125 -14.300781 6.953125 -15.09375 C 8.539062 -17.675781 10.773438 -18.96875 13.65625 -18.96875 C 15.492188 -18.96875 17.128906 -18.371094 18.570312 -17.179688 C 20.058594 -15.9375 20.953125 -14.398438 21.398438 -12.5625 Z M 21.398438 -12.5625 "/></g></g></g></svg>