<svg xmlns="http://www.w3.org/2000/svg" xmlns:xlink="http://www.w3.org/1999/xlink" width="1000" zoomAndPan="magnify" viewBox="0 0 750 202.499994" height="270" preserveAspectRatio="xMidYMid meet" version="1.0"><defs><g/><clipPath id="d315c9280e"><path d="M 0.921875 0 L 742.832031 0 L 742.832031 189.894531 L 0.921875 189.894531 Z M 0.921875 0 " clip-rule="nonzero"/></clipPath><clipPath id="dada8038b6"><path d="M 36.800781 -0.992188 L 706.921875 -0.992188 C 726.753906 -0.992188 742.832031 15.085938 742.832031 34.921875 L 742.832031 153.980469 C 742.832031 173.816406 726.753906 189.894531 706.921875 189.894531 L 36.800781 189.894531 C 16.96875 189.894531 0.890625 173.816406 0.890625 153.980469 L 0.890625 34.921875 C 0.890625 15.085938 16.96875 -0.992188 36.800781 -0.992188 Z M 36.800781 -0.992188 " clip-rule="nonzero"/></clipPath></defs><g clip-path="url(#d315c9280e)"><g clip-path="url(#dada8038b6)"><path fill="#edc448" d="M 0.890625 -0.992188 L 742.832031 -0.992188 L 742.832031 189.894531 L 0.890625 189.894531 Z M 0.890625 -0.992188 " fill-opacity="1" fill-rule="nonzero"/></g></g><g fill="#000000" fill-opacity="1"><g transform="translate(351.370779, 110.499957)"><g><path d="M 34.417969 -10.242188 L 30.628906 -10.242188 C 29.445312 -8.074219 27.820312 -6.304688 25.753906 -5.023438 C 23.683594 -3.691406 21.371094 -3.054688 18.910156 -3.054688 C 15.214844 -3.054688 12.0625 -4.382812 9.453125 -7.140625 C 6.894531 -9.75 5.664062 -12.949219 5.664062 -16.691406 C 5.664062 -20.433594 6.894531 -23.636719 9.453125 -26.292969 C 10.636719 -27.523438 12.0625 -28.511719 13.6875 -29.25 C 15.265625 -29.988281 16.839844 -30.382812 18.414062 -30.382812 C 19.941406 -30.382812 21.273438 -30.183594 22.453125 -29.839844 C 26.046875 -28.757812 28.757812 -26.589844 30.578125 -23.289062 L 34.371094 -23.289062 C 33.089844 -26.441406 31.070312 -29.003906 28.265625 -30.972656 C 25.40625 -32.941406 22.304688 -33.925781 18.910156 -33.925781 C 14.230469 -33.925781 10.292969 -32.203125 7.042969 -28.804688 C 5.515625 -27.230469 4.332031 -25.359375 3.496094 -23.289062 C 2.609375 -21.222656 2.214844 -19.007812 2.214844 -16.691406 C 2.214844 -11.964844 3.792969 -7.976562 7.042969 -4.628906 C 10.292969 -1.183594 14.230469 0.492188 18.910156 0.492188 C 22.304688 0.492188 25.40625 -0.492188 28.3125 -2.460938 C 31.121094 -4.429688 33.136719 -6.992188 34.417969 -10.242188 Z M 34.417969 -10.242188 "/></g></g></g><g fill="#000000" fill-opacity="1"><g transform="translate(387.2549, 110.499957)"><g><path d="M 21.417969 -10.929688 C 21.417969 -8.765625 20.632812 -6.941406 19.105469 -5.417969 C 17.53125 -3.839844 15.707031 -3.101562 13.542969 -3.101562 C 11.375 -3.101562 9.503906 -3.839844 7.976562 -5.417969 C 6.402344 -6.941406 5.664062 -8.765625 5.664062 -10.929688 C 5.664062 -13.097656 6.402344 -14.917969 7.976562 -16.496094 C 9.503906 -18.023438 11.375 -18.808594 13.542969 -18.808594 C 15.707031 -18.808594 17.53125 -18.023438 19.105469 -16.496094 C 20.632812 -14.917969 21.417969 -13.097656 21.417969 -10.929688 Z M 24.867188 -10.929688 C 24.867188 -14.035156 23.734375 -16.691406 21.519531 -18.910156 C 19.300781 -21.125 16.644531 -22.257812 13.542969 -22.257812 C 10.390625 -22.257812 7.730469 -21.125 5.515625 -18.910156 C 3.300781 -16.691406 2.214844 -14.035156 2.214844 -10.929688 C 2.214844 -7.78125 3.300781 -5.121094 5.515625 -2.953125 C 7.730469 -0.738281 10.4375 0.34375 13.542969 0.34375 C 16.59375 0.34375 19.300781 -0.738281 21.519531 -2.953125 C 23.734375 -5.121094 24.867188 -7.78125 24.867188 -10.929688 Z M 24.867188 -10.929688 "/></g></g></g><g fill="#000000" fill-opacity="1"><g transform="translate(414.327974, 110.499957)"><g><path d="M 18.660156 0 L 22.109375 0 L 22.109375 -13.542969 C 22.109375 -16.050781 21.417969 -18.070312 20.140625 -19.597656 C 19.449219 -20.386719 18.660156 -20.976562 17.726562 -21.417969 C 16.742188 -21.863281 15.511719 -22.109375 13.984375 -22.109375 C 12.410156 -22.109375 11.078125 -21.664062 9.898438 -20.878906 C 8.765625 -20.140625 7.828125 -19.15625 7.140625 -17.921875 L 7.140625 -21.664062 L 3.691406 -21.664062 L 3.691406 0 L 7.140625 0 L 7.140625 -9.058594 C 7.140625 -11.816406 7.632812 -13.984375 8.667969 -15.609375 C 9.257812 -16.496094 9.996094 -17.234375 10.929688 -17.824219 C 11.816406 -18.367188 13.046875 -18.660156 14.527344 -18.660156 C 16.003906 -18.660156 17.039062 -18.121094 17.675781 -17.136719 C 18.316406 -16.152344 18.660156 -14.917969 18.660156 -13.542969 Z M 18.660156 0 "/></g></g></g><g fill="#000000" fill-opacity="1"><g transform="translate(439.382862, 110.499957)"><g><path d="M 0.984375 -18.464844 L 6.402344 -18.464844 L 6.402344 0 L 9.847656 0 L 9.847656 -18.464844 L 15.214844 -18.464844 L 15.214844 -21.664062 L 9.847656 -21.664062 L 9.847656 -30.085938 L 6.402344 -30.085938 L 6.402344 -21.664062 L 0.984375 -21.664062 Z M 0.984375 -18.464844 "/></g></g></g><g fill="#000000" fill-opacity="1"><g transform="translate(455.577471, 110.499957)"><g><path d="M 14.820312 -17.183594 L 14.820312 -21.664062 C 14.132812 -21.960938 13.394531 -22.109375 12.65625 -22.109375 C 10.191406 -22.109375 8.421875 -20.730469 7.289062 -18.070312 L 7.140625 -17.183594 L 7.140625 -21.664062 L 3.691406 -21.664062 L 3.691406 0 L 7.140625 0 L 7.140625 -10.832031 C 7.140625 -12.605469 7.535156 -14.179688 8.371094 -15.609375 C 8.765625 -16.347656 9.304688 -16.988281 9.945312 -17.480469 C 10.585938 -17.972656 11.375 -18.269531 12.261719 -18.269531 C 13.148438 -18.269531 13.984375 -17.875 14.820312 -17.183594 Z M 14.820312 -17.183594 "/></g></g></g><g fill="#000000" fill-opacity="1"><g transform="translate(470.886066, 110.499957)"><g><path d="M 20.925781 -10.832031 C 20.925781 -8.714844 20.1875 -6.84375 18.710938 -5.316406 C 17.234375 -3.742188 15.414062 -2.953125 13.292969 -2.953125 C 11.128906 -2.953125 9.304688 -3.742188 7.828125 -5.316406 C 6.351562 -6.84375 5.664062 -8.714844 5.664062 -10.832031 C 5.664062 -12.902344 6.351562 -14.773438 7.828125 -16.347656 C 9.304688 -17.921875 11.128906 -18.710938 13.292969 -18.710938 C 15.414062 -18.710938 17.234375 -17.921875 18.710938 -16.347656 C 20.1875 -14.773438 20.925781 -12.902344 20.925781 -10.832031 Z M 24.375 0 L 24.375 -21.664062 L 20.925781 -21.664062 L 20.925781 -17.921875 C 20.730469 -18.21875 20.484375 -18.464844 20.285156 -18.710938 C 18.21875 -20.976562 15.707031 -22.15625 12.753906 -22.15625 C 9.75 -22.15625 7.238281 -20.976562 5.171875 -18.710938 C 3.199219 -16.445312 2.214844 -13.835938 2.214844 -10.832031 C 2.214844 -7.78125 3.199219 -5.171875 5.171875 -2.953125 C 7.238281 -0.640625 9.75 0.492188 12.753906 0.492188 C 15.707031 0.492188 18.21875 -0.640625 20.285156 -2.953125 C 20.484375 -3.152344 20.730469 -3.398438 20.925781 -3.691406 L 20.925781 0 Z M 24.375 0 "/></g></g></g><g fill="#000000" fill-opacity="1"><g transform="translate(498.943598, 110.499957)"><g><path d="M 6.796875 -3.054688 C 5.957031 -3.644531 5.316406 -4.628906 4.972656 -6.054688 L 1.328125 -6.054688 C 2.066406 -1.574219 4.925781 0.640625 9.945312 0.640625 C 11.128906 0.640625 12.210938 0.542969 13.246094 0.246094 C 14.28125 -0.0507812 15.164062 -0.441406 16.003906 -0.984375 C 17.675781 -2.117188 18.515625 -3.839844 18.515625 -6.15625 C 18.515625 -8.519531 17.429688 -10.191406 15.164062 -11.277344 C 14.230469 -11.71875 13.195312 -12.0625 12.0625 -12.308594 C 10.980469 -12.554688 9.945312 -12.851562 9.011719 -13.148438 C 8.027344 -13.441406 7.238281 -13.835938 6.597656 -14.28125 C 5.957031 -14.722656 5.613281 -15.414062 5.613281 -16.398438 C 5.613281 -17.382812 6.007812 -18.121094 6.796875 -18.5625 C 7.582031 -19.054688 8.519531 -19.300781 9.550781 -19.300781 C 10.636719 -19.300781 11.570312 -19.054688 12.308594 -18.660156 C 13.046875 -18.269531 13.640625 -17.480469 13.984375 -16.296875 L 17.675781 -16.296875 C 17.234375 -18.464844 16.296875 -19.992188 14.917969 -20.828125 C 13.492188 -21.714844 11.769531 -22.15625 9.652344 -22.15625 C 7.582031 -22.15625 5.761719 -21.566406 4.234375 -20.484375 C 2.757812 -19.351562 1.96875 -17.726562 1.96875 -15.558594 C 1.96875 -14.527344 2.265625 -13.589844 2.808594 -12.800781 C 3.398438 -11.964844 4.234375 -11.324219 5.316406 -10.832031 C 6.304688 -10.390625 7.335938 -10.046875 8.421875 -9.75 C 9.503906 -9.503906 10.539062 -9.207031 11.523438 -8.914062 C 13.738281 -8.175781 14.871094 -7.089844 14.871094 -5.710938 C 14.871094 -3.347656 13.292969 -2.214844 10.144531 -2.214844 C 8.8125 -2.214844 7.679688 -2.460938 6.796875 -3.054688 Z M 6.796875 -3.054688 "/></g></g></g><g fill="#000000" fill-opacity="1"><g transform="translate(518.731554, 110.499957)"><g><path d="M 24.867188 -11.324219 C 24.867188 -14.28125 23.683594 -16.839844 21.417969 -19.054688 C 19.203125 -21.171875 16.542969 -22.257812 13.542969 -22.257812 C 10.390625 -22.257812 7.730469 -21.125 5.515625 -18.910156 C 3.300781 -16.691406 2.214844 -14.035156 2.214844 -10.929688 C 2.214844 -7.78125 3.300781 -5.121094 5.515625 -2.953125 C 6.550781 -1.921875 7.730469 -1.132812 9.109375 -0.542969 C 10.488281 0.0507812 12.113281 0.34375 14.035156 0.34375 C 15.953125 0.34375 17.824219 -0.246094 19.695312 -1.429688 C 21.566406 -2.609375 22.945312 -4.285156 23.882812 -6.351562 L 19.941406 -6.351562 C 19.15625 -5.316406 18.21875 -4.53125 17.085938 -3.9375 C 15.953125 -3.347656 14.773438 -3.101562 13.542969 -3.101562 C 11.671875 -3.101562 9.996094 -3.691406 8.519531 -4.925781 C 7.042969 -6.105469 6.105469 -7.632812 5.808594 -9.503906 L 24.867188 -9.503906 Z M 21.222656 -12.457031 L 5.859375 -12.457031 C 6.054688 -13.34375 6.402344 -14.179688 6.894531 -14.96875 C 8.46875 -17.53125 10.683594 -18.808594 13.542969 -18.808594 C 15.363281 -18.808594 16.988281 -18.21875 18.414062 -17.039062 C 19.894531 -15.804688 20.78125 -14.28125 21.222656 -12.457031 Z M 21.222656 -12.457031 "/></g></g></g><g fill="#000000" fill-opacity="1"><g transform="translate(545.558508, 110.499957)"><g><path d="M 18.660156 0 L 22.109375 0 L 22.109375 -13.542969 C 22.109375 -16.050781 21.417969 -18.070312 20.140625 -19.597656 C 19.449219 -20.386719 18.660156 -20.976562 17.726562 -21.417969 C 16.742188 -21.863281 15.511719 -22.109375 13.984375 -22.109375 C 12.410156 -22.109375 11.078125 -21.664062 9.898438 -20.878906 C 8.765625 -20.140625 7.828125 -19.15625 7.140625 -17.921875 L 7.140625 -21.664062 L 3.691406 -21.664062 L 3.691406 0 L 7.140625 0 L 7.140625 -9.058594 C 7.140625 -11.816406 7.632812 -13.984375 8.667969 -15.609375 C 9.257812 -16.496094 9.996094 -17.234375 10.929688 -17.824219 C 11.816406 -18.367188 13.046875 -18.660156 14.527344 -18.660156 C 16.003906 -18.660156 17.039062 -18.121094 17.675781 -17.136719 C 18.316406 -16.152344 18.660156 -14.917969 18.660156 -13.542969 Z M 4.429688 -25.507812 L 6.84375 -25.507812 C 6.746094 -26.097656 6.796875 -26.6875 6.941406 -27.179688 C 7.1875 -28.3125 7.878906 -28.902344 8.960938 -28.902344 C 9.601562 -28.902344 10.144531 -28.65625 10.539062 -28.265625 C 10.929688 -27.871094 11.324219 -27.378906 11.71875 -26.886719 C 12.113281 -26.394531 12.65625 -25.898438 13.246094 -25.507812 C 13.835938 -25.113281 14.722656 -24.914062 16.003906 -24.914062 C 17.285156 -24.914062 18.21875 -25.210938 18.910156 -25.851562 C 20.238281 -27.132812 20.78125 -28.855469 20.582031 -31.070312 L 18.167969 -31.070312 C 18.167969 -29.789062 18.070312 -29.003906 17.921875 -28.609375 C 17.777344 -28.3125 17.578125 -28.066406 17.285156 -27.917969 C 16.988281 -27.722656 16.542969 -27.671875 15.953125 -27.671875 C 15.363281 -27.671875 14.871094 -27.871094 14.476562 -28.265625 C 14.082031 -28.65625 13.6875 -29.148438 13.292969 -29.644531 C 12.902344 -30.136719 12.410156 -30.578125 11.816406 -30.972656 C 11.226562 -31.367188 10.292969 -31.613281 9.109375 -31.613281 C 7.878906 -31.613281 6.941406 -31.265625 6.253906 -30.628906 C 4.972656 -29.394531 4.332031 -27.671875 4.429688 -25.507812 Z M 4.429688 -25.507812 "/></g></g></g><g fill="#000000" fill-opacity="1"><g transform="translate(570.613395, 110.499957)"><g><path d="M 20.925781 -10.832031 C 20.925781 -8.714844 20.1875 -6.84375 18.710938 -5.316406 C 17.234375 -3.742188 15.414062 -2.953125 13.292969 -2.953125 C 11.128906 -2.953125 9.304688 -3.742188 7.828125 -5.316406 C 6.351562 -6.84375 5.664062 -8.714844 5.664062 -10.832031 C 5.664062 -12.902344 6.351562 -14.773438 7.828125 -16.347656 C 9.304688 -17.921875 11.128906 -18.710938 13.292969 -18.710938 C 15.414062 -18.710938 17.234375 -17.921875 18.710938 -16.347656 C 20.1875 -14.773438 20.925781 -12.902344 20.925781 -10.832031 Z M 24.375 0 L 24.375 -21.664062 L 20.925781 -21.664062 L 20.925781 -17.921875 C 20.730469 -18.21875 20.484375 -18.464844 20.285156 -18.710938 C 18.21875 -20.976562 15.707031 -22.15625 12.753906 -22.15625 C 9.75 -22.15625 7.238281 -20.976562 5.171875 -18.710938 C 3.199219 -16.445312 2.214844 -13.835938 2.214844 -10.832031 C 2.214844 -7.78125 3.199219 -5.171875 5.171875 -2.953125 C 7.238281 -0.640625 9.75 0.492188 12.753906 0.492188 C 15.707031 0.492188 18.21875 -0.640625 20.285156 -2.953125 C 20.484375 -3.152344 20.730469 -3.398438 20.925781 -3.691406 L 20.925781 0 Z M 24.375 0 "/></g></g></g><g fill="#000000" fill-opacity="1"><g transform="translate(92.822477, 110.156108)"><g><path d="M 36.472656 2.742188 C 40.585938 2.742188 44.421875 1.371094 47.714844 -1.644531 C 51.003906 -4.660156 52.648438 -8.226562 52.648438 -12.613281 C 52.648438 -17 51.003906 -20.566406 47.714844 -23.582031 C 44.421875 -26.597656 40.859375 -28.246094 36.472656 -28.246094 C 32.082031 -28.246094 28.246094 -26.597656 25.226562 -23.582031 C 21.9375 -20.292969 20.566406 -16.726562 20.566406 -12.613281 C 20.566406 -8.226562 21.9375 -4.660156 25.226562 -1.644531 C 28.519531 1.371094 32.082031 2.742188 36.472656 2.742188 Z M 36.472656 2.742188 "/></g></g></g><g fill="#000000" fill-opacity="1"><g transform="translate(166.038185, 110.156108)"><g><path d="M 36.472656 2.742188 C 40.585938 2.742188 44.421875 1.371094 47.714844 -1.644531 C 51.003906 -4.660156 52.648438 -8.226562 52.648438 -12.613281 C 52.648438 -17 51.003906 -20.566406 47.714844 -23.582031 C 44.421875 -26.597656 40.859375 -28.246094 36.472656 -28.246094 C 32.082031 -28.246094 28.246094 -26.597656 25.226562 -23.582031 C 21.9375 -20.292969 20.566406 -16.726562 20.566406 -12.613281 C 20.566406 -8.226562 21.9375 -4.660156 25.226562 -1.644531 C 28.519531 1.371094 32.082031 2.742188 36.472656 2.742188 Z M 36.472656 2.742188 "/></g></g></g><g fill="#000000" fill-opacity="1"><g transform="translate(239.253893, 110.156108)"><g><path d="M 36.472656 2.742188 C 40.585938 2.742188 44.421875 1.371094 47.714844 -1.644531 C 51.003906 -4.660156 52.648438 -8.226562 52.648438 -12.613281 C 52.648438 -17 51.003906 -20.566406 47.714844 -23.582031 C 44.421875 -26.597656 40.859375 -28.246094 36.472656 -28.246094 C 32.082031 -28.246094 28.246094 -26.597656 25.226562 -23.582031 C 21.9375 -20.292969 20.566406 -16.726562 20.566406 -12.613281 C 20.566406 -8.226562 21.9375 -4.660156 25.226562 -1.644531 C 28.519531 1.371094 32.082031 2.742188 36.472656 2.742188 Z M 36.472656 2.742188 "/></g></g></g></svg>