<svg xmlns="http://www.w3.org/2000/svg" xmlns:xlink="http://www.w3.org/1999/xlink" width="1000" zoomAndPan="magnify" viewBox="0 0 750 202.499994" height="270" preserveAspectRatio="xMidYMid meet" version="1.0"><defs><g/><clipPath id="ee9fcea618"><path d="M 0.921875 0 L 749.074219 0 L 749.074219 186.195312 L 0.921875 186.195312 Z M 0.921875 0 " clip-rule="nonzero"/></clipPath><clipPath id="2aa7edf424"><path d="M 39.078125 0 L 710.921875 0 C 731.992188 0 749.078125 17.082031 749.078125 38.15625 L 749.078125 148.042969 C 749.078125 169.113281 731.992188 186.195312 710.921875 186.195312 L 39.078125 186.195312 C 18.007812 186.195312 0.921875 169.113281 0.921875 148.042969 L 0.921875 38.15625 C 0.921875 17.082031 18.007812 0 39.078125 0 Z M 39.078125 0 " clip-rule="nonzero"/></clipPath><clipPath id="1a946a1012"><path d="M 35.929688 31.378906 L 159.402344 31.378906 L 159.402344 154.851562 L 35.929688 154.851562 Z M 35.929688 31.378906 " clip-rule="nonzero"/></clipPath></defs><g clip-path="url(#ee9fcea618)"><g clip-path="url(#2aa7edf424)"><path fill="#7ed957" d="M 0.921875 0 L 749.078125 0 L 749.078125 186.195312 L 0.921875 186.195312 Z M 0.921875 0 " fill-opacity="1" fill-rule="nonzero"/></g></g><g clip-path="url(#1a946a1012)"><path fill="#ffffff" d="M 157.367188 154.804688 L 37.941406 154.804688 C 36.859375 154.804688 35.984375 153.925781 35.984375 152.84375 L 35.984375 141.6875 C 35.984375 123.128906 51.085938 108.027344 69.644531 108.027344 L 125.660156 108.027344 C 144.222656 108.027344 159.324219 123.128906 159.324219 141.6875 L 159.324219 152.84375 C 159.324219 153.925781 158.445312 154.804688 157.367188 154.804688 Z M 97.652344 102.765625 C 77.972656 102.765625 61.960938 86.753906 61.960938 67.070312 C 61.960938 47.390625 77.972656 31.378906 97.652344 31.378906 C 117.335938 31.378906 133.347656 47.390625 133.347656 67.070312 C 133.347656 86.753906 117.335938 102.765625 97.652344 102.765625 Z M 97.652344 102.765625 " fill-opacity="1" fill-rule="nonzero"/></g><g fill="#000000" fill-opacity="1"><g transform="translate(246.804999, 109.281621)"><g><path d="M 37.039062 -15.789062 L 19.464844 -15.789062 L 19.464844 -12.761719 L 33.167969 -12.761719 C 32.125 -9.832031 30.386719 -7.449219 27.90625 -5.710938 C 25.421875 -3.921875 22.640625 -3.078125 19.613281 -3.078125 C 15.738281 -3.078125 12.460938 -4.417969 9.730469 -7.148438 C 7.050781 -9.878906 5.710938 -13.207031 5.710938 -17.03125 C 5.710938 -20.855469 7.050781 -24.132812 9.78125 -26.863281 C 12.460938 -29.542969 15.738281 -30.933594 19.613281 -30.933594 C 22.492188 -30.933594 25.125 -30.089844 27.457031 -28.449219 C 29.839844 -26.8125 31.527344 -24.675781 32.621094 -21.945312 L 36.296875 -21.945312 C 35.152344 -25.671875 33.019531 -28.648438 29.941406 -30.933594 C 26.863281 -33.21875 23.285156 -34.410156 19.265625 -34.410156 C 17.082031 -34.410156 14.945312 -33.914062 12.859375 -33.019531 C 10.726562 -32.125 8.886719 -30.882812 7.300781 -29.296875 C 5.710938 -27.707031 4.46875 -25.867188 3.574219 -23.785156 C 2.679688 -21.648438 2.234375 -19.363281 2.234375 -16.980469 C 2.234375 -14.597656 2.679688 -12.3125 3.574219 -10.226562 C 4.46875 -8.09375 5.710938 -6.257812 7.300781 -4.667969 C 8.886719 -3.078125 10.726562 -1.835938 12.859375 -0.945312 C 14.945312 -0.0507812 17.230469 0.398438 19.613281 0.398438 C 23.683594 0.398438 27.359375 -0.894531 30.636719 -3.523438 C 33.914062 -6.207031 35.949219 -9.582031 36.691406 -13.703125 Z M 37.039062 -15.789062 "/></g></g></g><g fill="#000000" fill-opacity="1"><g transform="translate(286.066937, 109.281621)"><g><path d="M 25.074219 -11.421875 C 25.074219 -14.398438 23.882812 -16.980469 21.597656 -19.214844 C 19.363281 -21.351562 16.683594 -22.441406 13.65625 -22.441406 C 10.476562 -22.441406 7.796875 -21.300781 5.5625 -19.066406 C 3.328125 -16.832031 2.234375 -14.152344 2.234375 -11.023438 C 2.234375 -7.84375 3.328125 -5.164062 5.5625 -2.980469 C 6.605469 -1.9375 7.796875 -1.140625 9.1875 -0.546875 C 10.574219 0.0507812 12.214844 0.347656 14.152344 0.347656 C 16.085938 0.347656 17.972656 -0.25 19.859375 -1.441406 C 21.746094 -2.632812 23.136719 -4.320312 24.082031 -6.40625 L 20.109375 -6.40625 C 19.316406 -5.363281 18.371094 -4.566406 17.230469 -3.972656 C 16.085938 -3.375 14.894531 -3.128906 13.65625 -3.128906 C 11.769531 -3.128906 10.078125 -3.722656 8.589844 -4.964844 C 7.101562 -6.15625 6.15625 -7.695312 5.859375 -9.582031 L 25.074219 -9.582031 Z M 21.398438 -12.5625 L 5.910156 -12.5625 C 6.105469 -13.457031 6.453125 -14.300781 6.953125 -15.09375 C 8.539062 -17.675781 10.773438 -18.96875 13.65625 -18.96875 C 15.492188 -18.96875 17.128906 -18.371094 18.570312 -17.179688 C 20.058594 -15.9375 20.953125 -14.398438 21.398438 -12.5625 Z M 21.398438 -12.5625 "/></g></g></g><g fill="#000000" fill-opacity="1"><g transform="translate(313.118465, 109.281621)"><g><path d="M 6.851562 -3.078125 C 6.007812 -3.675781 5.363281 -4.667969 5.015625 -6.105469 L 1.339844 -6.105469 C 2.085938 -1.589844 4.964844 0.644531 10.03125 0.644531 C 11.222656 0.644531 12.3125 0.546875 13.355469 0.25 C 14.398438 -0.0507812 15.292969 -0.445312 16.136719 -0.992188 C 17.824219 -2.136719 18.667969 -3.871094 18.667969 -6.207031 C 18.667969 -8.589844 17.578125 -10.277344 15.292969 -11.371094 C 14.347656 -11.816406 13.308594 -12.164062 12.164062 -12.414062 C 11.074219 -12.660156 10.03125 -12.960938 9.085938 -13.257812 C 8.09375 -13.554688 7.300781 -13.953125 6.652344 -14.398438 C 6.007812 -14.847656 5.660156 -15.542969 5.660156 -16.535156 C 5.660156 -17.527344 6.058594 -18.273438 6.851562 -18.71875 C 7.644531 -19.214844 8.589844 -19.464844 9.632812 -19.464844 C 10.726562 -19.464844 11.667969 -19.214844 12.414062 -18.816406 C 13.15625 -18.421875 13.753906 -17.625 14.101562 -16.433594 L 17.824219 -16.433594 C 17.378906 -18.621094 16.433594 -20.160156 15.042969 -21.003906 C 13.605469 -21.898438 11.867188 -22.34375 9.730469 -22.34375 C 7.644531 -22.34375 5.808594 -21.746094 4.269531 -20.65625 C 2.78125 -19.511719 1.984375 -17.875 1.984375 -15.691406 C 1.984375 -14.648438 2.285156 -13.703125 2.832031 -12.910156 C 3.425781 -12.066406 4.269531 -11.421875 5.363281 -10.921875 C 6.355469 -10.476562 7.398438 -10.128906 8.492188 -9.832031 C 9.582031 -9.582031 10.625 -9.285156 11.617188 -8.988281 C 13.851562 -8.242188 14.996094 -7.148438 14.996094 -5.757812 C 14.996094 -3.375 13.40625 -2.234375 10.226562 -2.234375 C 8.886719 -2.234375 7.746094 -2.484375 6.851562 -3.078125 Z M 6.851562 -3.078125 "/></g></g></g><g fill="#000000" fill-opacity="1"><g transform="translate(333.072069, 109.281621)"><g><path d="M 0.992188 -18.621094 L 6.453125 -18.621094 L 6.453125 0 L 9.929688 0 L 9.929688 -18.621094 L 15.34375 -18.621094 L 15.34375 -21.847656 L 9.929688 -21.847656 L 9.929688 -30.335938 L 6.453125 -30.335938 L 6.453125 -21.847656 L 0.992188 -21.847656 Z M 0.992188 -18.621094 "/></g></g></g><g fill="#000000" fill-opacity="1"><g transform="translate(349.402247, 109.281621)"><g><path d="M 7.25 -29.394531 C 6.800781 -29.792969 6.257812 -30.039062 5.660156 -30.039062 C 5.066406 -30.039062 4.519531 -29.792969 4.121094 -29.394531 C 3.675781 -28.949219 3.476562 -28.402344 3.476562 -27.804688 C 3.476562 -27.210938 3.675781 -26.664062 4.121094 -26.265625 C 4.519531 -25.820312 5.066406 -25.621094 5.660156 -25.621094 C 6.257812 -25.621094 6.800781 -25.820312 7.25 -26.265625 C 7.644531 -26.664062 7.894531 -27.210938 7.894531 -27.804688 C 7.894531 -28.402344 7.644531 -28.949219 7.25 -29.394531 Z M 7.449219 0 L 7.449219 -21.847656 L 3.972656 -21.847656 L 3.972656 0 Z M 7.449219 0 "/></g></g></g><g fill="#000000" fill-opacity="1"><g transform="translate(360.76885, 109.281621)"><g><path d="M 21.597656 -11.023438 C 21.597656 -8.839844 20.804688 -7 19.265625 -5.460938 C 17.675781 -3.871094 15.839844 -3.128906 13.65625 -3.128906 C 11.46875 -3.128906 9.582031 -3.871094 8.042969 -5.460938 C 6.453125 -7 5.710938 -8.839844 5.710938 -11.023438 C 5.710938 -13.207031 6.453125 -15.042969 8.042969 -16.632812 C 9.582031 -18.171875 11.46875 -18.96875 13.65625 -18.96875 C 15.839844 -18.96875 17.675781 -18.171875 19.265625 -16.632812 C 20.804688 -15.042969 21.597656 -13.207031 21.597656 -11.023438 Z M 25.074219 -11.023438 C 25.074219 -14.152344 23.933594 -16.832031 21.699219 -19.066406 C 19.464844 -21.300781 16.78125 -22.441406 13.65625 -22.441406 C 10.476562 -22.441406 7.796875 -21.300781 5.5625 -19.066406 C 3.328125 -16.832031 2.234375 -14.152344 2.234375 -11.023438 C 2.234375 -7.84375 3.328125 -5.164062 5.5625 -2.980469 C 7.796875 -0.746094 10.527344 0.347656 13.65625 0.347656 C 16.734375 0.347656 19.464844 -0.746094 21.699219 -2.980469 C 23.933594 -5.164062 25.074219 -7.84375 25.074219 -11.023438 Z M 25.074219 -11.023438 "/></g></g></g><g fill="#000000" fill-opacity="1"><g transform="translate(388.068558, 109.281621)"><g><path d="M 18.816406 0 L 22.292969 0 L 22.292969 -13.65625 C 22.292969 -16.1875 21.597656 -18.222656 20.308594 -19.761719 C 19.613281 -20.554688 18.816406 -21.152344 17.875 -21.597656 C 16.882812 -22.046875 15.640625 -22.292969 14.101562 -22.292969 C 12.511719 -22.292969 11.171875 -21.847656 9.980469 -21.050781 C 8.839844 -20.308594 7.894531 -19.316406 7.199219 -18.074219 L 7.199219 -21.847656 L 3.722656 -21.847656 L 3.722656 0 L 7.199219 0 L 7.199219 -9.136719 C 7.199219 -11.917969 7.695312 -14.101562 8.738281 -15.738281 C 9.335938 -16.632812 10.078125 -17.378906 11.023438 -17.972656 C 11.917969 -18.519531 13.15625 -18.816406 14.648438 -18.816406 C 16.136719 -18.816406 17.179688 -18.273438 17.824219 -17.277344 C 18.46875 -16.285156 18.816406 -15.042969 18.816406 -13.65625 Z M 18.816406 0 "/></g></g></g><g fill="#000000" fill-opacity="1"><g transform="translate(413.333185, 109.281621)"><g><path d="M 21.101562 -10.921875 C 21.101562 -8.789062 20.359375 -6.902344 18.867188 -5.363281 C 17.378906 -3.773438 15.542969 -2.980469 13.40625 -2.980469 C 11.222656 -2.980469 9.382812 -3.773438 7.894531 -5.363281 C 6.40625 -6.902344 5.710938 -8.789062 5.710938 -10.921875 C 5.710938 -13.007812 6.40625 -14.894531 7.894531 -16.484375 C 9.382812 -18.074219 11.222656 -18.867188 13.40625 -18.867188 C 15.542969 -18.867188 17.378906 -18.074219 18.867188 -16.484375 C 20.359375 -14.894531 21.101562 -13.007812 21.101562 -10.921875 Z M 24.578125 0 L 24.578125 -21.847656 L 21.101562 -21.847656 L 21.101562 -18.074219 C 20.902344 -18.371094 20.65625 -18.621094 20.457031 -18.867188 C 18.371094 -21.152344 15.839844 -22.34375 12.859375 -22.34375 C 9.832031 -22.34375 7.300781 -21.152344 5.214844 -18.867188 C 3.226562 -16.582031 2.234375 -13.953125 2.234375 -10.921875 C 2.234375 -7.84375 3.226562 -5.214844 5.214844 -2.980469 C 7.300781 -0.644531 9.832031 0.496094 12.859375 0.496094 C 15.839844 0.496094 18.371094 -0.644531 20.457031 -2.980469 C 20.65625 -3.179688 20.902344 -3.425781 21.101562 -3.722656 L 21.101562 0 Z M 24.578125 0 "/></g></g></g><g fill="#000000" fill-opacity="1"><g transform="translate(441.625592, 109.281621)"><g><path d="M 14.945312 -17.328125 L 14.945312 -21.847656 C 14.25 -22.144531 13.503906 -22.292969 12.761719 -22.292969 C 10.277344 -22.292969 8.492188 -20.902344 7.347656 -18.222656 L 7.199219 -17.328125 L 7.199219 -21.847656 L 3.722656 -21.847656 L 3.722656 0 L 7.199219 0 L 7.199219 -10.921875 C 7.199219 -12.710938 7.597656 -14.300781 8.441406 -15.738281 C 8.839844 -16.484375 9.382812 -17.128906 10.03125 -17.625 C 10.675781 -18.125 11.46875 -18.421875 12.363281 -18.421875 C 13.257812 -18.421875 14.101562 -18.023438 14.945312 -17.328125 Z M 14.945312 -17.328125 "/></g></g></g><g fill="#000000" fill-opacity="1"><g transform="translate(457.062338, 109.281621)"><g/></g></g><g fill="#000000" fill-opacity="1"><g transform="translate(470.464003, 109.281621)"><g><path d="M 13.058594 -15.890625 C 17.429688 -14.847656 20.40625 -13.703125 21.996094 -12.414062 C 23.089844 -11.519531 23.632812 -10.378906 23.632812 -8.988281 C 23.632812 -7.597656 23.335938 -6.453125 22.742188 -5.660156 C 21.25 -3.574219 18.570312 -2.53125 14.796875 -2.53125 C 9.535156 -2.53125 6.554688 -4.320312 5.910156 -7.894531 L 1.835938 -7.894531 C 3.027344 -2.183594 7.347656 0.644531 14.796875 0.644531 C 18.125 0.644531 20.902344 -0.0507812 23.136719 -1.539062 C 25.820312 -3.277344 27.210938 -5.859375 27.210938 -9.234375 C 27.210938 -12.015625 26.117188 -14.152344 23.933594 -15.640625 C 22.394531 -16.734375 19.910156 -17.726562 16.484375 -18.621094 C 13.007812 -19.511719 10.773438 -20.257812 9.730469 -20.804688 C 7.449219 -21.945312 6.304688 -23.535156 6.355469 -25.621094 C 6.355469 -26.714844 6.554688 -27.65625 7.050781 -28.351562 C 8.339844 -30.289062 10.625 -31.28125 13.902344 -31.28125 C 18.519531 -31.28125 21.152344 -29.792969 21.847656 -26.910156 L 25.621094 -26.910156 C 24.378906 -31.777344 20.457031 -34.261719 13.902344 -34.261719 C 10.921875 -34.261719 8.292969 -33.464844 6.105469 -31.875 C 3.871094 -30.289062 2.730469 -27.953125 2.730469 -24.777344 C 2.730469 -20.457031 6.207031 -17.476562 13.058594 -15.890625 Z M 13.058594 -15.890625 "/></g></g></g><g fill="#000000" fill-opacity="1"><g transform="translate(498.954966, 109.281621)"><g><path d="M 18.816406 -3.722656 L 18.816406 0 L 22.292969 0 L 22.292969 -21.847656 L 18.816406 -21.847656 L 18.816406 -12.710938 C 18.816406 -9.632812 18.222656 -7.300781 17.082031 -5.5625 C 15.988281 -3.871094 14.050781 -3.027344 11.371094 -3.027344 C 9.878906 -3.027344 8.789062 -3.523438 8.144531 -4.519531 C 7.496094 -5.511719 7.199219 -6.753906 7.199219 -8.191406 L 7.199219 -21.847656 L 3.722656 -21.847656 L 3.722656 -8.191406 C 3.722656 -5.660156 4.371094 -3.574219 5.757812 -1.9375 C 7.148438 -0.347656 9.035156 0.445312 11.519531 0.445312 C 14.746094 0.445312 17.179688 -0.945312 18.816406 -3.722656 Z M 18.816406 -3.722656 "/></g></g></g><g fill="#000000" fill-opacity="1"><g transform="translate(524.219593, 109.281621)"><g><path d="M 7.199219 0 L 7.199219 -3.722656 C 7.347656 -3.425781 7.597656 -3.179688 7.796875 -2.980469 C 9.878906 -0.644531 12.414062 0.496094 15.441406 0.496094 C 18.421875 0.496094 20.953125 -0.644531 23.039062 -2.980469 C 25.023438 -5.214844 26.066406 -7.84375 26.066406 -10.921875 C 26.066406 -13.953125 25.023438 -16.582031 23.039062 -18.867188 C 20.953125 -21.152344 18.421875 -22.34375 15.441406 -22.34375 C 12.414062 -22.34375 9.878906 -21.152344 7.796875 -18.867188 C 7.597656 -18.621094 7.347656 -18.371094 7.199219 -18.074219 L 7.199219 -37.238281 L 3.722656 -37.238281 L 3.722656 0 Z M 22.59375 -10.921875 C 22.59375 -8.789062 21.847656 -6.902344 20.359375 -5.363281 C 18.867188 -3.773438 17.03125 -2.980469 14.894531 -2.980469 C 12.710938 -2.980469 10.875 -3.773438 9.382812 -5.363281 C 7.894531 -6.902344 7.199219 -8.789062 7.199219 -10.921875 C 7.199219 -13.007812 7.894531 -14.894531 9.382812 -16.484375 C 10.875 -18.074219 12.710938 -18.867188 14.894531 -18.867188 C 17.03125 -18.867188 18.867188 -18.074219 20.359375 -16.484375 C 21.847656 -14.894531 22.59375 -13.007812 22.59375 -10.921875 Z M 22.59375 -10.921875 "/></g></g></g><g fill="#000000" fill-opacity="1"><g transform="translate(552.512001, 109.281621)"><g><path d="M 28.152344 -11.171875 L 28.152344 -33.761719 L 24.675781 -33.761719 L 24.675781 -10.675781 C 24.675781 -9.285156 24.429688 -8.144531 23.933594 -7.199219 C 22.492188 -4.417969 19.710938 -3.027344 15.589844 -3.027344 C 12.910156 -3.027344 10.773438 -3.625 9.1875 -4.816406 C 7.347656 -6.15625 6.453125 -8.09375 6.453125 -10.675781 L 6.453125 -33.761719 L 2.980469 -33.761719 L 2.980469 -11.171875 C 2.980469 -7.496094 4.171875 -4.617188 6.554688 -2.53125 C 8.789062 -0.546875 11.816406 0.445312 15.589844 0.445312 C 19.316406 0.445312 22.292969 -0.546875 24.578125 -2.53125 C 26.960938 -4.617188 28.152344 -7.496094 28.152344 -11.171875 Z M 28.152344 -11.171875 "/></g></g></g><g fill="#000000" fill-opacity="1"><g transform="translate(583.633672, 109.281621)"><g><path d="M 6.851562 -3.078125 C 6.007812 -3.675781 5.363281 -4.667969 5.015625 -6.105469 L 1.339844 -6.105469 C 2.085938 -1.589844 4.964844 0.644531 10.03125 0.644531 C 11.222656 0.644531 12.3125 0.546875 13.355469 0.25 C 14.398438 -0.0507812 15.292969 -0.445312 16.136719 -0.992188 C 17.824219 -2.136719 18.667969 -3.871094 18.667969 -6.207031 C 18.667969 -8.589844 17.578125 -10.277344 15.292969 -11.371094 C 14.347656 -11.816406 13.308594 -12.164062 12.164062 -12.414062 C 11.074219 -12.660156 10.03125 -12.960938 9.085938 -13.257812 C 8.09375 -13.554688 7.300781 -13.953125 6.652344 -14.398438 C 6.007812 -14.847656 5.660156 -15.542969 5.660156 -16.535156 C 5.660156 -17.527344 6.058594 -18.273438 6.851562 -18.71875 C 7.644531 -19.214844 8.589844 -19.464844 9.632812 -19.464844 C 10.726562 -19.464844 11.667969 -19.214844 12.414062 -18.816406 C 13.15625 -18.421875 13.753906 -17.625 14.101562 -16.433594 L 17.824219 -16.433594 C 17.378906 -18.621094 16.433594 -20.160156 15.042969 -21.003906 C 13.605469 -21.898438 11.867188 -22.34375 9.730469 -22.34375 C 7.644531 -22.34375 5.808594 -21.746094 4.269531 -20.65625 C 2.78125 -19.511719 1.984375 -17.875 1.984375 -15.691406 C 1.984375 -14.648438 2.285156 -13.703125 2.832031 -12.910156 C 3.425781 -12.066406 4.269531 -11.421875 5.363281 -10.921875 C 6.355469 -10.476562 7.398438 -10.128906 8.492188 -9.832031 C 9.582031 -9.582031 10.625 -9.285156 11.617188 -8.988281 C 13.851562 -8.242188 14.996094 -7.148438 14.996094 -5.757812 C 14.996094 -3.375 13.40625 -2.234375 10.226562 -2.234375 C 8.886719 -2.234375 7.746094 -2.484375 6.851562 -3.078125 Z M 6.851562 -3.078125 "/></g></g></g><g fill="#000000" fill-opacity="1"><g transform="translate(603.587258, 109.281621)"><g><path d="M 18.816406 -3.722656 L 18.816406 0 L 22.292969 0 L 22.292969 -21.847656 L 18.816406 -21.847656 L 18.816406 -12.710938 C 18.816406 -9.632812 18.222656 -7.300781 17.082031 -5.5625 C 15.988281 -3.871094 14.050781 -3.027344 11.371094 -3.027344 C 9.878906 -3.027344 8.789062 -3.523438 8.144531 -4.519531 C 7.496094 -5.511719 7.199219 -6.753906 7.199219 -8.191406 L 7.199219 -21.847656 L 3.722656 -21.847656 L 3.722656 -8.191406 C 3.722656 -5.660156 4.371094 -3.574219 5.757812 -1.9375 C 7.148438 -0.347656 9.035156 0.445312 11.519531 0.445312 C 14.746094 0.445312 17.179688 -0.945312 18.816406 -3.722656 Z M 18.816406 -3.722656 "/></g></g></g><g fill="#000000" fill-opacity="1"><g transform="translate(628.851904, 109.281621)"><g><path d="M 21.101562 -10.921875 C 21.101562 -8.789062 20.359375 -6.902344 18.867188 -5.363281 C 17.378906 -3.773438 15.542969 -2.980469 13.40625 -2.980469 C 11.222656 -2.980469 9.382812 -3.773438 7.894531 -5.363281 C 6.40625 -6.902344 5.710938 -8.789062 5.710938 -10.921875 C 5.710938 -13.007812 6.40625 -14.894531 7.894531 -16.484375 C 9.382812 -18.074219 11.222656 -18.867188 13.40625 -18.867188 C 15.542969 -18.867188 17.378906 -18.074219 18.867188 -16.484375 C 20.359375 -14.894531 21.101562 -13.007812 21.101562 -10.921875 Z M 24.578125 0 L 24.578125 -21.847656 L 21.101562 -21.847656 L 21.101562 -18.074219 C 20.902344 -18.371094 20.65625 -18.621094 20.457031 -18.867188 C 18.371094 -21.152344 15.839844 -22.34375 12.859375 -22.34375 C 9.832031 -22.34375 7.300781 -21.152344 5.214844 -18.867188 C 3.226562 -16.582031 2.234375 -13.953125 2.234375 -10.921875 C 2.234375 -7.84375 3.226562 -5.214844 5.214844 -2.980469 C 7.300781 -0.644531 9.832031 0.496094 12.859375 0.496094 C 15.839844 0.496094 18.371094 -0.644531 20.457031 -2.980469 C 20.65625 -3.179688 20.902344 -3.425781 21.101562 -3.722656 L 21.101562 0 Z M 24.578125 0 "/></g></g></g><g fill="#000000" fill-opacity="1"><g transform="translate(657.144311, 109.281621)"><g><path d="M 14.945312 -17.328125 L 14.945312 -21.847656 C 14.25 -22.144531 13.503906 -22.292969 12.761719 -22.292969 C 10.277344 -22.292969 8.492188 -20.902344 7.347656 -18.222656 L 7.199219 -17.328125 L 7.199219 -21.847656 L 3.722656 -21.847656 L 3.722656 0 L 7.199219 0 L 7.199219 -10.921875 C 7.199219 -12.710938 7.597656 -14.300781 8.441406 -15.738281 C 8.839844 -16.484375 9.382812 -17.128906 10.03125 -17.625 C 10.675781 -18.125 11.46875 -18.421875 12.363281 -18.421875 C 13.257812 -18.421875 14.101562 -18.023438 14.945312 -17.328125 Z M 14.945312 -17.328125 "/></g></g></g><g fill="#000000" fill-opacity="1"><g transform="translate(672.581057, 109.281621)"><g><path d="M 7.25 -29.394531 C 6.800781 -29.792969 6.257812 -30.039062 5.660156 -30.039062 C 5.066406 -30.039062 4.519531 -29.792969 4.121094 -29.394531 C 3.675781 -28.949219 3.476562 -28.402344 3.476562 -27.804688 C 3.476562 -27.210938 3.675781 -26.664062 4.121094 -26.265625 C 4.519531 -25.820312 5.066406 -25.621094 5.660156 -25.621094 C 6.257812 -25.621094 6.800781 -25.820312 7.25 -26.265625 C 7.644531 -26.664062 7.894531 -27.210938 7.894531 -27.804688 C 7.894531 -28.402344 7.644531 -28.949219 7.25 -29.394531 Z M 7.449219 0 L 7.449219 -21.847656 L 3.972656 -21.847656 L 3.972656 0 Z M 7.449219 0 "/></g></g></g><g fill="#000000" fill-opacity="1"><g transform="translate(683.947641, 109.281621)"><g><path d="M 21.597656 -11.023438 C 21.597656 -8.839844 20.804688 -7 19.265625 -5.460938 C 17.675781 -3.871094 15.839844 -3.128906 13.65625 -3.128906 C 11.46875 -3.128906 9.582031 -3.871094 8.042969 -5.460938 C 6.453125 -7 5.710938 -8.839844 5.710938 -11.023438 C 5.710938 -13.207031 6.453125 -15.042969 8.042969 -16.632812 C 9.582031 -18.171875 11.46875 -18.96875 13.65625 -18.96875 C 15.839844 -18.96875 17.675781 -18.171875 19.265625 -16.632812 C 20.804688 -15.042969 21.597656 -13.207031 21.597656 -11.023438 Z M 25.074219 -11.023438 C 25.074219 -14.152344 23.933594 -16.832031 21.699219 -19.066406 C 19.464844 -21.300781 16.78125 -22.441406 13.65625 -22.441406 C 10.476562 -22.441406 7.796875 -21.300781 5.5625 -19.066406 C 3.328125 -16.832031 2.234375 -14.152344 2.234375 -11.023438 C 2.234375 -7.84375 3.328125 -5.164062 5.5625 -2.980469 C 7.796875 -0.746094 10.527344 0.347656 13.65625 0.347656 C 16.734375 0.347656 19.464844 -0.746094 21.699219 -2.980469 C 23.933594 -5.164062 25.074219 -7.84375 25.074219 -11.023438 Z M 25.074219 -11.023438 "/></g></g></g></svg>