<svg xmlns="http://www.w3.org/2000/svg" xmlns:xlink="http://www.w3.org/1999/xlink" width="1000" zoomAndPan="magnify" viewBox="0 0 750 202.499994" height="270" preserveAspectRatio="xMidYMid meet" version="1.0"><defs><g/><clipPath id="62d3b164fd"><path d="M 0.921875 0 L 749.074219 0 L 749.074219 192.480469 L 0.921875 192.480469 Z M 0.921875 0 " clip-rule="nonzero"/></clipPath><clipPath id="ee756a7faa"><path d="M 39.078125 0 L 710.921875 0 C 731.992188 0 749.078125 17.082031 749.078125 38.15625 L 749.078125 154.324219 C 749.078125 175.398438 731.992188 192.480469 710.921875 192.480469 L 39.078125 192.480469 C 18.007812 192.480469 0.921875 175.398438 0.921875 154.324219 L 0.921875 38.15625 C 0.921875 17.082031 18.007812 0 39.078125 0 Z M 39.078125 0 " clip-rule="nonzero"/></clipPath><clipPath id="d7bd9a1b39"><path d="M 106.761719 25 L 265 25 L 265 176.867188 L 106.761719 176.867188 Z M 106.761719 25 " clip-rule="nonzero"/></clipPath></defs><g clip-path="url(#62d3b164fd)"><g clip-path="url(#ee756a7faa)"><path fill="#38b6ff" d="M 0.921875 0 L 749.078125 0 L 749.078125 192.480469 L 0.921875 192.480469 Z M 0.921875 0 " fill-opacity="1" fill-rule="nonzero"/></g></g><g clip-path="url(#d7bd9a1b39)"><path fill="#000000" d="M 264.742188 174.699219 L 257.074219 159.226562 C 257.136719 158.804688 257.167969 158.410156 257.167969 158.027344 L 257.167969 133.464844 C 257.167969 131.054688 256.199219 128.871094 254.640625 127.269531 L 254.640625 93.585938 C 254.640625 86.792969 249.125 81.265625 242.351562 81.265625 L 199.644531 81.265625 L 199.644531 50.40625 C 199.644531 43.613281 194.132812 38.089844 187.355469 38.089844 L 159.636719 38.089844 L 159.636719 33.902344 C 159.636719 29.011719 155.667969 25.03125 150.789062 25.03125 L 123.445312 25.03125 C 118.566406 25.03125 114.597656 29.011719 114.597656 33.902344 L 114.597656 58.464844 C 114.597656 58.847656 114.625 59.242188 114.6875 59.667969 L 107.019531 75.136719 C 106.78125 75.621094 106.875 76.203125 107.253906 76.582031 C 107.496094 76.824219 107.816406 76.953125 108.140625 76.953125 C 108.332031 76.953125 108.519531 76.910156 108.699219 76.820312 L 117.121094 72.644531 L 117.121094 98.871094 C 117.121094 105.664062 122.632812 111.1875 129.410156 111.1875 L 175.726562 111.1875 L 175.726562 142.050781 C 175.726562 148.839844 181.242188 154.367188 188.015625 154.367188 L 212.125 154.367188 L 212.125 158.027344 C 212.125 162.917969 216.09375 166.898438 220.972656 166.898438 L 243.929688 166.898438 L 263.0625 176.386719 C 263.242188 176.472656 263.429688 176.515625 263.621094 176.515625 C 263.945312 176.515625 264.265625 176.386719 264.507812 176.144531 C 264.886719 175.761719 264.980469 175.179688 264.742188 174.699219 Z M 117.113281 60.421875 C 117.234375 60.179688 117.273438 59.902344 117.222656 59.632812 C 117.144531 59.199219 117.105469 58.816406 117.105469 58.464844 L 117.105469 33.902344 C 117.105469 30.398438 119.949219 27.546875 123.445312 27.546875 L 150.789062 27.546875 C 154.285156 27.546875 157.132812 30.398438 157.132812 33.902344 L 157.132812 58.464844 C 157.132812 61.972656 154.285156 64.824219 150.789062 64.824219 L 127.539062 64.824219 C 127.347656 64.824219 127.15625 64.867188 126.984375 64.953125 L 110.917969 72.917969 Z M 129.410156 108.675781 C 124.015625 108.675781 119.628906 104.277344 119.628906 98.871094 L 119.628906 71.402344 L 127.835938 67.335938 L 150.789062 67.335938 C 155.667969 67.335938 159.636719 63.355469 159.636719 58.464844 L 159.636719 40.601562 L 187.355469 40.601562 C 192.75 40.601562 197.136719 45 197.136719 50.40625 L 197.136719 81.269531 L 188.019531 81.269531 C 181.242188 81.269531 175.730469 86.792969 175.730469 93.585938 L 175.730469 108.675781 Z M 188.019531 151.855469 C 182.625 151.855469 178.238281 147.457031 178.238281 142.050781 L 178.238281 93.585938 C 178.238281 88.179688 182.625 83.78125 188.019531 83.78125 L 242.351562 83.78125 C 247.746094 83.78125 252.132812 88.179688 252.132812 93.585938 L 252.132812 125.472656 C 250.972656 124.914062 249.683594 124.59375 248.316406 124.59375 L 220.972656 124.59375 C 216.09375 124.59375 212.125 128.574219 212.125 133.464844 L 212.125 151.855469 Z M 244.777344 164.511719 C 244.605469 164.429688 244.414062 164.382812 244.222656 164.382812 L 220.972656 164.382812 C 217.476562 164.382812 214.632812 161.53125 214.632812 158.027344 L 214.632812 133.464844 C 214.632812 129.960938 217.476562 127.109375 220.972656 127.109375 L 248.316406 127.109375 C 251.816406 127.109375 254.660156 129.960938 254.660156 133.464844 L 254.660156 158.027344 C 254.660156 158.378906 254.621094 158.761719 254.539062 159.195312 C 254.492188 159.464844 254.53125 159.742188 254.652344 159.984375 L 260.84375 172.476562 Z M 244.777344 164.511719 " fill-opacity="1" fill-rule="nonzero"/></g><path fill="#000000" d="M 190.988281 103.769531 L 242.019531 103.769531 C 242.710938 103.769531 243.273438 103.210938 243.273438 102.515625 C 243.273438 101.820312 242.710938 101.257812 242.019531 101.257812 L 190.988281 101.257812 C 190.296875 101.257812 189.734375 101.820312 189.734375 102.515625 C 189.734375 103.210938 190.296875 103.769531 190.988281 103.769531 Z M 190.988281 103.769531 " fill-opacity="1" fill-rule="nonzero"/><path fill="#000000" d="M 227.84375 118.347656 C 228.527344 118.347656 229.085938 117.796875 229.097656 117.113281 C 229.109375 116.417969 228.558594 115.84375 227.867188 115.832031 L 191.011719 115.191406 C 190.273438 115.191406 189.746094 115.734375 189.734375 116.425781 C 189.722656 117.121094 190.277344 117.691406 190.964844 117.707031 L 227.820312 118.347656 C 227.828125 118.347656 227.835938 118.347656 227.84375 118.347656 Z M 227.84375 118.347656 " fill-opacity="1" fill-rule="nonzero"/><path fill="#000000" d="M 248.367188 136.011719 L 236.988281 136.011719 L 236.988281 130.007812 C 236.988281 129.3125 236.425781 128.753906 235.734375 128.753906 C 235.042969 128.753906 234.480469 129.3125 234.480469 130.007812 L 234.480469 136.011719 L 223.570312 136.011719 C 222.878906 136.011719 222.316406 136.574219 222.316406 137.269531 C 222.316406 137.964844 222.878906 138.527344 223.570312 138.527344 L 240.945312 138.527344 C 240.199219 143.253906 238.574219 147.195312 236.027344 150.382812 C 233.8125 147.953125 232.089844 145.042969 230.878906 141.566406 C 230.652344 140.910156 229.9375 140.5625 229.285156 140.792969 C 228.632812 141.019531 228.285156 141.738281 228.511719 142.390625 C 229.851562 146.242188 231.816406 149.507812 234.34375 152.226562 C 231.675781 154.859375 228.246094 156.875 224.011719 158.289062 C 223.355469 158.511719 222.996094 159.222656 223.21875 159.882812 C 223.390625 160.40625 223.882812 160.742188 224.40625 160.742188 C 224.539062 160.742188 224.671875 160.71875 224.804688 160.675781 C 229.40625 159.140625 233.179688 156.886719 236.128906 153.957031 C 238.675781 156.207031 241.679688 158.003906 245.183594 159.28125 C 245.324219 159.332031 245.46875 159.355469 245.613281 159.355469 C 246.125 159.355469 246.605469 159.039062 246.789062 158.527344 C 247.027344 157.875 246.691406 157.15625 246.039062 156.917969 C 242.824219 155.75 240.105469 154.140625 237.808594 152.125 C 240.792969 148.476562 242.679688 143.933594 243.476562 138.527344 L 248.367188 138.527344 C 249.058594 138.527344 249.621094 137.964844 249.621094 137.273438 C 249.621094 136.578125 249.0625 136.011719 248.367188 136.011719 Z M 248.367188 136.011719 " fill-opacity="1" fill-rule="nonzero"/><path fill="#000000" d="M 128.363281 59.175781 L 130.773438 52.921875 L 144.097656 52.921875 L 146.507812 59.175781 C 146.699219 59.675781 147.175781 59.980469 147.679688 59.980469 C 147.828125 59.980469 147.980469 59.953125 148.128906 59.894531 C 148.777344 59.648438 149.097656 58.917969 148.847656 58.269531 L 138.605469 31.683594 C 138.417969 31.199219 137.953125 30.882812 137.4375 30.882812 C 136.917969 30.882812 136.453125 31.199219 136.265625 31.683594 L 128.757812 51.175781 C 128.757812 51.175781 128.757812 51.175781 128.753906 51.175781 L 126.023438 58.269531 C 125.773438 58.917969 126.09375 59.644531 126.738281 59.894531 C 127.386719 60.144531 128.113281 59.824219 128.363281 59.175781 Z M 137.4375 35.628906 L 143.132812 50.410156 L 131.742188 50.410156 Z M 137.4375 35.628906 " fill-opacity="1" fill-rule="nonzero"/><path fill="#000000" d="M 164.71875 63.371094 L 186.734375 63.371094 C 187.425781 63.371094 187.984375 62.808594 187.984375 62.117188 C 187.984375 61.421875 187.425781 60.859375 186.734375 60.859375 L 164.71875 60.859375 C 164.027344 60.859375 163.464844 61.421875 163.464844 62.117188 C 163.464844 62.808594 164.027344 63.371094 164.71875 63.371094 Z M 164.71875 63.371094 " fill-opacity="1" fill-rule="nonzero"/><path fill="#000000" d="M 131.453125 75.398438 L 186.734375 75.398438 C 187.425781 75.398438 187.984375 74.835938 187.984375 74.140625 C 187.984375 73.445312 187.425781 72.886719 186.734375 72.886719 L 131.453125 72.886719 C 130.761719 72.886719 130.199219 73.445312 130.199219 74.140625 C 130.199219 74.835938 130.761719 75.398438 131.453125 75.398438 Z M 131.453125 75.398438 " fill-opacity="1" fill-rule="nonzero"/><path fill="#000000" d="M 162.179688 83.523438 L 131.453125 83.523438 C 130.761719 83.523438 130.199219 84.085938 130.199219 84.78125 C 130.199219 85.472656 130.761719 86.035156 131.453125 86.035156 L 162.179688 86.035156 C 162.871094 86.035156 163.433594 85.472656 163.433594 84.78125 C 163.433594 84.085938 162.871094 83.523438 162.179688 83.523438 Z M 162.179688 83.523438 " fill-opacity="1" fill-rule="nonzero"/><g fill="#000000" fill-opacity="1"><g transform="translate(417.534752, 112.423688)"><g><path d="M 7.199219 0 L 7.199219 -33.761719 L 3.722656 -33.761719 L 3.722656 0 Z M 7.199219 0 "/></g></g></g><g fill="#000000" fill-opacity="1"><g transform="translate(428.454639, 112.423688)"><g><path d="M 21.101562 -10.921875 C 21.101562 -8.789062 20.359375 -6.902344 18.867188 -5.363281 C 17.378906 -3.773438 15.542969 -2.980469 13.40625 -2.980469 C 11.222656 -2.980469 9.382812 -3.773438 7.894531 -5.363281 C 6.40625 -6.902344 5.710938 -8.789062 5.710938 -10.921875 C 5.710938 -13.007812 6.40625 -14.894531 7.894531 -16.484375 C 9.382812 -18.074219 11.222656 -18.867188 13.40625 -18.867188 C 15.542969 -18.867188 17.378906 -18.074219 18.867188 -16.484375 C 20.359375 -14.894531 21.101562 -13.007812 21.101562 -10.921875 Z M 24.578125 0 L 24.578125 -37.238281 L 21.101562 -37.238281 L 21.101562 -18.074219 C 20.902344 -18.371094 20.65625 -18.621094 20.457031 -18.867188 C 18.371094 -21.152344 15.839844 -22.34375 12.859375 -22.34375 C 9.832031 -22.34375 7.300781 -21.152344 5.214844 -18.867188 C 3.226562 -16.582031 2.234375 -13.953125 2.234375 -10.921875 C 2.234375 -7.84375 3.226562 -5.214844 5.214844 -2.980469 C 7.300781 -0.644531 9.832031 0.496094 12.859375 0.496094 C 15.839844 0.496094 18.371094 -0.644531 20.457031 -2.980469 C 20.65625 -3.179688 20.902344 -3.425781 21.101562 -3.722656 L 21.101562 0 Z M 24.578125 0 "/></g></g></g><g fill="#000000" fill-opacity="1"><g transform="translate(456.747047, 112.423688)"><g><path d="M 7.25 -29.394531 C 6.800781 -29.792969 6.257812 -30.039062 5.660156 -30.039062 C 5.066406 -30.039062 4.519531 -29.792969 4.121094 -29.394531 C 3.675781 -28.949219 3.476562 -28.402344 3.476562 -27.804688 C 3.476562 -27.210938 3.675781 -26.664062 4.121094 -26.265625 C 4.519531 -25.820312 5.066406 -25.621094 5.660156 -25.621094 C 6.257812 -25.621094 6.800781 -25.820312 7.25 -26.265625 C 7.644531 -26.664062 7.894531 -27.210938 7.894531 -27.804688 C 7.894531 -28.402344 7.644531 -28.949219 7.25 -29.394531 Z M 7.449219 0 L 7.449219 -21.847656 L 3.972656 -21.847656 L 3.972656 0 Z M 7.449219 0 "/></g></g></g><g fill="#000000" fill-opacity="1"><g transform="translate(468.113649, 112.423688)"><g><path d="M 21.597656 -11.023438 C 21.597656 -8.839844 20.804688 -7 19.265625 -5.460938 C 17.675781 -3.871094 15.839844 -3.128906 13.65625 -3.128906 C 11.46875 -3.128906 9.582031 -3.871094 8.042969 -5.460938 C 6.453125 -7 5.710938 -8.839844 5.710938 -11.023438 C 5.710938 -13.207031 6.453125 -15.042969 8.042969 -16.632812 C 9.582031 -18.171875 11.46875 -18.96875 13.65625 -18.96875 C 15.839844 -18.96875 17.675781 -18.171875 19.265625 -16.632812 C 20.804688 -15.042969 21.597656 -13.207031 21.597656 -11.023438 Z M 25.074219 -11.023438 C 25.074219 -14.152344 23.933594 -16.832031 21.699219 -19.066406 C 19.464844 -21.300781 16.78125 -22.441406 13.65625 -22.441406 C 10.476562 -22.441406 7.796875 -21.300781 5.5625 -19.066406 C 3.328125 -16.832031 2.234375 -14.152344 2.234375 -11.023438 C 2.234375 -7.84375 3.328125 -5.164062 5.5625 -2.980469 C 7.796875 -0.746094 10.527344 0.347656 13.65625 0.347656 C 16.734375 0.347656 19.464844 -0.746094 21.699219 -2.980469 C 23.933594 -5.164062 25.074219 -7.84375 25.074219 -11.023438 Z M 25.074219 -11.023438 "/></g></g></g><g fill="#000000" fill-opacity="1"><g transform="translate(495.413358, 112.423688)"><g><path d="M 31.429688 -0.0976562 L 34.90625 -0.0976562 L 34.90625 -13.753906 C 34.90625 -16.1875 34.261719 -18.222656 33.070312 -19.8125 C 32.472656 -20.605469 31.679688 -21.203125 30.785156 -21.699219 C 29.839844 -22.195312 28.601562 -22.441406 27.109375 -22.441406 C 25.570312 -22.441406 24.230469 -21.996094 23.089844 -21.203125 C 22.046875 -20.40625 21.203125 -19.464844 20.507812 -18.273438 C 20.257812 -18.816406 19.960938 -19.316406 19.613281 -19.8125 C 19.015625 -20.605469 18.222656 -21.203125 17.328125 -21.699219 C 16.386719 -22.195312 15.144531 -22.441406 13.65625 -22.441406 C 12.113281 -22.441406 10.773438 -21.996094 9.632812 -21.203125 C 8.640625 -20.457031 7.84375 -19.5625 7.199219 -18.421875 L 7.199219 -21.945312 L 3.722656 -21.945312 L 3.722656 -0.0976562 L 7.199219 -0.0976562 L 7.199219 -11.269531 C 7.347656 -13.007812 7.796875 -14.546875 8.539062 -15.789062 C 9.035156 -16.683594 9.78125 -17.476562 10.675781 -18.074219 C 11.570312 -18.667969 12.511719 -18.96875 13.554688 -18.96875 C 14.546875 -18.96875 15.34375 -18.769531 15.839844 -18.46875 C 17.230469 -17.578125 17.972656 -15.988281 17.972656 -13.753906 L 17.972656 -0.0976562 L 21.449219 -0.0976562 L 21.449219 -13.753906 C 21.449219 -14.003906 21.398438 -14.300781 21.398438 -14.546875 C 21.550781 -14.996094 21.746094 -15.390625 21.996094 -15.789062 C 22.492188 -16.683594 23.238281 -17.476562 24.132812 -18.074219 C 25.023438 -18.667969 25.96875 -18.96875 27.011719 -18.96875 C 28.003906 -18.96875 28.796875 -18.769531 29.296875 -18.46875 C 30.683594 -17.578125 31.429688 -15.988281 31.429688 -13.753906 Z M 31.429688 -0.0976562 "/></g></g></g><g fill="#000000" fill-opacity="1"><g transform="translate(533.285487, 112.423688)"><g><path d="M 21.101562 -10.921875 C 21.101562 -8.789062 20.359375 -6.902344 18.867188 -5.363281 C 17.378906 -3.773438 15.542969 -2.980469 13.40625 -2.980469 C 11.222656 -2.980469 9.382812 -3.773438 7.894531 -5.363281 C 6.40625 -6.902344 5.710938 -8.789062 5.710938 -10.921875 C 5.710938 -13.007812 6.40625 -14.894531 7.894531 -16.484375 C 9.382812 -18.074219 11.222656 -18.867188 13.40625 -18.867188 C 15.542969 -18.867188 17.378906 -18.074219 18.867188 -16.484375 C 20.359375 -14.894531 21.101562 -13.007812 21.101562 -10.921875 Z M 24.578125 0 L 24.578125 -21.847656 L 21.101562 -21.847656 L 21.101562 -18.074219 C 20.902344 -18.371094 20.65625 -18.621094 20.457031 -18.867188 C 18.371094 -21.152344 15.839844 -22.34375 12.859375 -22.34375 C 9.832031 -22.34375 7.300781 -21.152344 5.214844 -18.867188 C 3.226562 -16.582031 2.234375 -13.953125 2.234375 -10.921875 C 2.234375 -7.84375 3.226562 -5.214844 5.214844 -2.980469 C 7.300781 -0.644531 9.832031 0.496094 12.859375 0.496094 C 15.839844 0.496094 18.371094 -0.644531 20.457031 -2.980469 C 20.65625 -3.179688 20.902344 -3.425781 21.101562 -3.722656 L 21.101562 0 Z M 24.578125 0 "/></g></g></g></svg>