<svg xmlns="http://www.w3.org/2000/svg" xmlns:xlink="http://www.w3.org/1999/xlink" width="1000" zoomAndPan="magnify" viewBox="0 0 750 202.499994" height="270" preserveAspectRatio="xMidYMid meet" version="1.0"><defs><g/><clipPath id="d9d2c5d858"><path d="M 0.921875 0 L 749.074219 0 L 749.074219 192.480469 L 0.921875 192.480469 Z M 0.921875 0 " clip-rule="nonzero"/></clipPath><clipPath id="f201321c8f"><path d="M 39.078125 0 L 710.921875 0 C 731.992188 0 749.078125 17.082031 749.078125 38.15625 L 749.078125 154.324219 C 749.078125 175.398438 731.992188 192.480469 710.921875 192.480469 L 39.078125 192.480469 C 18.007812 192.480469 0.921875 175.398438 0.921875 154.324219 L 0.921875 38.15625 C 0.921875 17.082031 18.007812 0 39.078125 0 Z M 39.078125 0 " clip-rule="nonzero"/></clipPath><clipPath id="d0b89d2f2c"><path d="M 52.800781 57 L 157 57 L 157 157.847656 L 52.800781 157.847656 Z M 52.800781 57 " clip-rule="nonzero"/></clipPath><clipPath id="1f25a05441"><path d="M 108 71 L 202.433594 71 L 202.433594 157.847656 L 108 157.847656 Z M 108 71 " clip-rule="nonzero"/></clipPath><clipPath id="283b291c08"><path d="M 52.800781 39.636719 L 202.433594 39.636719 L 202.433594 149 L 52.800781 149 Z M 52.800781 39.636719 " clip-rule="nonzero"/></clipPath></defs><g clip-path="url(#d9d2c5d858)"><g clip-path="url(#f201321c8f)"><path fill="#f19d42" d="M 0.921875 0 L 749.078125 0 L 749.078125 192.480469 L 0.921875 192.480469 Z M 0.921875 0 " fill-opacity="1" fill-rule="nonzero"/></g></g><g clip-path="url(#d0b89d2f2c)"><path fill="#3e893e" d="M 156.496094 135.617188 L 150.960938 151.1875 L 146.949219 157.75 L 113.640625 138.570312 L 113.640625 132.574219 L 111.90625 128.785156 L 108.375 135.585938 L 52.800781 103.632812 L 52.800781 90.867188 L 55.105469 90.867188 L 56.035156 88.988281 L 56.035156 72.789062 L 54.121094 71.683594 L 54.121094 58.914062 L 80.394531 57.335938 L 92.125 61.003906 L 146.113281 85.554688 L 150.03125 92.984375 L 149.164062 103.21875 C 149.402344 102.890625 149.734375 102.621094 150.242188 102.5 C 152.1875 102.054688 154.429688 103.246094 155.03125 105.125 C 155.300781 105.960938 155.300781 106.828125 155.210938 107.691406 C 155.148438 108.199219 155.058594 108.707031 154.789062 109.152344 C 154.191406 110.109375 152.816406 110.40625 151.738281 109.988281 C 150.691406 109.570312 149.914062 108.585938 149.433594 107.574219 C 149.222656 107.125 149.042969 106.558594 148.894531 105.960938 L 147.636719 120.730469 L 124.117188 114.285156 L 111.546875 122.847656 L 111.160156 122.609375 L 111.308594 124.726562 L 117.5625 127.144531 Z M 156.496094 135.617188 " fill-opacity="1" fill-rule="nonzero"/></g><g clip-path="url(#1f25a05441)"><path fill="#4d9e4d" d="M 111.578125 104.738281 L 144.886719 85.554688 L 144.886719 103.632812 L 141.625 105.515625 L 141.625 116.433594 L 116.304688 130.992188 L 113.582031 129.410156 L 113.582031 132.542969 L 108.316406 135.585938 L 108.316406 122.816406 L 111.578125 120.9375 Z M 143 71.683594 L 111.90625 75.503906 L 109.691406 90.835938 L 109.691406 103.605469 L 142.730469 86.421875 L 143.03125 84.421875 L 143.03125 71.683594 Z M 180.976562 101.515625 L 147.667969 120.699219 L 147.667969 92.984375 L 146.890625 75.382812 L 180.976562 73.800781 L 180.976562 83.855469 L 182.113281 86.449219 L 185.375 86.390625 L 185.375 88.152344 L 180.976562 90.6875 Z M 152.097656 107.332031 L 152.097656 105.574219 L 149.523438 104.082031 L 149.523438 105.84375 Z M 146.921875 148.59375 L 146.921875 157.722656 L 202.433594 125.769531 L 202.433594 116.640625 L 148.804688 118.878906 Z M 146.921875 148.59375 " fill-opacity="1" fill-rule="nonzero"/></g><g clip-path="url(#283b291c08)"><path fill="#5cad5c" d="M 109.960938 121.890625 L 108.34375 122.816406 L 52.800781 90.867188 L 56.0625 88.988281 L 56.0625 90.867188 Z M 144.886719 91.375 L 147.667969 92.984375 L 180.976562 73.800781 L 125.464844 41.851562 L 108.316406 51.726562 L 87.457031 39.734375 L 54.148438 58.914062 L 109.660156 90.867188 L 142.96875 71.683594 L 142.96875 84.480469 L 109.660156 103.664062 L 111.546875 104.769531 L 144.855469 85.585938 L 144.855469 91.375 Z M 180.976562 86.09375 C 180.976562 86.09375 160.058594 98.054688 149.492188 104.113281 L 152.066406 105.605469 L 185.375 86.421875 L 180.976562 83.886719 Z M 169.125 97.460938 L 113.582031 129.410156 L 146.890625 148.59375 L 202.433594 116.640625 Z M 169.125 97.460938 " fill-opacity="1" fill-rule="nonzero"/></g><path fill="#8dbc71" d="M 108.824219 62.613281 C 108.824219 62.734375 108.734375 62.824219 108.585938 62.914062 C 108.433594 63.003906 108.285156 63.0625 108.105469 63.0625 C 107.925781 63.0625 107.746094 63.03125 107.566406 62.914062 L 107.117188 62.644531 L 97.960938 64.613281 L 100.296875 65.957031 C 100.445312 66.046875 100.503906 66.105469 100.503906 66.195312 C 100.503906 66.285156 100.445312 66.34375 100.355469 66.402344 C 100.234375 66.460938 100.144531 66.523438 100.027344 66.523438 C 99.90625 66.523438 99.785156 66.492188 99.636719 66.402344 L 97.03125 64.910156 L 95.207031 66.074219 L 97.8125 67.566406 C 97.960938 67.65625 98.019531 67.714844 98.019531 67.804688 C 98.019531 67.863281 97.960938 67.953125 97.871094 68.015625 C 97.78125 68.074219 97.660156 68.105469 97.542969 68.132812 C 97.421875 68.132812 97.273438 68.105469 97.152344 68.015625 L 94.550781 66.523438 L 92.15625 68.074219 L 93.859375 69.058594 C 94.039062 69.175781 94.160156 69.265625 94.128906 69.386719 C 94.128906 69.503906 94.039062 69.59375 93.890625 69.683594 C 93.742188 69.773438 93.589844 69.835938 93.414062 69.835938 C 93.234375 69.835938 93.054688 69.804688 92.875 69.683594 L 88.625 67.238281 C 88.445312 67.121094 88.355469 67.03125 88.355469 66.910156 C 88.355469 66.792969 88.445312 66.703125 88.5625 66.613281 C 88.714844 66.523438 88.863281 66.460938 89.042969 66.460938 C 89.222656 66.460938 89.402344 66.492188 89.582031 66.613281 L 91.289062 67.597656 L 93.679688 66.046875 L 91.078125 64.554688 C 90.957031 64.464844 90.867188 64.40625 90.898438 64.316406 C 90.898438 64.226562 90.957031 64.164062 91.046875 64.105469 C 91.167969 64.046875 91.257812 63.988281 91.378906 63.988281 C 91.496094 63.988281 91.617188 64.015625 91.765625 64.105469 L 94.371094 65.597656 L 96.195312 64.433594 L 93.589844 62.941406 C 93.472656 62.851562 93.382812 62.792969 93.382812 62.703125 C 93.382812 62.613281 93.441406 62.554688 93.53125 62.496094 C 93.621094 62.433594 93.742188 62.40625 93.859375 62.375 C 93.980469 62.375 94.128906 62.40625 94.25 62.464844 L 96.554688 63.808594 L 99.21875 58.109375 L 98.738281 57.839844 C 98.558594 57.722656 98.441406 57.632812 98.46875 57.511719 C 98.46875 57.394531 98.558594 57.304688 98.710938 57.214844 C 98.859375 57.125 99.007812 57.066406 99.1875 57.066406 C 99.367188 57.066406 99.546875 57.09375 99.726562 57.214844 L 101.941406 58.46875 C 102.121094 58.585938 102.242188 58.675781 102.210938 58.796875 C 102.210938 58.914062 102.121094 59.003906 101.972656 59.09375 C 101.820312 59.183594 101.671875 59.242188 101.492188 59.242188 C 101.3125 59.242188 101.132812 59.214844 100.953125 59.09375 L 100.175781 58.648438 L 97.722656 63.867188 L 106.128906 62.078125 L 105.351562 61.628906 C 105.171875 61.511719 105.054688 61.421875 105.082031 61.300781 C 105.082031 61.183594 105.171875 61.09375 105.324219 61.003906 C 105.472656 60.914062 105.621094 60.855469 105.800781 60.855469 C 105.980469 60.855469 106.160156 60.882812 106.339844 61.003906 L 108.523438 62.257812 C 108.734375 62.40625 108.824219 62.523438 108.824219 62.613281 Z M 129.261719 76.425781 L 117.890625 82.960938 C 112.863281 81.230469 106.488281 81.230469 101.433594 82.960938 L 69.023438 64.316406 C 73.03125 61.121094 73.03125 56.765625 69.082031 53.574219 L 79.347656 47.667969 C 84.375 49.367188 90.6875 49.367188 95.714844 47.636719 L 129.292969 66.96875 C 126.269531 69.863281 126.269531 73.535156 129.261719 76.425781 Z M 108.765625 57.363281 C 104.007812 54.621094 94.910156 55.363281 88.5625 59.035156 C 82.21875 62.675781 80.933594 67.925781 85.691406 70.667969 C 90.449219 73.414062 99.546875 72.667969 105.890625 69 C 112.234375 65.328125 113.523438 60.109375 108.765625 57.363281 Z M 187.558594 122.042969 L 155.148438 140.71875 C 150.121094 138.988281 143.746094 138.988281 138.691406 140.71875 L 127.320312 134.183594 C 130.3125 131.289062 130.3125 127.621094 127.320312 124.726562 L 160.894531 105.363281 C 165.894531 107.09375 172.238281 107.09375 177.265625 105.394531 L 187.53125 111.300781 C 183.550781 114.492188 183.578125 118.847656 187.558594 122.042969 Z M 168.019531 116.761719 C 161.671875 113.121094 152.574219 112.375 147.816406 115.089844 C 143.058594 117.835938 144.347656 123.054688 150.691406 126.726562 C 157.035156 130.363281 166.132812 131.109375 170.890625 128.394531 C 175.679688 125.652344 174.363281 120.402344 168.019531 116.761719 Z M 157.003906 124.160156 C 156.855469 124.25 156.734375 124.277344 156.617188 124.277344 C 156.496094 124.277344 156.375 124.25 156.285156 124.160156 C 156.195312 124.101562 156.136719 124.011719 156.136719 123.949219 C 156.136719 123.863281 156.195312 123.800781 156.347656 123.710938 L 158.679688 122.371094 L 149.523438 120.402344 L 149.074219 120.667969 C 148.863281 120.789062 148.6875 120.847656 148.535156 120.820312 C 148.355469 120.820312 148.207031 120.757812 148.058594 120.667969 C 147.90625 120.578125 147.847656 120.492188 147.816406 120.371094 C 147.816406 120.25 147.90625 120.164062 148.117188 120.042969 L 150.300781 118.789062 C 150.480469 118.671875 150.660156 118.640625 150.839844 118.640625 C 151.019531 118.640625 151.167969 118.699219 151.320312 118.789062 C 151.46875 118.878906 151.527344 118.96875 151.558594 119.089844 C 151.558594 119.207031 151.46875 119.296875 151.289062 119.417969 L 150.511719 119.863281 L 158.921875 121.652344 L 156.464844 116.433594 L 155.6875 116.878906 C 155.507812 117 155.328125 117.03125 155.148438 117.03125 C 154.96875 117.03125 154.820312 116.96875 154.671875 116.878906 C 154.519531 116.789062 154.460938 116.703125 154.429688 116.582031 C 154.429688 116.460938 154.519531 116.375 154.699219 116.253906 L 156.914062 115 C 157.09375 114.882812 157.273438 114.851562 157.453125 114.851562 C 157.632812 114.851562 157.78125 114.910156 157.933594 115 C 158.082031 115.089844 158.140625 115.179688 158.171875 115.300781 C 158.171875 115.417969 158.082031 115.507812 157.902344 115.628906 L 157.425781 115.894531 L 160.085938 121.59375 L 162.390625 120.25 C 162.511719 120.164062 162.660156 120.132812 162.78125 120.164062 C 162.902344 120.164062 163.019531 120.191406 163.109375 120.28125 C 163.199219 120.339844 163.257812 120.429688 163.257812 120.492188 C 163.257812 120.578125 163.199219 120.640625 163.050781 120.730469 L 160.445312 122.21875 L 162.273438 123.382812 L 164.875 121.890625 C 164.996094 121.804688 165.144531 121.773438 165.265625 121.773438 C 165.382812 121.773438 165.503906 121.804688 165.59375 121.890625 C 165.683594 121.953125 165.742188 122.042969 165.742188 122.101562 C 165.742188 122.191406 165.683594 122.25 165.5625 122.339844 L 162.960938 123.832031 L 165.355469 125.382812 L 167.058594 124.398438 C 167.238281 124.277344 167.417969 124.25 167.597656 124.25 C 167.777344 124.25 167.929688 124.308594 168.078125 124.398438 C 168.226562 124.488281 168.289062 124.578125 168.289062 124.695312 C 168.289062 124.816406 168.199219 124.90625 168.019531 125.023438 L 163.769531 127.472656 C 163.589844 127.589844 163.378906 127.621094 163.230469 127.621094 C 163.050781 127.621094 162.902344 127.5625 162.75 127.472656 C 162.601562 127.382812 162.542969 127.292969 162.511719 127.171875 C 162.511719 127.054688 162.601562 126.964844 162.78125 126.84375 L 164.488281 125.859375 L 162.09375 124.308594 L 159.488281 125.800781 C 159.339844 125.890625 159.21875 125.917969 159.101562 125.917969 C 158.980469 125.917969 158.859375 125.890625 158.769531 125.800781 C 158.652344 125.742188 158.621094 125.652344 158.621094 125.589844 C 158.621094 125.53125 158.679688 125.441406 158.832031 125.351562 L 161.433594 123.863281 L 159.609375 122.699219 Z M 167.449219 69.089844 L 133.871094 49.757812 C 128.875 51.488281 122.53125 51.488281 117.503906 49.785156 L 111.21875 53.394531 L 125.730469 61.75 C 126.0625 61.539062 126.390625 61.332031 126.75 61.121094 C 133.09375 57.484375 142.191406 56.738281 146.949219 59.453125 C 151.707031 62.195312 150.421875 67.417969 144.078125 71.085938 C 143.71875 71.296875 143.359375 71.476562 143 71.652344 L 143.03125 71.652344 L 143.03125 84.183594 C 147.339844 83.40625 152.15625 83.675781 156.105469 85.046875 L 167.480469 78.515625 C 164.457031 75.621094 164.457031 71.980469 167.449219 69.089844 Z M 146.710938 64.40625 L 144.527344 63.152344 C 144.347656 63.03125 144.167969 63.003906 143.988281 63.003906 C 143.808594 63.003906 143.65625 63.0625 143.507812 63.152344 C 143.359375 63.242188 143.300781 63.332031 143.269531 63.449219 C 143.269531 63.570312 143.359375 63.660156 143.539062 63.777344 L 144.316406 64.226562 L 135.90625 66.015625 L 138.359375 60.792969 L 139.140625 61.242188 C 139.320312 61.363281 139.5 61.390625 139.679688 61.390625 C 139.859375 61.390625 140.007812 61.332031 140.15625 61.242188 C 140.304688 61.152344 140.367188 61.0625 140.394531 60.945312 C 140.394531 60.824219 140.304688 60.734375 140.125 60.617188 L 137.914062 59.363281 C 137.734375 59.242188 137.554688 59.214844 137.375 59.214844 C 137.195312 59.214844 137.042969 59.273438 136.894531 59.363281 C 136.746094 59.453125 136.683594 59.542969 136.65625 59.660156 C 136.65625 59.78125 136.746094 59.871094 136.925781 59.988281 L 137.402344 60.257812 L 134.738281 65.957031 L 132.4375 64.613281 C 132.316406 64.523438 132.167969 64.492188 132.046875 64.523438 C 131.925781 64.523438 131.808594 64.554688 131.71875 64.644531 C 131.628906 64.703125 131.566406 64.792969 131.566406 64.851562 C 131.566406 64.941406 131.628906 65 131.777344 65.089844 L 134.382812 66.582031 L 134.261719 66.671875 L 135.070312 67.148438 L 135.1875 67.058594 L 137.792969 68.550781 C 137.941406 68.640625 138.0625 68.671875 138.179688 68.671875 C 138.300781 68.671875 138.421875 68.640625 138.511719 68.550781 C 138.601562 68.492188 138.660156 68.402344 138.660156 68.34375 C 138.660156 68.253906 138.601562 68.191406 138.449219 68.105469 L 136.117188 66.761719 L 145.273438 64.792969 L 145.722656 65.0625 C 145.933594 65.179688 146.113281 65.238281 146.261719 65.210938 C 146.441406 65.210938 146.589844 65.148438 146.742188 65.0625 C 146.890625 64.972656 146.949219 64.882812 146.980469 64.761719 C 147.011719 64.644531 146.921875 64.523438 146.710938 64.40625 Z M 146.710938 64.40625 " fill-opacity="1" fill-rule="nonzero"/><path fill="#dedce1" d="M 123.816406 60.644531 L 140.964844 50.769531 L 163.167969 63.539062 L 142.96875 75.175781 L 142.96875 71.683594 Z M 123.816406 60.644531 " fill-opacity="1" fill-rule="nonzero"/><g fill="#000000" fill-opacity="1"><g transform="translate(289.042367, 112.423688)"><g><path d="M 34.855469 0 L 38.382812 0 L 30.535156 -35.996094 L 19.464844 -7.101562 L 8.390625 -35.996094 L 0.496094 0 L 4.070312 0 L 9.285156 -24.03125 L 19.464844 1.984375 L 29.59375 -24.03125 Z M 34.855469 0 "/></g></g></g><g fill="#000000" fill-opacity="1"><g transform="translate(327.907215, 112.423688)"><g><path d="M 25.074219 -11.421875 C 25.074219 -14.398438 23.882812 -16.980469 21.597656 -19.214844 C 19.363281 -21.351562 16.683594 -22.441406 13.65625 -22.441406 C 10.476562 -22.441406 7.796875 -21.300781 5.5625 -19.066406 C 3.328125 -16.832031 2.234375 -14.152344 2.234375 -11.023438 C 2.234375 -7.84375 3.328125 -5.164062 5.5625 -2.980469 C 6.605469 -1.9375 7.796875 -1.140625 9.1875 -0.546875 C 10.574219 0.0507812 12.214844 0.347656 14.152344 0.347656 C 16.085938 0.347656 17.972656 -0.25 19.859375 -1.441406 C 21.746094 -2.632812 23.136719 -4.320312 24.082031 -6.40625 L 20.109375 -6.40625 C 19.316406 -5.363281 18.371094 -4.566406 17.230469 -3.972656 C 16.085938 -3.375 14.894531 -3.128906 13.65625 -3.128906 C 11.769531 -3.128906 10.078125 -3.722656 8.589844 -4.964844 C 7.101562 -6.15625 6.15625 -7.695312 5.859375 -9.582031 L 25.074219 -9.582031 Z M 21.398438 -12.5625 L 5.910156 -12.5625 C 6.105469 -13.457031 6.453125 -14.300781 6.953125 -15.09375 C 8.539062 -17.675781 10.773438 -18.96875 13.65625 -18.96875 C 15.492188 -18.96875 17.128906 -18.371094 18.570312 -17.179688 C 20.058594 -15.9375 20.953125 -14.398438 21.398438 -12.5625 Z M 20.257812 -33.8125 L 15.988281 -33.8125 L 12.015625 -26.714844 L 14.796875 -26.714844 Z M 20.257812 -33.8125 "/></g></g></g><g fill="#000000" fill-opacity="1"><g transform="translate(355.206923, 112.423688)"><g><path d="M 0.992188 -18.621094 L 6.453125 -18.621094 L 6.453125 0 L 9.929688 0 L 9.929688 -18.621094 L 15.34375 -18.621094 L 15.34375 -21.847656 L 9.929688 -21.847656 L 9.929688 -30.335938 L 6.453125 -30.335938 L 6.453125 -21.847656 L 0.992188 -21.847656 Z M 0.992188 -18.621094 "/></g></g></g><g fill="#000000" fill-opacity="1"><g transform="translate(371.537101, 112.423688)"><g><path d="M 21.597656 -11.023438 C 21.597656 -8.839844 20.804688 -7 19.265625 -5.460938 C 17.675781 -3.871094 15.839844 -3.128906 13.65625 -3.128906 C 11.46875 -3.128906 9.582031 -3.871094 8.042969 -5.460938 C 6.453125 -7 5.710938 -8.839844 5.710938 -11.023438 C 5.710938 -13.207031 6.453125 -15.042969 8.042969 -16.632812 C 9.582031 -18.171875 11.46875 -18.96875 13.65625 -18.96875 C 15.839844 -18.96875 17.675781 -18.171875 19.265625 -16.632812 C 20.804688 -15.042969 21.597656 -13.207031 21.597656 -11.023438 Z M 25.074219 -11.023438 C 25.074219 -14.152344 23.933594 -16.832031 21.699219 -19.066406 C 19.464844 -21.300781 16.78125 -22.441406 13.65625 -22.441406 C 10.476562 -22.441406 7.796875 -21.300781 5.5625 -19.066406 C 3.328125 -16.832031 2.234375 -14.152344 2.234375 -11.023438 C 2.234375 -7.84375 3.328125 -5.164062 5.5625 -2.980469 C 7.796875 -0.746094 10.527344 0.347656 13.65625 0.347656 C 16.734375 0.347656 19.464844 -0.746094 21.699219 -2.980469 C 23.933594 -5.164062 25.074219 -7.84375 25.074219 -11.023438 Z M 25.074219 -11.023438 "/></g></g></g><g fill="#000000" fill-opacity="1"><g transform="translate(398.836809, 112.423688)"><g><path d="M 21.101562 -10.921875 C 21.101562 -8.789062 20.359375 -6.902344 18.867188 -5.363281 C 17.378906 -3.773438 15.542969 -2.980469 13.40625 -2.980469 C 11.222656 -2.980469 9.382812 -3.773438 7.894531 -5.363281 C 6.40625 -6.902344 5.710938 -8.789062 5.710938 -10.921875 C 5.710938 -13.007812 6.40625 -14.894531 7.894531 -16.484375 C 9.382812 -18.074219 11.222656 -18.867188 13.40625 -18.867188 C 15.542969 -18.867188 17.378906 -18.074219 18.867188 -16.484375 C 20.359375 -14.894531 21.101562 -13.007812 21.101562 -10.921875 Z M 24.578125 0 L 24.578125 -37.238281 L 21.101562 -37.238281 L 21.101562 -18.074219 C 20.902344 -18.371094 20.65625 -18.621094 20.457031 -18.867188 C 18.371094 -21.152344 15.839844 -22.34375 12.859375 -22.34375 C 9.832031 -22.34375 7.300781 -21.152344 5.214844 -18.867188 C 3.226562 -16.582031 2.234375 -13.953125 2.234375 -10.921875 C 2.234375 -7.84375 3.226562 -5.214844 5.214844 -2.980469 C 7.300781 -0.644531 9.832031 0.496094 12.859375 0.496094 C 15.839844 0.496094 18.371094 -0.644531 20.457031 -2.980469 C 20.65625 -3.179688 20.902344 -3.425781 21.101562 -3.722656 L 21.101562 0 Z M 24.578125 0 "/></g></g></g><g fill="#000000" fill-opacity="1"><g transform="translate(427.129216, 112.423688)"><g><path d="M 21.597656 -11.023438 C 21.597656 -8.839844 20.804688 -7 19.265625 -5.460938 C 17.675781 -3.871094 15.839844 -3.128906 13.65625 -3.128906 C 11.46875 -3.128906 9.582031 -3.871094 8.042969 -5.460938 C 6.453125 -7 5.710938 -8.839844 5.710938 -11.023438 C 5.710938 -13.207031 6.453125 -15.042969 8.042969 -16.632812 C 9.582031 -18.171875 11.46875 -18.96875 13.65625 -18.96875 C 15.839844 -18.96875 17.675781 -18.171875 19.265625 -16.632812 C 20.804688 -15.042969 21.597656 -13.207031 21.597656 -11.023438 Z M 25.074219 -11.023438 C 25.074219 -14.152344 23.933594 -16.832031 21.699219 -19.066406 C 19.464844 -21.300781 16.78125 -22.441406 13.65625 -22.441406 C 10.476562 -22.441406 7.796875 -21.300781 5.5625 -19.066406 C 3.328125 -16.832031 2.234375 -14.152344 2.234375 -11.023438 C 2.234375 -7.84375 3.328125 -5.164062 5.5625 -2.980469 C 7.796875 -0.746094 10.527344 0.347656 13.65625 0.347656 C 16.734375 0.347656 19.464844 -0.746094 21.699219 -2.980469 C 23.933594 -5.164062 25.074219 -7.84375 25.074219 -11.023438 Z M 25.074219 -11.023438 "/></g></g></g><g fill="#000000" fill-opacity="1"><g transform="translate(454.428925, 112.423688)"><g><path d="M 6.851562 -3.078125 C 6.007812 -3.675781 5.363281 -4.667969 5.015625 -6.105469 L 1.339844 -6.105469 C 2.085938 -1.589844 4.964844 0.644531 10.03125 0.644531 C 11.222656 0.644531 12.3125 0.546875 13.355469 0.25 C 14.398438 -0.0507812 15.292969 -0.445312 16.136719 -0.992188 C 17.824219 -2.136719 18.667969 -3.871094 18.667969 -6.207031 C 18.667969 -8.589844 17.578125 -10.277344 15.292969 -11.371094 C 14.347656 -11.816406 13.308594 -12.164062 12.164062 -12.414062 C 11.074219 -12.660156 10.03125 -12.960938 9.085938 -13.257812 C 8.09375 -13.554688 7.300781 -13.953125 6.652344 -14.398438 C 6.007812 -14.847656 5.660156 -15.542969 5.660156 -16.535156 C 5.660156 -17.527344 6.058594 -18.273438 6.851562 -18.71875 C 7.644531 -19.214844 8.589844 -19.464844 9.632812 -19.464844 C 10.726562 -19.464844 11.667969 -19.214844 12.414062 -18.816406 C 13.15625 -18.421875 13.753906 -17.625 14.101562 -16.433594 L 17.824219 -16.433594 C 17.378906 -18.621094 16.433594 -20.160156 15.042969 -21.003906 C 13.605469 -21.898438 11.867188 -22.34375 9.730469 -22.34375 C 7.644531 -22.34375 5.808594 -21.746094 4.269531 -20.65625 C 2.78125 -19.511719 1.984375 -17.875 1.984375 -15.691406 C 1.984375 -14.648438 2.285156 -13.703125 2.832031 -12.910156 C 3.425781 -12.066406 4.269531 -11.421875 5.363281 -10.921875 C 6.355469 -10.476562 7.398438 -10.128906 8.492188 -9.832031 C 9.582031 -9.582031 10.625 -9.285156 11.617188 -8.988281 C 13.851562 -8.242188 14.996094 -7.148438 14.996094 -5.757812 C 14.996094 -3.375 13.40625 -2.234375 10.226562 -2.234375 C 8.886719 -2.234375 7.746094 -2.484375 6.851562 -3.078125 Z M 6.851562 -3.078125 "/></g></g></g><g fill="#000000" fill-opacity="1"><g transform="translate(474.382529, 112.423688)"><g/></g></g><g fill="#000000" fill-opacity="1"><g transform="translate(487.784194, 112.423688)"><g><path d="M 21.101562 -10.921875 C 21.101562 -8.789062 20.359375 -6.902344 18.867188 -5.363281 C 17.378906 -3.773438 15.542969 -2.980469 13.40625 -2.980469 C 11.222656 -2.980469 9.382812 -3.773438 7.894531 -5.363281 C 6.40625 -6.902344 5.710938 -8.789062 5.710938 -10.921875 C 5.710938 -13.007812 6.40625 -14.894531 7.894531 -16.484375 C 9.382812 -18.074219 11.222656 -18.867188 13.40625 -18.867188 C 15.542969 -18.867188 17.378906 -18.074219 18.867188 -16.484375 C 20.359375 -14.894531 21.101562 -13.007812 21.101562 -10.921875 Z M 24.578125 0 L 24.578125 -37.238281 L 21.101562 -37.238281 L 21.101562 -18.074219 C 20.902344 -18.371094 20.65625 -18.621094 20.457031 -18.867188 C 18.371094 -21.152344 15.839844 -22.34375 12.859375 -22.34375 C 9.832031 -22.34375 7.300781 -21.152344 5.214844 -18.867188 C 3.226562 -16.582031 2.234375 -13.953125 2.234375 -10.921875 C 2.234375 -7.84375 3.226562 -5.214844 5.214844 -2.980469 C 7.300781 -0.644531 9.832031 0.496094 12.859375 0.496094 C 15.839844 0.496094 18.371094 -0.644531 20.457031 -2.980469 C 20.65625 -3.179688 20.902344 -3.425781 21.101562 -3.722656 L 21.101562 0 Z M 24.578125 0 "/></g></g></g><g fill="#000000" fill-opacity="1"><g transform="translate(516.076602, 112.423688)"><g><path d="M 25.074219 -11.421875 C 25.074219 -14.398438 23.882812 -16.980469 21.597656 -19.214844 C 19.363281 -21.351562 16.683594 -22.441406 13.65625 -22.441406 C 10.476562 -22.441406 7.796875 -21.300781 5.5625 -19.066406 C 3.328125 -16.832031 2.234375 -14.152344 2.234375 -11.023438 C 2.234375 -7.84375 3.328125 -5.164062 5.5625 -2.980469 C 6.605469 -1.9375 7.796875 -1.140625 9.1875 -0.546875 C 10.574219 0.0507812 12.214844 0.347656 14.152344 0.347656 C 16.085938 0.347656 17.972656 -0.25 19.859375 -1.441406 C 21.746094 -2.632812 23.136719 -4.320312 24.082031 -6.40625 L 20.109375 -6.40625 C 19.316406 -5.363281 18.371094 -4.566406 17.230469 -3.972656 C 16.085938 -3.375 14.894531 -3.128906 13.65625 -3.128906 C 11.769531 -3.128906 10.078125 -3.722656 8.589844 -4.964844 C 7.101562 -6.15625 6.15625 -7.695312 5.859375 -9.582031 L 25.074219 -9.582031 Z M 21.398438 -12.5625 L 5.910156 -12.5625 C 6.105469 -13.457031 6.453125 -14.300781 6.953125 -15.09375 C 8.539062 -17.675781 10.773438 -18.96875 13.65625 -18.96875 C 15.492188 -18.96875 17.128906 -18.371094 18.570312 -17.179688 C 20.058594 -15.9375 20.953125 -14.398438 21.398438 -12.5625 Z M 21.398438 -12.5625 "/></g></g></g><g fill="#000000" fill-opacity="1"><g transform="translate(543.128129, 112.423688)"><g/></g></g><g fill="#000000" fill-opacity="1"><g transform="translate(556.529794, 112.423688)"><g><path d="M 7.199219 12.414062 L 7.199219 -3.722656 C 7.347656 -3.425781 7.597656 -3.179688 7.796875 -2.980469 C 9.878906 -0.644531 12.414062 0.496094 15.441406 0.496094 C 18.421875 0.496094 20.953125 -0.644531 23.039062 -2.980469 C 25.023438 -5.214844 26.066406 -7.84375 26.066406 -10.921875 C 26.066406 -13.953125 25.023438 -16.582031 23.039062 -18.867188 C 20.953125 -21.152344 18.421875 -22.34375 15.441406 -22.34375 C 12.414062 -22.34375 9.878906 -21.152344 7.796875 -18.867188 C 7.597656 -18.621094 7.347656 -18.371094 7.199219 -18.074219 L 7.199219 -21.847656 L 3.722656 -21.847656 L 3.722656 12.414062 Z M 22.59375 -10.921875 C 22.59375 -8.789062 21.847656 -6.902344 20.359375 -5.363281 C 18.867188 -3.773438 17.03125 -2.980469 14.894531 -2.980469 C 12.710938 -2.980469 10.875 -3.773438 9.382812 -5.363281 C 7.894531 -6.902344 7.199219 -8.789062 7.199219 -10.921875 C 7.199219 -13.007812 7.894531 -14.894531 9.382812 -16.484375 C 10.875 -18.074219 12.710938 -18.867188 14.894531 -18.867188 C 17.03125 -18.867188 18.867188 -18.074219 20.359375 -16.484375 C 21.847656 -14.894531 22.59375 -13.007812 22.59375 -10.921875 Z M 22.59375 -10.921875 "/></g></g></g><g fill="#000000" fill-opacity="1"><g transform="translate(584.822202, 112.423688)"><g><path d="M 21.101562 -10.921875 C 21.101562 -8.789062 20.359375 -6.902344 18.867188 -5.363281 C 17.378906 -3.773438 15.542969 -2.980469 13.40625 -2.980469 C 11.222656 -2.980469 9.382812 -3.773438 7.894531 -5.363281 C 6.40625 -6.902344 5.710938 -8.789062 5.710938 -10.921875 C 5.710938 -13.007812 6.40625 -14.894531 7.894531 -16.484375 C 9.382812 -18.074219 11.222656 -18.867188 13.40625 -18.867188 C 15.542969 -18.867188 17.378906 -18.074219 18.867188 -16.484375 C 20.359375 -14.894531 21.101562 -13.007812 21.101562 -10.921875 Z M 24.578125 0 L 24.578125 -21.847656 L 21.101562 -21.847656 L 21.101562 -18.074219 C 20.902344 -18.371094 20.65625 -18.621094 20.457031 -18.867188 C 18.371094 -21.152344 15.839844 -22.34375 12.859375 -22.34375 C 9.832031 -22.34375 7.300781 -21.152344 5.214844 -18.867188 C 3.226562 -16.582031 2.234375 -13.953125 2.234375 -10.921875 C 2.234375 -7.84375 3.226562 -5.214844 5.214844 -2.980469 C 7.300781 -0.644531 9.832031 0.496094 12.859375 0.496094 C 15.839844 0.496094 18.371094 -0.644531 20.457031 -2.980469 C 20.65625 -3.179688 20.902344 -3.425781 21.101562 -3.722656 L 21.101562 0 Z M 24.578125 0 "/></g></g></g><g fill="#000000" fill-opacity="1"><g transform="translate(613.114591, 112.423688)"><g><path d="M 21.398438 -10.921875 C 21.398438 -8.789062 20.65625 -6.902344 19.164062 -5.363281 C 17.675781 -3.773438 15.839844 -2.980469 13.703125 -2.980469 C 11.570312 -2.980469 9.730469 -3.773438 8.242188 -5.363281 C 6.753906 -6.902344 6.007812 -8.738281 6.007812 -10.921875 C 6.007812 -13.058594 6.753906 -14.894531 8.242188 -16.484375 C 9.730469 -18.074219 11.570312 -18.867188 13.703125 -18.867188 C 15.839844 -18.867188 17.675781 -18.074219 19.164062 -16.484375 C 20.65625 -14.894531 21.398438 -13.007812 21.398438 -10.921875 Z M 5.910156 2.980469 L 2.332031 2.980469 C 2.730469 5.3125 3.773438 7.347656 5.5625 9.085938 C 7.746094 11.320312 10.425781 12.414062 13.554688 12.414062 C 16.632812 12.414062 19.316406 11.320312 21.550781 9.085938 C 23.734375 6.902344 24.875 4.21875 24.875 1.09375 L 24.875 -21.847656 L 21.398438 -21.847656 L 21.398438 -18.171875 C 21.203125 -18.371094 21.003906 -18.621094 20.804688 -18.867188 C 18.621094 -21.152344 16.085938 -22.34375 13.207031 -22.34375 C 10.128906 -22.34375 7.597656 -21.152344 5.511719 -18.867188 C 3.523438 -16.582031 2.53125 -13.953125 2.53125 -10.921875 C 2.53125 -7.84375 3.523438 -5.214844 5.511719 -2.980469 C 7.597656 -0.644531 10.128906 0.496094 13.207031 0.496094 C 16.1875 0.496094 18.71875 -0.644531 20.804688 -2.980469 C 21.003906 -3.179688 21.203125 -3.425781 21.398438 -3.625 L 21.398438 1.09375 C 21.398438 3.277344 20.605469 5.113281 19.066406 6.652344 C 17.527344 8.191406 15.691406 8.9375 13.554688 8.9375 C 11.371094 8.9375 9.535156 8.191406 7.992188 6.652344 C 6.902344 5.5625 6.207031 4.371094 5.910156 2.980469 Z M 5.910156 2.980469 "/></g></g></g><g fill="#000000" fill-opacity="1"><g transform="translate(641.704822, 112.423688)"><g><path d="M 21.597656 -11.023438 C 21.597656 -8.839844 20.804688 -7 19.265625 -5.460938 C 17.675781 -3.871094 15.839844 -3.128906 13.65625 -3.128906 C 11.46875 -3.128906 9.582031 -3.871094 8.042969 -5.460938 C 6.453125 -7 5.710938 -8.839844 5.710938 -11.023438 C 5.710938 -13.207031 6.453125 -15.042969 8.042969 -16.632812 C 9.582031 -18.171875 11.46875 -18.96875 13.65625 -18.96875 C 15.839844 -18.96875 17.675781 -18.171875 19.265625 -16.632812 C 20.804688 -15.042969 21.597656 -13.207031 21.597656 -11.023438 Z M 25.074219 -11.023438 C 25.074219 -14.152344 23.933594 -16.832031 21.699219 -19.066406 C 19.464844 -21.300781 16.78125 -22.441406 13.65625 -22.441406 C 10.476562 -22.441406 7.796875 -21.300781 5.5625 -19.066406 C 3.328125 -16.832031 2.234375 -14.152344 2.234375 -11.023438 C 2.234375 -7.84375 3.328125 -5.164062 5.5625 -2.980469 C 7.796875 -0.746094 10.527344 0.347656 13.65625 0.347656 C 16.734375 0.347656 19.464844 -0.746094 21.699219 -2.980469 C 23.933594 -5.164062 25.074219 -7.84375 25.074219 -11.023438 Z M 25.074219 -11.023438 "/></g></g></g></svg>