<?xml version="1.0" standalone="no"?>
<!DOCTYPE svg PUBLIC "-//W3C//DTD SVG 20010904//EN"
 "http://www.w3.org/TR/2001/REC-SVG-20010904/DTD/svg10.dtd">
<svg version="1.0" xmlns="http://www.w3.org/2000/svg"
 width="1382.000000pt" height="1346.000000pt" viewBox="0 0 1382.000000 1346.000000"
 preserveAspectRatio="xMidYMid meet">

<g transform="translate(0.000000,1346.000000) scale(0.100000,-0.100000)"
fill="#000000" stroke="none">
<path d="M6242 13210 c-77 -36 -169 -125 -207 -199 -37 -75 -55 -168 -55 -298
l0 -113 -540 0 c-514 0 -542 -1 -593 -20 -64 -24 -132 -88 -159 -149 -12 -25
-22 -76 -25 -122 l-6 -79 -596 0 c-328 0 -641 -5 -696 -10 -349 -34 -646 -263
-756 -583 -41 -119 -49 -188 -49 -418 l0 -205 -38 -22 c-21 -11 -46 -30 -56
-41 -17 -18 -22 -19 -50 -7 -17 7 -54 18 -83 25 -51 12 -52 13 -63 62 -16 64
-51 106 -96 115 -22 4 -70 -2 -132 -16 -147 -34 -185 -84 -152 -200 9 -32 8
-36 -23 -59 -17 -14 -47 -40 -64 -59 -31 -31 -35 -32 -70 -23 -79 22 -144 7
-175 -41 -8 -13 -27 -64 -42 -114 -23 -77 -25 -95 -15 -125 17 -51 46 -77 106
-96 46 -15 53 -20 53 -43 0 -15 7 -50 16 -79 l15 -52 -45 -51 c-38 -42 -46
-57 -46 -90 0 -49 10 -68 78 -146 100 -114 159 -122 253 -35 25 23 29 23 60
10 19 -8 57 -19 85 -26 51 -12 51 -12 63 -65 13 -58 48 -100 93 -111 35 -9
215 32 250 56 39 28 52 77 39 141 -10 44 -9 54 5 69 10 11 21 19 26 19 4 0 8
-72 8 -160 l0 -160 -42 0 c-48 0 -190 -30 -257 -54 -24 -9 -49 -16 -56 -16 -7
0 -30 26 -53 58 -63 89 -86 107 -140 107 -43 0 -58 -8 -176 -90 -155 -109
-176 -131 -176 -190 0 -35 9 -57 51 -118 l51 -75 -56 -74 c-31 -40 -75 -110
-99 -156 l-42 -83 -45 8 c-25 4 -75 8 -112 8 -62 0 -70 -3 -98 -30 -28 -28
-32 -44 -59 -194 -28 -162 -29 -189 -2 -239 17 -31 46 -44 141 -62 l85 -15 3
-35 c1 -19 9 -69 16 -110 8 -41 17 -112 21 -157 l6 -81 -38 -28 c-94 -69 -117
-110 -95 -173 6 -16 54 -92 107 -167 l97 -138 -6 -50 c-11 -98 -89 -211 -171
-250 -24 -12 -79 -20 -168 -25 -153 -9 -198 -26 -247 -92 -51 -71 -72 -143
-68 -229 3 -41 8 -82 11 -90 6 -12 -8 -19 -62 -32 -156 -37 -221 -130 -191
-272 11 -52 40 -115 192 -404 39 -76 42 -84 25 -93 -34 -20 -67 -64 -74 -99
-5 -31 3 -89 23 -157 5 -20 3 -23 -19 -23 -13 0 -86 18 -161 39 -172 50 -213
56 -274 41 -93 -22 -147 -112 -147 -245 0 -71 4 -88 34 -150 71 -146 240 -281
572 -458 l165 -88 -4 -87 c-3 -48 -10 -91 -16 -95 -6 -4 -122 -5 -257 -2 -233
7 -249 6 -292 -13 -58 -26 -75 -53 -86 -138 -36 -294 151 -467 592 -548 71
-13 130 -26 132 -28 4 -4 73 -188 77 -207 2 -9 -27 -20 -100 -37 -176 -40
-273 -100 -308 -190 -16 -41 -16 -47 0 -89 45 -116 252 -196 672 -259 l152
-23 80 -73 c59 -54 78 -77 71 -86 -12 -14 -99 -66 -242 -145 -103 -56 -177
-123 -177 -159 0 -65 60 -108 190 -134 177 -36 560 -46 907 -25 l182 11 78
-27 c65 -23 89 -39 143 -91 132 -127 273 -203 442 -238 64 -13 155 -16 520
-16 244 0 472 -5 508 -10 220 -31 801 -79 1225 -100 683 -34 2158 -43 2428
-14 l47 5 0 -86 c0 -50 4 -85 10 -85 14 0 12 -22 -4 -43 -12 -15 -47 -19 -262
-32 -1354 -82 -2237 -247 -2366 -443 -23 -35 -23 -79 2 -120 109 -178 886
-337 2070 -421 558 -40 699 -43 2060 -39 1374 5 1367 5 1960 53 858 71 1480
181 1746 310 144 70 186 138 135 221 -62 102 -364 204 -832 281 l-167 28 -16
77 c-48 223 -216 404 -432 464 -45 13 -120 18 -316 21 l-258 5 0 328 0 328
108 58 c617 331 1147 792 1466 1278 429 653 560 1373 400 2200 -299 1546 -715
2568 -1329 3266 l-93 106 34 73 c44 95 72 188 85 277 26 189 -60 370 -228 482
-29 19 -53 39 -53 43 0 29 -46 122 -75 151 -85 88 -189 106 -478 82 -316 -26
-485 -13 -585 46 -41 25 -52 19 -80 -48 -27 -63 -35 -128 -24 -179 6 -24 7
-43 4 -43 -3 0 -36 10 -74 22 l-68 22 0 320 c-1 347 -7 413 -54 546 -79 225
-269 427 -487 518 -157 65 -156 65 -891 69 l-668 4 0 33 c0 53 -20 148 -40
186 -22 42 -82 101 -130 126 -33 18 -71 19 -597 22 l-561 3 -4 157 -3 157 -38
79 c-44 92 -124 177 -209 219 -52 26 -62 27 -199 27 -139 0 -146 -1 -207 -30z
m379 -37 c74 -37 145 -104 182 -172 43 -79 57 -151 57 -303 l0 -137 568 -3
567 -3 48 -23 c26 -13 60 -40 77 -60 56 -68 60 -97 60 -416 0 -271 -2 -294
-21 -336 -28 -63 -74 -107 -136 -130 -53 -20 -79 -20 -1580 -20 -1129 0 -1536
3 -1564 12 -55 16 -118 73 -145 132 -23 50 -24 57 -24 351 0 294 1 301 24 350
28 61 56 87 121 117 l50 23 563 3 562 3 0 148 c0 121 4 161 20 214 38 123 134
220 264 269 40 14 72 18 147 15 84 -2 104 -6 160 -34z m-1961 -1093 l0 -99
-677 -3 -678 -3 -75 -27 c-193 -71 -339 -226 -402 -428 l-23 -75 0 -4225 c0
-3578 2 -4233 14 -4280 57 -224 214 -386 451 -466 53 -18 143 -19 2398 -22
l2342 -2 0 -63 c0 -34 -3 -79 -6 -100 l-7 -37 -2341 2 -2341 3 -80 23 c-286
81 -490 272 -587 552 l-33 95 0 4290 0 4290 23 75 c100 315 352 535 679 590
26 4 339 8 696 9 l647 1 0 -100z m4956 81 c330 -68 580 -320 648 -653 14 -68
16 -222 16 -1273 l0 -1197 -82 -76 c-44 -42 -87 -90 -94 -107 -11 -25 -13 181
-14 1220 0 738 -4 1284 -10 1334 -13 115 -43 199 -102 287 -78 117 -203 211
-338 256 -59 20 -92 23 -375 28 l-310 5 -3 24 c-4 23 -6 23 -60 18 -191 -19
-641 -49 -655 -44 -14 5 -17 22 -17 102 l0 95 653 0 c598 0 660 -2 743 -19z
m-702 -223 c3 -24 80 -995 171 -2158 91 -1163 168 -2136 171 -2162 l6 -48
-574 0 c-363 0 -587 -4 -610 -10 -47 -13 -92 -50 -108 -89 -10 -26 -3 -64 70
-341 45 -172 78 -315 75 -318 -4 -4 -699 -62 -1544 -128 -1699 -134 -1583
-120 -1622 -196 -10 -21 -19 -49 -19 -64 0 -42 39 -94 84 -114 41 -18 59 -17
1611 105 863 68 1570 123 1570 122 1 -1 46 -171 100 -377 53 -206 103 -389
110 -407 l13 -32 -51 -6 c-29 -3 -772 -62 -1652 -131 -1412 -110 -1603 -127
-1630 -144 -92 -57 -83 -191 16 -235 35 -16 105 -11 1515 99 814 63 1498 118
1522 121 l42 5 -51 -63 c-29 -34 -66 -91 -83 -127 l-31 -65 -3 -297 -3 -298
-22 -4 c-12 -3 -638 -53 -1392 -111 -753 -58 -1379 -109 -1390 -112 -27 -8
-67 -40 -82 -66 -7 -12 -12 -44 -13 -71 0 -41 5 -53 33 -81 19 -19 47 -37 63
-41 17 -4 612 38 1416 101 763 60 1390 107 1393 104 6 -7 20 -889 14 -890 -67
-9 -4366 -344 -4370 -340 -6 6 -672 8441 -667 8446 2 2 389 33 861 71 l858 67
43 -42 c23 -23 66 -50 94 -61 51 -20 83 -20 1605 -20 l1552 0 50 24 c62 28
128 101 149 163 10 28 16 80 16 130 0 79 1 83 23 84 12 0 146 11 297 23 151
13 296 24 322 25 l47 1 5 -42z m-4251 -85 c4 -49 9 -104 13 -123 l6 -35 -868
-68 c-478 -38 -870 -69 -871 -70 -3 -4 669 -8532 674 -8536 2 -3 990 73 2196
168 1205 94 2198 172 2206 171 11 0 12 -53 7 -313 -3 -171 -9 -367 -12 -435
l-6 -122 -2332 2 c-2196 3 -2334 4 -2390 21 -146 44 -281 146 -355 271 -19 32
-45 94 -58 138 l-23 80 0 4217 c0 3769 2 4223 15 4276 57 217 231 381 459 430
47 10 209 14 697 14 l636 1 6 -87z m4972 57 c145 -50 280 -170 345 -306 62
-129 60 -59 60 -1550 l0 -1360 -34 -85 c-62 -153 -163 -442 -196 -558 l-33
-114 32 -26 31 -26 -25 -90 c-15 -49 -35 -120 -46 -157 l-20 -68 -224 0 c-225
0 -225 0 -225 22 0 12 -76 993 -170 2180 -93 1187 -170 2161 -170 2164 0 3
136 4 303 2 288 -4 305 -5 372 -28z m-7442 -822 c9 -7 24 -43 33 -80 l17 -67
71 -16 c39 -9 87 -24 106 -35 l35 -18 50 46 50 47 3 -440 3 -440 -34 -31 c-18
-17 -41 -35 -51 -41 -17 -9 -17 -16 -5 -88 l13 -77 -26 -23 c-34 -29 -188 -62
-226 -49 -22 7 -31 21 -45 69 -26 86 -27 87 -94 101 -33 7 -78 21 -99 32 l-38
20 -53 -45 c-75 -65 -98 -62 -179 18 -67 67 -92 115 -75 146 5 10 29 37 54 61
l44 43 -18 52 c-10 29 -21 76 -25 105 -3 30 -12 55 -18 57 -153 53 -161 64
-126 186 37 131 71 155 169 121 l54 -18 56 56 c31 31 69 65 84 76 l29 20 -16
61 c-17 63 -11 102 16 119 20 13 150 42 189 43 19 1 43 -5 52 -11z m8451 -165
c98 -35 227 -40 471 -18 249 22 347 17 424 -22 63 -32 94 -71 117 -149 13 -47
21 -56 79 -93 235 -152 277 -407 118 -725 -40 -80 -103 -151 -189 -212 -60
-43 -171 -100 -179 -92 -2 2 1 23 7 46 8 33 21 50 57 77 71 52 136 125 155
177 24 62 10 108 -46 148 -80 58 -96 52 -169 -60 -29 -44 -55 -80 -59 -80 -13
0 -51 43 -47 54 11 29 68 269 81 340 l14 79 -47 47 c-51 51 -123 89 -216 114
-85 23 -287 31 -428 17 -113 -12 -119 -12 -151 9 -42 25 -89 94 -112 162 -27
84 -3 229 35 212 9 -4 47 -18 85 -31z m-220 -229 c74 -24 84 -31 110 -72 16
-25 51 -58 78 -75 26 -16 48 -30 48 -31 -7 -89 -43 -292 -56 -317 -29 -54 -31
-225 -5 -378 12 -68 21 -147 21 -176 0 -108 73 -181 212 -209 l63 -13 -3 -34
c-2 -19 -9 -39 -15 -45 -7 -6 -50 -23 -97 -38 -106 -35 -283 -120 -374 -180
-38 -25 -71 -46 -72 -46 -2 0 -4 369 -4 820 0 451 3 820 7 820 4 0 43 -12 87
-26z m773 -179 c85 -20 148 -51 195 -96 38 -36 39 -39 33 -86 -4 -26 -26 -123
-49 -215 -46 -181 -46 -182 11 -220 35 -23 79 -23 87 -1 18 45 99 153 116 153
10 0 32 -13 49 -29 53 -50 40 -111 -41 -187 -33 -32 -108 -91 -125 -99 -7 -4
-60 -194 -54 -192 4 1 38 -43 75 -98 l68 -99 -17 -63 c-32 -116 -124 -216
-244 -264 -66 -26 -189 -36 -247 -20 -126 34 -186 140 -150 264 l16 56 48 6
c114 16 187 53 254 131 16 19 14 19 -195 19 -210 0 -212 0 -267 27 -66 33 -92
70 -92 136 0 26 -9 97 -21 157 -14 74 -21 151 -22 235 0 109 3 130 21 165 16
28 27 81 39 180 9 77 18 141 19 142 1 1 49 6 106 12 130 12 304 6 387 -14z
m717 -788 c145 -161 351 -445 452 -622 l28 -50 -71 65 c-145 133 -343 214
-627 255 -78 11 -113 21 -123 33 -46 60 -95 144 -87 151 5 4 31 16 57 26 66
24 181 102 242 164 27 28 52 51 56 51 4 0 37 -33 73 -73z m-9816 -54 c26 -36
56 -77 67 -90 l20 -23 89 30 c70 24 236 60 279 60 4 0 7 -60 7 -134 l0 -134
-42 -7 c-192 -30 -363 -117 -497 -255 -52 -53 -131 -170 -157 -233 -14 -34
-29 -50 -61 -67 -101 -53 -203 -201 -249 -358 l-22 -77 -8 65 -9 65 -100 17
c-83 15 -104 22 -122 43 -13 15 -23 33 -23 42 0 31 52 308 60 324 19 34 61 41
150 25 116 -22 115 -23 134 28 22 57 112 201 166 265 l42 50 -56 80 c-65 92
-76 127 -49 158 10 12 74 60 142 107 161 112 172 112 239 19z m8974 -274 c-23
-11 -64 -23 -91 -26 -48 -5 -49 -5 -44 21 5 26 6 26 92 25 l86 -1 -43 -19z
m755 -90 c216 -46 363 -117 473 -228 61 -61 90 -103 152 -216 142 -258 297
-594 369 -802 l18 -52 -39 -43 c-97 -109 -291 -174 -583 -193 l-98 -6 -43 93
c-24 51 -61 137 -81 191 -29 72 -43 97 -56 97 -26 0 -28 -8 -18 -75 4 -33 15
-112 24 -175 8 -63 23 -146 31 -183 15 -63 15 -78 0 -185 -21 -154 -36 -334
-36 -454 l0 -97 -142 -101 c-193 -138 -366 -251 -541 -354 -147 -86 -287 -160
-291 -154 -2 2 -67 250 -146 551 -79 301 -152 561 -161 577 -27 44 -71 61
-173 69 l-91 6 -6 47 c-7 45 -22 272 -35 530 -6 113 -9 127 -26 131 -11 3 -21
0 -23 -6 -8 -21 -73 -399 -81 -465 -3 -34 -10 -64 -13 -67 -23 -14 -381 188
-381 215 0 44 120 393 240 700 66 168 77 190 124 238 68 71 211 179 317 239
81 46 260 123 320 138 l26 6 -5 -73 c-4 -61 -1 -81 16 -114 92 -179 393 -199
581 -37 60 51 115 139 137 219 l17 66 66 -7 c36 -4 107 -15 158 -26z m-9269
-66 l-3 -86 -60 -13 c-153 -31 -318 -145 -392 -271 -24 -42 -25 -43 -53 -28
-16 8 -54 15 -85 15 -35 0 -55 4 -55 12 0 33 111 189 181 253 123 113 304 197
442 204 l28 1 -3 -87z m2 -583 l0 -449 -27 -26 c-61 -57 -122 -50 -195 22 -59
58 -77 102 -123 311 -22 99 -46 181 -66 221 -31 63 -32 65 -15 96 70 129 271
263 414 274 9 1 12 -95 12 -449z m-512 133 c61 -45 91 -119 132 -328 31 -155
52 -206 116 -275 85 -91 170 -113 238 -59 l26 20 0 -248 0 -249 -50 -73 c-83
-120 -311 -413 -317 -407 -5 5 -82 362 -117 546 -42 220 -87 495 -116 715 -11
88 -25 170 -30 182 -18 43 -101 38 -115 -7 -7 -22 31 -318 76 -585 66 -396
165 -862 274 -1293 36 -140 65 -258 65 -262 0 -12 -198 77 -340 152 -215 114
-487 288 -678 435 -96 74 -125 87 -152 73 -22 -12 -40 -41 -40 -63 0 -32 404
-315 660 -463 145 -83 385 -201 515 -253 l81 -31 23 -88 c14 -48 48 -167 78
-264 29 -98 53 -182 53 -188 0 -8 -62 -10 -206 -8 l-206 3 -39 45 c-71 82
-123 158 -216 317 -141 243 -181 301 -267 391 -135 140 -286 240 -424 278 -48
13 -67 24 -77 43 -47 93 -14 246 69 318 42 38 106 53 220 53 113 0 167 20 234
86 132 132 149 280 76 643 -37 182 -41 311 -15 435 54 265 218 445 394 432 28
-2 60 -12 75 -23z m-127 -405 c29 -216 73 -481 114 -693 42 -221 128 -615 134
-614 10 1 192 226 291 359 51 69 94 127 96 129 2 2 4 -9 4 -26 0 -33 -104
-177 -284 -393 -53 -63 -96 -122 -96 -130 0 -19 94 -382 172 -664 82 -300 74
-275 83 -251 37 97 81 197 101 230 l24 40 0 -37 c0 -20 -15 -72 -34 -115 -18
-43 -43 -108 -55 -144 l-22 -66 26 -79 c29 -91 30 -110 11 -117 -16 -6 -14
-12 -110 316 -31 104 -56 194 -56 201 0 7 -44 30 -97 51 -143 55 -398 181
-558 275 -229 135 -594 391 -595 418 0 25 31 10 132 -66 322 -240 643 -429
966 -568 69 -30 127 -52 129 -50 2 2 -10 52 -26 112 -135 496 -267 1105 -345
1589 -71 443 -79 538 -42 504 5 -4 22 -99 37 -211z m8403 -504 c4 -91 5 -168
2 -171 -2 -3 -18 -2 -35 2 -23 5 -31 12 -31 28 -1 40 43 307 50 307 4 0 10
-75 14 -166z m-8766 16 c25 -136 36 -220 30 -220 -3 0 -40 49 -82 109 -97 139
-99 161 -21 219 26 19 42 25 46 18 4 -6 16 -63 27 -126z m11346 -42 c163 -524
350 -1332 391 -1693 34 -294 18 -647 -41 -925 -187 -883 -836 -1655 -1856
-2208 l-78 -43 0 746 0 745 493 0 c491 0 493 0 537 23 55 27 90 83 90 145 0
54 -20 93 -67 129 -36 27 -40 28 -186 31 l-150 3 61 40 c153 100 237 254 262
478 17 153 -5 345 -65 584 l-25 99 26 31 c17 21 23 37 19 51 -23 75 -85 334
-90 379 l-7 53 144 59 c165 68 400 186 538 269 52 32 99 61 103 66 13 12 -11
295 -38 456 -28 164 -63 307 -110 447 -32 96 -32 102 -17 123 10 13 20 24 24
24 4 0 23 -51 42 -112z m-810 -131 l107 -209 -15 -106 c-8 -59 -18 -142 -21
-184 l-7 -77 -84 -65 c-46 -36 -87 -66 -90 -66 -16 0 19 436 46 582 9 46 8 68
-4 110 -14 48 -47 233 -41 226 2 -2 51 -97 109 -211z m752 -32 c63 -217 114
-524 114 -692 l0 -61 -93 -56 c-253 -151 -532 -272 -1082 -471 -192 -70 -438
-160 -547 -201 -108 -41 -200 -74 -205 -74 -8 0 -57 180 -51 185 2 1 55 29
118 62 260 137 548 324 879 571 163 122 384 299 389 311 1 4 -47 108 -108 230
-61 123 -109 225 -108 226 2 1 66 7 143 13 199 17 350 58 445 122 l45 30 13
-38 c7 -20 29 -91 48 -157z m-2918 141 c74 -46 219 -115 313 -147 52 -18 95
-33 96 -34 1 0 5 -20 9 -43 l7 -42 -280 0 -280 0 41 145 c23 80 44 145 49 145
4 0 25 -11 45 -24z m668 -331 c12 -8 26 -27 32 -42 15 -39 442 -1669 441
-1685 -1 -33 -32 78 -229 829 -115 441 -214 812 -220 825 -12 30 -29 50 -60
71 -22 15 -23 17 -4 17 11 0 29 -7 40 -15z m-44 -52 c23 -24 56 -141 249 -875
185 -705 220 -850 209 -863 -11 -13 -148 -15 -1259 -15 -1362 0 -1275 -4
-1300 57 -17 44 -441 1665 -441 1689 0 12 6 25 13 27 6 3 573 6 1258 6 l1245
1 26 -27z m-8032 -1063 c-22 -38 -49 -90 -60 -116 -11 -26 -22 -45 -24 -43
-11 11 -206 753 -206 783 0 9 39 62 86 118 47 57 120 148 162 204 l77 100 3
-488 2 -489 -40 -69z m9766 953 l28 -64 -45 -39 c-24 -22 -48 -39 -53 -40 -9
0 -2 122 11 204 5 35 7 37 19 22 7 -10 25 -47 40 -83z m-11163 -598 c97 -39
203 -111 297 -201 101 -97 156 -172 260 -354 146 -256 249 -399 326 -452 98
-68 217 -102 299 -87 60 11 89 28 158 88 106 93 97 113 97 -207 l0 -278 -35
-145 c-58 -234 -136 -479 -210 -653 l-17 -39 -152 299 c-193 379 -349 669
-541 1004 -217 379 -497 832 -548 888 -37 40 -107 18 -107 -35 0 -13 48 -99
107 -191 228 -358 487 -800 692 -1181 33 -63 60 -115 58 -117 -5 -4 -316 85
-437 126 -376 127 -659 271 -859 438 -88 75 -121 80 -150 24 -18 -34 -7 -54
67 -117 276 -234 776 -453 1349 -592 l116 -28 208 -419 c115 -231 209 -423
209 -428 0 -4 -49 16 -108 46 -226 113 -422 164 -847 221 -148 20 -310 44
-360 55 -168 35 -306 94 -413 176 -53 40 -94 44 -116 12 -9 -12 -16 -33 -16
-45 0 -52 229 -187 403 -237 117 -34 208 -50 487 -86 400 -52 590 -100 792
-200 84 -41 227 -130 278 -172 9 -7 46 -80 83 -161 60 -132 67 -155 67 -211
l0 -63 -139 33 c-384 89 -891 144 -1335 144 l-185 0 -16 -30 c-12 -23 -13 -34
-3 -54 6 -14 18 -28 27 -30 9 -3 115 -7 236 -11 509 -15 944 -66 1300 -153
l110 -27 7 -175 c7 -197 25 -286 82 -404 19 -39 33 -72 32 -73 -8 -9 -244 -26
-431 -31 -495 -15 -844 22 -871 93 -18 45 24 78 253 205 228 127 288 221 175
279 -56 29 -100 38 -302 66 -460 62 -700 154 -700 267 0 25 11 43 53 83 44 43
66 55 137 78 47 15 161 40 253 57 235 42 277 63 277 138 0 87 -52 110 -368
162 -351 59 -487 100 -591 179 -110 82 -145 154 -146 292 0 178 19 186 385
165 192 -11 252 2 313 65 81 86 30 161 -184 273 -350 181 -530 319 -597 456
-55 112 -28 286 51 326 44 23 139 13 262 -26 115 -37 220 -49 265 -30 16 7 40
29 52 49 20 31 23 49 23 141 0 120 -4 131 -140 380 -149 273 -152 373 -15 443
51 26 62 28 140 24 63 -3 103 -11 153 -32z m7037 -71 c12 -47 21 -87 19 -89
-5 -4 -3070 -245 -3117 -245 -97 0 -114 152 -20 175 25 6 2971 242 3049 244
l46 1 23 -86z m-7070 -187 c407 -644 785 -1317 1105 -1970 l102 -207 45 107
c83 195 146 385 212 628 3 11 4 -23 2 -75 -2 -85 -9 -113 -58 -260 -31 -91
-83 -229 -116 -306 l-61 -142 120 -256 c103 -219 120 -263 117 -298 l-3 -42
-45 102 c-44 100 -46 103 -120 156 -281 202 -529 283 -1065 351 -349 44 -488
77 -633 147 -89 43 -202 121 -202 138 0 26 33 18 82 -18 103 -77 259 -142 428
-177 41 -9 193 -32 338 -51 300 -39 460 -71 611 -120 123 -40 296 -122 396
-187 38 -25 71 -44 73 -42 2 2 -107 229 -243 504 l-248 499 -111 28 c-415 101
-816 248 -1067 389 -165 93 -349 234 -349 268 0 28 17 20 87 -39 213 -181 567
-353 993 -483 168 -51 403 -112 408 -106 6 5 -191 369 -340 630 -153 267 -274
468 -430 712 -70 112 -128 207 -128 213 0 5 8 10 18 10 11 -1 41 -38 82 -103z
m11095 -44 c4 -32 24 -128 46 -213 l39 -154 -27 -27 c-34 -34 -105 -71 -114
-61 -13 14 -106 459 -97 467 10 8 134 51 139 49 4 -2 10 -30 14 -61z m-126
-371 l28 -112 -41 -11 c-23 -6 -57 -15 -77 -20 -112 -29 -261 -41 -560 -46
l-316 -5 -22 88 c-12 49 -24 96 -27 106 -6 20 51 43 576 234 l365 132 23 -126
c12 -70 36 -178 51 -240z m-9499 -47 c0 -91 -4 -165 -9 -165 -4 0 -19 36 -31
81 l-23 81 27 84 c15 46 29 84 32 84 2 0 4 -74 4 -165z m-1614 -60 c7 -53 -1
-120 -21 -155 l-14 -25 -15 37 c-23 54 -21 129 5 162 29 36 37 33 45 -19z
m11298 -37 c8 -29 27 -111 42 -183 24 -113 28 -153 28 -310 1 -147 -2 -191
-17 -239 -49 -158 -142 -272 -277 -338 -69 -34 -96 -40 -340 -77 -508 -76
-948 -121 -1196 -121 -56 0 -135 -3 -176 -6 l-75 -7 24 -76 c120 -382 172
-870 159 -1501 -6 -317 -23 -631 -51 -923 -8 -86 -15 -166 -15 -176 0 -12 -12
-22 -41 -30 -23 -7 -43 -10 -45 -8 -3 2 2 64 11 138 27 242 36 390 42 729 10
561 -34 1193 -126 1818 -10 67 -15 124 -13 127 3 3 64 5 136 5 263 0 703 39
1178 105 287 40 308 45 402 92 134 67 226 190 273 363 32 118 19 461 -23 602
-4 14 12 28 83 67 1 1 8 -23 17 -51z m-118 -168 c10 -58 16 -149 16 -235 0
-155 -18 -249 -67 -346 -54 -105 -170 -194 -306 -233 -54 -16 -443 -71 -704
-100 -263 -30 -490 -46 -718 -53 l-228 -6 5 -26 c11 -57 57 -396 76 -566 75
-658 95 -1271 59 -1805 -15 -229 -41 -464 -53 -472 -16 -11 -101 -9 -151 3
-41 10 -44 14 -54 57 -6 26 -72 331 -146 677 -160 743 -320 1477 -450 2062
-86 384 -93 427 -85 477 24 147 128 245 350 330 54 21 68 21 1040 26 963 5
986 5 1018 25 47 28 73 83 79 171 l6 74 -352 0 c-193 0 -351 3 -351 8 0 4 118
8 263 8 287 2 484 19 633 57 l89 22 7 -30 c4 -16 15 -73 24 -125z m-366 -35
c0 -60 -16 -91 -59 -112 -34 -17 -115 -18 -1511 -21 -811 -2 -1498 0 -1526 3
-28 3 -66 16 -85 28 l-34 22 1231 5 1231 5 36 28 c20 15 44 41 52 58 l16 29
324 0 325 0 0 -45z m-9405 -11 c-25 -19 -207 -16 -226 3 -9 9 16 12 117 12
117 0 127 -2 109 -15z m6120 -42 c6 -4 20 -21 32 -38 l21 -31 -51 -16 c-29 -9
-92 -37 -142 -63 l-90 -46 -1550 -123 c-1063 -83 -1558 -119 -1577 -113 -36
13 -63 70 -51 111 18 63 -66 54 1723 195 905 71 1652 130 1660 131 8 0 20 -3
25 -7z m158 -115 l37 -12 -84 -62 c-46 -35 -123 -100 -171 -146 l-88 -82 46
-85 c91 -168 152 -399 178 -674 15 -161 6 -633 -15 -831 -51 -467 -129 -890
-273 -1479 l-55 -228 -78 4 c-43 1 -82 6 -85 10 -4 4 -1 173 6 375 14 379 18
1452 9 2338 l-5 480 22 48 c65 141 179 235 383 318 102 42 115 44 173 26z
m914 -37 c-130 -66 -191 -123 -238 -223 -49 -105 -48 -155 4 -382 25 -104 43
-192 41 -194 -8 -9 -374 1 -484 13 -68 9 -126 14 -128 12 -2 -2 4 -53 14 -112
20 -131 23 -484 5 -674 -48 -505 -186 -1198 -373 -1877 l-30 -113 -52 0 -52 0
38 153 c364 1456 413 2476 144 3020 l-53 107 51 48 c82 76 156 136 241 196
l80 55 425 0 425 0 -58 -29z m-8452 -681 c15 -28 15 -33 0 -55 -17 -27 -41
-33 -31 -8 3 9 6 33 6 55 0 21 2 39 5 39 2 0 12 -14 20 -31z m11243 -89 c33
-21 62 -71 62 -110 0 -34 -28 -79 -60 -95 -26 -13 -150 -15 -1026 -13 l-997 3
-12 35 -13 36 257 12 c375 17 782 61 1181 126 118 19 185 24 360 25 199 1 217
-1 248 -19z m-9780 -660 l-3 -220 -93 199 -94 200 57 132 c31 73 73 181 93
241 l37 108 3 -220 c1 -121 1 -319 0 -440z m6427 590 c66 -5 179 -10 251 -10
128 0 132 -1 137 -22 3 -13 45 -198 92 -413 71 -321 89 -417 99 -545 7 -85 12
-156 11 -158 -1 -1 -190 -17 -419 -35 l-416 -33 5 31 c3 16 9 57 15 90 23 144
51 434 57 601 l6 182 79 7 c68 6 84 11 113 36 52 46 63 126 24 178 -34 46 -88
63 -170 55 -59 -6 -69 -4 -69 9 0 8 -3 23 -7 32 -5 15 -1 16 33 11 21 -4 93
-11 159 -16z m-10 -86 c20 -8 45 -56 45 -88 0 -14 -10 -37 -23 -51 -19 -23
-34 -28 -97 -35 -41 -5 -76 -7 -77 -6 -1 1 -5 43 -9 94 l-7 92 76 0 c41 0 83
-3 92 -6z m-961 -150 c4 -47 5 -88 3 -90 -8 -8 -2791 -224 -2809 -218 -28 9
-58 54 -58 88 0 32 11 51 42 75 12 9 420 45 1375 121 747 59 1377 108 1399
109 l41 1 7 -86z m3014 -781 l-3 -817 -130 -57 c-134 -58 -422 -169 -440 -169
-7 0 -7 50 -2 147 13 229 1 941 -17 1118 -18 166 -56 399 -84 518 l-19 77 348
0 349 0 -2 -817z m242 -288 l0 -1105 -95 0 -95 0 0 1105 0 1105 95 0 95 0 0
-1105z m-9981 600 c146 -25 191 -49 191 -103 0 -13 -13 -26 -36 -37 -44 -21
-206 -55 -216 -46 -6 5 -78 196 -78 207 0 2 10 2 23 -1 12 -2 64 -12 116 -20z
m311 -440 c295 -25 507 -55 738 -104 210 -45 222 -49 222 -71 0 -11 -2 -20 -4
-20 -2 0 -60 13 -129 30 -356 85 -776 134 -1254 147 -244 6 -253 7 -253 26 0
20 4 20 253 13 138 -3 331 -13 427 -21z m8030 -50 c0 -3 41 -192 90 -421 50
-228 90 -423 90 -432 0 -22 -85 -74 -164 -102 -33 -11 -98 -25 -145 -30 -79
-9 -961 -15 -961 -6 0 2 20 89 44 193 43 182 110 507 137 661 10 62 15 72 33
73 12 0 203 15 426 33 466 39 450 38 450 31z m-7850 -330 c16 -8 30 -20 33
-27 5 -15 -10 -48 -21 -48 -10 0 -116 89 -120 100 -4 11 74 -7 108 -25z m9250
-614 l0 -259 -252 -5 c-183 -4 -268 -9 -306 -20 l-53 -15 7 71 c3 40 9 112 12
162 l7 90 65 23 c108 38 367 141 444 177 39 18 72 34 74 34 1 1 2 -115 2 -258z
m-1183 -68 c14 -64 18 -102 12 -109 -13 -16 -150 -70 -229 -90 -56 -15 -142
-18 -607 -21 -299 -3 -543 -1 -543 4 0 4 11 49 23 98 l23 90 525 5 c521 5 524
6 592 29 38 13 92 39 120 57 29 17 55 32 58 33 3 1 15 -43 26 -96z m77 -362
c29 -136 49 -206 60 -214 13 -9 -156 -12 -762 -13 -428 0 -790 -4 -805 -8 -23
-5 -27 -3 -33 20 -4 14 -2 29 3 33 5 3 17 35 27 71 36 137 29 127 99 134 34 4
154 21 267 38 181 27 242 32 515 38 298 6 314 8 398 33 49 15 109 38 135 51
26 13 48 23 50 21 1 -1 22 -93 46 -204z m1950 99 c106 -27 168 -63 252 -145
53 -53 80 -89 106 -145 46 -96 56 -141 64 -278 6 -100 9 -112 26 -112 15 0 18
-8 18 -50 l0 -51 -142 3 -143 3 -3 48 c-3 45 -2 47 24 47 l27 0 -5 115 c-5
103 -9 122 -37 179 -37 76 -101 138 -179 174 l-57 27 -650 0 -651 0 -64 -32
c-36 -17 -65 -31 -67 -30 -3 4 19 222 23 226 3 3 35 13 72 22 60 16 129 18
688 18 587 1 625 0 698 -19z m-3876 -37 l-3 -38 -115 -9 c-166 -13 -1537 -11
-1925 3 -499 17 -1055 51 -1195 71 -30 4 687 8 1593 9 l1648 1 -3 -37z m617
22 c-112 -19 -155 -19 -155 0 0 13 19 15 118 14 l117 -1 -80 -13z m3170 -216
c76 -14 121 -37 175 -91 50 -50 87 -121 66 -126 -8 -2 -106 6 -218 17 -384 39
-854 72 -1256 87 l-173 7 28 29 c34 37 91 67 146 78 65 12 1163 12 1232 -1z
m-3442 -106 c6 -55 4 -57 -71 -79 -103 -30 -142 -22 -226 47 -4 4 -2 23 5 43
l13 36 137 0 136 0 6 -47z m1963 -37 l10 -54 -55 -36 c-71 -47 -92 -52 -153
-32 -28 9 -57 16 -65 16 -15 0 -15 6 3 115 l5 30 83 -3 c46 -2 98 1 117 6 19
6 37 11 40 11 3 1 10 -23 15 -53z m-311 -42 c-9 -60 -14 -74 -29 -74 -16 0
-50 -37 -70 -78 -30 -58 -88 -113 -157 -147 -129 -66 -153 -143 -67 -221 51
-47 88 -59 189 -59 90 0 99 2 170 37 40 21 100 60 132 88 56 48 61 50 118 50
l59 0 0 58 c0 57 1 59 37 83 75 49 102 124 67 190 -8 17 -32 48 -52 71 l-36
40 64 -6 c36 -3 137 -8 225 -11 341 -13 922 -55 1243 -90 74 -8 140 -15 148
-15 11 0 14 -16 14 -65 0 -58 -2 -65 -20 -65 -19 0 -20 -7 -20 -95 l0 -95 185
0 185 0 0 95 c0 88 -1 95 -20 95 -17 0 -20 7 -20 45 0 42 2 45 23 40 12 -2 77
-14 145 -25 513 -85 812 -197 812 -302 0 -51 -129 -124 -320 -181 -992 -299
-3798 -407 -5855 -227 -1052 93 -1700 243 -1749 406 -17 57 118 137 332 199
389 111 1123 211 1882 255 102 6 202 12 223 14 143 15 -172 -109 -348 -136
-68 -11 -84 -18 -112 -46 -42 -41 -44 -82 -7 -111 52 -41 91 -44 439 -38 519
10 655 38 684 143 12 42 -2 106 -35 161 -13 23 -24 44 -24 47 0 9 186 12 899
14 l673 2 -7 -46z m-1927 -21 c74 -50 128 -54 242 -14 95 33 88 35 122 -44 25
-60 23 -100 -7 -124 -57 -44 -235 -66 -630 -77 -281 -7 -362 -2 -396 25 -18
15 -20 21 -10 39 12 23 24 27 198 66 131 29 238 72 320 126 32 21 69 39 83 39
14 1 49 -16 78 -36z m2329 -59 c40 -69 27 -102 -61 -158 -29 -18 -95 -76 -147
-128 -103 -103 -180 -150 -279 -168 -129 -24 -240 28 -240 114 0 29 20 46 93
82 66 31 137 102 168 168 13 25 31 47 43 50 40 11 114 6 151 -10 35 -14 42
-14 81 1 23 9 66 34 96 55 29 21 58 38 63 36 6 -1 20 -20 32 -42z m-97 -264
c0 -13 -7 -20 -20 -20 -18 0 -19 3 -10 20 6 11 15 20 20 20 6 0 10 -9 10 -20z"/>
<path d="M6379 12986 c-59 -21 -96 -53 -123 -108 -71 -143 16 -293 178 -305
79 -6 137 23 183 90 63 94 54 190 -26 268 -65 63 -137 82 -212 55z m141 -58
c52 -27 78 -60 86 -110 18 -109 -56 -200 -162 -200 -49 0 -109 30 -138 68 -38
53 -33 152 11 205 52 61 128 75 203 37z"/>
<path d="M7318 11361 c-735 -58 -1339 -109 -1343 -113 -6 -5 44 -717 50 -726
3 -4 2709 210 2714 214 6 6 -49 716 -55 726 -3 5 -11 7 -17 7 -7 -1 -614 -49
-1349 -108z m1333 22 c0 -21 10 -164 23 -318 13 -154 20 -283 17 -286 -10 -11
-2613 -211 -2621 -202 -10 11 -55 621 -46 630 6 6 2470 207 2594 212 31 1 32
-1 33 -36z"/>
<path d="M4467 11094 c-299 -54 -571 -275 -692 -563 -60 -141 -70 -199 -69
-381 0 -150 3 -173 28 -254 106 -348 382 -600 736 -671 104 -21 322 -16 414 9
176 49 299 120 427 246 137 135 212 263 261 441 20 73 23 106 22 249 0 150 -3
173 -28 255 -144 472 -612 757 -1099 669z m408 -54 c319 -81 572 -335 657
-660 32 -122 32 -330 0 -448 -42 -157 -109 -276 -220 -394 -116 -123 -270
-214 -437 -259 -118 -32 -337 -33 -453 -1 -157 43 -276 109 -394 220 -445 420
-356 1154 177 1453 80 45 224 94 317 108 90 14 259 5 353 -19z"/>
<path d="M4480 10996 c-259 -55 -470 -219 -590 -457 -71 -142 -94 -253 -87
-417 10 -243 93 -423 266 -584 92 -86 189 -143 314 -187 100 -35 104 -36 262
-36 180 0 239 11 364 71 101 47 186 110 263 193 86 92 143 189 187 314 35 101
36 104 36 262 0 187 -12 241 -81 380 -84 171 -216 302 -389 385 -55 27 -127
56 -160 65 -82 23 -300 29 -385 11z m368 -51 c37 -9 108 -36 157 -60 418 -201
579 -730 346 -1130 -53 -91 -110 -158 -111 -130 -2 102 -23 252 -40 288 -50
107 -152 176 -271 185 l-69 5 32 35 c126 144 94 382 -65 487 -143 93 -296 82
-417 -31 -74 -70 -104 -138 -105 -244 0 -73 4 -93 28 -141 15 -31 47 -75 71
-97 l43 -40 -56 -11 c-31 -6 -71 -19 -89 -29 -53 -29 -114 -94 -139 -149 -30
-65 -36 -122 -26 -250 5 -57 5 -103 2 -103 -15 0 -146 150 -178 203 -83 139
-115 261 -115 432 0 153 14 217 79 350 164 339 552 519 923 430z m-79 -336
c64 -32 106 -78 138 -149 22 -47 22 -173 1 -222 -19 -44 -92 -125 -120 -133
-13 -5 -18 -14 -16 -28 3 -21 8 -22 108 -22 82 -1 113 -5 140 -19 127 -67 155
-130 174 -393 l6 -83 -62 -46 c-76 -56 -199 -116 -288 -138 -200 -51 -435 -20
-601 80 l-56 34 -6 91 c-17 227 -7 282 61 352 53 55 102 77 203 90 81 10 89
13 89 33 0 14 -8 24 -23 28 -34 8 -104 72 -131 119 -49 85 -53 193 -10 283 22
46 105 119 157 137 23 9 72 16 108 16 55 1 76 -4 128 -30z"/>
<path d="M7240 10068 c-885 -71 -1143 -94 -1170 -107 -47 -22 -80 -73 -80
-126 0 -78 60 -125 157 -125 32 1 583 42 1224 93 1284 102 1200 91 1239 167
26 51 26 100 -1 134 -34 44 -70 56 -156 55 -43 -1 -589 -42 -1213 -91z m1313
32 c14 -11 28 -33 32 -49 7 -35 -15 -85 -45 -101 -29 -15 -2419 -204 -2449
-193 -13 4 -33 20 -44 35 -17 23 -19 34 -11 64 19 77 -66 65 1230 168 643 52
1190 94 1215 95 33 1 54 -5 72 -19z"/>
<path d="M6522 9604 c-388 -31 -405 -34 -442 -58 -91 -60 -71 -201 34 -236 23
-7 156 0 508 29 527 42 516 40 552 115 22 46 20 82 -5 123 -47 75 -62 76 -647
27z m593 -30 c41 -44 39 -103 -5 -134 -24 -17 -80 -24 -466 -55 -528 -42 -524
-42 -552 -12 -45 49 -36 116 20 142 23 10 164 26 453 49 536 43 520 43 550 10z"/>
<path d="M6680 8914 c-1490 -118 -1821 -146 -1848 -160 -98 -51 -94 -193 7
-238 38 -18 72 -15 1907 129 2013 158 1902 146 1948 208 31 42 29 117 -4 152
-39 41 -73 55 -137 54 -32 -1 -875 -66 -1873 -145z m1961 76 c25 -25 30 -36
27 -71 -2 -32 -10 -47 -30 -62 -26 -19 -161 -31 -1890 -167 -1268 -100 -1871
-144 -1889 -138 -39 13 -65 67 -53 109 19 66 -89 54 1914 212 1009 79 1848
145 1863 146 19 1 38 -9 58 -29z"/>
<path d="M4518 8883 c-81 -81 -148 -143 -148 -137 0 6 -106 1 -282 -13 l-282
-22 -22 20 c-12 11 -37 22 -57 26 -48 7 -83 -16 -98 -65 -9 -33 -8 -44 6 -72
14 -26 23 -103 41 -325 13 -159 24 -297 24 -305 0 -14 43 -12 357 13 197 15
360 30 362 33 3 2 -3 104 -12 226 l-18 222 154 156 c244 247 249 253 245 302
-2 35 -9 46 -37 65 -61 41 -71 36 -233 -124z m230 54 c3 -21 -50 -79 -340
-372 -188 -191 -353 -351 -366 -356 -13 -5 -30 -6 -37 -1 -8 4 -86 104 -174
221 -119 158 -161 222 -161 242 0 29 23 49 54 49 9 0 81 -87 161 -193 l145
-193 317 319 c175 175 327 323 338 327 27 11 59 -11 63 -43z m-418 -235 c0 -4
-66 -74 -148 -155 l-147 -147 -98 131 c-54 72 -97 133 -95 135 3 3 279 28 471
43 9 0 17 -2 17 -7z m-496 -350 c183 -245 177 -244 373 -50 121 121 143 138
143 118 1 -14 7 -97 14 -185 8 -88 13 -161 12 -161 -1 -2 -631 -52 -632 -50
-1 0 -9 96 -18 211 -9 116 -18 227 -21 248 -3 20 -3 37 -1 37 2 0 60 -76 130
-168z"/>
<path d="M5975 8453 c-840 -67 -1078 -89 -1105 -102 -73 -34 -100 -121 -59
-188 26 -42 66 -63 121 -63 54 0 2215 168 2244 175 35 8 81 58 94 102 11 36
10 46 -6 79 -30 60 -74 84 -153 83 -36 -1 -547 -40 -1136 -86z m1226 18 c60
-60 27 -143 -62 -155 -24 -4 -538 -45 -1142 -92 -1005 -78 -1100 -84 -1122
-70 -31 20 -49 75 -36 109 22 58 -20 52 1163 147 607 48 1118 88 1136 89 25 1
41 -7 63 -28z"/>
<path d="M6825 7815 c-990 -79 -1821 -145 -1846 -147 -80 -8 -134 -67 -132
-145 2 -68 65 -123 143 -123 95 0 3721 290 3738 299 67 36 93 130 53 194 -23
38 -82 68 -129 66 -15 -1 -837 -66 -1827 -144z m1891 87 c21 -15 44 -57 44
-83 0 -35 -33 -76 -68 -83 -53 -12 -3725 -296 -3743 -291 -30 10 -59 55 -59
92 0 33 37 82 64 84 6 0 819 65 1806 143 987 79 1829 144 1870 145 41 0 80 -3
86 -7z"/>
<path d="M4765 7922 c-11 -2 -83 -66 -160 -143 -78 -77 -144 -137 -147 -134
-3 4 -133 -3 -288 -15 l-281 -22 -22 20 c-47 44 -114 36 -142 -17 -19 -38 -19
-66 0 -99 11 -19 22 -114 39 -330 13 -166 25 -304 27 -306 6 -6 709 51 715 57
3 3 -2 105 -12 227 l-18 221 160 162 c227 230 244 250 244 290 0 56 -57 100
-115 89z m64 -74 c15 -26 14 -27 -96 -145 -61 -65 -222 -228 -356 -361 -200
-200 -249 -243 -268 -240 -18 2 -60 50 -157 178 -204 270 -207 275 -194 306
10 21 18 25 45 22 29 -3 46 -21 173 -190 l141 -186 324 324 c348 349 354 353
388 292z m-419 -256 c0 -4 -65 -72 -144 -151 l-144 -143 -91 121 c-50 66 -94
127 -97 135 -4 10 31 16 173 25 98 7 183 14 188 16 20 7 115 5 115 -3z m-348
-516 c12 -9 38 -16 57 -16 31 0 49 14 171 135 75 74 138 135 141 135 8 0 33
-349 26 -356 -6 -7 -618 -56 -624 -50 -4 3 -42 441 -43 485 0 8 56 -60 124
-151 69 -92 135 -173 148 -182z"/>
<path d="M6080 7350 c-602 -48 -1104 -90 -1116 -94 -11 -3 -33 -20 -49 -36
-22 -23 -29 -42 -33 -83 -4 -47 -1 -57 24 -86 56 -67 -26 -69 1223 29 1048 83
1136 91 1167 111 121 75 57 253 -89 248 -17 -1 -525 -41 -1127 -89z m1210 18
c46 -49 36 -112 -20 -140 -29 -15 -227 -33 -1130 -103 -602 -47 -1111 -85
-1132 -85 -28 0 -42 7 -62 31 -14 17 -26 43 -26 58 0 39 34 79 74 86 53 10
2103 172 2193 174 73 1 85 -1 103 -21z"/>
<path d="M4689 6674 c-81 -80 -148 -141 -150 -136 -3 7 -96 3 -281 -11 l-276
-22 -27 22 c-37 32 -98 31 -130 -2 -28 -28 -34 -87 -11 -120 9 -14 20 -118 36
-325 13 -168 24 -306 26 -308 2 -3 714 49 721 52 1 1 -6 102 -16 226 l-18 225
198 202 c139 142 199 210 204 232 12 55 -35 110 -94 111 -31 0 -49 -15 -182
-146z m219 94 c7 -7 12 -25 12 -40 0 -24 -55 -84 -347 -379 -283 -285 -353
-349 -374 -349 -23 0 -50 32 -193 222 -102 136 -166 230 -166 244 0 25 26 44
58 44 14 0 62 -57 162 -190 78 -104 143 -190 144 -190 1 0 148 146 326 325
215 215 332 325 346 325 11 0 25 -5 32 -12z m-408 -276 c0 -17 -290 -296 -298
-287 -19 21 -192 255 -190 256 8 2 418 36 451 38 20 0 37 -2 37 -7z m-482
-358 c129 -173 154 -194 210 -173 15 5 86 69 159 141 l131 131 6 -34 c12 -77
26 -323 19 -329 -7 -6 -553 -51 -608 -50 -20 0 -22 11 -38 233 -20 265 -20
264 -8 252 4 -6 63 -83 129 -171z"/>
<path d="M6201 6249 c-608 -48 -1118 -90 -1135 -93 -69 -14 -119 -103 -96
-171 14 -42 60 -82 103 -90 18 -3 539 34 1159 83 1083 86 1128 90 1158 112 59
42 75 118 39 176 -23 37 -47 54 -94 64 -16 3 -527 -33 -1134 -81z m1166 26
c29 -21 46 -75 34 -108 -6 -14 -24 -33 -40 -42 -23 -11 -283 -35 -1106 -100
-592 -47 -1103 -86 -1136 -87 -56 -3 -63 -1 -85 25 -16 19 -24 40 -24 66 0 52
34 82 97 88 162 16 2138 171 2183 172 35 1 64 -5 77 -14z"/>
<path d="M4780 5574 c-83 -81 -150 -144 -150 -138 0 6 -102 2 -282 -12 l-282
-23 -29 25 c-56 47 -127 25 -148 -46 -10 -33 -9 -43 6 -66 14 -22 22 -86 42
-333 13 -168 26 -308 29 -310 4 -4 415 25 654 46 l66 5 -18 226 -18 226 163
166 c226 228 237 242 237 288 0 47 -31 80 -84 89 -36 6 -38 4 -186 -143z m228
53 c3 -22 -48 -77 -343 -375 -326 -330 -374 -372 -403 -353 -5 3 -81 103 -170
222 -172 229 -186 258 -138 281 14 6 32 8 40 5 8 -3 79 -91 156 -194 l142
-189 316 319 c174 176 326 323 337 327 27 11 59 -11 63 -43z m-418 -234 c0 -4
-66 -74 -147 -155 l-147 -147 -98 132 c-75 100 -95 133 -83 135 13 3 373 35
458 41 9 0 17 -2 17 -6z m-490 -357 c115 -155 148 -186 201 -186 16 0 66 43
166 142 101 101 143 136 143 123 0 -11 7 -94 14 -185 8 -91 14 -165 13 -166
-3 -2 -632 -52 -633 -50 -1 0 -9 100 -18 221 -9 121 -19 233 -21 249 -7 41 3
30 135 -148z"/>
<path d="M6235 5143 c-845 -67 -1077 -88 -1104 -101 -133 -64 -88 -252 61
-252 54 0 2191 167 2235 175 43 8 88 53 103 102 11 36 10 46 -6 79 -30 60 -74
84 -153 83 -36 -1 -547 -40 -1136 -86z m1226 18 c60 -60 27 -143 -62 -155 -24
-3 -537 -44 -1139 -91 -752 -59 -1101 -83 -1116 -76 -31 14 -57 76 -47 108 22
65 -41 57 1164 153 607 48 1119 88 1137 89 25 1 41 -7 63 -28z"/>
<path d="M4310 4312 c-173 -14 -316 -26 -317 -26 -3 -2 55 -717 59 -721 5 -5
709 53 715 58 3 3 -7 153 -21 334 -14 180 -26 340 -26 356 0 26 -2 27 -47 26
-27 -1 -190 -13 -363 -27z m390 -332 c12 -171 21 -313 18 -316 -7 -6 -619 -56
-625 -50 -5 4 -55 628 -51 631 5 3 510 42 573 44 l61 1 24 -310z"/>
<path d="M6333 4040 c-911 -72 -1107 -91 -1128 -104 -39 -25 -65 -75 -65 -123
0 -51 44 -108 94 -121 48 -14 2269 162 2314 182 67 32 92 126 52 191 -23 37
-83 66 -133 64 -17 -1 -528 -41 -1134 -89z m1217 18 c46 -49 36 -112 -20 -140
-29 -14 -233 -33 -1135 -103 -605 -47 -1114 -85 -1132 -85 -40 0 -83 48 -83
92 0 36 48 88 82 89 13 0 491 38 1063 83 572 46 1077 84 1122 85 73 1 85 -2
103 -21z"/>
<path d="M2128 10687 c-62 -20 -121 -69 -153 -128 -25 -45 -30 -65 -30 -124 0
-81 17 -124 73 -181 71 -73 196 -99 287 -60 127 54 193 222 138 347 -28 62
-99 124 -164 143 -61 19 -99 19 -151 3z m173 -64 c35 -19 64 -43 84 -71 26
-38 30 -53 30 -110 0 -82 -32 -144 -97 -187 -137 -91 -328 12 -328 177 1 168
161 266 311 191z"/>
<path d="M10586 6828 c-150 -79 -467 -148 -748 -164 l-118 -7 6 -62 c8 -77 -5
-121 -50 -165 -71 -68 -194 -71 -279 -6 -49 37 -96 122 -99 180 l-2 39 -176
-7 c-308 -11 -559 -49 -720 -108 -53 -19 -64 -27 -62 -43 2 -11 44 -172 93
-359 49 -186 89 -340 89 -342 0 -2 543 -4 1206 -4 1143 0 1205 1 1200 18 -3 9
-62 233 -131 497 -69 264 -130 497 -136 518 -11 42 -19 44 -73 15z m34 -43 c0
-3 56 -219 125 -481 69 -261 125 -477 125 -479 0 -3 -520 -4 -1157 -3 l-1156
3 -83 315 c-46 173 -83 320 -84 326 -1 38 345 105 610 119 63 3 145 8 181 11
l66 5 11 -43 c24 -95 95 -172 192 -209 100 -38 193 -17 261 58 42 46 60 92 62
160 l2 48 100 7 c246 17 490 66 646 131 90 37 99 40 99 32z"/>
<path d="M9410 6748 c-57 -39 -75 -72 -75 -138 0 -77 37 -132 115 -173 91 -47
177 -28 223 52 23 38 24 118 3 158 -53 102 -188 153 -266 101z m120 -28 c11 0
36 -15 56 -32 91 -80 84 -201 -14 -227 -43 -12 -97 -1 -134 29 -59 46 -78 158
-34 199 25 24 73 42 94 35 8 -2 22 -4 32 -4z"/>
<path d="M875 10280 c-64 -19 -95 -68 -95 -150 0 -42 -3 -49 -24 -54 -13 -3
-45 -21 -72 -40 l-50 -33 -49 28 c-59 34 -98 36 -143 9 -33 -20 -91 -102 -123
-174 -31 -71 -3 -139 74 -181 l32 -17 -1 -91 -1 -90 -35 -18 c-52 -27 -88 -74
-88 -115 0 -57 92 -223 135 -242 41 -19 96 -14 141 12 l42 23 43 -29 c24 -17
59 -37 77 -44 30 -13 32 -17 32 -65 0 -63 21 -109 59 -132 45 -26 232 -24 276
3 40 25 47 39 54 115 6 58 7 60 47 80 22 11 54 30 71 42 l31 23 55 -29 c46
-24 61 -28 96 -21 23 4 53 18 67 31 42 39 114 172 114 210 0 46 -31 93 -79
121 l-41 23 0 93 c0 50 4 92 8 92 5 0 29 14 55 31 51 33 72 78 61 125 -9 38
-80 162 -112 196 -38 41 -79 45 -150 13 l-59 -26 -63 40 c-35 23 -67 41 -72
41 -4 0 -8 21 -8 48 0 54 -24 108 -60 133 -29 20 -197 33 -245 19z m230 -66
c21 -23 25 -37 25 -93 l0 -67 57 -28 c32 -15 75 -42 95 -58 l38 -30 54 31 c94
54 120 43 186 -82 56 -106 52 -125 -32 -175 l-56 -33 0 -115 0 -114 28 -15
c104 -54 113 -96 44 -210 -65 -107 -92 -117 -176 -65 -26 17 -53 30 -59 30 -6
0 -25 -11 -43 -25 -17 -13 -57 -36 -88 -50 l-56 -25 -4 -70 c-6 -109 -40 -130
-193 -115 -94 9 -110 26 -110 122 l0 63 -60 28 c-33 16 -75 42 -94 57 l-33 28
-63 -31 c-34 -18 -69 -32 -77 -32 -30 0 -64 39 -106 121 -53 104 -50 122 34
171 l57 33 0 113 1 113 -55 32 c-43 27 -56 40 -63 69 -8 33 -5 43 39 117 26
45 55 86 65 91 32 17 71 11 122 -20 57 -35 56 -35 80 -13 10 9 51 33 91 53
l72 37 3 71 c3 63 6 74 29 92 22 17 40 20 125 20 94 0 100 -1 123 -26z"/>
<path d="M865 9811 c-126 -58 -188 -215 -135 -339 44 -101 156 -169 264 -160
138 12 236 123 236 269 0 104 -80 211 -178 239 -58 16 -142 12 -187 -9z m190
-45 c172 -80 177 -305 8 -390 -83 -42 -214 -5 -270 76 -58 85 -38 221 43 286
67 54 143 64 219 28z"/>
</g>
</svg>
